0
SECTION
2
HEADER
9
$INSUNITS
70
1
9
$ACADVER
1
AC1014
9
$HANDSEED
5
FFFF
0
ENDSEC
0
SECTION
2
TABLES
0
TABLE
2
VPORT
5
8
100
AcDbSymbolTable
0
ENDTAB
0
TABLE
2
LTYPE
5
5
100
AcDbSymbolTable
0
LTYPE
5
14
100
AcDbSymbolTableRecord
100
AcDbLinetypeTableRecord
2
BYBLOCK
70
0
0
LTYPE
5
15
100
AcDbSymbolTableRecord
100
AcDbLinetypeTableRecord
2
BYLAYER
70
0
0
ENDTAB
0
TABLE
2
LAYER
5
2
100
AcDbSymbolTable
70
2
0
LAYER
5
50
100
AcDbSymbolTableRecord
100
AcDbLayerTableRecord
2
0
70
0
6
CONTINUOUS
0
ENDTAB
0
TABLE
2
STYLE
5
3
100
AcDbSymbolTable
70
1
0
STYLE
5
11
100
AcDbSymbolTableRecord
100
AcDbTextStyleTableRecord
2
STANDARD
70
0
0
ENDTAB
0
TABLE
2
VIEW
5
6
100
AcDbSymbolTable
70
0
0
ENDTAB
0
TABLE
2
UCS
5
7
100
AcDbSymbolTable
70
0
0
ENDTAB
0
TABLE
2
APPID
5
9
100
AcDbSymbolTable
70
2
0
APPID
5
12
100
AcDbSymbolTableRecord
100
AcDbRegAppTableRecord
2
ACAD
70
0
0
ENDTAB
0
TABLE
2
DIMSTYLE
5
A
100
AcDbSymbolTable
70
1
0
ENDTAB
0
TABLE
2
BLOCK_RECORD
5
1
100
AcDbSymbolTable
70
1
0
BLOCK_RECORD
5
1F
100
AcDbSymbolTableRecord
100
AcDbBlockTableRecord
2
*MODEL_SPACE
0
BLOCK_RECORD
5
1B
100
AcDbSymbolTableRecord
100
AcDbBlockTableRecord
2
*PAPER_SPACE
0
ENDTAB
0
ENDSEC
0
SECTION
2
BLOCKS
0
BLOCK
5
20
100
AcDbEntity
100
AcDbBlockBegin
2
*MODEL_SPACE
0
ENDBLK
5
21
100
AcDbEntity
100
AcDbBlockEnd
0
BLOCK
5
1C
100
AcDbEntity
100
AcDbBlockBegin
2
*PAPER_SPACE
0
ENDBLK
5
1D
100
AcDbEntity
100
AcDbBlockEnd
0
ENDSEC
0
SECTION
2
ENTITIES
0
LINE
5
100
100
AcDbEntity
8
0
100
AcDbLine
10
-22.228285384343149
20
10.391932422985771
30
0
11
-18.188918993867652
21
11.620496470787396
31
0
0
LINE
5
101
100
AcDbEntity
8
0
100
AcDbLine
10
-23.86059643228457
20
1.7061481353631396
30
0
11
-23.87940384081449
21
-4.8209399598404765
31
0
0
LINE
5
102
100
AcDbEntity
8
0
100
AcDbLine
10
-23.87940384081449
20
-4.8209399598404765
30
0
11
-13.945862049061974
21
-4.8386190915575442
31
0
0
LINE
5
103
100
AcDbEntity
8
0
100
AcDbLine
10
-13.918786208511273
20
10.374740815570464
30
0
11
-13.948515503138097
21
-6.3295405564491976
31
0
0
SPLINE
5
104
100
AcDbEntity
8
0
100
AcDbSpline
70
1064
71
5
72
41
73
35
74
0
42
0.000000001
43
0.0000000001
44
0.0000000001
40
0
40
0
40
0
40
0
40
0
40
0
40
0.033333333333333333
40
0.066666666666666666
40
0.10000000000000001
40
0.13333333333333333
40
0.16666666666666666
40
0.19999999999999998
40
0.23333333333333331
40
0.26666666666666666
40
0.29999999999999999
40
0.33333333333333331
40
0.36666666666666664
40
0.39999999999999997
40
0.43333333333333329
40
0.46666666666666662
40
0.49999999999999994
40
0.53333333333333333
40
0.56666666666666665
40
0.59999999999999998
40
0.6333333333333333
40
0.66666666666666663
40
0.69999999999999996
40
0.73333333333333328
40
0.76666666666666661
40
0.79999999999999993
40
0.83333333333333326
40
0.86666666666666659
40
0.89999999999999991
40
0.93333333333333324
40
0.96666666666666656
40
1
40
1
40
1
40
1
40
1
40
1
10
-22.228285384343149
20
10.391932422985771
30
0
10
-22.1976698037872
20
10.333109249135134
30
0
10
-22.13586107384495
20
10.212250699570786
30
0
10
-22.041415331873576
20
10.021326334247307
30
0
10
-21.913061843062916
20
9.74863570101299
30
0
10
-21.754705636145218
20
9.384387622804045
30
0
10
-21.6064379261027
20
9.0057596205255397
30
0
10
-21.476504769027802
20
8.6221972837555878
30
0
10
-21.371731050429261
20
8.2418187838033159
30
0
10
-21.295922907204396
20
7.8697143778723939
30
0
10
-21.248046491738481
20
7.5060340527707492
30
0
10
-21.223733574640729
20
7.1472801572979989
30
0
10
-21.216992110121787
20
6.7878037939009683
30
0
10
-21.221846211078869
20
6.4212194330504451
30
0
10
-21.233943916790775
20
6.0418181720355566
30
0
10
-21.252313159172857
20
5.6460483095226701
30
0
10
-21.280700812057965
20
5.2337965987191977
30
0
10
-21.325488511285446
20
4.8079154997056932
30
0
10
-21.393912444393564
20
4.3739487393164991
30
0
10
-21.492240575033495
20
3.9397798197074381
30
0
10
-21.623807658265992
20
3.5153905588980456
30
0
10
-21.787441878866666
20
3.1124585750095868
30
0
10
-21.974816400206539
20
2.7443567423233404
30
0
10
-22.171364628121975
20
2.4248417122352377
30
0
10
-22.361577042535153
20
2.1652626768628029
30
0
10
-22.533554340621006
20
1.9718113031554199
30
0
10
-22.683082038524716
20
1.8433735155455724
30
0
10
-22.819856382218131
20
1.767484003235738
30
0
10
-22.967021462807253
20
1.7218498727044707
30
0
10
-23.146482347354151
20
1.6871871074648683
30
0
10
-23.363021763410607
20
1.6616201205274699
30
0
10
-23.557001093580048
20
1.6592727162796639
30
0
10
-23.707736940618219
20
1.6748926984124966
30
0
10
-23.809440277954387
20
1.69424125873362
30
0
10
-23.86059643228457
20
1.7061481353631396
30
0
0
SPLINE
5
105
100
AcDbEntity
8
0
100
AcDbSpline
70
1064
71
5
72
31
73
25
74
0
42
0.000000001
43
0.0000000001
44
0.0000000001
40
0
40
0
40
0
40
0
40
0
40
0
40
0.050000000000000003
40
0.10000000000000001
40
0.15000000000000002
40
0.20000000000000001
40
0.25
40
0.29999999999999999
40
0.34999999999999998
40
0.39999999999999997
40
0.44999999999999996
40
0.49999999999999994
40
0.54999999999999993
40
0.59999999999999998
40
0.65000000000000002
40
0.70000000000000007
40
0.75000000000000011
40
0.80000000000000016
40
0.8500000000000002
40
0.90000000000000024
40
0.95000000000000029
40
1
40
1
40
1
40
1
40
1
40
1
10
-18.188918993867652
20
11.620496470787396
30
0
10
-18.178448246520535
20
11.578118618466497
30
0
10
-18.154815929793919
20
11.491021241384587
30
0
10
-18.111294705302619
20
11.353349955958128
30
0
10
-18.038475793683386
20
11.158145352608633
30
0
10
-17.929772851426812
20
10.908420666939072
30
0
10
-17.810913061904824
20
10.670154004532272
30
0
10
-17.686778785659818
20
10.45971771785938
30
0
10
-17.556795942141179
20
10.288739656070669
30
0
10
-17.411034388946092
20
10.159126120701652
30
0
10
-17.234123390096478
20
10.065253551405419
30
0
10
-17.010990642187583
20
9.9976443966305162
30
0
10
-16.731529360071406
20
9.9458254722801271
30
0
10
-16.396876072594122
20
9.9019033911275027
30
0
10
-16.02173896391654
20
9.862389587291597
30
0
10
-15.628551356017992
20
9.8265950920890326
30
0
10
-15.243421819260691
20
9.7957584050408339
30
0
10
-14.891612721446227
20
9.7719404855716796
30
0
10
-14.592915352129417
20
9.7569725923137884
30
0
10
-14.357699957187059
20
9.7515187432480772
30
0
10
-14.180710556355939
20
9.7537174242032822
30
0
10
-14.069309737663916
20
9.7580398895570699
30
0
10
-13.993076690830099
20
9.7607563970565963
30
0
10
-13.943986735186368
20
9.7620339634136712
30
0
10
-13.919875768155565
20
9.7625395811194675
30
0
0
LINE
5
106
100
AcDbEntity
8
0
100
AcDbLine
10
-4.0078945675471056
20
1.6708154676637126
30
0
11
-4.012320257308776
21
-4.8562982222374407
31
0
0
LINE
5
107
100
AcDbEntity
8
0
100
AcDbLine
10
-4.012320257308776
20
-4.8562982222374407
30
0
11
-13.945862049060139
21
-4.8386190905203765
31
0
0
SPLINE
5
108
100
AcDbEntity
8
0
100
AcDbSpline
70
1064
71
5
72
41
73
35
74
0
42
0.000000001
43
0.0000000001
44
0.0000000001
40
0
40
0
40
0
40
0
40
0
40
0
40
0.033333333333333333
40
0.066666666666666666
40
0.10000000000000001
40
0.13333333333333333
40
0.16666666666666666
40
0.19999999999999998
40
0.23333333333333331
40
0.26666666666666666
40
0.29999999999999999
40
0.33333333333333331
40
0.36666666666666664
40
0.39999999999999997
40
0.43333333333333329
40
0.46666666666666662
40
0.49999999999999994
40
0.53333333333333333
40
0.56666666666666665
40
0.59999999999999998
40
0.6333333333333333
40
0.66666666666666663
40
0.69999999999999996
40
0.73333333333333328
40
0.76666666666666661
40
0.79999999999999993
40
0.83333333333333326
40
0.86666666666666659
40
0.89999999999999991
40
0.93333333333333324
40
0.96666666666666656
40
1
40
1
40
1
40
1
40
1
40
1
10
-5.6092784798017457
20
10.362354894825957
30
0
10
-5.6401032457766096
20
10.303641068879807
30
0
10
-5.7023417766364348
20
10.183003291312898
30
0
10
-5.7974665099939013
20
9.9924163123390155
30
0
10
-5.9267898200261238
20
9.7201842770714322
30
0
10
-6.0864415541471191
20
9.3565021706372455
30
0
10
-6.2360560402216585
20
8.9784043215197737
30
0
10
-6.3673536530960391
20
8.5953069078645097
30
0
10
-6.4734806541035379
20
8.2153037565721405
30
0
10
-6.5506128118369693
20
7.8434715447669907
30
0
10
-6.5997834334879375
20
7.4799639382571925
30
0
10
-6.6253731705620131
20
7.121298856584561
30
0
10
-6.6333941379746797
20
6.761848766493098
30
0
10
-6.6298449140773696
20
6.3952494499008585
30
0
10
-6.6190977526939143
20
6.0158075309393446
30
0
10
-6.6021373579280782
20
5.6199747908225666
30
0
10
-6.5752172827819795
20
5.2076246465874467
30
0
10
-6.5319457785957127
20
4.7815868249982296
30
0
10
-6.4650669709384507
20
4.3473792607722315
30
0
10
-6.3682848747707483
20
3.912863095490569
30
0
10
-6.2382292261677925
20
3.4880082139755677
30
0
10
-6.0760302667902906
20
3.0844963314136189
30
0
10
-5.8899671801622384
20
2.7157298765011446
30
0
10
-5.6945575017705981
20
2.3955172628523802
30
0
10
-5.5052702563240921
20
2.1352628163714567
30
0
10
-5.3339826322091781
20
1.9412005200042493
30
0
10
-5.1849130521017628
20
1.8122313065728191
30
0
10
-5.0484097013642684
20
1.7358554307426659
30
0
10
-4.9014079864093407
20
1.689697759501108
30
0
10
-4.7220716198346482
20
1.6543964280788108
30
0
10
-4.5056245804836674
20
1.6280588373892502
30
0
10
-4.3116548346775669
20
1.6250209842605361
30
0
10
-4.1608643436719071
20
1.640104327603497
30
0
10
-4.0590927799853906
20
1.6590907552984455
30
0
10
-4.0078945675471056
20
1.6708154676637126
30
0
0
LINE
5
109
100
AcDbEntity
8
0
100
AcDbLine
10
-13.540099540656817
20
9.7532229982984227
30
0
11
-14.299651995654331
21
9.7718561639405017
31
0
0
SPLINE
5
110
100
AcDbEntity
8
0
100
AcDbSpline
70
1064
71
5
72
31
73
25
74
0
42
0.000000001
43
0.0000000001
44
0.0000000001
40
0
40
0
40
0
40
0
40
0
40
0
40
0.050000000000000003
40
0.10000000000000001
40
0.15000000000000002
40
0.20000000000000001
40
0.25
40
0.29999999999999999
40
0.34999999999999998
40
0.39999999999999997
40
0.44999999999999996
40
0.49999999999999994
40
0.54999999999999993
40
0.59999999999999998
40
0.65000000000000002
40
0.70000000000000007
40
0.75000000000000011
40
0.80000000000000016
40
0.8500000000000002
40
0.90000000000000024
40
0.95000000000000029
40
1
40
1
40
1
40
1
40
1
40
1
10
-9.6442462433584346
20
11.60528916626275
30
0
10
-9.6548677670997645
20
11.562948852721735
30
0
10
-9.6788099546831248
20
11.475936145936231
30
0
10
-9.7228209403835528
20
11.338420645173985
30
0
10
-9.7963342157751505
20
11.143476475218913
30
0
10
-9.9059253571193935
20
10.894140296482455
30
0
10
-10.025632496887507
20
10.656298221423818
30
0
10
-10.150515028556793
20
10.446305120176726
30
0
10
-10.281105640052154
20
10.275790811652591
30
0
10
-10.427327625445031
20
10.14669693136198
30
0
10
-10.604571640239268
20
10.053454666267957
30
0
10
-10.827943627425125
20
9.986640174281856
30
0
10
-11.107587587117235
20
9.9358163124600019
30
0
10
-11.44239509395014
20
9.8930856981386057
30
0
10
-11.817670474386837
20
9.8549074341851526
30
0
10
-12.210983000925475
20
9.8205127055274684
30
0
10
-12.596219860197303
20
9.7910470711482507
30
0
10
-12.948111508511442
20
9.7684815567568961
30
0
10
-13.246860263378055
20
9.7545769628684607
30
0
10
-13.482093581062511
20
9.7499603906704913
30
0
10
-13.659074034536674
20
9.7527890462922944
30
0
10
-13.770458761822498
20
9.7575080122190272
30
0
10
-13.846681656395747
20
9.760495851809921
30
0
10
-13.895766753597643
20
9.761948144334859
30
0
10
-13.919875768155576
20
9.7625395811194675
30
0
0
LINE
5
111
100
AcDbEntity
8
0
100
AcDbLine
10
-5.6092784798017457
20
10.362354894825957
30
0
11
-9.6442462433584346
21
11.60528916626275
31
0
0
LINE
5
112
100
AcDbEntity
8
0
100
AcDbLine
10
10.842459475894056
20
9.5327872603975692
30
0
11
10.842459475894056
21
-7.7472132910814997
31
0
0
LINE
5
113
100
AcDbEntity
8
0
100
AcDbLine
10
7.1093823649636221
20
11.252741773835204
30
0
11
3.1356083422058671
21
9.9612652164389335
31
0
0
LINE
5
114
100
AcDbEntity
8
0
100
AcDbLine
10
1.2843414925529621
20
1.5899880426547173
30
0
11
2.3107734627231209
21
-4.8666001568027379
31
0
0
SPLINE
5
115
100
AcDbEntity
8
0
100
AcDbSpline
70
1064
71
5
72
36
73
30
74
0
42
0.000000001
43
0.0000000001
44
0.0000000001
40
0
40
0
40
0
40
0
40
0
40
0
40
0.040000000000000001
40
0.080000000000000002
40
0.12
40
0.16
40
0.20000000000000001
40
0.24000000000000002
40
0.28000000000000003
40
0.32000000000000001
40
0.35999999999999999
40
0.39999999999999997
40
0.43999999999999995
40
0.47999999999999993
40
0.51999999999999991
40
0.55999999999999994
40
0.59999999999999998
40
0.64000000000000001
40
0.68000000000000005
40
0.72000000000000008
40
0.76000000000000012
40
0.80000000000000016
40
0.84000000000000019
40
0.88000000000000023
40
0.92000000000000026
40
0.9600000000000003
40
1
40
1
40
1
40
1
40
1
40
1
10
1.2843414925529621
20
1.5899880426547173
30
0
10
1.3205557047187879
20
1.5868285739395809
30
0
10
1.3954926121224758
20
1.5831568427832727
30
0
10
1.5154247950671653
20
1.5855913587918591
30
0
10
1.682776900729622
20
1.6037084024922585
30
0
10
1.8721578537665104
20
1.6464604656215009
30
0
10
2.0206708176581487
20
1.7052540490201078
30
0
10
2.1438771992308356
20
1.7796575698852939
30
0
10
2.2737074068429699
20
1.8742553654447898
30
0
10
2.4317037554777468
20
2.0011484161791491
30
0
10
2.6192326601986937
20
2.1785240492317408
30
0
10
2.8273238178366489
20
2.4241274092365441
30
0
10
3.0411879523873631
20
2.7503580501209628
30
0
10
3.2473064552623399
20
3.1578997848942967
30
0
10
3.4378910167221166
20
3.6320592405841325
30
0
10
3.6086073707318871
20
4.1493959364054573
30
0
10
3.7572449333656142
20
4.6827017920203096
30
0
10
3.8820371862770546
20
5.2066205302776885
30
0
10
3.9801994390504665
20
5.7028154479344479
30
0
10
4.0462638461860765
20
6.1657889265797179
30
0
10
4.0707759114693545
20
6.6075799985875401
30
0
10
4.0376073924371045
20
7.0666871472217831
30
0
10
3.9473748369149142
20
7.5534000235792602
30
0
10
3.8096500256305452
20
8.0639071785288117
30
0
10
3.6407915912691129
20
8.5824414524337147
30
0
10
3.4597206930406657
20
9.0878472977322513
30
0
10
3.3196492823968105
20
9.4641118402980062
30
0
10
3.2234899124794123
20
9.7227381676321336
30
0
10
3.1641138644848836
20
9.8836703523048257
30
0
10
3.1356083422058671
20
9.9612652164389335
30
0
0
SPLINE
5
116
100
AcDbEntity
8
0
100
AcDbSpline
70
1064
71
5
72
31
73
25
74
0
42
0.000000001
43
0.0000000001
44
0.0000000001
40
0
40
0
40
0
40
0
40
0
40
0
40
0.050000000000000003
40
0.10000000000000001
40
0.15000000000000002
40
0.20000000000000001
40
0.25
40
0.29999999999999999
40
0.34999999999999998
40
0.39999999999999997
40
0.44999999999999996
40
0.49999999999999994
40
0.54999999999999993
40
0.59999999999999998
40
0.65000000000000002
40
0.70000000000000007
40
0.75000000000000011
40
0.80000000000000016
40
0.8500000000000002
40
0.90000000000000024
40
0.95000000000000029
40
1
40
1
40
1
40
1
40
1
40
1
10
7.1093823649636221
20
11.252741773835204
30
0
10
7.1299047492158429
20
11.196222240468057
30
0
10
7.1736573300659163
20
11.07994063616826
30
0
10
7.2474095008354293
20
10.895790799110976
30
0
10
7.3603551990057392
20
10.633060937932784
30
0
10
7.5165848537638178
20
10.28910249115974
30
0
10
7.6762540307531211
20
9.9464655143032594
30
0
10
7.8282991683690701
20
9.622124664272663
30
0
10
7.9650802593251715
20
9.3294870530112881
30
0
10
8.0852509670230255
20
9.0747282858168177
30
0
10
8.1968723661792708
20
8.8528282957770852
30
0
10
8.3134635264346475
20
8.6521298904124944
30
0
10
8.4497162832461754
20
8.4592851790184156
30
0
10
8.6177701873497128
20
8.2634999979697614
30
0
10
8.8222381128188516
20
8.0622578186038378
30
0
10
9.0598784936135939
20
7.8613963231959012
30
0
10
9.3225705257878211
20
7.671189343216323
30
0
10
9.5992507796464466
20
7.5035659764456293
30
0
10
9.878081351374707
20
7.3691476051371021
30
0
10
10.148730262532649
20
7.2737265718207631
30
0
10
10.403752394161234
20
7.2169304600893547
30
0
10
10.591161924402362
20
7.1997828820859642
30
0
10
10.721063967179429
20
7.2010467989386155
30
0
10
10.802804418674308
20
7.2078861096123523
30
0
10
10.842459475894056
20
7.212804781921581
30
0
0
LINE
5
117
100
AcDbEntity
8
0
100
AcDbLine
10
20.400577459235151
20
1.5899880426547173
30
0
11
19.374145489064993
21
-4.8666001568027379
31
0
0
LINE
5
118
100
AcDbEntity
8
0
100
AcDbLine
10
14.575536586824491
20
11.252741773835204
30
0
11
18.549310609582246
21
9.9612652164389335
31
0
0
LINE
5
119
100
AcDbEntity
8
0
100
AcDbLine
10
17.678256596052762
20
5.5222227908138741
30
0
11
17.589314367585388
21
7.2032309088471456
31
0
0
SPLINE
5
120
100
AcDbEntity
8
0
100
AcDbSpline
70
1064
71
5
72
36
73
30
74
0
42
0.000000001
43
0.0000000001
44
0.0000000001
40
0
40
0
40
0
40
0
40
0
40
0
40
0.040000000000000001
40
0.080000000000000002
40
0.12
40
0.16
40
0.20000000000000001
40
0.24000000000000002
40
0.28000000000000003
40
0.32000000000000001
40
0.35999999999999999
40
0.39999999999999997
40
0.43999999999999995
40
0.47999999999999993
40
0.51999999999999991
40
0.55999999999999994
40
0.59999999999999998
40
0.64000000000000001
40
0.68000000000000005
40
0.72000000000000008
40
0.76000000000000012
40
0.80000000000000016
40
0.84000000000000019
40
0.88000000000000023
40
0.92000000000000026
40
0.9600000000000003
40
1
40
1
40
1
40
1
40
1
40
1
10
20.400577459235151
20
1.5899880426547173
30
0
10
20.364363247069324
20
1.5868285739395809
30
0
10
20.289426341165978
20
1.5831568427832723
30
0
10
20.169494164973482
20
1.5855913587918566
30
0
10
20.002142073716524
20
1.6037084024922557
30
0
10
19.812761132098654
20
1.6464604656215045
30
0
10
19.664248162011372
20
1.7052540490201038
30
0
10
19.541041761836318
20
1.7796575698852912
30
0
10
19.411211536013116
20
1.874255365444794
30
0
10
19.253215178511802
20
2.0011484161791637
30
0
10
19.065686275154512
20
2.1785240492317555
30
0
10
18.857595126021799
20
2.4241274092365517
30
0
10
18.643731001902879
20
2.750358050120961
30
0
10
18.437612506975434
20
3.157899784894294
30
0
10
18.247027949218676
20
3.632059240584129
30
0
10
18.076311594665924
20
4.1493959364054547
30
0
10
17.92767402849223
20
4.6827017920203078
30
0
10
17.802881770898811
20
5.2066205302776831
30
0
10
17.704719514200445
20
5.7028154479344435
30
0
10
17.638655105212884
20
6.1657889265797188
30
0
10
17.6141430403591
20
6.6075799985875401
30
0
10
17.647311560366042
20
7.0666871472217778
30
0
10
17.737544116634488
20
7.5534000235792478
30
0
10
17.875268928065712
20
8.0639071785287975
30
0
10
18.044127362017143
20
8.5824414524337058
30
0
10
18.225198259534508
20
9.0878472977322478
30
0
10
18.365269669657998
20
9.4641118402980062
30
0
10
18.461429039357196
20
9.7227381676321336
30
0
10
18.520805087303231
20
9.8836703523048257
30
0
10
18.549310609582246
20
9.9612652164389335
30
0
0
SPLINE
5
121
100
AcDbEntity
8
0
100
AcDbSpline
70
1064
71
5
72
31
73
25
74
0
42
0.000000001
43
0.0000000001
44
0.0000000001
40
0
40
0
40
0
40
0
40
0
40
0
40
0.050000000000000003
40
0.10000000000000001
40
0.15000000000000002
40
0.20000000000000001
40
0.25
40
0.29999999999999999
40
0.34999999999999998
40
0.39999999999999997
40
0.44999999999999996
40
0.49999999999999994
40
0.54999999999999993
40
0.59999999999999998
40
0.65000000000000002
40
0.70000000000000007
40
0.75000000000000011
40
0.80000000000000016
40
0.8500000000000002
40
0.90000000000000024
40
0.95000000000000029
40
1
40
1
40
1
40
1
40
1
40
1
10
14.575536586824491
20
11.252741773835204
30
0
10
14.555014202572272
20
11.196222240468057
30
0
10
14.511261621722165
20
11.07994063616826
30
0
10
14.437509450952568
20
10.895790799110976
30
0
10
14.324563752782103
20
10.633060937932772
30
0
10
14.168334098023875
20
10.289102491159706
30
0
10
14.008664921034512
20
9.9464655143032203
30
0
10
13.85661978341869
20
9.6221246642726381
30
0
10
13.719838692462931
20
9.3294870530112881
30
0
10
13.599667984765434
20
9.0747282858168408
30
0
10
13.488046585609398
20
8.8528282957771154
30
0
10
13.371455425353941
20
8.6521298904125246
30
0
10
13.235202668542126
20
8.4592851790184262
30
0
10
13.067148764438166
20
8.2634999979697508
30
0
10
12.862680838968727
20
8.0622578186038076
30
0
10
12.625040458173826
20
7.861396323195863
30
0
10
12.362348425999706
20
7.6711893432163034
30
0
10
12.085668172141418
20
7.5035659764456302
30
0
10
11.80683760041355
20
7.3691476051371056
30
0
10
11.536188689255901
20
7.273726571820748
30
0
10
11.281166557627307
20
7.2169304600893334
30
0
10
11.093757027385916
20
7.1997828820859509
30
0
10
10.963854984608718
20
7.2010467989386129
30
0
10
10.882114533113805
20
7.2078861096123523
30
0
10
10.842459475894056
20
7.212804781921581
30
0
0
SPLINE
5
122
100
AcDbEntity
8
0
100
AcDbSpline
70
1064
71
5
72
26
73
20
74
0
42
0.000000001
43
0.0000000001
44
0.0000000001
40
0
40
0
40
0
40
0
40
0
40
0
40
0.066666666666666666
40
0.13333333333333333
40
0.20000000000000001
40
0.26666666666666666
40
0.33333333333333331
40
0.39999999999999997
40
0.46666666666666662
40
0.53333333333333333
40
0.59999999999999998
40
0.66666666666666663
40
0.73333333333333328
40
0.79999999999999993
40
0.86666666666666659
40
0.93333333333333324
40
1
40
1
40
1
40
1
40
1
40
1
10
2.3107734627231209
20
-4.8666001568027379
30
0
10
2.3607861593702255
20
-4.8605539219728868
30
0
10
2.4702536842883069
20
-4.8502995690979356
30
0
10
2.6627836532088325
20
-4.8404308320659766
30
0
10
2.9726790653439514
20
-4.83945876675467
30
0
10
3.4305799392639851
20
-4.8638679768540927
30
0
10
3.9382223944011665
20
-4.9186466019986659
30
0
10
4.4800700475454693
20
-5.0041183622334513
30
0
10
5.0494810671417483
20
-5.1146092697875609
30
0
10
5.6446167943515366
20
-5.2411471847142268
30
0
10
6.2661323582752289
20
-5.3730316535166054
30
0
10
6.9141089022845161
20
-5.4997511565803041
30
0
10
7.5853370451763693
20
-5.6126544741886812
30
0
10
8.2699860740188971
20
-5.7069259780935315
30
0
10
8.9540120842353303
20
-5.7806528384040625
30
0
10
9.621834201934961
20
-5.833802596368951
30
0
10
10.131438695753578
20
-5.8606504616932567
30
0
10
10.494815725288282
20
-5.8725057084725272
30
0
10
10.72807665595858
20
-5.8768139995328017
30
0
10
10.842459475894062
20
-5.878069336118898
30
0
0
SPLINE
5
123
100
AcDbEntity
8
0
100
AcDbSpline
70
1064
71
5
72
26
73
20
74
0
42
0.000000001
43
0.0000000001
44
0.0000000001
40
0
40
0
40
0
40
0
40
0
40
0
40
0.066666666666666666
40
0.13333333333333333
40
0.20000000000000001
40
0.26666666666666666
40
0.33333333333333331
40
0.39999999999999997
40
0.46666666666666662
40
0.53333333333333333
40
0.59999999999999998
40
0.66666666666666663
40
0.73333333333333328
40
0.79999999999999993
40
0.86666666666666659
40
0.93333333333333324
40
1
40
1
40
1
40
1
40
1
40
1
10
19.374145489064993
20
-4.8666001568027379
30
0
10
19.324132792417888
20
-4.8605539219728868
30
0
10
19.214665267499953
20
-4.8502995690979356
30
0
10
19.022135298580153
20
-4.8404308320659748
30
0
10
18.712239886445595
20
-4.8394587667546691
30
0
10
18.254339012524824
20
-4.8638679768540909
30
0
10
17.746696557386528
20
-4.9186466019986685
30
0
10
17.204848904241469
20
-5.0041183622334593
30
0
10
16.635437884644997
20
-5.1146092697875805
30
0
10
16.040302157435526
20
-5.2411471847142632
30
0
10
15.418786593512385
20
-5.3730316535166338
30
0
10
14.770810049503632
20
-5.4997511565803094
30
0
10
14.099581906612052
20
-5.6126544741886466
30
0
10
13.414932877769589
20
-5.706925978093464
30
0
10
12.730906867553045
20
-5.7806528384039817
30
0
10
12.06308474985326
20
-5.8338025963688871
30
0
10
11.553480256034556
20
-5.8606504616932256
30
0
10
11.190103226499842
20
-5.8725057084725236
30
0
10
10.956842295829533
20
-5.8768139995328026
30
0
10
10.842459475894049
20
-5.8780693361188998
30
0
0
CIRCLE
5
124
100
AcDbEntity
8
0
100
AcDbCircle
10
-13.921627369558662
20
8.7783506504309639
30
0
40
0.41746354610022107
0
CIRCLE
5
125
100
AcDbEntity
8
0
100
AcDbCircle
10
-13.923972860872103
20
7.460467150430965
30
0
40
0.35185314115027266
0
CIRCLE
5
126
100
AcDbEntity
8
0
100
AcDbCircle
10
-13.92631835218554
20
6.1425836504309643
30
0
40
0.29006135395678306
0
CIRCLE
5
127
100
AcDbEntity
8
0
100
AcDbCircle
10
-13.928663843498981
20
4.8247001504309655
30
0
40
0.22307000304931252
0
CIRCLE
5
128
100
AcDbEntity
8
0
100
AcDbCircle
10
-13.931009334812419
20
3.5068166504309657
30
0
40
0.14862939086689925
0
CIRCLE
5
129
100
AcDbEntity
8
0
100
AcDbCircle
10
-13.933354822411484
20
2.188935237462438
30
0
40
0.11475877302838484
0
ENDSEC
0
SECTION
2
OBJECTS
0
DICTIONARY
5
C
100
AcDbDictionary
3
ACAD_GROUP
350
D
3
ACAD_MLINESTYLE
350
17
0
DICTIONARY
5
D
100
AcDbDictionary
0
DICTIONARY
5
1A
330
C
100
AcDbDictionary
0
DICTIONARY
5
17
100
AcDbDictionary
0
ENDSEC
0
EOF
