0
SECTION
2
HEADER
9
$INSUNITS
70
1
9
$ACADVER
1
AC1014
9
$HANDSEED
5
FFFF
0
ENDSEC
0
SECTION
2
TABLES
0
TABLE
2
VPORT
5
8
100
AcDbSymbolTable
0
ENDTAB
0
TABLE
2
LTYPE
5
5
100
AcDbSymbolTable
0
LTYPE
5
14
100
AcDbSymbolTableRecord
100
AcDbLinetypeTableRecord
2
BYBLOCK
70
0
0
LTYPE
5
15
100
AcDbSymbolTableRecord
100
AcDbLinetypeTableRecord
2
BYLAYER
70
0
0
ENDTAB
0
TABLE
2
LAYER
5
2
100
AcDbSymbolTable
70
2
0
LAYER
5
50
100
AcDbSymbolTableRecord
100
AcDbLayerTableRecord
2
0
70
0
6
CONTINUOUS
0
ENDTAB
0
TABLE
2
STYLE
5
3
100
AcDbSymbolTable
70
1
0
STYLE
5
11
100
AcDbSymbolTableRecord
100
AcDbTextStyleTableRecord
2
STANDARD
70
0
0
ENDTAB
0
TABLE
2
VIEW
5
6
100
AcDbSymbolTable
70
0
0
ENDTAB
0
TABLE
2
UCS
5
7
100
AcDbSymbolTable
70
0
0
ENDTAB
0
TABLE
2
APPID
5
9
100
AcDbSymbolTable
70
2
0
APPID
5
12
100
AcDbSymbolTableRecord
100
AcDbRegAppTableRecord
2
ACAD
70
0
0
ENDTAB
0
TABLE
2
DIMSTYLE
5
A
100
AcDbSymbolTable
70
1
0
ENDTAB
0
TABLE
2
BLOCK_RECORD
5
1
100
AcDbSymbolTable
70
1
0
BLOCK_RECORD
5
1F
100
AcDbSymbolTableRecord
100
AcDbBlockTableRecord
2
*MODEL_SPACE
0
BLOCK_RECORD
5
1B
100
AcDbSymbolTableRecord
100
AcDbBlockTableRecord
2
*PAPER_SPACE
0
ENDTAB
0
ENDSEC
0
SECTION
2
BLOCKS
0
BLOCK
5
20
100
AcDbEntity
100
AcDbBlockBegin
2
*MODEL_SPACE
0
ENDBLK
5
21
100
AcDbEntity
100
AcDbBlockEnd
0
BLOCK
5
1C
100
AcDbEntity
100
AcDbBlockBegin
2
*PAPER_SPACE
0
ENDBLK
5
1D
100
AcDbEntity
100
AcDbBlockEnd
0
ENDSEC
0
SECTION
2
ENTITIES
0
LINE
5
100
100
AcDbEntity
8
0
100
AcDbLine
10
5.0959691102014091
20
10.458970573616197
30
0
11
4.8154105546621127
21
10.053327731485416
31
0
0
LINE
5
101
100
AcDbEntity
8
0
100
AcDbLine
10
4.8154105546621127
20
10.053327731485416
30
0
11
4.8067814258035924
21
9.8333532506531434
31
0
0
LINE
5
102
100
AcDbEntity
8
0
100
AcDbLine
10
4.8067814258035924
20
9.8333532506531434
30
0
11
4.9836375050033119
21
9.9411793567657192
31
0
0
LINE
5
103
100
AcDbEntity
8
0
100
AcDbLine
10
5.1879841899329335
20
9.3220996125741813
30
0
11
5.0111281107332131
21
9.2142735064616073
31
0
0
LINE
5
104
100
AcDbEntity
8
0
100
AcDbLine
10
5.3901707392011442
20
8.7095641205350489
30
0
11
5.2133146600014264
21
8.6017380144224713
31
0
0
LINE
5
105
100
AcDbEntity
8
0
100
AcDbLine
10
5.2133146600014264
20
8.6017380144224713
30
0
11
5.2222586972042295
21
8.8297401653335399
31
0
0
LINE
5
106
100
AcDbEntity
8
0
100
AcDbLine
10
5.2222586972042295
20
8.8297401653335399
30
0
11
5.3090717699100516
21
8.9552579969990358
31
0
0
LINE
5
107
100
AcDbEntity
8
0
100
AcDbLine
10
5.0111281107332131
20
9.2142735064616073
30
0
11
5.0201983194299737
21
9.4454920317406934
31
0
0
LINE
5
108
100
AcDbEntity
8
0
100
AcDbLine
10
5.0201983194299737
20
9.4454920317406934
30
0
11
5.106207302902189
21
9.5698472788561659
31
0
0
LINE
5
109
100
AcDbEntity
8
0
100
AcDbLine
10
5.0959691102014091
20
10.458970573616197
30
0
11
5.5585466884795434
21
10.288692417643277
31
0
0
LINE
5
110
100
AcDbEntity
8
0
100
AcDbLine
10
5.5585466884795434
20
10.288692417643277
30
0
11
5.6922614683005328
21
10.113708411753484
31
0
0
LINE
5
111
100
AcDbEntity
8
0
100
AcDbLine
10
5.6922614683005328
20
10.113708411753484
30
0
11
5.4854419851274923
21
10.100101356404972
31
0
0
LINE
5
112
100
AcDbEntity
8
0
100
AcDbLine
10
5.7409323983052696
20
9.6737067452137442
30
0
11
5.5989294107346366
21
9.7259472758623922
31
0
0
LINE
5
113
100
AcDbEntity
8
0
100
AcDbLine
10
5.8814504943281589
20
9.489821083572334
30
0
11
5.7409323983052696
21
9.6737067452137442
31
0
0
LINE
5
114
100
AcDbEntity
8
0
100
AcDbLine
10
5.6746769213980901
20
9.4762170519715063
30
0
11
5.8814504943281589
21
9.489821083572334
31
0
0
LINE
5
115
100
AcDbEntity
8
0
100
AcDbLine
10
5.9300916635446681
20
9.0538707064550046
30
0
11
5.7867917348662212
21
9.1065883047869267
31
0
0
LINE
5
116
100
AcDbEntity
8
0
100
AcDbLine
10
6.0686593789051173
20
8.8725383642671893
30
0
11
5.9300916635446681
21
9.0538707064550046
31
0
0
LINE
5
117
100
AcDbEntity
8
0
100
AcDbLine
10
5.8619090116889652
20
8.8589358843349366
30
0
11
6.0686593789051173
21
8.8725383642671893
31
0
0
LINE
5
118
100
AcDbEntity
8
0
100
AcDbLine
10
5.4854419851274923
20
10.100101356404972
30
0
11
5.5989294107346366
21
9.7259472758623922
31
0
0
LINE
5
119
100
AcDbEntity
8
0
100
AcDbLine
10
5.6746769213980901
20
9.4762170519715063
30
0
11
5.7867917348662212
21
9.1065883047869267
31
0
0
LINE
5
120
100
AcDbEntity
8
0
100
AcDbLine
10
5.8619090116889652
20
8.8589358843349366
30
0
11
5.8890455960357677
21
8.7694699041963897
31
0
0
LINE
5
121
100
AcDbEntity
8
0
100
AcDbLine
10
4.9836375050033119
20
9.9411793567657192
30
0
11
5.106207302902189
21
9.5698472788561659
31
0
0
LINE
5
122
100
AcDbEntity
8
0
100
AcDbLine
10
5.1879841899329335
20
9.3220996125741813
30
0
11
5.3090717699100516
21
8.9552579969990358
31
0
0
LINE
5
123
100
AcDbEntity
8
0
100
AcDbLine
10
5.3901707392011442
20
8.7095641205350489
30
0
11
5.4194724137160453
21
8.6207930540050661
31
0
0
LINE
5
124
100
AcDbEntity
8
0
100
AcDbLine
10
5.9058373358233291
20
10.250849725029903
30
0
11
6.0284171152449133
21
9.879511114215596
31
0
0
LINE
5
125
100
AcDbEntity
8
0
100
AcDbLine
10
6.4076980689855247
20
10.409813613386033
30
0
11
6.5211849804797675
21
10.035660922507962
31
0
0
LINE
5
126
100
AcDbEntity
8
0
100
AcDbLine
10
6.5969328405470717
20
9.7859293428986813
30
0
11
6.8037064545029624
21
9.7995332989187389
31
0
0
LINE
5
127
100
AcDbEntity
8
0
100
AcDbLine
10
6.8037064545029624
20
9.7995332989187389
30
0
11
6.6631862127885118
21
9.9834212230472019
31
0
0
LINE
5
128
100
AcDbEntity
8
0
100
AcDbLine
10
6.6631862127885118
20
9.9834212230472019
30
0
11
6.5211849804797675
21
10.035660922507962
31
0
0
LINE
5
129
100
AcDbEntity
8
0
100
AcDbLine
10
6.6145170585448465
20
10.423420559696085
30
0
11
6.4076980689855247
21
10.409813613386033
31
0
0
LINE
5
130
100
AcDbEntity
8
0
100
AcDbLine
10
6.4808003781094579
20
10.598406575828633
30
0
11
6.6145170585448465
21
10.423420559696085
31
0
0
LINE
5
131
100
AcDbEntity
8
0
100
AcDbLine
10
6.0182173515120798
20
10.76868615491858
30
0
11
6.4808003781094579
21
10.598406575828633
31
0
0
LINE
5
132
100
AcDbEntity
8
0
100
AcDbLine
10
5.9424496062744803
20
9.7552133664404543
30
0
11
6.0284171152449133
21
9.879511114215596
31
0
0
LINE
5
133
100
AcDbEntity
8
0
100
AcDbLine
10
5.729022664129376
20
10.143048998243438
30
0
11
5.9058373358233291
21
10.250849725029903
31
0
0
LINE
5
134
100
AcDbEntity
8
0
100
AcDbLine
10
5.7376516122470598
20
10.363024877638772
30
0
11
5.729022664129376
21
10.143048998243438
31
0
0
LINE
5
135
100
AcDbEntity
8
0
100
AcDbLine
10
6.0182173515120798
20
10.76868615491858
30
0
11
5.7376516122470598
21
10.363024877638772
31
0
0
LINE
5
136
100
AcDbEntity
8
0
100
AcDbLine
10
6.3123912751189062
20
9.0192503882430124
30
0
11
6.341693232373415
21
8.9304841320760229
31
0
0
LINE
5
137
100
AcDbEntity
8
0
100
AcDbLine
10
6.1101937118535137
20
9.6317801432100065
30
0
11
6.2312935780239567
21
9.26492472638901
31
0
0
LINE
5
138
100
AcDbEntity
8
0
100
AcDbLine
10
6.7841647897102009
20
9.1686481368515409
30
0
11
6.8113023875814349
21
9.079178742242064
31
0
0
LINE
5
139
100
AcDbEntity
8
0
100
AcDbLine
10
6.5969328405470717
20
9.7859293428986813
30
0
11
6.7090470923206613
21
9.4163021459421614
31
0
0
LINE
5
140
100
AcDbEntity
8
0
100
AcDbLine
10
6.7841647897102009
20
9.1686481368515409
30
0
11
6.9909155310684952
21
9.1822505647871964
31
0
0
LINE
5
141
100
AcDbEntity
8
0
100
AcDbLine
10
6.9909155310684952
20
9.1822505647871964
30
0
11
6.8523455614087005
21
9.3635852730540172
31
0
0
LINE
5
142
100
AcDbEntity
8
0
100
AcDbLine
10
6.8523455614087005
20
9.3635852730540172
30
0
11
6.7090470923206613
21
9.4163021459421614
31
0
0
LINE
5
143
100
AcDbEntity
8
0
100
AcDbLine
10
5.9333790401595587
20
9.5239794164235434
30
0
11
5.9424496062744803
21
9.7552133664404543
31
0
0
LINE
5
144
100
AcDbEntity
8
0
100
AcDbLine
10
6.1445208234785609
20
9.1394626990788144
30
0
11
6.2312935780239567
21
9.26492472638901
31
0
0
LINE
5
145
100
AcDbEntity
8
0
100
AcDbLine
10
6.1355766034249521
20
8.9114496614565493
30
0
11
6.1445208234785609
21
9.1394626990788144
31
0
0
LINE
5
146
100
AcDbEntity
8
0
100
AcDbLine
10
6.3123912751189062
20
9.0192503882430124
30
0
11
6.1355766034249521
21
8.9114496614565493
31
0
0
LINE
5
147
100
AcDbEntity
8
0
100
AcDbLine
10
6.1101937118535137
20
9.6317801432100065
30
0
11
5.9333790401595587
21
9.5239794164235434
31
0
0
LINE
5
148
100
AcDbEntity
8
0
100
AcDbLine
10
7.7201855246790494
20
9.4577127500290743
30
0
11
7.747326216421663
21
9.3682331287481038
31
0
0
LINE
5
149
100
AcDbEntity
8
0
100
AcDbLine
10
6.9542421872154794
20
11.057748891958155
30
0
11
7.4168189684757353
21
10.887473655894949
31
0
0
LINE
5
150
100
AcDbEntity
8
0
100
AcDbLine
10
7.0462223738081775
20
9.9208346481766405
30
0
11
7.1673201532484923
21
9.5539851667790163
31
0
0
LINE
5
151
100
AcDbEntity
8
0
100
AcDbLine
10
6.8784780507103704
20
10.044274824825109
30
0
11
6.9644437345711943
21
10.168572067740779
31
0
0
LINE
5
152
100
AcDbEntity
8
0
100
AcDbLine
10
7.2484197953378739
20
9.3083046780076533
30
0
11
7.2777196916808569
21
9.2195445716860931
31
0
0
LINE
5
153
100
AcDbEntity
8
0
100
AcDbLine
10
8.1706822375649377
20
9.6180068504714633
30
0
11
8.1999811978912511
21
9.5292494727233148
31
0
0
LINE
5
154
100
AcDbEntity
8
0
100
AcDbLine
10
6.6650509454726885
20
10.432103149601879
30
0
11
6.8418661981431157
21
10.53990427447048
31
0
0
LINE
5
155
100
AcDbEntity
8
0
100
AcDbLine
10
8.6424998188328583
20
9.767433014762112
30
0
11
8.6696339615103337
21
9.6779680850977368
31
0
0
LINE
5
156
100
AcDbEntity
8
0
100
AcDbLine
10
8.6424998188328583
20
9.767433014762112
30
0
11
8.8492022360440608
21
9.7810321010672965
31
0
0
LINE
5
157
100
AcDbEntity
8
0
100
AcDbLine
10
6.6736802438982235
20
10.652086138459243
30
0
11
6.6650509454726885
21
10.432103149601879
31
0
0
LINE
5
158
100
AcDbEntity
8
0
100
AcDbLine
10
6.9542421872154794
20
11.057748891958155
30
0
11
6.6736802438982235
21
10.652086138459243
31
0
0
LINE
5
159
100
AcDbEntity
8
0
100
AcDbLine
10
8.0028107306216754
20
9.7382332260287718
30
0
11
8.0895802362858866
21
9.8636947821756404
31
0
0
LINE
5
160
100
AcDbEntity
8
0
100
AcDbLine
10
7.9938658075489579
20
9.5102048027059958
30
0
11
8.0028107306216754
21
9.7382332260287718
31
0
0
LINE
5
161
100
AcDbEntity
8
0
100
AcDbLine
10
8.8492022360440608
20
9.7810321010672965
30
0
11
8.7106189519420614
21
9.9623831902921989
31
0
0
LINE
5
162
100
AcDbEntity
8
0
100
AcDbLine
10
8.1706822375649377
20
9.6180068504714633
30
0
11
7.9938658075489579
21
9.5102048027059958
31
0
0
LINE
5
163
100
AcDbEntity
8
0
100
AcDbLine
10
7.9684849753692149
20
10.230537076133695
30
0
11
7.7916685453532315
21
10.122735028368229
31
0
0
LINE
5
164
100
AcDbEntity
8
0
100
AcDbLine
10
7.7916685453532315
20
10.122735028368229
30
0
11
7.8007398515378599
21
10.353985272774095
31
0
0
LINE
5
165
100
AcDbEntity
8
0
100
AcDbLine
10
8.7106189519420614
20
9.9623831902921989
30
0
11
8.5673920515924831
21
10.015073457774422
31
0
0
LINE
5
166
100
AcDbEntity
8
0
100
AcDbLine
10
8.4552817647255765
20
10.384716200809295
30
0
11
8.5673920515924831
21
10.015073457774422
31
0
0
LINE
5
167
100
AcDbEntity
8
0
100
AcDbLine
10
7.9684849753692149
20
10.230537076133695
30
0
11
8.0895802362858866
21
9.8636947821756404
31
0
0
LINE
5
168
100
AcDbEntity
8
0
100
AcDbLine
10
7.8763288865528454
20
11.367423975956472
30
0
11
7.5959510268914165
21
10.962020691553995
31
0
0
LINE
5
169
100
AcDbEntity
8
0
100
AcDbLine
10
7.5959510268914165
20
10.962020691553995
30
0
11
7.5873125678088442
21
10.741804800537178
31
0
0
LINE
5
170
100
AcDbEntity
8
0
100
AcDbLine
10
7.5873125678088442
20
10.741804800537178
30
0
11
7.7641289978248249
21
10.849606848302647
31
0
0
LINE
5
171
100
AcDbEntity
8
0
100
AcDbLine
10
7.8007398515378599
20
10.353985272774095
30
0
11
7.8867038933026903
21
10.478282194485598
31
0
0
LINE
5
172
100
AcDbEntity
8
0
100
AcDbLine
10
7.8763288865528454
20
11.367423975956472
30
0
11
8.3390736632431501
21
11.197188681442137
31
0
0
LINE
5
173
100
AcDbEntity
8
0
100
AcDbLine
10
8.3390736632431501
20
11.197188681442137
30
0
11
8.4727923281026509
21
11.022201099154925
31
0
0
LINE
5
174
100
AcDbEntity
8
0
100
AcDbLine
10
8.4727923281026509
20
11.022201099154925
30
0
11
8.2660617452949694
21
11.008600136656101
31
0
0
LINE
5
175
100
AcDbEntity
8
0
100
AcDbLine
10
8.5214596090550554
20
10.58222224652868
30
0
11
8.3795452410801463
21
10.634429738528237
31
0
0
LINE
5
176
100
AcDbEntity
8
0
100
AcDbLine
10
8.6619945564856433
20
10.398315982833365
30
0
11
8.5214596090550554
21
10.58222224652868
31
0
0
LINE
5
177
100
AcDbEntity
8
0
100
AcDbLine
10
8.4552817647255765
20
10.384716200809295
30
0
11
8.6619945564856433
21
10.398315982833365
31
0
0
LINE
5
178
100
AcDbEntity
8
0
100
AcDbLine
10
8.2660617452949694
20
11.008600136656101
30
0
11
8.3795452410801463
21
10.634429738528237
31
0
0
LINE
5
179
100
AcDbEntity
8
0
100
AcDbLine
10
7.7641289978248249
20
10.849606848302647
30
0
11
7.8867038933026903
21
10.478282194485598
31
0
0
LINE
5
180
100
AcDbEntity
8
0
100
AcDbLine
10
6.8418661981431157
20
10.53990427447048
30
0
11
6.9644437345711943
21
10.168572067740779
31
0
0
LINE
5
181
100
AcDbEntity
8
0
100
AcDbLine
10
7.0462223738081775
20
9.9208346481766405
30
0
11
6.8694071211377477
21
9.8130335233080448
31
0
0
LINE
5
182
100
AcDbEntity
8
0
100
AcDbLine
10
7.2484197953378739
20
9.3083046780076533
30
0
11
7.0716045426674468
21
9.2005035531390522
31
0
0
LINE
5
183
100
AcDbEntity
8
0
100
AcDbLine
10
7.3437189209295548
20
10.698878209181478
30
0
11
7.4572051948380853
21
10.324727509331076
31
0
0
LINE
5
184
100
AcDbEntity
8
0
100
AcDbLine
10
7.532953625277246
20
10.074993975174994
30
0
11
7.7397277530853943
21
10.088597887196384
31
0
0
LINE
5
185
100
AcDbEntity
8
0
100
AcDbLine
10
7.0716045426674468
20
9.2005035531390522
30
0
11
7.0805491059784167
21
9.4285234539630309
31
0
0
LINE
5
186
100
AcDbEntity
8
0
100
AcDbLine
10
7.0805491059784167
20
9.4285234539630309
30
0
11
7.1673201532484923
21
9.5539851667790163
31
0
0
LINE
5
187
100
AcDbEntity
8
0
100
AcDbLine
10
7.7397277530853943
20
10.088597887196384
30
0
11
7.599204955813482
21
10.272488541616882
31
0
0
LINE
5
188
100
AcDbEntity
8
0
100
AcDbLine
10
6.8694071211377477
20
9.8130335233080448
30
0
11
6.8784780507103704
21
10.044274824825109
31
0
0
LINE
5
189
100
AcDbEntity
8
0
100
AcDbLine
10
7.7883644165629518
20
9.6526527193819582
30
0
11
7.6450671867824003
21
9.7053689442775788
31
0
0
LINE
5
190
100
AcDbEntity
8
0
100
AcDbLine
10
7.599204955813482
20
10.272488541616882
30
0
11
7.4572051948380853
21
10.324727509331076
31
0
0
LINE
5
191
100
AcDbEntity
8
0
100
AcDbLine
10
7.9269370702880284
20
9.4713151553400969
30
0
11
7.7883644165629518
21
9.6526527193819582
31
0
0
LINE
5
192
100
AcDbEntity
8
0
100
AcDbLine
10
7.7201855246790494
20
9.4577127500290743
30
0
11
7.9269370702880284
21
9.4713151553400969
31
0
0
LINE
5
193
100
AcDbEntity
8
0
100
AcDbLine
10
7.550538009929304
20
10.71248508572342
30
0
11
7.3437189209295548
21
10.698878209181478
31
0
0
LINE
5
194
100
AcDbEntity
8
0
100
AcDbLine
10
7.4168189684757353
20
10.887473655894949
30
0
11
7.550538009929304
21
10.71248508572342
31
0
0
LINE
5
195
100
AcDbEntity
8
0
100
AcDbLine
10
7.532953625277246
20
10.074993975174994
30
0
11
7.6450671867824003
21
9.7053689442775788
31
0
0
LINE
5
196
100
AcDbEntity
8
0
100
AcDbLine
10
5.8890455960357677
20
8.7694699041963897
30
0
11
6.341693232373415
21
8.9304841320760229
31
0
0
LINE
5
197
100
AcDbEntity
8
0
100
AcDbLine
10
6.8113023875814349
20
9.079178742242064
30
0
11
7.2777196916808569
21
9.2195445716860931
31
0
0
LINE
5
198
100
AcDbEntity
8
0
100
AcDbLine
10
7.747326216421663
20
9.3682331287481038
30
0
11
8.1999811978912511
21
9.5292494727233148
31
0
0
LINE
5
199
100
AcDbEntity
8
0
100
AcDbLine
10
8.6696339615103337
20
9.6779680850977368
30
0
11
8.9855754775987542
21
9.7737911322676325
31
0
0
LINE
5
200
100
AcDbEntity
8
0
100
AcDbLine
10
5.4194724137160453
20
8.6207930540050661
30
0
11
5.1533617305258694
21
8.5329548773493524
31
0
0
SPLINE
5
201
100
AcDbEntity
8
0
100
AcDbSpline
70
1064
71
5
72
31
73
25
74
0
42
0.000000001
43
0.0000000001
44
0.0000000001
40
0
40
0
40
0
40
0
40
0
40
0
40
0.050000000000000003
40
0.10000000000000001
40
0.15000000000000002
40
0.20000000000000001
40
0.25
40
0.29999999999999999
40
0.34999999999999998
40
0.39999999999999997
40
0.44999999999999996
40
0.49999999999999994
40
0.54999999999999993
40
0.59999999999999998
40
0.65000000000000002
40
0.70000000000000007
40
0.75000000000000011
40
0.80000000000000016
40
0.8500000000000002
40
0.90000000000000024
40
0.95000000000000029
40
1
40
1
40
1
40
1
40
1
40
1
10
5.1533617305258694
20
8.5329548773493524
30
0
10
5.1760487286517618
20
8.4534786261002708
30
0
10
5.2197844648707781
20
8.2947546419667209
30
0
10
5.2804739175281918
20
8.0573606088034957
30
0
10
5.3510474049432819
20
7.7398648861022474
30
0
10
5.4190871879773237
20
7.3299500663861803
30
0
10
5.4631554528031137
20
6.8945620202350852
30
0
10
5.4796847813092482
20
6.4278606630675128
30
0
10
5.4657733090483553
20
5.9315149179235771
30
0
10
5.4212572148697165
20
5.4319348427352612
30
0
10
5.3456436810102606
20
4.9453615109931572
30
0
10
5.2381275257165205
20
4.4732993459844614
30
0
10
5.0991388597438352
20
4.0132755757434468
30
0
10
4.9315821295312094
20
3.5654785942977982
30
0
10
4.7416269946122309
20
3.1355777874638613
30
0
10
4.5413018729390755
20
2.7523226857999199
30
0
10
4.3466354631495188
20
2.4461844791272851
30
0
10
4.1665620476095135
20
2.2024888225887627
30
0
10
4.0007341078044201
20
2.0012261395762931
30
0
10
3.8362296195822307
20
1.8247531472414278
30
0
10
3.6391404916495715
20
1.6872410743248403
30
0
10
3.4440316799151414
20
1.6123346040536342
30
0
10
3.2744322920388829
20
1.5766630630875431
30
0
10
3.1510987841339801
20
1.5619356331786816
30
0
10
3.0868633461945323
20
1.5568366709904988
30
0
0
LINE
5
202
100
AcDbEntity
8
0
100
AcDbLine
10
1.7682703138467384
20
1.0402966706088745
30
0
11
2.1549685023380767
21
1.0971963835422582
31
0
0
LINE
5
203
100
AcDbEntity
8
0
100
AcDbLine
10
2.4936116913317781
20
0.63086226121073985
30
0
11
2.574193820052773
21
0.43991914976551882
31
0
0
LINE
5
204
100
AcDbEntity
8
0
100
AcDbLine
10
1.5924681881338256
20
1.1404006776943489
30
0
11
1.7855609620207387
21
1.2469111845645751
31
0
0
LINE
5
205
100
AcDbEntity
8
0
100
AcDbLine
10
1.7155192628566995
20
0.37035491152285333
30
0
11
1.9316848991347728
21
0.32933430102843964
31
0
0
LINE
5
206
100
AcDbEntity
8
0
100
AcDbLine
10
2.4936116913317781
20
0.63086226121073985
30
0
11
2.874285875711498
21
0.69638165826066034
31
0
0
LINE
5
207
100
AcDbEntity
8
0
100
AcDbLine
10
2.3468604941596425
20
0.48305899370382915
30
0
11
2.2364468079377549
21
0.58660055712422776
31
0
0
LINE
5
208
100
AcDbEntity
8
0
100
AcDbLine
10
2.574193820052773
20
0.43991914976551882
30
0
11
2.3468604941596425
21
0.48305899370382915
31
0
0
LINE
5
209
100
AcDbEntity
8
0
100
AcDbLine
10
1.3556059329070222
20
0.70786731740287334
30
0
11
1.7155192628566995
21
0.37035491152285333
31
0
0
LINE
5
210
100
AcDbEntity
8
0
100
AcDbLine
10
1.7855609620207387
20
1.2469111845645751
30
0
11
1.7682703138467384
21
1.0402966706088745
31
0
0
LINE
5
211
100
AcDbEntity
8
0
100
AcDbLine
10
2.9857292901211205
20
0.59187445670151007
30
0
11
2.874285875711498
21
0.69638165826066034
31
0
0
LINE
5
212
100
AcDbEntity
8
0
100
AcDbLine
10
1.3556059329070222
20
0.70786731740287334
30
0
11
1.5924681881338256
21
1.1404006776943489
31
0
0
LINE
5
213
100
AcDbEntity
8
0
100
AcDbLine
10
1.8511027704137781
20
0.5202774124736611
30
0
11
2.2364468079377549
21
0.58660055712422776
31
0
0
LINE
5
214
100
AcDbEntity
8
0
100
AcDbLine
10
1.9316848991347728
20
0.32933430102843964
30
0
11
1.8511027704137781
21
0.5202774124736611
31
0
0
LINE
5
215
100
AcDbEntity
8
0
100
AcDbLine
10
3.2099044624660946
20
0.54933391887313932
30
0
11
2.9857292901211205
21
0.59187445670151007
31
0
0
LINE
5
216
100
AcDbEntity
8
0
100
AcDbLine
10
3.1293223337450988
20
0.74027703031835967
30
0
11
3.2099044624660946
21
0.54933391887313932
31
0
0
LINE
5
217
100
AcDbEntity
8
0
100
AcDbLine
10
3.1293223337450988
20
0.74027703031835967
30
0
11
3.2213842256275962
21
0.75612218056737024
31
0
0
LINE
5
218
100
AcDbEntity
8
0
100
AcDbLine
10
3.0515123995171853
20
1.2291160353531196
30
0
11
3.0687795291914877
21
1.435740334954805
31
0
0
LINE
5
219
100
AcDbEntity
8
0
100
AcDbLine
10
3.0515123995171853
20
1.2291160353531196
30
0
11
3.1438559072495469
21
1.2427036839059422
31
0
0
LINE
5
220
100
AcDbEntity
8
0
100
AcDbLine
10
3.0687795291914877
20
1.435740334954805
30
0
11
2.8686348932391099
21
1.3253407090833471
31
0
0
LINE
5
221
100
AcDbEntity
8
0
100
AcDbLine
10
2.8686348932391099
20
1.3253407090833471
30
0
11
2.7952928062545075
21
1.1914152605927504
31
0
0
LINE
5
222
100
AcDbEntity
8
0
100
AcDbLine
10
2.4133048876654697
20
1.1352086282406992
30
0
11
2.7952928062545075
21
1.1914152605927504
31
0
0
LINE
5
223
100
AcDbEntity
8
0
100
AcDbLine
10
2.4133048876654697
20
1.1352086282406992
30
0
11
2.430584887726039
21
1.3418314155096751
31
0
0
LINE
5
224
100
AcDbEntity
8
0
100
AcDbLine
10
2.430584887726039
20
1.3418314155096751
30
0
11
2.2276303412904706
21
1.2298815049345535
31
0
0
LINE
5
225
100
AcDbEntity
8
0
100
AcDbLine
10
2.2276303412904706
20
1.2298815049345535
30
0
11
2.1549685023380767
21
1.0971963835422582
31
0
0
LINE
5
226
100
AcDbEntity
8
0
100
AcDbLine
10
3.0868633461945323
20
1.5568366709904988
30
0
11
3.1438559072495469
21
1.2427036839059422
31
0
0
LINE
5
227
100
AcDbEntity
8
0
100
AcDbLine
10
1.7423476727019036
20
0.12819244657042236
30
0
11
1.9352204740525953
21
0.2345812214175555
31
0
0
LINE
5
228
100
AcDbEntity
8
0
100
AcDbLine
10
1.5055540848571469
20
-0.30453460023109929
30
0
11
1.7423476727019036
21
0.12819244657042236
31
0
0
LINE
5
229
100
AcDbEntity
8
0
100
AcDbLine
10
1.5055540848571469
20
-0.30453460023109929
30
0
11
1.8652887430702425
21
-0.64187674011423146
31
0
0
LINE
5
230
100
AcDbEntity
8
0
100
AcDbLine
10
3.2792396124596399
20
-0.27198209393954204
30
0
11
3.3713308047541806
21
-0.25613190125276442
31
0
0
LINE
5
231
100
AcDbEntity
8
0
100
AcDbLine
10
3.2792396124596399
20
-0.27198209393954204
30
0
11
3.3598274070838223
21
-0.46292616813748999
31
0
0
LINE
5
232
100
AcDbEntity
8
0
100
AcDbLine
10
3.3598274070838223
20
-0.46292616813748999
30
0
11
3.1356329448076812
21
-0.42038197424694645
31
0
0
LINE
5
233
100
AcDbEntity
8
0
100
AcDbLine
10
2.3775071031302937
20
0.21767229309068001
30
0
11
2.3048287292062302
21
0.084953840292122537
31
0
0
LINE
5
234
100
AcDbEntity
8
0
100
AcDbLine
10
2.7241157207465672
20
-0.57234111293975476
30
0
11
2.4967638303705826
21
-0.52919775066694363
31
0
0
LINE
5
235
100
AcDbEntity
8
0
100
AcDbLine
10
2.081605935853335
20
-0.68292610635721529
30
0
11
2.0010181412291539
21
-0.49198203215926767
31
0
0
LINE
5
236
100
AcDbEntity
8
0
100
AcDbLine
10
3.1356329448076812
20
-0.42038197424694645
30
0
11
3.02419331066179
21
-0.31587915865140426
31
0
0
LINE
5
237
100
AcDbEntity
8
0
100
AcDbLine
10
2.0010181412291539
20
-0.49198203215926767
30
0
11
2.3863536948082902
21
-0.42566035012738451
31
0
0
LINE
5
238
100
AcDbEntity
8
0
100
AcDbLine
10
2.6435279261223852
20
-0.38139703874180614
30
0
11
2.7241157207465672
21
-0.57234111293975476
31
0
0
LINE
5
239
100
AcDbEntity
8
0
100
AcDbLine
10
2.4967638303705826
20
-0.52919775066694363
30
0
11
2.3863536948082902
21
-0.42566035012738451
31
0
0
LINE
5
240
100
AcDbEntity
8
0
100
AcDbLine
10
1.8652887430702425
20
-0.64187674011423146
30
0
11
2.081605935853335
21
-0.68292610635721529
31
0
0
LINE
5
241
100
AcDbEntity
8
0
100
AcDbLine
10
2.5629733211045074
20
0.12293758675270645
30
0
11
2.5802467034450012
21
0.32950324098722183
31
0
0
LINE
5
242
100
AcDbEntity
8
0
100
AcDbLine
10
2.5802467034450012
20
0.32950324098722183
30
0
11
2.3775071031302937
21
0.21767229309068001
31
0
0
LINE
5
243
100
AcDbEntity
8
0
100
AcDbLine
10
2.5629733211045074
20
0.12293758675270645
30
0
11
2.9451532207245874
21
0.17917205714293125
31
0
0
LINE
5
244
100
AcDbEntity
8
0
100
AcDbLine
10
2.6435279261223852
20
-0.38139703874180614
30
0
11
3.02419331066179
21
-0.31587915865140426
31
0
0
LINE
5
245
100
AcDbEntity
8
0
100
AcDbLine
10
3.0185100565788128
20
0.31312771353246488
30
0
11
2.9451532207245874
21
0.17917205714293125
31
0
0
LINE
5
246
100
AcDbEntity
8
0
100
AcDbLine
10
3.2011710957075254
20
0.21684287558317003
30
0
11
3.2938068989498022
21
0.23047343370430817
31
0
0
LINE
5
247
100
AcDbEntity
8
0
100
AcDbLine
10
1.9352204740525953
20
0.2345812214175555
30
0
11
1.9179611858772598
21
0.028029623628978598
31
0
0
LINE
5
248
100
AcDbEntity
8
0
100
AcDbLine
10
1.9179611858772598
20
0.028029623628978598
30
0
11
2.3048287292062302
21
0.084953840292122537
31
0
0
LINE
5
249
100
AcDbEntity
8
0
100
AcDbLine
10
3.2184564483019851
20
0.42341764476969512
30
0
11
3.0185100565788128
21
0.31312771353246488
31
0
0
LINE
5
250
100
AcDbEntity
8
0
100
AcDbLine
10
3.2011710957075254
20
0.21684287558317003
30
0
11
3.2184564483019851
21
0.42341764476969512
31
0
0
LINE
5
251
100
AcDbEntity
8
0
100
AcDbLine
10
2.8107661777408013
20
-1.3908435762146147
30
0
11
2.8913608557416124
21
-1.5817917161156889
31
0
0
LINE
5
252
100
AcDbEntity
8
0
100
AcDbLine
10
3.5964259073084652
20
-2.2936809700878196
30
0
11
3.6887452123598856
21
-2.2777915290591899
31
0
0
LINE
5
253
100
AcDbEntity
8
0
100
AcDbLine
10
2.0325780333954229
20
-1.6513359693832868
30
0
11
2.2488502172119889
21
-1.6923768149417928
31
0
0
LINE
5
254
100
AcDbEntity
8
0
100
AcDbLine
10
3.5964259073084652
20
-2.2936809700878196
30
0
11
3.6770275781364368
21
-2.4846360814535657
31
0
0
LINE
5
255
100
AcDbEntity
8
0
100
AcDbLine
10
2.0594407489349655
20
-1.8935106262782184
30
0
11
2.2522769702374617
21
-1.7871417949504469
31
0
0
LINE
5
256
100
AcDbEntity
8
0
100
AcDbLine
10
2.8138807398822254
20
-2.5508923809474493
30
0
11
2.7034835589067741
21
-2.4473688122893131
31
0
0
LINE
5
257
100
AcDbEntity
8
0
100
AcDbLine
10
2.5447040534577288
20
-0.79176000201512464
30
0
11
2.4720166609076641
21
-0.92449836397315155
31
0
0
LINE
5
258
100
AcDbEntity
8
0
100
AcDbLine
10
3.4527505454630698
20
-2.442076146844383
30
0
11
3.3413242383837667
21
-2.3375875281194913
31
0
0
LINE
5
259
100
AcDbEntity
8
0
100
AcDbLine
10
2.235128849560434
20
-1.993678143617885
30
0
11
2.6219134004925357
21
-1.9367661261663114
31
0
0
LINE
5
260
100
AcDbEntity
8
0
100
AcDbLine
10
2.7473637775553246
20
-0.67997315058927832
30
0
11
2.5447040534577288
21
-0.79176000201512464
31
0
0
LINE
5
261
100
AcDbEntity
8
0
100
AcDbLine
10
3.5270735858063129
20
-1.4723766327482013
30
0
11
3.3028453044574162
21
-1.429826000011748
31
0
0
LINE
5
262
100
AcDbEntity
8
0
100
AcDbLine
10
3.4464789078055014
20
-1.2814284928471271
30
0
11
3.5270735858063129
21
-1.4723766327482013
31
0
0
LINE
5
263
100
AcDbEntity
8
0
100
AcDbLine
10
2.2522769702374617
20
-1.7871417949504469
30
0
11
2.235128849560434
21
-1.993678143617885
31
0
0
LINE
5
264
100
AcDbEntity
8
0
100
AcDbLine
10
2.9607123421178674
20
-2.4030961481978514
30
0
11
3.0413140129458407
21
-2.5940512595635981
31
0
0
LINE
5
265
100
AcDbEntity
8
0
100
AcDbLine
10
3.4464789078055014
20
-1.2814284928471271
30
0
11
3.5386997192607774
21
-1.265555996833762
31
0
0
LINE
5
266
100
AcDbEntity
8
0
100
AcDbLine
10
2.1824669162747745
20
-2.6635834372536618
30
0
11
2.3988027671932359
21
-2.7046364133830578
31
0
0
LINE
5
267
100
AcDbEntity
8
0
100
AcDbLine
10
2.8972733425309434
20
-1.6922296909102617
30
0
11
2.6946010524433772
21
-1.8040237085682143
31
0
0
LINE
5
268
100
AcDbEntity
8
0
100
AcDbLine
10
3.5182916988151618
20
-1.8048717750749621
30
0
11
3.5354478008941936
21
-1.598324754512634
31
0
0
LINE
5
269
100
AcDbEntity
8
0
100
AcDbLine
10
2.8801212533056901
20
-1.8987730631289637
30
0
11
2.8972733425309434
21
-1.6922296909102617
31
0
0
LINE
5
270
100
AcDbEntity
8
0
100
AcDbLine
10
3.3683431806905491
20
-0.79261180454918168
30
0
11
3.3855438426226656
21
-0.58606739582862255
31
0
0
LINE
5
271
100
AcDbEntity
8
0
100
AcDbLine
10
2.8801212533056901
20
-1.8987730631289637
30
0
11
3.2622289233111781
21
-1.8425492084498512
31
0
0
LINE
5
272
100
AcDbEntity
8
0
100
AcDbLine
10
3.3683431806905491
20
-0.79261180454918168
30
0
11
3.4610956815656948
21
-0.77896409029728653
31
0
0
LINE
5
273
100
AcDbEntity
8
0
100
AcDbLine
10
3.3855438426226656
20
-0.58606739582862255
30
0
11
3.1857046975733549
21
-0.69629806991554655
31
0
0
LINE
5
274
100
AcDbEntity
8
0
100
AcDbLine
10
2.7301725223371904
20
-0.88651300081852913
30
0
11
2.7473637775553246
21
-0.67997315058927832
31
0
0
LINE
5
275
100
AcDbEntity
8
0
100
AcDbLine
10
2.7301725223371904
20
-0.88651300081852913
30
0
11
3.1123347320959422
21
-0.83028119480306961
31
0
0
LINE
5
276
100
AcDbEntity
8
0
100
AcDbLine
10
3.1857046975733549
20
-0.69629806991554655
30
0
11
3.1123347320959422
21
-0.83028119480306961
31
0
0
LINE
5
277
100
AcDbEntity
8
0
100
AcDbLine
10
2.9607123421178674
20
-2.4030961481978514
30
0
11
3.3413242383837667
21
-2.3375875281194913
31
0
0
LINE
5
278
100
AcDbEntity
8
0
100
AcDbLine
10
3.3355999158708256
20
-1.7085604626572453
30
0
11
3.2622289233111781
21
-1.8425492084498512
31
0
0
LINE
5
279
100
AcDbEntity
8
0
100
AcDbLine
10
3.5182916988151618
20
-1.8048717750749621
30
0
11
3.6112326710198097
21
-1.7911963109972728
31
0
0
LINE
5
280
100
AcDbEntity
8
0
100
AcDbLine
10
3.5354478008941936
20
-1.598324754512634
30
0
11
3.3355999158708256
21
-1.7085604626572453
31
0
0
LINE
5
281
100
AcDbEntity
8
0
100
AcDbLine
10
1.6726660735268593
20
-1.3138303421903759
30
0
11
1.9095449305036496
21
-0.88124579399164393
31
0
0
LINE
5
282
100
AcDbEntity
8
0
100
AcDbLine
10
1.8225687473344439
20
-2.3260934536052873
30
0
11
2.0594407489349655
21
-1.8935106262782184
31
0
0
LINE
5
283
100
AcDbEntity
8
0
100
AcDbLine
10
2.0851812917696266
20
-0.98141778426596671
30
0
11
2.4720166609076641
21
-0.92449836397315155
31
0
0
LINE
5
284
100
AcDbEntity
8
0
100
AcDbLine
10
2.8107661777408013
20
-1.3908435762146147
30
0
11
3.1914111958659044
21
-1.3253292260657066
31
0
0
LINE
5
285
100
AcDbEntity
8
0
100
AcDbLine
10
1.8225687473344439
20
-2.3260934536052873
30
0
11
2.1824669162747745
21
-2.6635834372536618
31
0
0
LINE
5
286
100
AcDbEntity
8
0
100
AcDbLine
10
2.6946010524433772
20
-1.8040237085682143
30
0
11
2.6219134004925357
21
-1.9367661261663114
31
0
0
LINE
5
287
100
AcDbEntity
8
0
100
AcDbLine
10
2.8913608557416124
20
-1.5817917161156889
30
0
11
2.663975854821083
21
-1.5386420491524386
31
0
0
LINE
5
288
100
AcDbEntity
8
0
100
AcDbLine
10
1.9095449305036496
20
-0.88124579399164393
30
0
11
2.1023636446420766
21
-0.77488684118525897
31
0
0
LINE
5
289
100
AcDbEntity
8
0
100
AcDbLine
10
2.663975854821083
20
-1.5386420491524386
30
0
11
2.5535710210955957
21
-1.4351104725267045
31
0
0
LINE
5
290
100
AcDbEntity
8
0
100
AcDbLine
10
1.6726660735268593
20
-1.3138303421903759
30
0
11
2.0325780333954229
21
-1.6513359693832868
31
0
0
LINE
5
291
100
AcDbEntity
8
0
100
AcDbLine
10
2.3988027671932359
20
-2.7046364133830578
30
0
11
2.3182010963652626
21
-2.5136813020173125
31
0
0
LINE
5
292
100
AcDbEntity
8
0
100
AcDbLine
10
3.6770275781364368
20
-2.4846360814535657
30
0
11
3.4527505454630698
21
-2.442076146844383
31
0
0
LINE
5
293
100
AcDbEntity
8
0
100
AcDbLine
10
2.1023636446420766
20
-0.77488684118525897
30
0
11
2.0851812917696266
21
-0.98141778426596671
31
0
0
LINE
5
294
100
AcDbEntity
8
0
100
AcDbLine
10
3.3028453044574162
20
-1.429826000011748
30
0
11
3.1914111958659044
21
-1.3253292260657066
31
0
0
LINE
5
295
100
AcDbEntity
8
0
100
AcDbLine
10
2.1682555392111778
20
-1.501428675040718
30
0
11
2.5535710210955957
21
-1.4351104725267045
31
0
0
LINE
5
296
100
AcDbEntity
8
0
100
AcDbLine
10
2.2488502172119889
20
-1.6923768149417928
30
0
11
2.1682555392111778
21
-1.501428675040718
31
0
0
LINE
5
297
100
AcDbEntity
8
0
100
AcDbLine
10
2.3182010963652626
20
-2.5136813020173125
30
0
11
2.7034835589067741
21
-2.4473688122893131
31
0
0
LINE
5
298
100
AcDbEntity
8
0
100
AcDbLine
10
3.0413140129458407
20
-2.5940512595635981
30
0
11
2.8138807398822254
21
-2.5508923809474493
31
0
0
LINE
5
299
100
AcDbEntity
8
0
100
AcDbLine
10
3.7592214418210168
20
-4.4718479049305522
30
0
11
3.6478092463043956
21
-4.3673740975763646
31
0
0
LINE
5
300
100
AcDbEntity
8
0
100
AcDbLine
10
3.6920223062840565
20
-2.6158549785296001
30
0
11
3.4921533248609258
21
-2.726102583805476
31
0
0
LINE
5
301
100
AcDbEntity
8
0
100
AcDbLine
10
3.6748849281555009
20
-2.8224080159891018
30
0
11
3.7678551489080587
21
-2.8087282356141046
31
0
0
LINE
5
302
100
AcDbEntity
8
0
100
AcDbLine
10
3.0367125429872033
20
-2.9163096761101803
30
0
11
3.4187843860733804
21
-2.8600910411690084
31
0
0
LINE
5
303
100
AcDbEntity
8
0
100
AcDbLine
10
3.1979338432989706
20
-3.6115865612594615
30
0
11
2.9704421257025273
21
-3.5684165209689405
31
0
0
LINE
5
304
100
AcDbEntity
8
0
100
AcDbLine
10
2.4888785287451385
20
-4.6933436600671445
30
0
11
2.705387549391975
21
-4.7344296376295283
31
0
0
LINE
5
305
100
AcDbEntity
8
0
100
AcDbLine
10
3.9030008337127651
20
-4.3234521541657394
30
0
11
3.9950839033482874
21
-4.3076034053308589
31
0
0
LINE
5
306
100
AcDbEntity
8
0
100
AcDbLine
10
2.3389696285809132
20
-3.6810964417870702
30
0
11
2.5554223673863028
21
-3.7221716666521729
31
0
0
LINE
5
307
100
AcDbEntity
8
0
100
AcDbLine
10
2.3658955018693817
20
-3.9233182376368654
30
0
11
2.5587667988087444
21
-3.8169295658112068
31
0
0
LINE
5
308
100
AcDbEntity
8
0
100
AcDbLine
10
3.0367125429872033
20
-2.9163096761101803
30
0
11
3.0538479238519156
21
-2.7097606775459147
31
0
0
LINE
5
309
100
AcDbEntity
8
0
100
AcDbLine
10
2.4088512176405397
20
-2.8046727503036708
30
0
11
2.3917179433305824
21
-3.0112151672979834
31
0
0
LINE
5
310
100
AcDbEntity
8
0
100
AcDbLine
10
3.267286867236777
20
-4.4328671750309194
30
0
11
3.3478988489447152
21
-4.6238447032817973
31
0
0
LINE
5
311
100
AcDbEntity
8
0
100
AcDbLine
10
3.8248104308991433
20
-3.8346690457882713
30
0
11
3.8419389752887558
21
-3.6281109255986395
31
0
0
LINE
5
312
100
AcDbEntity
8
0
100
AcDbLine
10
3.8248104308991433
20
-3.8346690457882713
30
0
11
3.9177373374523157
21
-3.8209956288063611
31
0
0
LINE
5
313
100
AcDbEntity
8
0
100
AcDbLine
10
2.3917179433305824
20
-3.0112151672979834
30
0
11
2.7784701287724238
21
-2.9543078596292744
31
0
0
LINE
5
314
100
AcDbEntity
8
0
100
AcDbLine
10
2.2159946956640999
20
-2.9110530254750584
30
0
11
2.4088512176405397
21
-2.8046727503036708
31
0
0
LINE
5
315
100
AcDbEntity
8
0
100
AcDbLine
10
3.186636828252627
20
-3.9285709532066417
30
0
11
3.2037641436458393
21
-3.7220173765325275
31
0
0
LINE
5
316
100
AcDbEntity
8
0
100
AcDbLine
10
2.9704421257025273
20
-3.5684165209689405
30
0
11
2.8600532840406405
21
-3.4649015841252422
31
0
0
LINE
5
317
100
AcDbEntity
8
0
100
AcDbLine
10
1.9792433986877778
20
-3.3437703370122431
30
0
11
2.3389696285809132
21
-3.6810964417870702
31
0
0
LINE
5
318
100
AcDbEntity
8
0
100
AcDbLine
10
3.642053842619732
20
-3.738367706691839
30
0
11
3.5686869661261507
21
-3.8723554712014319
31
0
0
LINE
5
319
100
AcDbEntity
8
0
100
AcDbLine
10
3.186636828252627
20
-3.9285709532066417
30
0
11
3.5686869661261507
21
-3.8723554712014319
31
0
0
LINE
5
320
100
AcDbEntity
8
0
100
AcDbLine
10
3.267286867236777
20
-4.4328671750309194
30
0
11
3.6478092463043956
21
-4.3673740975763646
31
0
0
LINE
5
321
100
AcDbEntity
8
0
100
AcDbLine
10
3.11732607376238
20
-3.420621381151991
30
0
11
3.1979338432989706
21
-3.6115865612594615
31
0
0
LINE
5
322
100
AcDbEntity
8
0
100
AcDbLine
10
3.6093123392802351
20
-3.459600289958086
30
0
11
3.4978943773881617
21
-3.3551203161230712
31
0
0
LINE
5
323
100
AcDbEntity
8
0
100
AcDbLine
10
3.7530400877900711
20
-3.3112062128999091
30
0
11
3.8336478573266612
21
-3.5021713930073788
31
0
0
LINE
5
324
100
AcDbEntity
8
0
100
AcDbLine
10
3.7530400877900711
20
-3.3112062128999091
30
0
11
3.8453667467222723
21
-3.2953155188168646
31
0
0
LINE
5
325
100
AcDbEntity
8
0
100
AcDbLine
10
2.1291562271513098
20
-4.3560236901711074
30
0
11
2.3658955018693817
21
-3.9233182376368654
31
0
0
LINE
5
326
100
AcDbEntity
8
0
100
AcDbLine
10
3.4921533248609258
20
-2.726102583805476
30
0
11
3.4187843860733804
21
-2.8600910411690084
31
0
0
LINE
5
327
100
AcDbEntity
8
0
100
AcDbLine
10
3.0010571157641834
20
-3.8338310931667392
30
0
11
2.9283735179759325
21
-3.9665722389862363
31
0
0
LINE
5
328
100
AcDbEntity
8
0
100
AcDbLine
10
2.5554223673863028
20
-3.7221716666521729
30
0
11
2.4748145978497127
21
-3.5312064865447024
31
0
0
LINE
5
329
100
AcDbEntity
8
0
100
AcDbLine
10
2.8511557182472504
20
-2.8215659483676951
30
0
11
2.7784701287724238
21
-2.9543078596292744
31
0
0
LINE
5
330
100
AcDbEntity
8
0
100
AcDbLine
10
3.120350772282074
20
-4.5806638919502705
30
0
11
3.0099678680229878
21
-4.4771552749511674
31
0
0
LINE
5
331
100
AcDbEntity
8
0
100
AcDbLine
10
2.5416408345935984
20
-4.0234767183943925
30
0
11
2.9283735179759325
21
-3.9665722389862363
31
0
0
LINE
5
332
100
AcDbEntity
8
0
100
AcDbLine
10
2.5587667988087444
20
-3.8169295658112068
30
0
11
2.5416408345935984
21
-4.0234767183943925
31
0
0
LINE
5
333
100
AcDbEntity
8
0
100
AcDbLine
10
3.2037641436458393
20
-3.7220173765325275
30
0
11
3.0010571157641834
21
-3.8338310931667392
31
0
0
LINE
5
334
100
AcDbEntity
8
0
100
AcDbLine
10
3.8336478573266612
20
-3.5021713930073788
30
0
11
3.6093123392802351
21
-3.459600289958086
31
0
0
LINE
5
335
100
AcDbEntity
8
0
100
AcDbLine
10
3.11732607376238
20
-3.420621381151991
30
0
11
3.4978943773881617
21
-3.3551203161230712
31
0
0
LINE
5
336
100
AcDbEntity
8
0
100
AcDbLine
10
2.1291562271513098
20
-4.3560236901711074
30
0
11
2.4888785287451385
21
-4.6933436600671445
31
0
0
LINE
5
337
100
AcDbEntity
8
0
100
AcDbLine
10
2.6247755676840376
20
-4.5434521093786495
30
0
11
3.0099678680229878
21
-4.4771552749511674
31
0
0
LINE
5
338
100
AcDbEntity
8
0
100
AcDbLine
10
3.3478988489447152
20
-4.6238447032817973
30
0
11
3.120350772282074
21
-4.5806638919502705
31
0
0
LINE
5
339
100
AcDbEntity
8
0
100
AcDbLine
10
3.0538479238519156
20
-2.7097606775459147
30
0
11
2.8511557182472504
21
-2.8215659483676951
31
0
0
LINE
5
340
100
AcDbEntity
8
0
100
AcDbLine
10
3.9030008337127651
20
-4.3234521541657394
30
0
11
3.9836128154207033
21
-4.5144296824166164
31
0
0
LINE
5
341
100
AcDbEntity
8
0
100
AcDbLine
10
2.705387549391975
20
-4.7344296376295283
30
0
11
2.6247755676840376
21
-4.5434521093786495
31
0
0
LINE
5
342
100
AcDbEntity
8
0
100
AcDbLine
10
3.8419389752887558
20
-3.6281109255986395
30
0
11
3.642053842619732
21
-3.738367706691839
31
0
0
LINE
5
343
100
AcDbEntity
8
0
100
AcDbLine
10
3.9836128154207033
20
-4.5144296824166164
30
0
11
3.7592214418210168
21
-4.4718479049305522
31
0
0
LINE
5
344
100
AcDbEntity
8
0
100
AcDbLine
10
1.9792433986877778
20
-3.3437703370122431
30
0
11
2.2159946956640999
21
-2.9110530254750584
31
0
0
LINE
5
345
100
AcDbEntity
8
0
100
AcDbLine
10
2.4748145978497127
20
-3.5312064865447024
30
0
11
2.8600532840406405
21
-3.4649015841252422
31
0
0
LINE
5
346
100
AcDbEntity
8
0
100
AcDbLine
10
3.6748849281555009
20
-2.8224080159891018
30
0
11
3.6920223062840565
21
-2.6158549785296001
31
0
0
LINE
5
347
100
AcDbEntity
8
0
100
AcDbLine
10
3.6887452123598856
20
-2.2777915290591899
30
0
11
3.7678551489080587
21
-2.8087282356141046
31
0
0
LINE
5
348
100
AcDbEntity
8
0
100
AcDbLine
10
3.6112326710198097
20
-1.7911963109972728
30
0
11
3.5386997192607774
21
-1.265555996833762
31
0
0
LINE
5
349
100
AcDbEntity
8
0
100
AcDbLine
10
3.3713308047541806
20
-0.25613190125276442
30
0
11
3.4610956815656948
21
-0.77896409029728653
31
0
0
LINE
5
350
100
AcDbEntity
8
0
100
AcDbLine
10
3.2938068989498022
20
0.23047343370430817
30
0
11
3.2213842256275962
21
0.75612218056737024
31
0
0
LINE
5
351
100
AcDbEntity
8
0
100
AcDbLine
10
3.8453667467222723
20
-3.2953155188168646
30
0
11
3.9177373374523157
21
-3.8209956288063611
31
0
0
LINE
5
352
100
AcDbEntity
8
0
100
AcDbLine
10
3.9950839033482874
20
-4.3076034053308589
30
0
11
4.06009544918878
21
-4.6719248078484013
31
0
0
SPLINE
5
353
100
AcDbEntity
8
0
100
AcDbSpline
70
1064
71
5
72
31
73
25
74
0
42
0.000000001
43
0.0000000001
44
0.0000000001
40
0
40
0
40
0
40
0
40
0
40
0
40
0.050000000000000003
40
0.10000000000000001
40
0.15000000000000002
40
0.20000000000000001
40
0.25
40
0.29999999999999999
40
0.34999999999999998
40
0.39999999999999997
40
0.44999999999999996
40
0.49999999999999994
40
0.54999999999999993
40
0.59999999999999998
40
0.65000000000000002
40
0.70000000000000007
40
0.75000000000000011
40
0.80000000000000016
40
0.8500000000000002
40
0.90000000000000024
40
0.95000000000000029
40
1
40
1
40
1
40
1
40
1
40
1
10
8.9855754775987542
20
9.7737911322676325
30
0
10
8.991303653770629
20
9.7459944566570744
30
0
10
9.0042284652246281
20
9.6888856430861807
30
0
10
9.0280210752822665
20
9.5986759380813478
30
0
10
9.0685914369417286
20
9.469267236582505
30
0
10
9.1342101178471466
20
9.2924485370745824
30
0
10
9.2148399255976194
20
9.1014462717966875
30
0
10
9.3104034470014145
20
8.8982912228124889
30
0
10
9.4204711583032701
20
8.6867593322768428
30
0
10
9.5443357717543424
20
8.4718581008354015
30
0
10
9.6811107401123504
20
8.2591749762188851
30
0
10
9.8298024292114423
20
8.0542715066738566
30
0
10
9.9893758597046531
20
7.8621052073956115
30
0
10
10.158810118946327
20
7.6863167232549721
30
0
10
10.337140229168236
20
7.5289063364159556
30
0
10
10.523478743487711
20
7.3907331946181447
30
0
10
10.717034242869195
20
7.2718056498689947
30
0
10
10.917123516483867
20
7.1716171008406047
30
0
10
11.123180020491443
20
7.0894336976661894
30
0
10
11.334758104615824
20
7.0245665427329849
30
0
10
11.551528409974894
20
6.9764182528024827
30
0
10
11.728922152089364
20
6.9509073186882357
30
0
10
11.864150153484715
20
6.9389601176558688
30
0
10
11.955267532495192
20
6.9341757002093889
30
0
10
12.00106756695437
20
6.9325785880478428
30
0
0
SPLINE
5
354
100
AcDbEntity
8
0
100
AcDbSpline
70
1064
71
5
72
36
73
30
74
0
42
0.000000001
43
0.0000000001
44
0.0000000001
40
0
40
0
40
0
40
0
40
0
40
0
40
0.040000000000000001
40
0.080000000000000002
40
0.12
40
0.16
40
0.20000000000000001
40
0.24000000000000002
40
0.28000000000000003
40
0.32000000000000001
40
0.35999999999999999
40
0.39999999999999997
40
0.43999999999999995
40
0.47999999999999993
40
0.51999999999999991
40
0.55999999999999994
40
0.59999999999999998
40
0.64000000000000001
40
0.68000000000000005
40
0.72000000000000008
40
0.76000000000000012
40
0.80000000000000016
40
0.84000000000000019
40
0.88000000000000023
40
0.92000000000000026
40
0.9600000000000003
40
1
40
1
40
1
40
1
40
1
40
1
10
4.06009544918878
20
-4.6719248078484013
30
0
10
4.0720495486645119
20
-4.6693283575113949
30
0
10
4.1030055857218528
20
-4.6654562292511681
30
0
10
4.1705899520908272
20
-4.6636111552143138
30
0
10
4.303459615805413
20
-4.66912003503555
30
0
10
4.5399470178741197
20
-4.6891041486842813
30
0
10
4.8378940930494991
20
-4.7209945726683147
30
0
10
5.1787711311009597
20
-4.7624113679519482
30
0
10
5.5400764243721339
20
-4.8104462560340879
30
0
10
5.8991871068405288
20
-4.8621120549120569
30
0
10
6.2380307426176387
20
-4.9148870235427422
30
0
10
6.547123356131916
20
-4.9671830409087745
30
0
10
6.830804179631218
20
-5.0189521337048308
30
0
10
7.1030562999048943
20
-5.0711918347486922
30
0
10
7.3820934459593248
20
-5.1253055140258796
30
0
10
7.6853572858252539
20
-5.1825083511656622
30
0
10
8.0245502499266124
20
-5.2432387589482099
30
0
10
8.4000588597602981
20
-5.3064913822522453
30
0
10
8.8035993653809719
20
-5.3701932750735253
30
0
10
9.2216499541062475
20
-5.4316813235758987
30
0
10
9.638463128469013
20
-5.4881263689427904
30
0
10
10.039344766546908
20
-5.5369972560866545
30
0
10
10.413510209531282
20
-5.5764649250942595
30
0
10
10.757909458634067
20
-5.6059549160727578
30
0
10
11.07814537974944
20
-5.6262631391682083
30
0
10
11.38427436023647
20
-5.6389003043586134
30
0
10
11.627109872028583
20
-5.6442773772273567
30
0
10
11.812367644657506
20
-5.6463060382416268
30
0
10
11.937839806138424
20
-5.6468561845929317
30
0
10
12.00106756695437
20
-5.6469306741374856
30
0
0
LINE
5
355
100
AcDbEntity
8
0
100
AcDbLine
10
21.191368956167938
20
-1.390843576214615
30
0
11
20.810723938042837
21
-1.3253292260657066
31
0
0
LINE
5
356
100
AcDbEntity
8
0
100
AcDbLine
10
21.271962611571549
20
-0.88651300081852913
30
0
11
21.254771356353416
21
-0.67997315058927843
31
0
0
LINE
5
357
100
AcDbEntity
8
0
100
AcDbLine
10
21.041422791790872
20
-2.4030961481978519
30
0
11
20.960821120962901
21
-2.5940512595635981
31
0
0
LINE
5
358
100
AcDbEntity
8
0
100
AcDbLine
10
20.642307726824917
20
-0.46292616813749032
30
0
11
20.866502189101059
21
-0.42038197424694596
31
0
0
LINE
5
359
100
AcDbEntity
8
0
100
AcDbLine
10
20.7228955214491
20
-0.27198209393954231
30
0
11
20.642307726824917
21
-0.46292616813749032
31
0
0
LINE
5
360
100
AcDbEntity
8
0
100
AcDbLine
10
22.216574171887999
20
1.2469111845645755
30
0
11
22.233864820061999
21
1.040296670608875
31
0
0
LINE
5
361
100
AcDbEntity
8
0
100
AcDbLine
10
21.358607207786353
20
-0.38139703874180669
30
0
11
20.977941823246947
21
-0.31587915865140459
31
0
0
LINE
5
362
100
AcDbEntity
8
0
100
AcDbLine
10
20.313389921548854
20
-2.2777915290591904
30
0
11
20.234279985000679
21
-2.8087282356141046
31
0
0
LINE
5
363
100
AcDbEntity
8
0
100
AcDbLine
10
20.792230671442649
20
0.54933391887313954
30
0
11
21.01640584378762
21
0.59187445670150962
31
0
0
LINE
5
364
100
AcDbEntity
8
0
100
AcDbLine
10
21.278019413162173
20
-0.57234111293975498
30
0
11
21.505371303538155
21
-0.52919775066694352
31
0
0
LINE
5
365
100
AcDbEntity
8
0
100
AcDbLine
10
20.549384588445673
20
-2.4420761468443839
30
0
11
20.660810895524971
21
-2.3375875281194918
31
0
0
LINE
5
366
100
AcDbEntity
8
0
100
AcDbLine
10
16.254808917487075
20
9.3682331287481038
30
0
11
15.802153936017486
21
9.5292494727233148
31
0
0
LINE
5
367
100
AcDbEntity
8
0
100
AcDbLine
10
17.594437064923216
20
10.409813613386033
30
0
11
17.480950153428971
21
10.035660922507962
31
0
0
LINE
5
368
100
AcDbEntity
8
0
100
AcDbLine
10
20.483843435093576
20
-1.8048717750749621
30
0
11
20.466687333014548
21
-1.5983247545126336
31
0
0
LINE
5
369
100
AcDbEntity
8
0
100
AcDbLine
10
20.630804329154561
20
-0.2561319012527648
30
0
11
20.541039452343043
21
-0.77896409029728697
31
0
0
LINE
5
370
100
AcDbEntity
8
0
100
AcDbLine
10
21.122013880603049
20
-1.8987730631289643
30
0
11
21.104861791377793
21
-1.6922296909102621
31
0
0
LINE
5
371
100
AcDbEntity
8
0
100
AcDbLine
10
20.018522318488035
20
-4.5144296824166164
30
0
11
20.242913692087722
21
-4.4718479049305522
31
0
0
LINE
5
372
100
AcDbEntity
8
0
100
AcDbLine
10
21.041422791790872
20
-2.4030961481978519
30
0
11
20.660810895524971
21
-2.3375875281194918
31
0
0
LINE
5
373
100
AcDbEntity
8
0
100
AcDbLine
10
22.286750477538746
20
0.37038045508452266
30
0
11
22.070450234773968
21
0.32933430102844019
31
0
0
LINE
5
374
100
AcDbEntity
8
0
100
AcDbLine
10
20.965422590921534
20
-2.9163096761101794
30
0
11
20.583350747835357
21
-2.8600910411690088
31
0
0
LINE
5
375
100
AcDbEntity
8
0
100
AcDbLine
10
22.136846390838496
20
-0.64187674011423124
30
0
11
21.920529198055402
21
-0.68292610635721562
31
0
0
LINE
5
376
100
AcDbEntity
8
0
100
AcDbLine
10
22.259787461206837
20
0.12819244657042234
30
0
11
22.066914659856145
21
0.23458122141755547
31
0
0
LINE
5
377
100
AcDbEntity
8
0
100
AcDbLine
10
20.666535218037914
20
-1.7085604626572453
30
0
11
20.739906210597564
21
-1.8425492084498512
31
0
0
LINE
5
378
100
AcDbEntity
8
0
100
AcDbLine
10
22.329469060381879
20
-1.3138303421903761
30
0
11
22.092590203405088
21
-0.88124579399164349
31
0
0
LINE
5
379
100
AcDbEntity
8
0
100
AcDbLine
10
22.066914659856145
20
0.23458122141755547
30
0
11
22.084173948031477
21
0.028029623628978314
31
0
0
LINE
5
380
100
AcDbEntity
8
0
100
AcDbLine
10
21.969633577730363
20
-1.6513214567002497
30
0
11
21.753284916696753
21
-1.6923768149417922
31
0
0
LINE
5
381
100
AcDbEntity
8
0
100
AcDbLine
10
21.942694384973777
20
-1.8935106262782184
30
0
11
21.749858163671277
21
-1.7871417949504469
31
0
0
LINE
5
382
100
AcDbEntity
8
0
100
AcDbLine
10
16.658416212979184
20
10.698878209181478
30
0
11
16.544929939070656
21
10.324727509331076
31
0
0
LINE
5
383
100
AcDbEntity
8
0
100
AcDbLine
10
17.123657083198367
20
10.044274824825109
30
0
11
17.037691399337547
21
10.168572067740779
31
0
0
LINE
5
384
100
AcDbEntity
8
0
100
AcDbLine
10
15.546853369183166
20
10.384716200809295
30
0
11
15.340140577423096
21
10.398315982833365
31
0
0
LINE
5
385
100
AcDbEntity
8
0
100
AcDbLine
10
17.933475755003624
20
8.8725383642671893
30
0
11
18.072043470364068
21
9.0538707064550046
31
0
0
LINE
5
386
100
AcDbEntity
8
0
100
AcDbLine
10
17.198428679405776
20
9.7995332989187389
30
0
11
17.338948921120227
21
9.9834212230472019
31
0
0
LINE
5
387
100
AcDbEntity
8
0
100
AcDbLine
10
15.340140577423096
20
10.398315982833365
30
0
11
15.480675524853684
21
10.58222224652868
31
0
0
LINE
5
388
100
AcDbEntity
8
0
100
AcDbLine
10
18.140226122219776
20
8.8589358843349366
30
0
11
17.933475755003624
21
8.8725383642671893
31
0
0
LINE
5
389
100
AcDbEntity
8
0
100
AcDbLine
10
17.338948921120227
20
9.9834212230472019
30
0
11
17.480950153428971
21
10.035660922507962
31
0
0
LINE
5
390
100
AcDbEntity
8
0
100
AcDbLine
10
15.480675524853684
20
10.58222224652868
30
0
11
15.622589892828593
21
10.634429738528237
31
0
0
LINE
5
391
100
AcDbEntity
8
0
100
AcDbLine
10
17.689743858789832
20
9.0192503882430124
30
0
11
17.660441901535325
21
8.9304841320760229
31
0
0
LINE
5
392
100
AcDbEntity
8
0
100
AcDbLine
10
16.033650158539526
20
10.230537076133695
30
0
11
15.912554897622854
21
9.8636947821756404
31
0
0
LINE
5
393
100
AcDbEntity
8
0
100
AcDbLine
10
17.387618075363893
20
10.423420559696085
30
0
11
17.594437064923216
21
10.409813613386033
31
0
0
LINE
5
394
100
AcDbEntity
8
0
100
AcDbLine
10
17.891941422055222
20
9.6317801432100065
30
0
11
17.770841555884783
21
9.26492472638901
31
0
0
LINE
5
395
100
AcDbEntity
8
0
100
AcDbLine
10
18.814150943975804
20
9.3220996125741813
30
0
11
18.991007023175523
21
9.2142735064616073
31
0
0
LINE
5
396
100
AcDbEntity
8
0
100
AcDbLine
10
17.52133475579928
20
10.598406575828633
30
0
11
17.387618075363893
21
10.423420559696085
31
0
0
LINE
5
397
100
AcDbEntity
8
0
100
AcDbLine
10
17.217970344198537
20
9.1686481368515409
30
0
11
17.190832746327303
21
9.079178742242064
31
0
0
LINE
5
398
100
AcDbEntity
8
0
100
AcDbLine
10
18.611964394707591
20
8.7095641205350489
30
0
11
18.788820473907315
21
8.6017380144224713
31
0
0
LINE
5
399
100
AcDbEntity
8
0
100
AcDbLine
10
17.983917782396659
20
10.76868615491858
30
0
11
17.52133475579928
21
10.598406575828633
31
0
0
LINE
5
400
100
AcDbEntity
8
0
100
AcDbLine
10
15.546853369183166
20
10.384716200809295
30
0
11
15.434743082316256
21
10.015073457774422
31
0
0
LINE
5
401
100
AcDbEntity
8
0
100
AcDbLine
10
17.337084188436048
20
10.432103149601879
30
0
11
17.160268935765625
21
10.53990427447048
31
0
0
LINE
5
402
100
AcDbEntity
8
0
100
AcDbLine
10
18.788820473907315
20
8.6017380144224713
30
0
11
18.779876436704512
21
8.8297401653335399
31
0
0
LINE
5
403
100
AcDbEntity
8
0
100
AcDbLine
10
15.291516181966678
20
9.9623831902921989
30
0
11
15.434743082316256
21
10.015073457774422
31
0
0
LINE
5
404
100
AcDbEntity
8
0
100
AcDbLine
10
17.405202293361668
20
9.7859293428986813
30
0
11
17.293088041588078
21
9.4163021459421614
31
0
0
LINE
5
405
100
AcDbEntity
8
0
100
AcDbLine
10
17.328454890010516
20
10.652086138459243
30
0
11
17.337084188436048
21
10.432103149601879
31
0
0
LINE
5
406
100
AcDbEntity
8
0
100
AcDbLine
10
18.779876436704512
20
8.8297401653335399
30
0
11
18.693063363998689
21
8.9552579969990358
31
0
0
LINE
5
407
100
AcDbEntity
8
0
100
AcDbLine
10
18.906166023707328
20
10.458970573616197
30
0
11
19.186724579246626
21
10.053327731485416
31
0
0
LINE
5
408
100
AcDbEntity
8
0
100
AcDbLine
10
15.8314528963438
20
9.6180068504714633
30
0
11
16.008269326359784
21
9.5102048027059958
31
0
0
LINE
5
409
100
AcDbEntity
8
0
100
AcDbLine
10
17.14978957250004
20
9.3635852730540172
30
0
11
17.293088041588078
21
9.4163021459421614
31
0
0
LINE
5
410
100
AcDbEntity
8
0
100
AcDbLine
10
18.991007023175523
20
9.2142735064616073
30
0
11
18.981936814478768
21
9.4454920317406934
31
0
0
LINE
5
411
100
AcDbEntity
8
0
100
AcDbLine
10
17.04806204857994
20
11.057709960374657
30
0
11
17.328454890010516
21
10.652086138459243
31
0
0
LINE
5
412
100
AcDbEntity
8
0
100
AcDbLine
10
15.15293289786468
20
9.7810321010672965
30
0
11
15.291516181966678
21
9.9623831902921989
31
0
0
LINE
5
413
100
AcDbEntity
8
0
100
AcDbLine
10
19.186724579246626
20
10.053327731485416
30
0
11
19.195353708105145
21
9.8333532506531434
31
0
0
LINE
5
414
100
AcDbEntity
8
0
100
AcDbLine
10
18.06875609374918
20
9.5239794164235434
30
0
11
18.059685527634258
21
9.7552133664404543
31
0
0
LINE
5
415
100
AcDbEntity
8
0
100
AcDbLine
10
17.983917782396659
20
10.76868615491858
30
0
11
18.264483521661678
21
10.363024877638772
31
0
0
LINE
5
416
100
AcDbEntity
8
0
100
AcDbLine
10
18.981936814478768
20
9.4454920317406934
30
0
11
18.895927831006549
21
9.5698472788561659
31
0
0
LINE
5
417
100
AcDbEntity
8
0
100
AcDbLine
10
19.195353708105145
20
9.8333532506531434
30
0
11
19.018497628905429
21
9.9411793567657192
31
0
0
LINE
5
418
100
AcDbEntity
8
0
100
AcDbLine
10
16.008269326359784
20
9.5102048027059958
30
0
11
15.999324403287064
21
9.7382332260287718
31
0
0
LINE
5
419
100
AcDbEntity
8
0
100
AcDbLine
10
17.857614310430179
20
9.1394626990788144
30
0
11
17.770841555884783
21
9.26492472638901
31
0
0
LINE
5
420
100
AcDbEntity
8
0
100
AcDbLine
10
18.264483521661678
20
10.363024877638772
30
0
11
18.273112469779363
21
10.143048998243438
31
0
0
LINE
5
421
100
AcDbEntity
8
0
100
AcDbLine
10
18.120684639580581
20
9.489821083572334
30
0
11
18.261202735603469
21
9.6737067452137442
31
0
0
LINE
5
422
100
AcDbEntity
8
0
100
AcDbLine
10
15.999324403287064
20
9.7382332260287718
30
0
11
15.912554897622854
21
9.8636947821756404
31
0
0
LINE
5
423
100
AcDbEntity
8
0
100
AcDbLine
10
18.906166023707328
20
10.458970573616197
30
0
11
18.443588445429196
21
10.288692417643277
31
0
0
LINE
5
424
100
AcDbEntity
8
0
100
AcDbLine
10
17.866558530483786
20
8.9114496614565493
30
0
11
17.857614310430179
21
9.1394626990788144
31
0
0
LINE
5
425
100
AcDbEntity
8
0
100
AcDbLine
10
18.327458212510649
20
9.4762170519715063
30
0
11
18.120684639580581
21
9.489821083572334
31
0
0
LINE
5
426
100
AcDbEntity
8
0
100
AcDbLine
10
21.527320536059026
20
-3.5312064865447024
30
0
11
21.142081849868099
21
-3.4649015841252422
31
0
0
LINE
5
427
100
AcDbEntity
8
0
100
AcDbLine
10
21.443368335099994
20
-3.8169295658112068
30
0
11
21.46049429931514
21
-4.0234767183943925
31
0
0
LINE
5
428
100
AcDbEntity
8
0
100
AcDbLine
10
22.023006006869085
20
-3.3436338592131456
30
0
11
21.78614043824464
21
-2.9110530254750588
31
0
0
LINE
5
429
100
AcDbEntity
8
0
100
AcDbLine
10
20.948287210056822
20
-2.7097606775459151
30
0
11
21.150979415661489
21
-2.8215659483676951
31
0
0
SPLINE
5
430
100
AcDbEntity
8
0
100
AcDbSpline
70
1064
71
5
72
36
73
30
74
0
42
0.000000001
43
0.0000000001
44
0.0000000001
40
0
40
0
40
0
40
0
40
0
40
0
40
0.040000000000000001
40
0.080000000000000002
40
0.12
40
0.16
40
0.20000000000000001
40
0.24000000000000002
40
0.28000000000000003
40
0.32000000000000001
40
0.35999999999999999
40
0.39999999999999997
40
0.43999999999999995
40
0.47999999999999993
40
0.51999999999999991
40
0.55999999999999994
40
0.59999999999999998
40
0.64000000000000001
40
0.68000000000000005
40
0.72000000000000008
40
0.76000000000000012
40
0.80000000000000016
40
0.84000000000000019
40
0.88000000000000023
40
0.92000000000000026
40
0.9600000000000003
40
1
40
1
40
1
40
1
40
1
40
1
10
19.942039684719962
20
-4.6719248078484013
30
0
10
19.930085585244228
20
-4.6693283575113949
30
0
10
19.899129548186835
20
-4.665456229251169
30
0
10
19.831545181817624
20
-4.6636111552143156
30
0
10
19.698675518102963
20
-4.6691200350355633
30
0
10
19.462188116034827
20
-4.6891041486842804
30
0
10
19.164241040859842
20
-4.7209945726682525
30
0
10
18.823364002808585
20
-4.7624113679518327
30
0
10
18.462058709537331
20
-4.8104462560339663
30
0
10
18.102948027068631
20
-4.8621120549119805
30
0
10
17.764104391291131
20
-4.914887023542736
30
0
10
17.455011777776519
20
-4.9671830409088269
30
0
10
17.171330954277099
20
-5.0189521337049126
30
0
10
16.899078834003511
20
-5.0711918347487668
30
0
10
16.620041687949236
20
-5.1253055140259152
30
0
10
16.31677784808349
20
-5.1825083511656596
30
0
10
15.977584883982226
20
-5.2432387589481948
30
0
10
15.602076274148544
20
-5.306491382252231
30
0
10
15.198535768527849
20
-5.3701932750735324
30
0
10
14.780485179802552
20
-5.4316813235759192
30
0
10
14.36367200543979
20
-5.4881263689428117
30
0
10
13.962790367361883
20
-5.5369972560866625
30
0
10
13.588624924377445
20
-5.5764649250942533
30
0
10
13.244225675274505
20
-5.6059549160727498
30
0
10
12.923989754159013
20
-5.6262631391682003
30
0
10
12.617860773672032
20
-5.6389003043586099
30
0
10
12.375025261880047
20
-5.644277377227354
30
0
10
12.189767489251215
20
-5.6463060382416241
30
0
10
12.064295327770315
20
-5.6468561845929317
30
0
10
12.00106756695437
20
-5.6469306741374856
30
0
0
LINE
5
431
100
AcDbEntity
8
0
100
AcDbLine
10
20.633791953218189
20
-0.79261180454918145
30
0
11
20.541039452343043
21
-0.77896409029728697
31
0
0
LINE
5
432
100
AcDbEntity
8
0
100
AcDbLine
10
22.409666945774916
20
1.1404006776943494
30
0
11
22.216574171887999
21
1.2469111845645755
31
0
0
LINE
5
433
100
AcDbEntity
8
0
100
AcDbLine
10
22.070450234773968
20
0.32933430102844019
30
0
11
22.151032363494963
21
0.52027741247366055
31
0
0
LINE
5
434
100
AcDbEntity
8
0
100
AcDbLine
10
21.819727727458908
20
-2.6635721443708018
30
0
11
21.603332366715502
21
-2.7046364133830578
31
0
0
LINE
5
435
100
AcDbEntity
8
0
100
AcDbLine
10
20.099134300195974
20
-4.3234521541657394
30
0
11
20.018522318488035
21
-4.5144296824166164
31
0
0
SPLINE
5
436
100
AcDbEntity
8
0
100
AcDbSpline
70
1064
71
5
72
31
73
25
74
0
42
0.000000001
43
0.0000000001
44
0.0000000001
40
0
40
0
40
0
40
0
40
0
40
0
40
0.050000000000000003
40
0.10000000000000001
40
0.15000000000000002
40
0.20000000000000001
40
0.25
40
0.29999999999999999
40
0.34999999999999998
40
0.39999999999999997
40
0.44999999999999996
40
0.49999999999999994
40
0.54999999999999993
40
0.59999999999999998
40
0.65000000000000002
40
0.70000000000000007
40
0.75000000000000011
40
0.80000000000000016
40
0.8500000000000002
40
0.90000000000000024
40
0.95000000000000029
40
1
40
1
40
1
40
1
40
1
40
1
10
18.848773403382872
20
8.5329548773493524
30
0
10
18.826086405256977
20
8.4534786261002708
30
0
10
18.782350669037925
20
8.2947546419667209
30
0
10
18.721661216380475
20
8.057360608803501
30
0
10
18.651087728965305
20
7.7398648861022554
30
0
10
18.583047945931281
20
7.3299500663861945
30
0
10
18.538979681105534
20
6.8945620202350959
30
0
10
18.522450352599495
20
6.4278606630675128
30
0
10
18.536361824860386
20
5.9315149179235735
30
0
10
18.580877919039011
20
5.4319348427352674
30
0
10
18.656491452898461
20
4.9453615109931723
30
0
10
18.764007608192166
20
4.4732993459844792
30
0
10
18.902996274164853
20
4.0132755757434557
30
0
10
19.070553004377516
20
3.5654785942978005
30
0
10
19.260508139296523
20
3.1355777874638608
30
0
10
19.46083326096965
20
2.7523226857999221
30
0
10
19.655499670759202
20
2.4461844791272869
30
0
10
19.835573086299242
20
2.2024888225887644
30
0
10
20.001401026104343
20
2.0012261395762936
30
0
10
20.165905514326475
20
1.8247531472414273
30
0
10
20.362994642259281
20
1.6872410743248429
30
0
10
20.558103453993688
20
1.6123346040536357
30
0
10
20.727702841869874
20
1.5766630630875431
30
0
10
20.851036349774759
20
1.5619356331786816
30
0
10
20.915271787714207
20
1.5568366709904988
30
0
0
LINE
5
437
100
AcDbEntity
8
0
100
AcDbLine
10
16.125635146617505
20
11.36746006673804
30
0
11
15.663061470665591
21
11.197188681442137
31
0
0
LINE
5
438
100
AcDbEntity
8
0
100
AcDbLine
10
16.125635146617505
20
11.36746006673804
30
0
11
16.406192894412275
21
10.961796678915933
31
0
0
LINE
5
439
100
AcDbEntity
8
0
100
AcDbLine
10
15.663061470665591
20
11.197188681442137
30
0
11
15.52934280580609
21
11.022201099154925
31
0
0
SPLINE
5
440
100
AcDbEntity
8
0
100
AcDbSpline
70
1064
71
5
72
31
73
25
74
0
42
0.000000001
43
0.0000000001
44
0.0000000001
40
0
40
0
40
0
40
0
40
0
40
0
40
0.050000000000000003
40
0.10000000000000001
40
0.15000000000000002
40
0.20000000000000001
40
0.25
40
0.29999999999999999
40
0.34999999999999998
40
0.39999999999999997
40
0.44999999999999996
40
0.49999999999999994
40
0.54999999999999993
40
0.59999999999999998
40
0.65000000000000002
40
0.70000000000000007
40
0.75000000000000011
40
0.80000000000000016
40
0.8500000000000002
40
0.90000000000000024
40
0.95000000000000029
40
1
40
1
40
1
40
1
40
1
40
1
10
15.016559656309989
20
9.7737911322676325
30
0
10
15.010831480138116
20
9.7459944566570744
30
0
10
14.997906668684164
20
9.6888856430861825
30
0
10
14.974114058626801
20
9.5986759380813655
30
0
10
14.933543696967607
20
9.469267236582553
30
0
10
14.867925016062017
20
9.2924485370746392
30
0
10
14.787295208311141
20
9.1014462717967
30
0
10
14.691731686907048
20
8.8982912228124373
30
0
10
14.581663975605119
20
8.6867593322767451
30
0
10
14.457799362154166
20
8.4718581008353038
30
0
10
14.321024393796323
20
8.2591749762188194
30
0
10
14.172332704697316
20
8.0542715066738388
30
0
10
14.012759274204109
20
7.8621052073956221
30
0
10
13.843325014962282
20
7.686316723254996
30
0
10
13.66499490474024
20
7.5289063364159778
30
0
10
13.478656390420639
20
7.3907331946181598
30
0
10
13.285100891039232
20
7.2718056498689974
30
0
10
13.085011617424863
20
7.1716171008406029
30
0
10
12.878955113417703
20
7.0894336976661911
30
0
10
12.667377029293633
20
7.0245665427329911
30
0
10
12.450606723934516
20
6.9764182528024854
30
0
10
12.273212981819677
20
6.9509073186882384
30
0
10
12.137984980424088
20
6.9389601176558688
30
0
10
12.046867601413547
20
6.9341757002093889
30
0
10
12.00106756695437
20
6.9325785880478428
30
0
0
LINE
5
441
100
AcDbEntity
8
0
100
AcDbLine
10
15.52934280580609
20
11.022201099154925
30
0
11
15.73607338861377
21
11.008600136656101
31
0
0
LINE
5
442
100
AcDbEntity
8
0
100
AcDbLine
10
17.04806204857994
20
11.057709960374657
30
0
11
16.585316165433003
21
10.887473655894949
31
0
0
LINE
5
443
100
AcDbEntity
8
0
100
AcDbLine
10
21.358607207786353
20
-0.38139703874180669
30
0
11
21.278019413162173
21
-0.57234111293975498
31
0
0
LINE
5
444
100
AcDbEntity
8
0
100
AcDbLine
10
20.405709226600276
20
-2.2936809700878196
30
0
11
20.313389921548854
21
-2.2777915290591904
31
0
0
LINE
5
445
100
AcDbEntity
8
0
100
AcDbLine
10
20.960821120962901
20
-2.5940512595635981
30
0
11
21.188254394026515
21
-2.5508923809474493
31
0
0
LINE
5
446
100
AcDbEntity
8
0
100
AcDbLine
10
21.655274639749095
20
0.48305899370382982
30
0
11
21.765688325970988
21
0.58660055712422809
31
0
0
LINE
5
447
100
AcDbEntity
8
0
100
AcDbLine
10
20.866502189101059
20
-0.42038197424694596
30
0
11
20.977941823246947
21
-0.31587915865140459
31
0
0
LINE
5
448
100
AcDbEntity
8
0
100
AcDbLine
10
21.872978906757432
20
-4.3560236901711074
30
0
11
21.513256605163601
21
-4.6933436600671445
31
0
0
LINE
5
449
100
AcDbEntity
8
0
100
AcDbLine
10
21.753284916696753
20
-1.6923768149417922
30
0
11
21.83387959469756
21
-1.5014286750407182
31
0
0
LINE
5
450
100
AcDbEntity
8
0
100
AcDbLine
10
21.610417190578158
20
-3.0112151672979826
30
0
11
21.223665005136315
21
-2.9543078596292744
31
0
0
LINE
5
451
100
AcDbEntity
8
0
100
AcDbLine
10
20.915271787714207
20
1.5568366709904988
30
0
11
20.858279226659192
21
1.2427036839059418
31
0
0
LINE
5
452
100
AcDbEntity
8
0
100
AcDbLine
10
20.933355604717253
20
1.435740334954805
30
0
11
21.13350024066963
21
1.3253407090833471
31
0
0
LINE
5
453
100
AcDbEntity
8
0
100
AcDbLine
10
15.359635315075879
20
9.767433014762112
30
0
11
15.15293289786468
21
9.7810321010672965
31
0
0
LINE
5
454
100
AcDbEntity
8
0
100
AcDbLine
10
17.689743858789832
20
9.0192503882430124
30
0
11
17.866558530483786
21
8.9114496614565493
31
0
0
LINE
5
455
100
AcDbEntity
8
0
100
AcDbLine
10
17.217970344198537
20
9.1686481368515409
30
0
11
17.011219602840242
21
9.1822505647871964
31
0
0
LINE
5
456
100
AcDbEntity
8
0
100
AcDbLine
10
17.160268935765625
20
10.53990427447048
30
0
11
17.037691399337547
21
10.168572067740779
31
0
0
LINE
5
457
100
AcDbEntity
8
0
100
AcDbLine
10
20.156768387186471
20
-3.2953155188168646
30
0
11
20.084397796456422
21
-3.8209956288063611
31
0
0
LINE
5
458
100
AcDbEntity
8
0
100
AcDbLine
10
20.325107555772306
20
-2.4846360814535662
30
0
11
20.549384588445673
21
-2.4420761468443839
31
0
0
LINE
5
459
100
AcDbEntity
8
0
100
AcDbLine
10
21.296747584516766
20
-4.7344296376295283
30
0
11
21.377359566224701
21
-4.5434521093786495
31
0
0
LINE
5
460
100
AcDbEntity
8
0
100
AcDbLine
10
20.509981809047815
20
-2.7261025838054764
30
0
11
20.583350747835357
21
-2.8600910411690088
31
0
0
LINE
5
461
100
AcDbEntity
8
0
100
AcDbLine
10
18.611964394707591
20
8.7095641205350489
30
0
11
18.582662720192694
21
8.6207930540050661
31
0
0
LINE
5
462
100
AcDbEntity
8
0
100
AcDbLine
10
18.096297798085409
20
10.250849725029903
30
0
11
17.973718018663828
21
9.879511114215596
31
0
0
LINE
5
463
100
AcDbEntity
8
0
100
AcDbLine
10
18.273112469779363
20
10.143048998243438
30
0
11
18.096297798085409
21
10.250849725029903
31
0
0
LINE
5
464
100
AcDbEntity
8
0
100
AcDbLine
10
18.059685527634258
20
9.7552133664404543
30
0
11
17.973718018663828
21
9.879511114215596
31
0
0
LINE
5
465
100
AcDbEntity
8
0
100
AcDbLine
10
16.585316165433003
20
10.887473655894949
30
0
11
16.451597123979436
21
10.71248508572342
31
0
0
LINE
5
466
100
AcDbEntity
8
0
100
AcDbLine
10
16.451597123979436
20
10.71248508572342
30
0
11
16.658416212979184
21
10.698878209181478
31
0
0
LINE
5
467
100
AcDbEntity
8
0
100
AcDbLine
10
16.402930178095257
20
10.272488541616882
30
0
11
16.544929939070656
21
10.324727509331076
31
0
0
LINE
5
468
100
AcDbEntity
8
0
100
AcDbLine
10
18.582662720192694
20
8.6207930540050661
30
0
11
18.848773403382872
21
8.5329548773493524
31
0
0
LINE
5
469
100
AcDbEntity
8
0
100
AcDbLine
10
20.804201290609768
20
-3.6115865612594615
30
0
11
21.031693008206215
21
-3.5684165209689405
31
0
0
LINE
5
470
100
AcDbEntity
8
0
100
AcDbLine
10
21.513256605163601
20
-4.6933436600671445
30
0
11
21.296747584516766
21
-4.7344296376295283
31
0
0
LINE
5
471
100
AcDbEntity
8
0
100
AcDbLine
10
21.446712766522435
20
-3.7221716666521729
30
0
11
21.527320536059026
21
-3.5312064865447024
31
0
0
LINE
5
472
100
AcDbEntity
8
0
100
AcDbLine
10
20.36008129128901
20
-3.738367706691839
30
0
11
20.433448167782586
21
-3.8723554712014319
31
0
0
LINE
5
473
100
AcDbEntity
8
0
100
AcDbLine
10
20.815498305656114
20
-3.9285709532066417
30
0
11
20.433448167782586
21
-3.8723554712014319
31
0
0
LINE
5
474
100
AcDbEntity
8
0
100
AcDbLine
10
20.815498305656114
20
-3.9285709532066417
30
0
11
20.798370990262899
21
-3.7220173765325275
31
0
0
LINE
5
475
100
AcDbEntity
8
0
100
AcDbLine
10
20.177324703009596
20
-3.8346690457882713
30
0
11
20.160196158619982
21
-3.6281109255986395
31
0
0
LINE
5
476
100
AcDbEntity
8
0
100
AcDbLine
10
20.242913692087722
20
-4.4718479049305522
30
0
11
20.354325887604343
21
-4.3673740975763646
31
0
0
LINE
5
477
100
AcDbEntity
8
0
100
AcDbLine
10
20.177324703009596
20
-3.8346690457882713
30
0
11
20.084397796456422
21
-3.8209956288063611
31
0
0
LINE
5
478
100
AcDbEntity
8
0
100
AcDbLine
10
21.150979415661489
20
-2.8215659483676951
30
0
11
21.223665005136315
21
-2.9543078596292744
31
0
0
LINE
5
479
100
AcDbEntity
8
0
100
AcDbLine
10
21.46049429931514
20
-4.0234767183943925
30
0
11
21.073761615932806
21
-3.9665722389862363
31
0
0
LINE
5
480
100
AcDbEntity
8
0
100
AcDbLine
10
21.603332366715502
20
-2.7046364133830578
30
0
11
21.683934037543477
21
-2.5136813020173121
31
0
0
LINE
5
481
100
AcDbEntity
8
0
100
AcDbLine
10
22.179458054729658
20
-2.3262395521381403
30
0
11
21.942694384973777
21
-1.8935106262782184
31
0
0
LINE
5
482
100
AcDbEntity
8
0
100
AcDbLine
10
22.179458054729658
20
-2.3262395521381403
30
0
11
21.819727727458908
21
-2.6635721443708018
31
0
0
LINE
5
483
100
AcDbEntity
8
0
100
AcDbLine
10
20.392822794628504
20
-3.459600289958086
30
0
11
20.504240756520577
21
-3.3551203161230712
31
0
0
LINE
5
484
100
AcDbEntity
8
0
100
AcDbLine
10
20.73484826667196
20
-4.4328671750309194
30
0
11
20.354325887604343
21
-4.3673740975763646
31
0
0
LINE
5
485
100
AcDbEntity
8
0
100
AcDbLine
10
21.307534081465359
20
-1.8040237085682143
30
0
11
21.380221733416207
21
-1.9367661261663118
31
0
0
LINE
5
486
100
AcDbEntity
8
0
100
AcDbLine
10
22.329469060381879
20
-1.3138303421903761
30
0
11
21.969633577730363
21
-1.6513214567002497
31
0
0
LINE
5
487
100
AcDbEntity
8
0
100
AcDbLine
10
20.73484826667196
20
-4.4328671750309194
30
0
11
20.654236284964025
21
-4.6238447032817973
31
0
0
LINE
5
488
100
AcDbEntity
8
0
100
AcDbLine
10
21.338159279087655
20
-1.5386420491524377
30
0
11
21.448564112813145
21
-1.4351104725267043
31
0
0
LINE
5
489
100
AcDbEntity
8
0
100
AcDbLine
10
21.031693008206215
20
-3.5684165209689405
30
0
11
21.142081849868099
21
-3.4649015841252422
31
0
0
LINE
5
490
100
AcDbEntity
8
0
100
AcDbLine
10
22.023006006869085
20
-3.3436338592131456
30
0
11
21.663165505327825
21
-3.6810964417870702
31
0
0
LINE
5
491
100
AcDbEntity
8
0
100
AcDbLine
10
21.001078018144558
20
-3.8338310931667392
30
0
11
21.073761615932806
21
-3.9665722389862363
31
0
0
LINE
5
492
100
AcDbEntity
8
0
100
AcDbLine
10
20.099134300195974
20
-4.3234521541657394
30
0
11
20.007051230560453
21
-4.3076034053308589
31
0
0
LINE
5
493
100
AcDbEntity
8
0
100
AcDbLine
10
20.88480906014636
20
-3.420621381151991
30
0
11
20.804201290609768
21
-3.6115865612594615
31
0
0
LINE
5
494
100
AcDbEntity
8
0
100
AcDbLine
10
20.88480906014636
20
-3.420621381151991
30
0
11
20.504240756520577
21
-3.3551203161230712
31
0
0
LINE
5
495
100
AcDbEntity
8
0
100
AcDbLine
10
21.271962611571549
20
-0.88651300081852913
30
0
11
20.889800401812799
21
-0.83028119480306906
31
0
0
LINE
5
496
100
AcDbEntity
8
0
100
AcDbLine
10
21.457431080451013
20
-0.79176000201512409
30
0
11
21.530118473001075
21
-0.9244983639731521
31
0
0
LINE
5
497
100
AcDbEntity
8
0
100
AcDbLine
10
20.466687333014548
20
-1.5983247545126336
30
0
11
20.666535218037914
21
-1.7085604626572453
31
0
0
LINE
5
498
100
AcDbEntity
8
0
100
AcDbLine
10
21.624628030778446
20
0.21767229309068009
30
0
11
21.697306404702509
21
0.084953840292122718
31
0
0
LINE
5
499
100
AcDbEntity
8
0
100
AcDbLine
10
20.616591291286074
20
-0.58606739582862233
30
0
11
20.816430436335384
21
-0.69629806991554655
31
0
0
LINE
5
500
100
AcDbEntity
8
0
100
AcDbLine
10
21.505371303538155
20
-0.52919775066694352
30
0
11
21.615781439100449
21
-0.42566035012738451
31
0
0
LINE
5
501
100
AcDbEntity
8
0
100
AcDbLine
10
21.77450479261827
20
1.2298815049345539
30
0
11
21.847166631570662
21
1.0971963835422578
31
0
0
LINE
5
502
100
AcDbEntity
8
0
100
AcDbLine
10
20.327250205753238
20
-2.8224080159891014
30
0
11
20.310112827624682
21
-2.6158549785296006
31
0
0
LINE
5
503
100
AcDbEntity
8
0
100
AcDbLine
10
22.646484927800753
20
0.70772511470808475
30
0
11
22.286750477538746
21
0.37038045508452266
31
0
0
LINE
5
504
100
AcDbEntity
8
0
100
AcDbLine
10
22.084173948031477
20
0.028029623628978314
30
0
11
21.697306404702509
21
0.084953840292122718
31
0
0
LINE
5
505
100
AcDbEntity
8
0
100
AcDbLine
10
21.122013880603049
20
-1.8987730631289643
30
0
11
20.739906210597564
21
-1.8425492084498512
31
0
0
LINE
5
506
100
AcDbEntity
8
0
100
AcDbLine
10
20.816430436335384
20
-0.69629806991554655
30
0
11
20.889800401812799
21
-0.83028119480306906
31
0
0
LINE
5
507
100
AcDbEntity
8
0
100
AcDbLine
10
21.916953842139112
20
-0.98141778426596615
30
0
11
21.530118473001075
21
-0.9244983639731521
31
0
0
LINE
5
508
100
AcDbEntity
8
0
100
AcDbLine
10
21.01640584378762
20
0.59187445670150962
30
0
11
21.127849258197241
21
0.69638165826066012
31
0
0
LINE
5
509
100
AcDbEntity
8
0
100
AcDbLine
10
16.955912760100563
20
9.9208346481766405
30
0
11
16.834814980660244
21
9.5539851667790163
31
0
0
LINE
5
510
100
AcDbEntity
8
0
100
AcDbLine
10
16.921586027930321
20
9.4285234539630309
30
0
11
16.834814980660244
21
9.5539851667790163
31
0
0
LINE
5
511
100
AcDbEntity
8
0
100
AcDbLine
10
16.201395282370878
20
10.353985272774095
30
0
11
16.11543124060605
21
10.478282194485598
31
0
0
LINE
5
512
100
AcDbEntity
8
0
100
AcDbLine
10
16.753715338570863
20
9.3083046780076533
30
0
11
16.724415442227883
21
9.2195445716860931
31
0
0
LINE
5
513
100
AcDbEntity
8
0
100
AcDbLine
10
16.930530591241293
20
9.2005035531390522
30
0
11
16.921586027930321
21
9.4285234539630309
31
0
0
LINE
5
514
100
AcDbEntity
8
0
100
AcDbLine
10
16.238006136083914
20
10.849606848302647
30
0
11
16.11543124060605
21
10.478282194485598
31
0
0
LINE
5
515
100
AcDbEntity
8
0
100
AcDbLine
10
16.955912760100563
20
9.9208346481766405
30
0
11
17.13272801277099
21
9.8130335233080448
31
0
0
LINE
5
516
100
AcDbEntity
8
0
100
AcDbLine
10
16.753715338570863
20
9.3083046780076533
30
0
11
16.930530591241293
21
9.2005035531390522
31
0
0
LINE
5
517
100
AcDbEntity
8
0
100
AcDbLine
10
16.210466588555509
20
10.122735028368229
30
0
11
16.201395282370878
21
10.353985272774095
31
0
0
LINE
5
518
100
AcDbEntity
8
0
100
AcDbLine
10
16.075198063620711
20
9.4713151553400969
30
0
11
16.213770717345785
21
9.6526527193819582
31
0
0
LINE
5
519
100
AcDbEntity
8
0
100
AcDbLine
10
17.011219602840242
20
9.1822505647871964
30
0
11
17.14978957250004
21
9.3635852730540172
31
0
0
LINE
5
520
100
AcDbEntity
8
0
100
AcDbLine
10
16.406192894412275
20
10.961796678915933
30
0
11
16.414822566099897
21
10.741804800537178
31
0
0
LINE
5
521
100
AcDbEntity
8
0
100
AcDbLine
10
16.213770717345785
20
9.6526527193819582
30
0
11
16.357067947126339
21
9.7053689442775788
31
0
0
LINE
5
522
100
AcDbEntity
8
0
100
AcDbLine
10
16.281949609229692
20
9.4577127500290743
30
0
11
16.254808917487075
21
9.3682331287481038
31
0
0
LINE
5
523
100
AcDbEntity
8
0
100
AcDbLine
10
17.13272801277099
20
9.8130335233080448
30
0
11
17.123657083198367
21
10.044274824825109
31
0
0
LINE
5
524
100
AcDbEntity
8
0
100
AcDbLine
10
16.414822566099897
20
10.741804800537178
30
0
11
16.238006136083914
21
10.849606848302647
31
0
0
LINE
5
525
100
AcDbEntity
8
0
100
AcDbLine
10
20.405709226600276
20
-2.2936809700878196
30
0
11
20.325107555772306
21
-2.4846360814535662
31
0
0
LINE
5
526
100
AcDbEntity
8
0
100
AcDbLine
10
21.188254394026515
20
-2.5508923809474493
30
0
11
21.298651575001966
21
-2.4473688122893131
31
0
0
LINE
5
527
100
AcDbEntity
8
0
100
AcDbLine
10
20.007051230560453
20
-4.3076034053308589
30
0
11
19.942039684719962
21
-4.6719248078484013
31
0
0
LINE
5
528
100
AcDbEntity
8
0
100
AcDbLine
10
20.633791953218189
20
-0.79261180454918145
30
0
11
20.616591291286074
21
-0.58606739582862233
31
0
0
LINE
5
529
100
AcDbEntity
8
0
100
AcDbLine
10
22.151032363494963
20
0.52027741247366055
30
0
11
21.765688325970988
21
0.58660055712422809
31
0
0
LINE
5
530
100
AcDbEntity
8
0
100
AcDbLine
10
20.965422590921534
20
-2.9163096761101794
30
0
11
20.948287210056822
21
-2.7097606775459151
31
0
0
LINE
5
531
100
AcDbEntity
8
0
100
AcDbLine
10
21.254771356353416
20
-0.67997315058927843
30
0
11
21.457431080451013
21
-0.79176000201512409
31
0
0
LINE
5
532
100
AcDbEntity
8
0
100
AcDbLine
10
22.646484927800753
20
0.70772511470808475
30
0
11
22.409666945774916
21
1.1404006776943494
31
0
0
LINE
5
533
100
AcDbEntity
8
0
100
AcDbLine
10
20.654236284964025
20
-4.6238447032817973
30
0
11
20.881784361626668
21
-4.5806638919502705
31
0
0
LINE
5
534
100
AcDbEntity
8
0
100
AcDbLine
10
21.636239632039359
20
-3.9233182376368654
30
0
11
21.443368335099994
21
-3.8169295658112068
31
0
0
LINE
5
535
100
AcDbEntity
8
0
100
AcDbLine
10
21.663165505327825
20
-3.6810964417870702
30
0
11
21.446712766522435
21
-3.7221716666521729
31
0
0
LINE
5
536
100
AcDbEntity
8
0
100
AcDbLine
10
21.377359566224701
20
-4.5434521093786495
30
0
11
20.992167265885751
21
-4.4771552749511674
31
0
0
LINE
5
537
100
AcDbEntity
8
0
100
AcDbLine
10
21.683934037543477
20
-2.5136813020173121
30
0
11
21.298651575001966
21
-2.4473688122893131
31
0
0
LINE
5
538
100
AcDbEntity
8
0
100
AcDbLine
10
20.160196158619982
20
-3.6281109255986395
30
0
11
20.36008129128901
21
-3.738367706691839
31
0
0
LINE
5
539
100
AcDbEntity
8
0
100
AcDbLine
10
21.767006284348305
20
-1.9936781436178852
30
0
11
21.380221733416207
21
-1.9367661261663118
31
0
0
LINE
5
540
100
AcDbEntity
8
0
100
AcDbLine
10
16.469181508631493
20
10.074993975174994
30
0
11
16.357067947126339
21
9.7053689442775788
31
0
0
LINE
5
541
100
AcDbEntity
8
0
100
AcDbLine
10
20.483843435093576
20
-1.8048717750749621
30
0
11
20.390902462888931
21
-1.7911963109972735
31
0
0
LINE
5
542
100
AcDbEntity
8
0
100
AcDbLine
10
16.469181508631493
20
10.074993975174994
30
0
11
16.262407380823344
21
10.088597887196384
31
0
0
LINE
5
543
100
AcDbEntity
8
0
100
AcDbLine
10
20.249095046118669
20
-3.3112062128999091
30
0
11
20.168487276582077
21
-3.5021713930073788
31
0
0
LINE
5
544
100
AcDbEntity
8
0
100
AcDbLine
10
20.881784361626668
20
-4.5806638919502705
30
0
11
20.992167265885751
21
-4.4771552749511674
31
0
0
LINE
5
545
100
AcDbEntity
8
0
100
AcDbLine
10
20.249095046118669
20
-3.3112062128999091
30
0
11
20.156768387186471
21
-3.2953155188168646
31
0
0
LINE
5
546
100
AcDbEntity
8
0
100
AcDbLine
10
21.83387959469756
20
-1.5014286750407182
30
0
11
21.448564112813145
21
-1.4351104725267043
31
0
0
LINE
5
547
100
AcDbEntity
8
0
100
AcDbLine
10
21.78614043824464
20
-2.9110530254750588
30
0
11
21.593283916268199
21
-2.8046727503036704
31
0
0
LINE
5
548
100
AcDbEntity
8
0
100
AcDbLine
10
21.749858163671277
20
-1.7871417949504469
30
0
11
21.767006284348305
21
-1.9936781436178852
31
0
0
LINE
5
549
100
AcDbEntity
8
0
100
AcDbLine
10
21.872978906757432
20
-4.3560236901711074
30
0
11
21.636239632039359
21
-3.9233182376368654
31
0
0
LINE
5
550
100
AcDbEntity
8
0
100
AcDbLine
10
21.593283916268199
20
-2.8046727503036704
30
0
11
21.610417190578158
21
-3.0112151672979826
31
0
0
LINE
5
551
100
AcDbEntity
8
0
100
AcDbLine
10
20.168487276582077
20
-3.5021713930073788
30
0
11
20.392822794628504
21
-3.459600289958086
31
0
0
LINE
5
552
100
AcDbEntity
8
0
100
AcDbLine
10
20.798370990262899
20
-3.7220173765325275
30
0
11
21.001078018144558
21
-3.8338310931667392
31
0
0
LINE
5
553
100
AcDbEntity
8
0
100
AcDbLine
10
20.950622734391555
20
1.2291160353531199
30
0
11
20.933355604717253
21
1.435740334954805
31
0
0
LINE
5
554
100
AcDbEntity
8
0
100
AcDbLine
10
15.332501172398405
20
9.6779680850977368
30
0
11
15.016559656309989
21
9.7737911322676325
31
0
0
LINE
5
555
100
AcDbEntity
8
0
100
AcDbLine
10
21.920529198055402
20
-0.68292610635721562
30
0
11
22.001116992679584
21
-0.49198203215926734
31
0
0
LINE
5
556
100
AcDbEntity
8
0
100
AcDbLine
10
20.310112827624682
20
-2.6158549785296006
30
0
11
20.509981809047815
21
-2.7261025838054764
31
0
0
LINE
5
557
100
AcDbEntity
8
0
100
AcDbLine
10
21.110774278167124
20
-1.5817917161156896
30
0
11
21.338159279087655
21
-1.5386420491524377
31
0
0
LINE
5
558
100
AcDbEntity
8
0
100
AcDbLine
10
22.001116992679584
20
-0.49198203215926734
30
0
11
21.615781439100449
21
-0.42566035012738451
31
0
0
LINE
5
559
100
AcDbEntity
8
0
100
AcDbLine
10
20.69928982945132
20
-1.4298260000117484
30
0
11
20.810723938042837
21
-1.3253292260657066
31
0
0
LINE
5
560
100
AcDbEntity
8
0
100
AcDbLine
10
21.571550246182703
20
1.3418314155096749
30
0
11
21.77450479261827
21
1.2298815049345539
31
0
0
LINE
5
561
100
AcDbEntity
8
0
100
AcDbLine
10
20.327250205753238
20
-2.8224080159891014
30
0
11
20.234279985000679
21
-2.8087282356141046
31
0
0
LINE
5
562
100
AcDbEntity
8
0
100
AcDbLine
10
20.390902462888931
20
-1.7911963109972735
30
0
11
20.463435414647961
21
-1.2655559968337624
31
0
0
LINE
5
563
100
AcDbEntity
8
0
100
AcDbLine
10
16.033650158539526
20
10.230537076133695
30
0
11
16.210466588555509
21
10.122735028368229
31
0
0
LINE
5
564
100
AcDbEntity
8
0
100
AcDbLine
10
16.281949609229692
20
9.4577127500290743
30
0
11
16.075198063620711
21
9.4713151553400969
31
0
0
LINE
5
565
100
AcDbEntity
8
0
100
AcDbLine
10
16.262407380823344
20
10.088597887196384
30
0
11
16.402930178095257
21
10.272488541616882
31
0
0
LINE
5
566
100
AcDbEntity
8
0
100
AcDbLine
10
17.190832746327303
20
9.079178742242064
30
0
11
16.724415442227883
21
9.2195445716860931
31
0
0
LINE
5
567
100
AcDbEntity
8
0
100
AcDbLine
10
20.708328234958937
20
0.23047343370430864
30
0
11
20.780750908281142
21
0.75612218056736979
31
0
0
LINE
5
568
100
AcDbEntity
8
0
100
AcDbLine
10
20.800964038201215
20
0.21684287558316975
30
0
11
20.783678685606752
21
0.42341764476969529
31
0
0
LINE
5
569
100
AcDbEntity
8
0
100
AcDbLine
10
20.783678685606752
20
0.42341764476969529
30
0
11
20.983625077329926
21
0.31312771353246466
31
0
0
LINE
5
570
100
AcDbEntity
8
0
100
AcDbLine
10
20.800964038201215
20
0.21684287558316975
30
0
11
20.708328234958937
21
0.23047343370430864
31
0
0
LINE
5
571
100
AcDbEntity
8
0
100
AcDbLine
10
20.983625077329926
20
0.31312771353246466
30
0
11
21.056981913184153
21
0.17917205714293125
31
0
0
LINE
5
572
100
AcDbEntity
8
0
100
AcDbLine
10
21.508523442576962
20
0.63086226121073963
30
0
11
21.427941313855968
21
0.43991914976551938
31
0
0
LINE
5
573
100
AcDbEntity
8
0
100
AcDbLine
10
21.439161812804233
20
0.12293758675270583
30
0
11
21.056981913184153
21
0.17917205714293125
31
0
0
LINE
5
574
100
AcDbEntity
8
0
100
AcDbLine
10
22.233864820061999
20
1.040296670608875
30
0
11
21.847166631570662
21
1.0971963835422578
31
0
0
LINE
5
575
100
AcDbEntity
8
0
100
AcDbLine
10
21.421888430463735
20
0.32950324098722145
30
0
11
21.624628030778446
21
0.21767229309068009
31
0
0
LINE
5
576
100
AcDbEntity
8
0
100
AcDbLine
10
21.439161812804233
20
0.12293758675270583
30
0
11
21.421888430463735
21
0.32950324098722145
31
0
0
LINE
5
577
100
AcDbEntity
8
0
100
AcDbLine
10
22.496581049051592
20
-0.30453460023109968
30
0
11
22.259787461206837
21
0.12819244657042234
31
0
0
LINE
5
578
100
AcDbEntity
8
0
100
AcDbLine
10
21.588830246243266
20
1.1352086282406992
30
0
11
21.571550246182703
21
1.3418314155096749
31
0
0
LINE
5
579
100
AcDbEntity
8
0
100
AcDbLine
10
20.7228955214491
20
-0.27198209393954231
30
0
11
20.630804329154561
21
-0.2561319012527648
31
0
0
LINE
5
580
100
AcDbEntity
8
0
100
AcDbLine
10
21.588830246243266
20
1.1352086282406992
30
0
11
21.206842327654233
21
1.1914152605927508
31
0
0
LINE
5
581
100
AcDbEntity
8
0
100
AcDbLine
10
22.496581049051592
20
-0.30453460023109968
30
0
11
22.136846390838496
21
-0.64187674011423124
31
0
0
LINE
5
582
100
AcDbEntity
8
0
100
AcDbLine
10
21.13350024066963
20
1.3253407090833471
30
0
11
21.206842327654233
21
1.1914152605927508
31
0
0
LINE
5
583
100
AcDbEntity
8
0
100
AcDbLine
10
21.508523442576962
20
0.63086226121073963
30
0
11
21.127849258197241
21
0.69638165826066012
31
0
0
LINE
5
584
100
AcDbEntity
8
0
100
AcDbLine
10
20.950622734391555
20
1.2291160353531199
30
0
11
20.858279226659192
21
1.2427036839059418
31
0
0
LINE
5
585
100
AcDbEntity
8
0
100
AcDbLine
10
21.427941313855968
20
0.43991914976551938
30
0
11
21.655274639749095
21
0.48305899370382982
31
0
0
LINE
5
586
100
AcDbEntity
8
0
100
AcDbLine
10
21.191368956167938
20
-1.390843576214615
30
0
11
21.110774278167124
21
-1.5817917161156896
31
0
0
LINE
5
587
100
AcDbEntity
8
0
100
AcDbLine
10
20.475061548102424
20
-1.4723766327482009
30
0
11
20.69928982945132
21
-1.4298260000117484
31
0
0
LINE
5
588
100
AcDbEntity
8
0
100
AcDbLine
10
20.872812800163643
20
0.74027703031835956
30
0
11
20.780750908281142
21
0.75612218056736979
31
0
0
LINE
5
589
100
AcDbEntity
8
0
100
AcDbLine
10
20.555656226103238
20
-1.2814284928471271
30
0
11
20.475061548102424
21
-1.4723766327482009
31
0
0
LINE
5
590
100
AcDbEntity
8
0
100
AcDbLine
10
21.899771489266662
20
-0.77488684118525852
30
0
11
21.916953842139112
21
-0.98141778426596615
31
0
0
LINE
5
591
100
AcDbEntity
8
0
100
AcDbLine
10
20.555656226103238
20
-1.2814284928471271
30
0
11
20.463435414647961
21
-1.2655559968337624
31
0
0
LINE
5
592
100
AcDbEntity
8
0
100
AcDbLine
10
20.872812800163643
20
0.74027703031835956
30
0
11
20.792230671442649
21
0.54933391887313954
31
0
0
LINE
5
593
100
AcDbEntity
8
0
100
AcDbLine
10
21.104861791377793
20
-1.6922296909102621
30
0
11
21.307534081465359
21
-1.8040237085682143
31
0
0
LINE
5
594
100
AcDbEntity
8
0
100
AcDbLine
10
22.092590203405088
20
-0.88124579399164349
30
0
11
21.899771489266662
21
-0.77488684118525852
31
0
0
LINE
5
595
100
AcDbEntity
8
0
100
AcDbLine
10
18.443588445429196
20
10.288692417643277
30
0
11
18.309873665608208
21
10.113708411753484
31
0
0
LINE
5
596
100
AcDbEntity
8
0
100
AcDbLine
10
18.072043470364068
20
9.0538707064550046
30
0
11
18.215343399042517
21
9.1065883047869267
31
0
0
LINE
5
597
100
AcDbEntity
8
0
100
AcDbLine
10
15.359635315075879
20
9.767433014762112
30
0
11
15.332501172398405
21
9.6779680850977368
31
0
0
LINE
5
598
100
AcDbEntity
8
0
100
AcDbLine
10
18.309873665608208
20
10.113708411753484
30
0
11
18.516693148781247
21
10.100101356404972
31
0
0
LINE
5
599
100
AcDbEntity
8
0
100
AcDbLine
10
17.891941422055222
20
9.6317801432100065
30
0
11
18.06875609374918
21
9.5239794164235434
31
0
0
LINE
5
600
100
AcDbEntity
8
0
100
AcDbLine
10
18.327458212510649
20
9.4762170519715063
30
0
11
18.215343399042517
21
9.1065883047869267
31
0
0
LINE
5
601
100
AcDbEntity
8
0
100
AcDbLine
10
15.8314528963438
20
9.6180068504714633
30
0
11
15.802153936017486
21
9.5292494727233148
31
0
0
LINE
5
602
100
AcDbEntity
8
0
100
AcDbLine
10
18.261202735603469
20
9.6737067452137442
30
0
11
18.4032057231741
21
9.7259472758623922
31
0
0
LINE
5
603
100
AcDbEntity
8
0
100
AcDbLine
10
18.113089537872973
20
8.7694699041963897
30
0
11
17.660441901535325
21
8.9304841320760229
31
0
0
LINE
5
604
100
AcDbEntity
8
0
100
AcDbLine
10
18.140226122219776
20
8.8589358843349366
30
0
11
18.113089537872973
21
8.7694699041963897
31
0
0
LINE
5
605
100
AcDbEntity
8
0
100
AcDbLine
10
18.516693148781247
20
10.100101356404972
30
0
11
18.4032057231741
21
9.7259472758623922
31
0
0
LINE
5
606
100
AcDbEntity
8
0
100
AcDbLine
10
18.814150943975804
20
9.3220996125741813
30
0
11
18.693063363998689
21
8.9552579969990358
31
0
0
LINE
5
607
100
AcDbEntity
8
0
100
AcDbLine
10
19.018497628905429
20
9.9411793567657192
30
0
11
18.895927831006549
21
9.5698472788561659
31
0
0
LINE
5
608
100
AcDbEntity
8
0
100
AcDbLine
10
15.73607338861377
20
11.008600136656101
30
0
11
15.622589892828593
21
10.634429738528237
31
0
0
LINE
5
609
100
AcDbEntity
8
0
100
AcDbLine
10
17.405202293361668
20
9.7859293428986813
30
0
11
17.198428679405776
21
9.7995332989187389
31
0
0
LINE
5
610
100
AcDbEntity
8
0
100
AcDbLine
10
-24.805885349515734
20
-4.6479887503151103
30
0
11
-15.500000494671617
21
-4.6479887503151112
31
0
0
LINE
5
611
100
AcDbEntity
8
0
100
AcDbLine
10
-24.805885349515734
20
-4.6479887503151103
30
0
11
-24.805885349515734
21
1.6316023853150956
31
0
0
LINE
5
612
100
AcDbEntity
8
0
100
AcDbLine
10
-23.105670440119606
20
9.3216657050030296
30
0
11
-19.268863130547349
21
10.480355122260343
31
0
0
SPLINE
5
613
100
AcDbEntity
8
0
100
AcDbSpline
70
1064
71
5
72
51
73
45
74
0
42
0.000000001
43
0.0000000001
44
0.0000000001
40
0
40
0
40
0
40
0
40
0
40
0
40
0.025000000000000001
40
0.050000000000000003
40
0.075000000000000011
40
0.10000000000000001
40
0.125
40
0.14999999999999999
40
0.17499999999999999
40
0.19999999999999998
40
0.22499999999999998
40
0.24999999999999997
40
0.27499999999999997
40
0.29999999999999999
40
0.32500000000000001
40
0.35000000000000003
40
0.37500000000000006
40
0.40000000000000008
40
0.4250000000000001
40
0.45000000000000012
40
0.47500000000000014
40
0.50000000000000011
40
0.52500000000000013
40
0.55000000000000016
40
0.57500000000000018
40
0.6000000000000002
40
0.62500000000000022
40
0.65000000000000024
40
0.67500000000000027
40
0.70000000000000029
40
0.72500000000000031
40
0.75000000000000033
40
0.77500000000000036
40
0.80000000000000038
40
0.8250000000000004
40
0.85000000000000042
40
0.87500000000000044
40
0.90000000000000047
40
0.92500000000000049
40
0.95000000000000051
40
0.97500000000000053
40
1
40
1
40
1
40
1
40
1
40
1
10
-24.805885349515734
20
1.6316023853150956
30
0
10
-24.779613221193088
20
1.6311865594880963
30
0
10
-24.727275675162687
20
1.630430088683263
30
0
10
-24.649389671452724
20
1.6295219299177823
30
0
10
-24.546781966684765
20
1.6287558772103516
30
0
10
-24.420722716320071
20
1.6296199518244827
30
0
10
-24.297221114590421
20
1.635380555108134
30
0
10
-24.177043357990275
20
1.6525256977561564
30
0
10
-24.060915659164468
20
1.6887728433019249
30
0
10
-23.949020512276501
20
1.7504380522844813
30
0
10
-23.840369689578747
20
1.8394426299955899
30
0
10
-23.733280113183021
20
1.9543379332903321
30
0
10
-23.626090543703075
20
2.092256235528982
30
0
10
-23.517837196337769
20
2.2506361819494982
30
0
10
-23.40882740380151
20
2.428742684176838
30
0
10
-23.300232188314268
20
2.6267416869390066
30
0
10
-23.193796200852969
20
2.8450749094373688
30
0
10
-23.091494649976891
20
3.083680464864381
30
0
10
-22.995237691742755
20
3.3413637095952331
30
0
10
-22.90649519198336
20
3.6148794150065533
30
0
10
-22.826229155883272
20
3.8991460543795338
30
0
10
-22.755015124284384
20
4.1881565600724882
30
0
10
-22.693104984016621
20
4.4756824242107696
30
0
10
-22.640511115213265
20
4.7560431949245503
30
0
10
-22.597081399226791
20
5.0248901131041874
30
0
10
-22.562572464786637
20
5.2798931390997899
30
0
10
-22.536733344400453
20
5.5217222035763367
30
0
10
-22.519324368128714
20
5.7535679366228711
30
0
10
-22.510107034119365
20
5.9800281141751555
30
0
10
-22.508842710714543
20
6.2062077421971775
30
0
10
-22.515287024290274
20
6.4367275817030443
30
0
10
-22.529185675341889
20
6.6747863662164146
30
0
10
-22.550268634190232
20
6.9211533976707287
30
0
10
-22.578260020108807
20
7.174688185341874
30
0
10
-22.612888098576853
20
7.4329085848824406
30
0
10
-22.653894678088285
20
7.6925285840323037
30
0
10
-22.701044579295672
20
7.95001808008411
30
0
10
-22.754134149982228
20
8.2021191189463192
30
0
10
-22.813001341359442
20
8.4464651280163867
30
0
10
-22.877523947519066
20
8.6815331603546753
30
0
10
-22.947614733076747
20
8.9064299472992818
30
0
10
-23.008096862733854
20
9.077876293266991
30
0
10
-23.055925299827383
20
9.2016427998437571
30
0
10
-23.088906183547056
20
9.282014605694334
30
0
10
-23.105670440119606
20
9.3216657050030296
30
0
0
SPLINE
5
614
100
AcDbEntity
8
0
100
AcDbSpline
70
1064
71
5
72
31
73
25
74
0
42
0.000000001
43
0.0000000001
44
0.0000000001
40
0
40
0
40
0
40
0
40
0
40
0
40
0.050000000000000003
40
0.10000000000000001
40
0.15000000000000002
40
0.20000000000000001
40
0.25
40
0.29999999999999999
40
0.34999999999999998
40
0.39999999999999997
40
0.44999999999999996
40
0.49999999999999994
40
0.54999999999999993
40
0.59999999999999998
40
0.65000000000000002
40
0.70000000000000007
40
0.75000000000000011
40
0.80000000000000016
40
0.8500000000000002
40
0.90000000000000024
40
0.95000000000000029
40
0.97421194824128921
40
0.97421194824128921
40
0.97421194824128921
40
0.97421194824128921
40
0.97421194824128921
40
0.97421194824128921
10
-19.268863130547349
20
10.480355122260343
30
0
10
-19.264344520153681
20
10.454250903257961
30
0
10
-19.253805364501481
20
10.402958050761502
30
0
10
-19.233490939455045
20
10.328765496686083
30
0
10
-19.197355907070204
20
10.235358231995756
30
0
10
-19.136903672067273
20
10.127902072454633
30
0
10
-19.060924980674688
20
10.029850215707702
30
0
10
-18.969264926802357
20
9.9412147055042599
30
0
10
-18.861785741220046
20
9.8618836377892922
30
0
10
-18.738182344191777
20
9.7916125010864636
30
0
10
-18.597840146531667
20
9.7299939501120001
30
0
10
-18.439704911497447
20
9.6764295266944789
30
0
10
-18.262480590732352
20
9.6302064054543859
30
0
10
-18.064826346711619
20
9.5905622311246752
30
0
10
-17.84555911804669
20
9.5567436620446777
30
0
10
-17.603909347603178
20
9.5280633908094838
30
0
10
-17.339685921705811
20
9.5039409762859783
30
0
10
-17.053064828735113
20
9.4838959889702785
30
0
10
-16.744464659369434
20
9.4675460870031714
30
0
10
-16.414417128510301
20
9.4546002257555539
30
0
10
-16.099668274719068
20
9.4458569271743986
30
0
10
-15.842706936382493
20
9.4409234019603581
30
0
10
-15.653273302363456
20
9.4383337004318566
30
0
10
-15.537882404265805
20
9.437115952677674
30
0
10
-15.500000494671621
20
9.4367536909050713
30
0
0
LWPOLYLINE
5
615
100
AcDbEntity
8
0
100
AcDbPolyline
90
4
70
1
43
0.0
10
-24.149538015529334
20
0.76878607555413703
10
-24.149538015529334
20
1.331752075554137
10
-24.053659309355126
20
1.331752075554137
10
-24.053659309355126
20
0.76878607555413703
0
LWPOLYLINE
5
616
100
AcDbEntity
8
0
100
AcDbPolyline
90
4
70
1
43
0.0
10
-23.733659309355122
20
1.331752075554137
10
-23.733659309355122
20
0.76878607555413703
10
-23.82953801552933
20
0.76878607555413703
10
-23.82953801552933
20
1.331752075554137
0
LWPOLYLINE
5
617
100
AcDbEntity
8
0
100
AcDbPolyline
90
4
70
1
43
0.0
10
-23.499538015529332
20
0.76878607555413703
10
-23.499538015529332
20
1.331752075554137
10
-23.403659309355124
20
1.331752075554137
10
-23.403659309355124
20
0.76878607555413703
0
LWPOLYLINE
5
618
100
AcDbEntity
8
0
100
AcDbPolyline
90
4
70
1
43
0.0
10
-23.083659309355124
20
1.331752075554137
10
-23.083659309355124
20
0.76878607555413703
10
-23.179538015529332
20
0.76878607555413703
10
-23.179538015529332
20
1.331752075554137
0
LWPOLYLINE
5
619
100
AcDbEntity
8
0
100
AcDbPolyline
90
4
70
1
43
0.0
10
-24.469538015529334
20
1.331752075554137
10
-24.373659309355126
20
1.331752075554137
10
-24.373659309355126
20
0.76878607555413703
10
-24.469538015529334
20
0.76878607555413703
0
LWPOLYLINE
5
620
100
AcDbEntity
8
0
100
AcDbPolyline
90
4
70
1
43
0.0
10
-23.82953801552933
20
-0.26121392444586294
10
-23.82953801552933
20
0.30175207555413697
10
-23.733659309355122
20
0.30175207555413697
10
-23.733659309355122
20
-0.26121392444586294
0
LWPOLYLINE
5
621
100
AcDbEntity
8
0
100
AcDbPolyline
90
4
70
1
43
0.0
10
-24.469538015529334
20
-0.26121392444586294
10
-24.469538015529334
20
0.30175207555413697
10
-24.373659309355126
20
0.30175207555413697
10
-24.373659309355126
20
-0.26121392444586294
0
LWPOLYLINE
5
622
100
AcDbEntity
8
0
100
AcDbPolyline
90
4
70
1
43
0.0
10
-24.149538015529334
20
0.30175207555413697
10
-24.053659309355126
20
0.30175207555413697
10
-24.053659309355126
20
-0.26121392444586294
10
-24.149538015529334
20
-0.26121392444586294
0
LWPOLYLINE
5
623
100
AcDbEntity
8
0
100
AcDbPolyline
90
4
70
1
43
0.0
10
-23.083659309355124
20
-0.26121392444586294
10
-23.179538015529332
20
-0.26121392444586294
10
-23.179538015529332
20
0.30175207555413697
10
-23.083659309355124
20
0.30175207555413697
0
LWPOLYLINE
5
624
100
AcDbEntity
8
0
100
AcDbPolyline
90
4
70
1
43
0.0
10
-23.403659309355124
20
-0.26121392444586294
10
-23.499538015529332
20
-0.26121392444586294
10
-23.499538015529332
20
0.30175207555413697
10
-23.403659309355124
20
0.30175207555413697
0
LWPOLYLINE
5
625
100
AcDbEntity
8
0
100
AcDbPolyline
90
4
70
1
43
0.0
10
-24.053659309355126
20
-1.2912139244458629
10
-24.149538015529334
20
-1.2912139244458629
10
-24.149538015529334
20
-0.72824792444586295
10
-24.053659309355126
20
-0.72824792444586295
0
LWPOLYLINE
5
626
100
AcDbEntity
8
0
100
AcDbPolyline
90
4
70
1
43
0.0
10
-23.82953801552933
20
-1.2912139244458629
10
-23.82953801552933
20
-0.72824792444586295
10
-23.733659309355122
20
-0.72824792444586295
10
-23.733659309355122
20
-1.2912139244458629
0
LWPOLYLINE
5
627
100
AcDbEntity
8
0
100
AcDbPolyline
90
4
70
1
43
0.0
10
-23.499538015529332
20
-2.3212139244458627
10
-23.499538015529332
20
-1.7582479244458629
10
-23.403659309355124
20
-1.7582479244458629
10
-23.403659309355124
20
-2.3212139244458627
0
LWPOLYLINE
5
628
100
AcDbEntity
8
0
100
AcDbPolyline
90
4
70
1
43
0.0
10
-23.499538015529332
20
-0.72824792444586295
10
-23.403659309355124
20
-0.72824792444586295
10
-23.403659309355124
20
-1.2912139244458629
10
-23.499538015529332
20
-1.2912139244458629
0
LWPOLYLINE
5
629
100
AcDbEntity
8
0
100
AcDbPolyline
90
4
70
1
43
0.0
10
-24.469538015529334
20
-2.3212139244458627
10
-24.469538015529334
20
-1.7582479244458629
10
-24.373659309355126
20
-1.7582479244458629
10
-24.373659309355126
20
-2.3212139244458627
0
LWPOLYLINE
5
630
100
AcDbEntity
8
0
100
AcDbPolyline
90
4
70
1
43
0.0
10
-23.82953801552933
20
-2.3212139244458627
10
-23.82953801552933
20
-1.7582479244458629
10
-23.733659309355122
20
-1.7582479244458629
10
-23.733659309355122
20
-2.3212139244458627
0
LWPOLYLINE
5
631
100
AcDbEntity
8
0
100
AcDbPolyline
90
4
70
1
43
0.0
10
-24.469538015529334
20
-0.72824792444586295
10
-24.373659309355126
20
-0.72824792444586295
10
-24.373659309355126
20
-1.2912139244458629
10
-24.469538015529334
20
-1.2912139244458629
0
LWPOLYLINE
5
632
100
AcDbEntity
8
0
100
AcDbPolyline
90
4
70
1
43
0.0
10
-23.179538015529332
20
-1.2912139244458629
10
-23.179538015529332
20
-0.72824792444586295
10
-23.083659309355124
20
-0.72824792444586295
10
-23.083659309355124
20
-1.2912139244458629
0
LWPOLYLINE
5
633
100
AcDbEntity
8
0
100
AcDbPolyline
90
4
70
1
43
0.0
10
-24.053659309355126
20
-1.7582479244458629
10
-24.053659309355126
20
-2.3212139244458627
10
-24.149538015529334
20
-2.3212139244458627
10
-24.149538015529334
20
-1.7582479244458629
0
LWPOLYLINE
5
634
100
AcDbEntity
8
0
100
AcDbPolyline
90
4
70
1
43
0.0
10
-23.083659309355124
20
-1.7582479244458629
10
-23.083659309355124
20
-2.3212139244458627
10
-23.179538015529332
20
-2.3212139244458627
10
-23.179538015529332
20
-1.7582479244458629
0
LWPOLYLINE
5
635
100
AcDbEntity
8
0
100
AcDbPolyline
90
4
70
1
43
0.0
10
-23.179538015529332
20
-4.3812139244458628
10
-23.179538015529332
20
-3.8182479244458625
10
-23.083659309355124
20
-3.8182479244458625
10
-23.083659309355124
20
-4.3812139244458628
0
LWPOLYLINE
5
636
100
AcDbEntity
8
0
100
AcDbPolyline
90
4
70
1
43
0.0
10
-23.733659309355122
20
-4.3812139244458628
10
-23.82953801552933
20
-4.3812139244458628
10
-23.82953801552933
20
-3.8182479244458625
10
-23.733659309355122
20
-3.8182479244458625
0
LWPOLYLINE
5
637
100
AcDbEntity
8
0
100
AcDbPolyline
90
4
70
1
43
0.0
10
-23.083659309355124
20
-3.3512139244458621
10
-23.179538015529332
20
-3.3512139244458621
10
-23.179538015529332
20
-2.7882479244458627
10
-23.083659309355124
20
-2.7882479244458627
0
LWPOLYLINE
5
638
100
AcDbEntity
8
0
100
AcDbPolyline
90
4
70
1
43
0.0
10
-23.403659309355124
20
-4.3812139244458628
10
-23.499538015529332
20
-4.3812139244458628
10
-23.499538015529332
20
-3.8182479244458625
10
-23.403659309355124
20
-3.8182479244458625
0
LWPOLYLINE
5
639
100
AcDbEntity
8
0
100
AcDbPolyline
90
4
70
1
43
0.0
10
-23.403659309355124
20
-3.3512139244458621
10
-23.499538015529332
20
-3.3512139244458621
10
-23.499538015529332
20
-2.7882479244458627
10
-23.403659309355124
20
-2.7882479244458627
0
LWPOLYLINE
5
640
100
AcDbEntity
8
0
100
AcDbPolyline
90
4
70
1
43
0.0
10
-23.733659309355122
20
-3.3512139244458621
10
-23.82953801552933
20
-3.3512139244458621
10
-23.82953801552933
20
-2.7882479244458627
10
-23.733659309355122
20
-2.7882479244458627
0
LWPOLYLINE
5
641
100
AcDbEntity
8
0
100
AcDbPolyline
90
4
70
1
43
0.0
10
-24.149538015529334
20
-2.7882479244458627
10
-24.053659309355126
20
-2.7882479244458627
10
-24.053659309355126
20
-3.3512139244458621
10
-24.149538015529334
20
-3.3512139244458621
0
LWPOLYLINE
5
642
100
AcDbEntity
8
0
100
AcDbPolyline
90
4
70
1
43
0.0
10
-24.053659309355126
20
-3.8182479244458625
10
-24.053659309355126
20
-4.3812139244458628
10
-24.149538015529334
20
-4.3812139244458628
10
-24.149538015529334
20
-3.8182479244458625
0
LWPOLYLINE
5
643
100
AcDbEntity
8
0
100
AcDbPolyline
90
4
70
1
43
0.0
10
-24.469538015529334
20
-2.7882479244458627
10
-24.373659309355126
20
-2.7882479244458627
10
-24.373659309355126
20
-3.3512139244458621
10
-24.469538015529334
20
-3.3512139244458621
0
LWPOLYLINE
5
644
100
AcDbEntity
8
0
100
AcDbPolyline
90
4
70
1
43
0.0
10
-24.373659309355126
20
-4.3812139244458628
10
-24.469538015529334
20
-4.3812139244458628
10
-24.469538015529334
20
-3.8182479244458625
10
-24.373659309355126
20
-3.8182479244458625
0
LWPOLYLINE
5
645
100
AcDbEntity
8
0
100
AcDbPolyline
90
4
70
1
43
0.0
10
-21.917799864938388
20
8.1807374025523352
10
-22.454115888393794
20
8.0095771263753548
10
-22.483266184909517
20
8.1009170766199521
10
-21.946950161454112
20
8.2720773527969325
0
LWPOLYLINE
5
646
100
AcDbEntity
8
0
100
AcDbPolyline
90
4
70
1
43
0.0
10
-22.58359709501493
20
8.4152953654336358
10
-22.047281071559521
20
8.5864556416106179
10
-22.018130775043804
20
8.4951156913660206
10
-22.55444679849921
20
8.3239554151890403
0
LWPOLYLINE
5
647
100
AcDbEntity
8
0
100
AcDbPolyline
90
4
70
1
43
0.0
10
-22.385975605413361
20
7.7960654026188072
10
-21.849659581957955
20
7.9672256787957876
10
-21.820509285442235
20
7.8758857285511867
10
-22.356825308897641
20
7.7047254523742073
0
LWPOLYLINE
5
648
100
AcDbEntity
8
0
100
AcDbPolyline
90
4
70
1
43
0.0
10
-22.749027957491524
20
8.9336587631913353
10
-22.778178254007244
20
9.0249987134359309
10
-22.241862230551842
20
9.1961589896129112
10
-22.212711934036118
20
9.1048190393683139
0
LWPOLYLINE
5
649
100
AcDbEntity
8
0
100
AcDbPolyline
90
4
70
1
43
0.0
10
-22.144571651055681
20
8.8913073156117672
10
-22.115421354539961
20
8.7999673653671646
10
-22.651737377995367
20
8.628807089190186
10
-22.680887674511087
20
8.7201470394347851
0
LWPOLYLINE
5
650
100
AcDbEntity
8
0
100
AcDbPolyline
90
4
70
1
43
0.0
10
-21.814789697441689
20
9.235485872329404
10
-21.843939993957409
20
9.3268258225739995
10
-21.307623970502004
20
9.4979860987509799
10
-21.278473673986284
20
9.4066461485063844
0
LWPOLYLINE
5
651
100
AcDbEntity
8
0
100
AcDbPolyline
90
4
70
1
43
0.0
10
-21.012711901404273
20
8.5739044619350029
10
-20.983561604888553
20
8.4825645116904056
10
-21.519877628343959
20
8.3114042355134252
10
-21.549027924859683
20
8.4027441857580225
0
LWPOLYLINE
5
652
100
AcDbEntity
8
0
100
AcDbPolyline
90
4
70
1
43
0.0
10
-21.649358834965092
20
8.7171224745717062
10
-21.113042811509686
20
8.8882827507486866
10
-21.08389251499397
20
8.7969428005040893
10
-21.620208538449372
20
8.6257825243271089
0
LWPOLYLINE
5
653
100
AcDbEntity
8
0
100
AcDbPolyline
90
4
70
1
43
0.0
10
-21.451737345363522
20
8.0978925117568785
10
-20.915421321908116
20
8.2690527879338589
10
-20.886271025392396
20
8.1777128376892581
10
-21.422587048847802
20
8.0065525615122777
0
LWPOLYLINE
5
654
100
AcDbEntity
8
0
100
AcDbPolyline
90
4
70
1
43
0.0
10
-21.210333391005847
20
9.1931344247498359
10
-21.181183094490123
20
9.101794474505235
10
-21.717499117945533
20
8.9306341983282547
10
-21.746649414461249
20
9.0219741485728537
0
LWPOLYLINE
5
655
100
AcDbEntity
8
0
100
AcDbPolyline
90
4
70
1
43
0.0
10
-19.699837027666398
20
8.9918670366715663
10
-19.163521004210988
20
9.1630273128485449
10
-19.134370707695268
20
9.0716873626039476
10
-19.670686731150674
20
8.900527086426969
0
LWPOLYLINE
5
656
100
AcDbEntity
8
0
100
AcDbPolyline
90
4
70
1
43
0.0
10
-19.602546448170237
20
8.6870153626704205
10
-19.066230424714831
20
8.8581756388474009
10
-19.037080128199111
20
8.7668356886028
10
-19.573396151654521
20
8.5956754124258214
0
LWPOLYLINE
5
657
100
AcDbEntity
8
0
100
AcDbPolyline
90
4
70
1
43
0.0
10
-19.800167937771807
20
9.3062453254852464
10
-19.263851914316401
20
9.4774056016622286
10
-19.234701617800685
20
9.3860656514176313
10
-19.771017641256087
20
9.2149053752406509
0
LWPOLYLINE
5
658
100
AcDbEntity
8
0
100
AcDbPolyline
90
4
70
1
43
0.0
10
-19.361142493812562
20
9.7822572756633779
10
-19.331992197296838
20
9.6909173254187753
10
-19.868308220752247
20
9.5197570492417967
10
-19.897458517267964
20
9.611096999486394
0
LWPOLYLINE
5
659
100
AcDbEntity
8
0
100
AcDbPolyline
90
4
70
1
43
0.0
10
-20.068608967745103
20
8.7698602534658789
10
-20.604924991200509
20
8.5986999772888986
10
-20.634075287716232
20
8.6900399275334941
10
-20.097759264260826
20
8.8612002037104762
0
LWPOLYLINE
5
660
100
AcDbEntity
8
0
100
AcDbPolyline
90
4
70
1
43
0.0
10
-19.965598800248404
20
9.824608723242946
10
-19.994749096764124
20
9.9159486734875415
10
-19.458433073308719
20
10.087108949664522
10
-19.429282776792999
20
9.9957689994199246
0
LWPOLYLINE
5
661
100
AcDbEntity
8
0
100
AcDbPolyline
90
4
70
1
43
0.0
10
-20.295380753862396
20
9.4804301665253075
10
-20.266230457346676
20
9.3890902162807066
10
-20.802546480802082
20
9.217929940103728
10
-20.831696777317802
20
9.3092698903483253
0
LWPOLYLINE
5
662
100
AcDbEntity
8
0
100
AcDbPolyline
90
4
70
1
43
0.0
10
-20.168939877850519
20
9.0842385422795626
10
-20.705255901305925
20
8.9130782661025822
10
-20.734406197821645
20
9.0044182163471795
10
-20.198090174366236
20
9.1755784925241599
0
LWPOLYLINE
5
663
100
AcDbEntity
8
0
100
AcDbPolyline
90
4
70
1
43
0.0
10
-20.928987356813959
20
9.6141215643494711
10
-20.392671333358557
20
9.7852818405264532
10
-20.363521036842833
20
9.6939418902818559
10
-20.899837060298239
20
9.5227816141048756
0
LWPOLYLINE
5
664
100
AcDbEntity
8
0
100
AcDbPolyline
90
4
70
1
43
0.0
10
-20.00046868476467
20
8.5563485297093305
10
-19.97131838824895
20
8.4650085794647296
10
-20.507634411704355
20
8.293848303287751
10
-20.536784708220075
20
8.3851882535323501
0
LWPOLYLINE
5
665
100
AcDbEntity
8
0
100
AcDbPolyline
90
4
70
1
43
0.0
10
-6.5304629738139015
20
-3.3512139244458621
10
-6.5304629738139015
20
-2.7882479244458613
10
-6.6263416799881094
20
-2.7882479244458613
10
-6.6263416799881094
20
-3.3512139244458621
0
LWPOLYLINE
5
666
100
AcDbEntity
8
0
100
AcDbPolyline
90
4
70
1
43
0.0
10
-7.8204629738139042
20
-0.72824792444586228
10
-7.916341679988113
20
-0.72824792444586228
10
-7.916341679988113
20
-1.2912139244458629
10
-7.8204629738139042
20
-1.2912139244458629
0
LWPOLYLINE
5
667
100
AcDbEntity
8
0
100
AcDbPolyline
90
4
70
1
43
0.0
10
-6.5304629738139015
20
-3.8182479244458638
10
-6.6263416799881094
20
-3.8182479244458638
10
-6.6263416799881094
20
-4.3812139244458619
10
-6.5304629738139015
20
-4.3812139244458619
0
LWPOLYLINE
5
668
100
AcDbEntity
8
0
100
AcDbPolyline
90
4
70
1
43
0.0
10
-7.170462973813903
20
-2.7882479244458613
10
-7.2663416799881118
20
-2.7882479244458613
10
-7.2663416799881118
20
-3.3512139244458621
10
-7.170462973813903
20
-3.3512139244458621
0
LWPOLYLINE
5
669
100
AcDbEntity
8
0
100
AcDbPolyline
90
4
70
1
43
0.0
10
-6.6263416799881094
20
-1.7582479244458633
10
-6.6263416799881094
20
-2.3212139244458623
10
-6.5304629738139015
20
-2.3212139244458623
10
-6.5304629738139015
20
-1.7582479244458633
0
LWPOLYLINE
5
670
100
AcDbEntity
8
0
100
AcDbPolyline
90
4
70
1
43
0.0
10
-9.4801233609992757
20
8.3114042355134252
10
-9.4509730644835539
20
8.4027441857580225
10
-9.9872890879389598
20
8.5739044619350029
10
-10.016439384454683
20
8.4825645116904056
0
LWPOLYLINE
5
671
100
AcDbEntity
8
0
100
AcDbPolyline
90
4
70
1
43
0.0
10
-6.8504629738139018
20
-2.3212139244458623
10
-6.8504629738139018
20
-1.7582479244458633
10
-6.9463416799881106
20
-1.7582479244458633
10
-6.9463416799881106
20
-2.3212139244458623
0
LWPOLYLINE
5
672
100
AcDbEntity
8
0
100
AcDbPolyline
90
4
70
1
43
0.0
10
-9.5774139404954308
20
8.0065525615122777
10
-9.5482636439797108
20
8.0978925117568785
10
-10.084579667435118
20
8.2690527879338589
10
-10.113729963950837
20
8.1777128376892581
0
LWPOLYLINE
5
673
100
AcDbEntity
8
0
100
AcDbPolyline
90
4
70
1
43
0.0
10
-11.76529937154255
20
9.3860656514176313
10
-11.228983348087146
20
9.2149053752406509
10
-11.199833051571428
20
9.3062453254852464
10
-11.736149075026834
20
9.4774056016622286
0
LWPOLYLINE
5
674
100
AcDbEntity
8
0
100
AcDbPolyline
90
4
70
1
43
0.0
10
-8.3191133148321477
20
8.7201470394347851
10
-8.8554293382875517
20
8.8913073156117672
10
-8.8845796348032753
20
8.7999673653671646
10
-8.3482636113478677
20
8.628807089190186
0
LWPOLYLINE
5
675
100
AcDbEntity
8
0
100
AcDbPolyline
90
4
70
1
43
0.0
10
-7.170462973813903
20
0.3017520755541373
10
-7.2663416799881118
20
0.3017520755541373
10
-7.2663416799881118
20
-0.26121392444586328
10
-7.170462973813903
20
-0.26121392444586328
0
LWPOLYLINE
5
676
100
AcDbEntity
8
0
100
AcDbPolyline
90
4
70
1
43
0.0
10
-6.9463416799881106
20
-0.72824792444586228
10
-6.9463416799881106
20
-1.2912139244458629
10
-6.8504629738139018
20
-1.2912139244458629
10
-6.8504629738139018
20
-0.72824792444586228
0
LWPOLYLINE
5
677
100
AcDbEntity
8
0
100
AcDbPolyline
90
4
70
1
43
0.0
10
-11.933770564628404
20
8.8581756388474009
10
-11.962920861144122
20
8.7668356886028
10
-11.426604837688716
20
8.5956754124258214
10
-11.397454541172996
20
8.6870153626704205
0
LWPOLYLINE
5
678
100
AcDbEntity
8
0
100
AcDbPolyline
90
4
70
1
43
0.0
10
-10.492366577638879
20
8.293848303287751
10
-10.463216281123159
20
8.3851882535323501
10
-10.999532304578567
20
8.5563485297093305
10
-11.028682601094285
20
8.4650085794647296
0
LWPOLYLINE
5
679
100
AcDbEntity
8
0
100
AcDbPolyline
90
4
70
1
43
0.0
10
-6.9463416799881106
20
0.3017520755541373
10
-6.9463416799881106
20
-0.26121392444586328
10
-6.8504629738139018
20
-0.26121392444586328
10
-6.8504629738139018
20
0.3017520755541373
0
LWPOLYLINE
5
680
100
AcDbEntity
8
0
100
AcDbPolyline
90
4
70
1
43
0.0
10
-7.8204629738139042
20
0.3017520755541373
10
-7.916341679988113
20
0.3017520755541373
10
-7.916341679988113
20
-0.26121392444586328
10
-7.8204629738139042
20
-0.26121392444586328
0
LWPOLYLINE
5
681
100
AcDbEntity
8
0
100
AcDbPolyline
90
4
70
1
43
0.0
10
-10.168304212025433
20
9.3092698903483253
10
-10.704620235480837
20
9.4804301665253075
10
-10.733770531996559
20
9.3890902162807066
10
-10.197454508541153
20
9.217929940103728
0
LWPOLYLINE
5
682
100
AcDbEntity
8
0
100
AcDbPolyline
90
4
70
1
43
0.0
10
-7.5963416799881118
20
-3.8182479244458638
10
-7.5963416799881118
20
-4.3812139244458619
10
-7.500462973813903
20
-4.3812139244458619
10
-7.500462973813903
20
-3.8182479244458638
0
LWPOLYLINE
5
683
100
AcDbEntity
8
0
100
AcDbPolyline
90
4
70
1
43
0.0
10
-7.170462973813903
20
-4.3812139244458619
10
-7.170462973813903
20
-3.8182479244458638
10
-7.2663416799881118
20
-3.8182479244458638
10
-7.2663416799881118
20
-4.3812139244458619
0
LWPOLYLINE
5
684
100
AcDbEntity
8
0
100
AcDbPolyline
90
4
70
1
43
0.0
10
-7.916341679988113
20
-4.3812139244458619
10
-7.8204629738139042
20
-4.3812139244458619
10
-7.8204629738139042
20
-3.8182479244458638
10
-7.916341679988113
20
-3.8182479244458638
0
LWPOLYLINE
5
685
100
AcDbEntity
8
0
100
AcDbPolyline
90
4
70
1
43
0.0
10
-9.3506421543781428
20
8.7171224745717062
10
-9.8869581778335487
20
8.8882827507486866
10
-9.9161084743492651
20
8.7969428005040893
10
-9.3797924508938628
20
8.6257825243271089
0
LWPOLYLINE
5
686
100
AcDbEntity
8
0
100
AcDbPolyline
90
4
70
1
43
0.0
10
-8.6140253839298744
20
7.7960654026188072
10
-9.150341407385282
20
7.9672256787957876
10
-9.179491703901002
20
7.8758857285511867
10
-8.6431756804455944
20
7.7047254523742073
0
LWPOLYLINE
5
687
100
AcDbEntity
8
0
100
AcDbPolyline
90
4
70
1
43
0.0
10
-8.9527199177837122
20
8.5864556416106179
10
-8.9818702142994287
20
8.4951156913660206
10
-8.4455541908440264
20
8.3239554151890403
10
-8.4164038943283064
20
8.4152953654336358
0
LWPOLYLINE
5
688
100
AcDbEntity
8
0
100
AcDbPolyline
90
4
70
1
43
0.0
10
-9.721527315356953
20
9.4066461485063844
10
-9.1852112919015472
20
9.235485872329404
10
-9.1560609953858272
20
9.3268258225739995
10
-9.6923770188412313
20
9.4979860987509799
0
LWPOLYLINE
5
689
100
AcDbEntity
8
0
100
AcDbPolyline
90
4
70
1
43
0.0
10
-9.2825018713977041
20
8.9306341983282547
10
-9.2533515748819841
20
9.0219741485728537
10
-9.7896675983373882
20
9.1931344247498359
10
-9.81881789485311
20
9.101794474505235
0
LWPOLYLINE
5
690
100
AcDbEntity
8
0
100
AcDbPolyline
90
4
70
1
43
0.0
10
-6.5304629738139015
20
0.3017520755541373
10
-6.6263416799881094
20
0.3017520755541373
10
-6.6263416799881094
20
-0.26121392444586328
10
-6.5304629738139015
20
-0.26121392444586328
0
LWPOLYLINE
5
691
100
AcDbEntity
8
0
100
AcDbPolyline
90
4
70
1
43
0.0
10
-7.8204629738139042
20
-2.3212139244458623
10
-7.8204629738139042
20
-1.7582479244458633
10
-7.916341679988113
20
-1.7582479244458633
10
-7.916341679988113
20
-2.3212139244458623
0
LWPOLYLINE
5
692
100
AcDbEntity
8
0
100
AcDbPolyline
90
4
70
1
43
0.0
10
-10.801910814976997
20
9.1755784925241599
10
-10.831061111492714
20
9.0842385422795626
10
-10.294745088037311
20
8.9130782661025822
10
-10.265594791521591
20
9.0044182163471795
0
LWPOLYLINE
5
693
100
AcDbEntity
8
0
100
AcDbPolyline
90
4
70
1
43
0.0
10
-7.2663416799881118
20
-1.7582479244458633
10
-7.2663416799881118
20
-2.3212139244458623
10
-7.170462973813903
20
-2.3212139244458623
10
-7.170462973813903
20
-1.7582479244458633
0
LWPOLYLINE
5
694
100
AcDbEntity
8
0
100
AcDbPolyline
90
4
70
1
43
0.0
10
-7.500462973813903
20
-1.7582479244458633
10
-7.5963416799881118
20
-1.7582479244458633
10
-7.5963416799881118
20
-2.3212139244458623
10
-7.500462973813903
20
-2.3212139244458623
0
LWPOLYLINE
5
695
100
AcDbEntity
8
0
100
AcDbPolyline
90
4
70
1
43
0.0
10
-7.916341679988113
20
-3.3512139244458621
10
-7.8204629738139042
20
-3.3512139244458621
10
-7.8204629738139042
20
-2.7882479244458613
10
-7.916341679988113
20
-2.7882479244458613
0
LWPOLYLINE
5
696
100
AcDbEntity
8
0
100
AcDbPolyline
90
4
70
1
43
0.0
10
-7.5963416799881118
20
-3.3512139244458621
10
-7.500462973813903
20
-3.3512139244458621
10
-7.500462973813903
20
-2.7882479244458613
10
-7.5963416799881118
20
-2.7882479244458613
0
SPLINE
5
697
100
AcDbEntity
8
0
100
AcDbSpline
70
1064
71
5
72
51
73
45
74
0
42
0.000000001
43
0.0000000001
44
0.0000000001
40
0
40
0
40
0
40
0
40
0
40
0
40
0.025000000000000001
40
0.050000000000000003
40
0.075000000000000011
40
0.10000000000000001
40
0.125
40
0.14999999999999999
40
0.17499999999999999
40
0.19999999999999998
40
0.22499999999999998
40
0.24999999999999997
40
0.27499999999999997
40
0.29999999999999999
40
0.32500000000000001
40
0.35000000000000003
40
0.37500000000000006
40
0.40000000000000008
40
0.4250000000000001
40
0.45000000000000012
40
0.47500000000000014
40
0.50000000000000011
40
0.52500000000000013
40
0.55000000000000016
40
0.57500000000000018
40
0.6000000000000002
40
0.62500000000000022
40
0.65000000000000024
40
0.67500000000000027
40
0.70000000000000029
40
0.72500000000000031
40
0.75000000000000033
40
0.77500000000000036
40
0.80000000000000038
40
0.8250000000000004
40
0.85000000000000042
40
0.87500000000000044
40
0.90000000000000047
40
0.92500000000000049
40
0.95000000000000051
40
0.97500000000000053
40
1
40
1
40
1
40
1
40
1
40
1
10
-6.1941156398275004
20
1.6316023853150956
30
0
10
-6.2203877681501458
20
1.6311865594880963
30
0
10
-6.2727253141805495
20
1.630430088683263
30
0
10
-6.3506113178905101
20
1.6295219299177823
30
0
10
-6.4532190226584696
20
1.6287558772103516
30
0
10
-6.5792782730231645
20
1.6296199518244827
30
0
10
-6.7027798747528147
20
1.635380555108134
30
0
10
-6.822957631352959
20
1.6525256977561564
30
0
10
-6.9390853301787683
20
1.6887728433019249
30
0
10
-7.0509804770667328
20
1.7504380522844813
30
0
10
-7.1596312997644871
20
1.8394426299955899
30
0
10
-7.2667208761602158
20
1.9543379332903321
30
0
10
-7.3739104456401616
20
2.092256235528982
30
0
10
-7.4821637930054639
20
2.2506361819494982
30
0
10
-7.5911735855417266
20
2.428742684176838
30
0
10
-7.6997688010289647
20
2.6267416869390066
30
0
10
-7.806204788490267
20
2.8450749094373688
30
0
10
-7.9085063393663448
20
3.083680464864381
30
0
10
-8.0047632976004817
20
3.3413637095952331
30
0
10
-8.0935057973598763
20
3.6148794150065533
30
0
10
-8.1737718334599627
20
3.8991460543795338
30
0
10
-8.244985865058851
20
4.1881565600724882
30
0
10
-8.3068960053266139
20
4.4756824242107696
30
0
10
-8.3594898741299701
20
4.7560431949245503
30
0
10
-8.4029195901164453
20
5.0248901131041874
30
0
10
-8.4374285245565996
20
5.2798931390997899
30
0
10
-8.4632676449427819
20
5.5217222035763367
30
0
10
-8.4806766212145206
20
5.7535679366228711
30
0
10
-8.4898939552238701
20
5.9800281141751555
30
0
10
-8.4911582786286939
20
6.2062077421971775
30
0
10
-8.4847139650529595
20
6.4367275817030443
30
0
10
-8.470815314001344
20
6.6747863662164146
30
0
10
-8.4497323551530048
20
6.9211533976707287
30
0
10
-8.4217409692344258
20
7.174688185341874
30
0
10
-8.3871128907663817
20
7.4329085848824406
30
0
10
-8.3461063112549514
20
7.6925285840323037
30
0
10
-8.2989564100475626
20
7.95001808008411
30
0
10
-8.2458668393610068
20
8.2021191189463192
30
0
10
-8.186999647983793
20
8.4464651280163867
30
0
10
-8.122477041824169
20
8.6815331603546753
30
0
10
-8.0523862562664892
20
8.9064299472992818
30
0
10
-7.9919041266093798
20
9.077876293266991
30
0
10
-7.9440756895158513
20
9.2016427998437571
30
0
10
-7.9110948057961776
20
9.282014605694334
30
0
10
-7.8943305492236302
20
9.3216657050030296
30
0
0
LWPOLYLINE
5
698
100
AcDbEntity
8
0
100
AcDbPolyline
90
4
70
1
43
0.0
10
-9.0530508278891233
20
8.2720773527969325
10
-9.0822011244048468
20
8.1807374025523352
10
-8.5458851009494392
20
8.0095771263753548
10
-8.5167348044337174
20
8.1009170766199521
0
LWPOLYLINE
5
699
100
AcDbEntity
8
0
100
AcDbPolyline
90
4
70
1
43
0.0
10
-7.500462973813903
20
0.3017520755541373
10
-7.5963416799881118
20
0.3017520755541373
10
-7.5963416799881118
20
-0.26121392444586328
10
-7.500462973813903
20
-0.26121392444586328
0
LWPOLYLINE
5
700
100
AcDbEntity
8
0
100
AcDbPolyline
90
4
70
1
43
0.0
10
-6.5304629738139015
20
1.331752075554137
10
-6.6263416799881094
20
1.331752075554137
10
-6.6263416799881094
20
0.76878607555413636
10
-6.5304629738139015
20
0.76878607555413636
0
LWPOLYLINE
5
701
100
AcDbEntity
8
0
100
AcDbPolyline
90
4
70
1
43
0.0
10
-10.902241725082408
20
8.8612002037104762
10
-10.931392021598132
20
8.7698602534658789
10
-10.395075998142724
20
8.5986999772888986
10
-10.365925701627003
20
8.6900399275334941
0
LWPOLYLINE
5
702
100
AcDbEntity
8
0
100
AcDbPolyline
90
4
70
1
43
0.0
10
-6.5304629738139015
20
-1.2912139244458629
10
-6.5304629738139015
20
-0.72824792444586228
10
-6.6263416799881094
20
-0.72824792444586228
10
-6.6263416799881094
20
-1.2912139244458629
0
LWPOLYLINE
5
703
100
AcDbEntity
8
0
100
AcDbPolyline
90
4
70
1
43
0.0
10
-7.2663416799881118
20
-1.2912139244458629
10
-7.170462973813903
20
-1.2912139244458629
10
-7.170462973813903
20
-0.72824792444586228
10
-7.2663416799881118
20
-0.72824792444586228
0
LWPOLYLINE
5
704
100
AcDbEntity
8
0
100
AcDbPolyline
90
4
70
1
43
0.0
10
-7.500462973813903
20
-0.72824792444586228
10
-7.5963416799881118
20
-0.72824792444586228
10
-7.5963416799881118
20
-1.2912139244458629
10
-7.500462973813903
20
-1.2912139244458629
0
LINE
5
705
100
AcDbEntity
8
0
100
AcDbLine
10
-6.1941156398275004
20
-4.6479887503151112
30
0
11
-6.1941156398275004
21
1.6316023853150956
31
0
0
LWPOLYLINE
5
706
100
AcDbEntity
8
0
100
AcDbPolyline
90
4
70
1
43
0.0
10
-11.329314258192561
20
8.900527086426969
10
-11.300163961676839
20
8.9918670366715663
10
-11.836479985132245
20
9.1630273128485449
10
-11.865630281647968
20
9.0716873626039476
0
LWPOLYLINE
5
707
100
AcDbEntity
8
0
100
AcDbPolyline
90
4
70
1
43
0.0
10
-7.2663416799881118
20
1.331752075554137
10
-7.2663416799881118
20
0.76878607555413636
10
-7.170462973813903
20
0.76878607555413636
10
-7.170462973813903
20
1.331752075554137
0
LWPOLYLINE
5
708
100
AcDbEntity
8
0
100
AcDbPolyline
90
4
70
1
43
0.0
10
-7.500462973813903
20
0.76878607555413636
10
-7.500462973813903
20
1.331752075554137
10
-7.5963416799881118
20
1.331752075554137
10
-7.5963416799881118
20
0.76878607555413636
0
LWPOLYLINE
5
709
100
AcDbEntity
8
0
100
AcDbPolyline
90
4
70
1
43
0.0
10
-6.8504629738139018
20
-2.7882479244458613
10
-6.9463416799881106
20
-2.7882479244458613
10
-6.9463416799881106
20
-3.3512139244458621
10
-6.8504629738139018
20
-3.3512139244458621
0
LWPOLYLINE
5
710
100
AcDbEntity
8
0
100
AcDbPolyline
90
4
70
1
43
0.0
10
-6.8504629738139018
20
0.76878607555413636
10
-6.8504629738139018
20
1.331752075554137
10
-6.9463416799881106
20
1.331752075554137
10
-6.9463416799881106
20
0.76878607555413636
0
LWPOLYLINE
5
711
100
AcDbEntity
8
0
100
AcDbPolyline
90
4
70
1
43
0.0
10
-11.034402189094832
20
9.824608723242946
10
-11.005251892579112
20
9.9159486734875415
10
-11.541567916034516
20
10.087108949664522
10
-11.570718212550238
20
9.9957689994199246
0
LWPOLYLINE
5
712
100
AcDbEntity
8
0
100
AcDbPolyline
90
4
70
1
43
0.0
10
-10.60732965598468
20
9.7852818405264532
10
-10.636479952500402
20
9.6939418902818559
10
-10.100163929044996
20
9.5227816141048756
10
-10.071013632529276
20
9.6141215643494711
0
SPLINE
5
713
100
AcDbEntity
8
0
100
AcDbSpline
70
1064
71
5
72
31
73
25
74
0
42
0.000000001
43
0.0000000001
44
0.0000000001
40
0
40
0
40
0
40
0
40
0
40
0
40
0.050000000000000003
40
0.10000000000000001
40
0.15000000000000002
40
0.20000000000000001
40
0.25
40
0.29999999999999999
40
0.34999999999999998
40
0.39999999999999997
40
0.44999999999999996
40
0.49999999999999994
40
0.54999999999999993
40
0.59999999999999998
40
0.65000000000000002
40
0.70000000000000007
40
0.75000000000000011
40
0.80000000000000016
40
0.8500000000000002
40
0.90000000000000024
40
0.95000000000000029
40
0.97421194824128921
40
0.97421194824128921
40
0.97421194824128921
40
0.97421194824128921
40
0.97421194824128921
40
0.97421194824128921
10
-11.731137858795885
20
10.480355122260343
30
0
10
-11.735656469189552
20
10.454250903257961
30
0
10
-11.746195624841754
20
10.402958050761502
30
0
10
-11.766510049888192
20
10.328765496686083
30
0
10
-11.802645082273031
20
10.235358231995756
30
0
10
-11.86309731727596
20
10.127902072454633
30
0
10
-11.939076008668547
20
10.029850215707702
30
0
10
-12.030736062540878
20
9.9412147055042599
30
0
10
-12.13821524812319
20
9.8618836377892922
30
0
10
-12.261818645151457
20
9.7916125010864636
30
0
10
-12.402160842811568
20
9.7299939501120001
30
0
10
-12.560296077845788
20
9.6764295266944789
30
0
10
-12.737520398610885
20
9.6302064054543859
30
0
10
-12.935174642631615
20
9.5905622311246752
30
0
10
-13.154441871296545
20
9.5567436620446777
30
0
10
-13.396091641740055
20
9.5280633908094838
30
0
10
-13.660315067637422
20
9.5039409762859783
30
0
10
-13.946936160608121
20
9.4838959889702785
30
0
10
-14.255536329973802
20
9.4675460870031714
30
0
10
-14.585583860832932
20
9.4546002257555539
30
0
10
-14.900332714624165
20
9.4458569271743986
30
0
10
-15.157294052960742
20
9.4409234019603581
30
0
10
-15.346727686979779
20
9.4383337004318566
30
0
10
-15.462118585077432
20
9.437115952677674
30
0
10
-15.500000494671614
20
9.4367536909050713
30
0
0
LWPOLYLINE
5
714
100
AcDbEntity
8
0
100
AcDbPolyline
90
4
70
1
43
0.0
10
-8.2509730318517107
20
8.9336587631913353
10
-8.2218227353359907
20
9.0249987134359309
10
-8.7581387587913948
20
9.1961589896129112
10
-8.7872890553071166
20
9.1048190393683139
0
LINE
5
715
100
AcDbEntity
8
0
100
AcDbLine
10
-6.1941156398275004
20
-4.6479887503151112
30
0
11
-15.500000494671617
21
-4.6479887503151112
31
0
0
LINE
5
716
100
AcDbEntity
8
0
100
AcDbLine
10
-7.8943305492236302
20
9.3216657050030296
30
0
11
-11.731137858795885
21
10.480355122260343
31
0
0
LWPOLYLINE
5
717
100
AcDbEntity
8
0
100
AcDbPolyline
90
4
70
1
43
0.0
10
-11.638858495530673
20
9.7822572756633779
10
-11.668008792046395
20
9.6909173254187753
10
-11.131692768590989
20
9.5197570492417967
10
-11.102542472075269
20
9.611096999486394
0
LWPOLYLINE
5
718
100
AcDbEntity
8
0
100
AcDbPolyline
90
4
70
1
43
0.0
10
-6.9463416799881106
20
-3.8182479244458638
10
-6.9463416799881106
20
-4.3812139244458619
10
-6.8504629738139018
20
-4.3812139244458619
10
-6.8504629738139018
20
-3.8182479244458638
0
LWPOLYLINE
5
719
100
AcDbEntity
8
0
100
AcDbPolyline
90
4
70
1
43
0.0
10
-7.916341679988113
20
1.331752075554137
10
-7.916341679988113
20
0.76878607555413636
10
-7.8204629738139042
20
0.76878607555413636
10
-7.8204629738139042
20
1.331752075554137
0
CIRCLE
5
720
100
AcDbEntity
8
0
100
AcDbCircle
10
-15.500000494671621
20
8.7000002776543912
30
0
40
0.3149676871918361
0
LINE
5
721
100
AcDbEntity
8
0
100
AcDbLine
10
-15.500000494671617
20
10.400000331908698
30
0
11
-15.500000494671617
21
-5.9000001882943574
31
0
0
CIRCLE
5
722
100
AcDbEntity
8
0
100
AcDbCircle
10
-15.500000494671617
20
7.7721454925106945
30
0
40
0.22360680488623344
0
CIRCLE
5
723
100
AcDbEntity
8
0
100
AcDbCircle
10
-15.500000494671617
20
6.9841184670814593
30
0
40
0.14942420896573674
0
CIRCLE
5
724
100
AcDbEntity
8
0
100
AcDbCircle
10
-15.500000494671617
20
6.3534957292429919
30
0
40
0.091158372141517216
0
CIRCLE
5
725
100
AcDbEntity
8
0
100
AcDbCircle
10
-15.500000494671617
20
5.8000001851029275
30
0
40
0.091158372141517521
0
ENDSEC
0
SECTION
2
OBJECTS
0
DICTIONARY
5
C
100
AcDbDictionary
3
ACAD_GROUP
350
D
3
ACAD_MLINESTYLE
350
17
0
DICTIONARY
5
D
100
AcDbDictionary
0
DICTIONARY
5
1A
330
C
100
AcDbDictionary
0
DICTIONARY
5
17
100
AcDbDictionary
0
ENDSEC
0
EOF
