0
SECTION
2
HEADER
9
$INSUNITS
70
1
9
$ACADVER
1
AC1014
9
$HANDSEED
5
FFFF
0
ENDSEC
0
SECTION
2
TABLES
0
TABLE
2
VPORT
5
8
100
AcDbSymbolTable
0
ENDTAB
0
TABLE
2
LTYPE
5
5
100
AcDbSymbolTable
0
LTYPE
5
14
100
AcDbSymbolTableRecord
100
AcDbLinetypeTableRecord
2
BYBLOCK
70
0
0
LTYPE
5
15
100
AcDbSymbolTableRecord
100
AcDbLinetypeTableRecord
2
BYLAYER
70
0
0
ENDTAB
0
TABLE
2
LAYER
5
2
100
AcDbSymbolTable
70
2
0
LAYER
5
50
100
AcDbSymbolTableRecord
100
AcDbLayerTableRecord
2
0
70
0
6
CONTINUOUS
0
ENDTAB
0
TABLE
2
STYLE
5
3
100
AcDbSymbolTable
70
1
0
STYLE
5
11
100
AcDbSymbolTableRecord
100
AcDbTextStyleTableRecord
2
STANDARD
70
0
0
ENDTAB
0
TABLE
2
VIEW
5
6
100
AcDbSymbolTable
70
0
0
ENDTAB
0
TABLE
2
UCS
5
7
100
AcDbSymbolTable
70
0
0
ENDTAB
0
TABLE
2
APPID
5
9
100
AcDbSymbolTable
70
2
0
APPID
5
12
100
AcDbSymbolTableRecord
100
AcDbRegAppTableRecord
2
ACAD
70
0
0
ENDTAB
0
TABLE
2
DIMSTYLE
5
A
100
AcDbSymbolTable
70
1
0
ENDTAB
0
TABLE
2
BLOCK_RECORD
5
1
100
AcDbSymbolTable
70
1
0
BLOCK_RECORD
5
1F
100
AcDbSymbolTableRecord
100
AcDbBlockTableRecord
2
*MODEL_SPACE
0
BLOCK_RECORD
5
1B
100
AcDbSymbolTableRecord
100
AcDbBlockTableRecord
2
*PAPER_SPACE
0
ENDTAB
0
ENDSEC
0
SECTION
2
BLOCKS
0
BLOCK
5
20
100
AcDbEntity
100
AcDbBlockBegin
2
*MODEL_SPACE
0
ENDBLK
5
21
100
AcDbEntity
100
AcDbBlockEnd
0
BLOCK
5
1C
100
AcDbEntity
100
AcDbBlockBegin
2
*PAPER_SPACE
0
ENDBLK
5
1D
100
AcDbEntity
100
AcDbBlockEnd
0
ENDSEC
0
SECTION
2
ENTITIES
0
SPLINE
5
100
100
AcDbEntity
8
0
100
AcDbSpline
70
1064
71
5
72
31
73
25
74
0
42
0.000000001
43
0.0000000001
44
0.0000000001
40
0
40
0
40
0
40
0
40
0
40
0
40
0.050000000000000003
40
0.10000000000000001
40
0.15000000000000002
40
0.20000000000000001
40
0.25
40
0.29999999999999999
40
0.34999999999999998
40
0.39999999999999997
40
0.44999999999999996
40
0.49999999999999994
40
0.54999999999999993
40
0.59999999999999998
40
0.65000000000000002
40
0.70000000000000007
40
0.75000000000000011
40
0.80000000000000016
40
0.8500000000000002
40
0.90000000000000024
40
0.95000000000000029
40
1
40
1
40
1
40
1
40
1
40
1
10
14.515473025072954
20
57.937699590455544
30
0
10
14.494950640820733
20
57.8811800570884
30
0
10
14.451198059970597
20
57.764898452788557
30
0
10
14.377445889200853
20
57.580748615731174
30
0
10
14.264500191030246
20
57.318018754552853
30
0
10
14.108270536271959
20
56.974060307779638
30
0
10
13.948601359282696
20
56.63142333092302
30
0
10
13.796556221667068
20
56.307082480892603
30
0
10
13.659775130711415
20
56.014444869631596
30
0
10
13.539604423013932
20
55.759686102437527
30
0
10
13.427983023857832
20
55.53778611239796
30
0
10
13.311391863602335
20
55.337087707033255
30
0
10
13.175139106790542
20
55.144242995638926
30
0
10
13.007085202686666
20
54.948457814589879
30
0
10
12.802617277217299
20
54.747215635223803
30
0
10
12.564976896422435
20
54.546354139815747
30
0
10
12.302284864248275
20
54.356147159836205
30
0
10
12.025604610389902
20
54.188523793065755
30
0
10
11.746774038661991
20
54.054105421757534
30
0
10
11.476125127504341
20
53.958684388441526
30
0
10
11.221102995875764
20
53.901888276710132
30
0
10
11.033693465634379
20
53.884740698706423
30
0
10
10.903791422857177
20
53.886004615558988
30
0
10
10.822050971362268
20
53.892843926232693
30
0
10
10.782395914142519
20
53.897762598541924
30
0
0
SPLINE
5
101
100
AcDbEntity
8
0
100
AcDbSpline
70
1064
71
5
72
31
73
25
74
0
42
0.000000001
43
0.0000000001
44
0.0000000001
40
0
40
0
40
0
40
0
40
0
40
0
40
0.050000000000000003
40
0.10000000000000001
40
0.15000000000000002
40
0.20000000000000001
40
0.25
40
0.29999999999999999
40
0.34999999999999998
40
0.39999999999999997
40
0.44999999999999996
40
0.49999999999999994
40
0.54999999999999993
40
0.59999999999999998
40
0.65000000000000002
40
0.70000000000000007
40
0.75000000000000011
40
0.80000000000000016
40
0.8500000000000002
40
0.90000000000000024
40
0.95000000000000029
40
1
40
1
40
1
40
1
40
1
40
1
10
7.0493188032120839
20
57.937699590455544
30
0
10
7.0698411874643048
20
57.8811800570884
30
0
10
7.1135937683143613
20
57.764898452788572
30
0
10
7.1873459390838024
20
57.580748615731238
30
0
10
7.3002916372540518
20
57.318018754553052
30
0
10
7.4565212920121189
20
56.974060307780007
30
0
10
7.6161904690014763
20
56.631423330923411
30
0
10
7.7682356066174982
20
56.307082480892767
30
0
10
7.9050166975736413
20
56.014444869631596
30
0
10
8.0251874052714918
20
55.759686102437435
30
0
10
8.136808804427714
20
55.537786112397889
30
0
10
8.2533999646830782
20
55.337087707033184
30
0
10
8.3896527214946222
20
55.144242995638884
30
0
10
8.5577066255981862
20
54.948457814589915
30
0
10
8.7621745510673588
20
54.747215635223881
30
0
10
8.9998149318621188
20
54.546354139815826
30
0
10
9.262506964036346
20
54.356147159836283
30
0
10
9.5391872178949377
20
54.188523793065784
30
0
10
9.818017789623152
20
54.054105421757505
30
0
10
10.088666700781047
20
53.958684388441526
30
0
10
10.343688832409622
20
53.901888276710132
30
0
10
10.531098362650779
20
53.884740698706423
30
0
10
10.66100040542789
20
53.886004615558988
30
0
10
10.74274085692277
20
53.892843926232693
30
0
10
10.782395914142519
20
53.897762598541924
30
0
0
SPLINE
5
102
100
AcDbEntity
8
0
100
AcDbSpline
70
1064
71
5
72
31
73
25
74
0
42
0.000000001
43
0.0000000001
44
0.0000000001
40
0
40
0
40
0
40
0
40
0
40
0
40
0.050000000000000003
40
0.10000000000000001
40
0.15000000000000002
40
0.20000000000000001
40
0.25
40
0.29999999999999999
40
0.34999999999999998
40
0.39999999999999997
40
0.44999999999999996
40
0.49999999999999994
40
0.54999999999999993
40
0.59999999999999998
40
0.65000000000000002
40
0.70000000000000007
40
0.75000000000000011
40
0.80000000000000016
40
0.8500000000000002
40
0.90000000000000024
40
0.95000000000000029
40
1
40
1
40
1
40
1
40
1
40
1
10
-17.689993309081654
20
57.6650808720931
30
0
10
-17.679539553332297
20
57.622771791754012
30
0
10
-17.655971226034449
20
57.53584414396137
30
0
10
-17.612636003249765
20
57.398524008967108
30
0
10
-17.540199143247168
20
57.203922335504501
30
0
10
-17.431966187470891
20
56.954874188460813
30
0
10
-17.313333700084392
20
56.716882711754195
30
0
10
-17.18905749971513
20
56.506108331837815
30
0
10
-17.058657769379884
20
56.334211388679726
30
0
10
-16.912641931368984
20
56.203523929990233
30
0
10
-16.736182955118217
20
56.109019582407754
30
0
10
-16.514616697319017
20
56.041762582086548
30
0
10
-16.237914545383976
20
55.991571325347437
30
0
10
-15.906634523752281
20
55.950314497813473
30
0
10
-15.53435860438878
20
55.913719539246614
30
0
10
-15.142282041442604
20
55.880075623882547
30
0
10
-14.755488222836687
20
55.849581141753319
30
0
10
-14.398768105647859
20
55.823481174936475
30
0
10
-14.092416397853503
20
55.803280493821497
30
0
10
-13.848507626051802
20
55.790005480236481
30
0
10
-13.665464278632177
20
55.783247940764333
30
0
10
-13.554975298959755
20
55.781349081538188
30
0
10
-13.484350333273103
20
55.780871523279771
30
0
10
-13.441420432028517
20
55.780810487876309
30
0
10
-13.42099466024619
20
55.780844421060465
30
0
0
LINE
5
103
100
AcDbEntity
8
0
100
AcDbLine
10
-3.5133923872128388
20
41.188281331340114
30
0
11
-13.446934178965327
21
41.205960463057181
31
0
0
LINE
5
104
100
AcDbEntity
8
0
100
AcDbLine
10
-23.380475970717814
20
41.223639594774248
30
0
11
-13.446934178965327
21
41.205960463057181
31
0
0
SPLINE
5
105
100
AcDbEntity
8
0
100
AcDbSpline
70
1064
71
5
72
41
73
35
74
0
42
0.000000001
43
0.0000000001
44
0.0000000001
40
0
40
0
40
0
40
0
40
0
40
0
40
0.033333333333333333
40
0.066666666666666666
40
0.10000000000000001
40
0.13333333333333333
40
0.16666666666666666
40
0.19999999999999998
40
0.23333333333333331
40
0.26666666666666666
40
0.29999999999999999
40
0.33333333333333331
40
0.36666666666666664
40
0.39999999999999997
40
0.43333333333333329
40
0.46666666666666662
40
0.49999999999999994
40
0.53333333333333333
40
0.56666666666666665
40
0.59999999999999998
40
0.6333333333333333
40
0.66666666666666663
40
0.69999999999999996
40
0.73333333333333328
40
0.76666666666666661
40
0.79999999999999993
40
0.83333333333333326
40
0.86666666666666659
40
0.89999999999999991
40
0.93333333333333324
40
0.96666666666666656
40
1
40
1
40
1
40
1
40
1
40
1
10
-21.729354258002232
20
56.436504573059281
30
0
10
-21.698738740935852
20
56.377681521620772
30
0
10
-21.636930143697672
20
56.256823225783087
30
0
10
-21.542484617953814
20
56.065899267753522
30
0
10
-21.414131449849041
20
55.793209225450845
30
0
10
-21.255775684390738
20
55.42896193116632
30
0
10
-21.107508436277222
20
55.050334710522172
30
0
10
-20.977575735095385
20
54.666773098553463
30
0
10
-20.87280243718002
20
54.286395214498761
30
0
10
-20.79699464318622
20
53.914291267355893
30
0
10
-20.749118478727883
20
53.550611221951293
30
0
10
-20.724805714765843
20
53.191857443711896
30
0
10
-20.718064320109715
20
52.832381072902479
30
0
10
-20.722918435795147
20
52.465796632897046
30
0
10
-20.735016134251797
20
52.08639527697315
30
0
10
-20.753385387201408
20
51.690625356556964
30
0
10
-20.781773091500167
20
51.278373656061817
30
0
10
-20.826560884651574
20
50.85249264611992
30
0
10
-20.894984942598793
20
50.418526049959091
30
0
10
-20.993313207321549
20
49.984357355923223
30
0
10
-21.124880406760855
20
49.559968363345305
30
0
10
-21.288514698401329
20
49.157036670529919
30
0
10
-21.475889219481516
20
48.788935137627973
30
0
10
-21.672437380327796
20
48.469420399714075
30
0
10
-21.862649683310316
20
48.20984163218521
30
0
10
-22.034626859244497
20
48.016390485023976
30
0
10
-22.184154456825361
20
47.887952869368007
30
0
10
-22.320928752217643
20
47.812063459260287
30
0
10
-22.468093821714447
20
47.766429375195798
30
0
10
-22.647554692509409
20
47.731766632268148
30
0
10
-22.864094059779365
20
47.706199669379409
30
0
10
-23.05807332820449
20
47.703852279469416
30
0
10
-23.208809123522052
20
47.719472262497
30
0
10
-23.310512425649424
20
47.738820817489454
30
0
10
-23.361668562187898
20
47.750727689977857
30
0
0
SPLINE
5
106
100
AcDbEntity
8
0
100
AcDbSpline
70
1064
71
5
72
26
73
20
74
0
42
0.000000001
43
0.0000000001
44
0.0000000001
40
0
40
0
40
0
40
0
40
0
40
0
40
0.066666666666666666
40
0.13333333333333333
40
0.20000000000000001
40
0.26666666666666666
40
0.33333333333333331
40
0.39999999999999997
40
0.46666666666666662
40
0.53333333333333333
40
0.59999999999999998
40
0.66666666666666663
40
0.73333333333333328
40
0.79999999999999993
40
0.86666666666666659
40
0.93333333333333324
40
1
40
1
40
1
40
1
40
1
40
1
10
2.2507099009715827
20
41.8183576598176
30
0
10
2.3007225976186874
20
41.824403894647453
30
0
10
2.4101901225367803
20
41.834658247522668
30
0
10
2.6027200914573627
20
41.844526984555927
30
0
10
2.9126155035925247
20
41.845499049868224
30
0
10
3.3705163775125011
20
41.821089839767431
30
0
10
3.878158832649595
20
41.766311214620927
30
0
10
4.420006485793845
20
41.680839454384916
30
0
10
4.9894175053901195
20
41.570348546830552
30
0
10
5.5845532325999372
20
41.443810631904469
30
0
10
6.2060687965236703
20
41.311926163103024
30
0
10
6.8540453405329833
20
41.185206660040123
30
0
10
7.5252734834248383
20
41.072303342432043
30
0
10
8.209922512267342
20
40.978031838527166
30
0
10
8.8939485224837558
20
40.904304978216437
30
0
10
9.5617706401833829
20
40.851155220251357
30
0
10
10.071375134002011
20
40.824307354927022
30
0
10
10.434752163536738
20
40.812452108147802
30
0
10
10.668013094207042
20
40.808143817087533
30
0
10
10.782395914142526
20
40.806888480501442
30
0
0
LINE
5
107
100
AcDbEntity
8
0
100
AcDbLine
10
10.782395914142519
20
56.217745077017909
30
0
11
10.782395914142519
21
38.937744525538839
31
0
0
SPLINE
5
108
100
AcDbEntity
8
0
100
AcDbSpline
70
1064
71
5
72
26
73
20
74
0
42
0.000000001
43
0.0000000001
44
0.0000000001
40
0
40
0
40
0
40
0
40
0
40
0
40
0.066666666666666666
40
0.13333333333333333
40
0.20000000000000001
40
0.26666666666666666
40
0.33333333333333331
40
0.39999999999999997
40
0.46666666666666662
40
0.53333333333333333
40
0.59999999999999998
40
0.66666666666666663
40
0.73333333333333328
40
0.79999999999999993
40
0.86666666666666659
40
0.93333333333333324
40
1
40
1
40
1
40
1
40
1
40
1
10
19.314081927313453
20
41.8183576598176
30
0
10
19.264069230666347
20
41.824403894647453
30
0
10
19.154601705748373
20
41.834658247522682
30
0
10
18.962071736828381
20
41.844526984556012
30
0
10
18.652176324693681
20
41.845499049868387
30
0
10
18.194275450773116
20
41.821089839767609
30
0
10
17.686632995635094
20
41.766311214620849
30
0
10
17.144785342490209
20
41.680839454384518
30
0
10
16.575374322893797
20
41.570348546830004
30
0
10
15.980238595684279
20
41.443810631904014
30
0
10
15.358723031761027
20
41.311926163102783
30
0
10
14.710746487752106
20
41.185206660040144
30
0
10
14.039518344860353
20
41.072303342432178
30
0
10
13.354869316017785
20
40.978031838527301
30
0
10
12.670843305801256
20
40.904304978216494
30
0
10
12.003021188101574
20
40.851155220251378
30
0
10
11.493416694282965
20
40.824307354927022
30
0
10
11.130039664748294
20
40.812452108147802
30
0
10
10.896778734077996
20
40.808143817087533
30
0
10
10.782395914142512
20
40.806888480501442
30
0
0
SPLINE
5
109
100
AcDbEntity
8
0
100
AcDbSpline
70
1064
71
5
72
36
73
30
74
0
42
0.000000001
43
0.0000000001
44
0.0000000001
40
0
40
0
40
0
40
0
40
0
40
0
40
0.040000000000000001
40
0.080000000000000002
40
0.12
40
0.16
40
0.20000000000000001
40
0.24000000000000002
40
0.28000000000000003
40
0.32000000000000001
40
0.35999999999999999
40
0.39999999999999997
40
0.43999999999999995
40
0.47999999999999993
40
0.51999999999999991
40
0.55999999999999994
40
0.59999999999999998
40
0.64000000000000001
40
0.68000000000000005
40
0.72000000000000008
40
0.76000000000000012
40
0.80000000000000016
40
0.84000000000000019
40
0.88000000000000023
40
0.92000000000000026
40
0.9600000000000003
40
1
40
1
40
1
40
1
40
1
40
1
10
20.340513897483611
20
48.274945859275057
30
0
10
20.310545588134612
20
48.27328300292718
30
0
10
20.245074961647461
20
48.271879538095568
30
0
10
20.13026496094832
20
48.275541419024293
30
0
10
19.95548053485086
20
48.291877594401747
30
0
10
19.750944945027509
20
48.330998400210078
30
0
10
19.596481896586379
20
48.388366241895127
30
0
10
19.477248336038215
20
48.463721674897918
30
0
10
19.354334100700346
20
48.55997660670166
30
0
10
19.200312054220969
20
48.687821943108105
30
0
10
19.012555711501399
20
48.865143081201218
30
0
10
18.800966287250176
20
49.109908220126393
30
0
10
18.58259916819625
20
49.435059898083139
30
0
10
18.372993587753275
20
49.841766091773479
30
0
10
18.180759749129045
20
50.315530362907282
30
0
10
18.010260952170725
20
50.832919187635078
30
0
10
17.86316994370716
20
51.366595614141993
30
0
10
17.740437996200914
20
51.891008023637603
30
0
10
17.644008669703904
20
52.387618169012491
30
0
10
17.578763734531371
20
52.850788001935243
30
0
10
17.554061620944548
20
53.292533536329806
30
0
10
17.58679894272343
20
53.751537365474611
30
0
10
17.676701321739216
20
54.238171127997532
30
0
10
17.814361146208658
20
54.748662711408656
30
0
10
17.983400957415444
20
55.267240445152176
30
0
10
18.164786467016494
20
55.772721674712152
30
0
10
18.305088120687813
20
56.149041385978421
30
0
10
18.401344028284839
20
56.407690844776646
30
0
10
18.460741525551693
20
56.568628168925166
30
0
10
18.489247047830712
20
56.646223033059272
30
0
0
SPLINE
5
110
100
AcDbEntity
8
0
100
AcDbSpline
70
1064
71
5
72
36
73
30
74
0
42
0.000000001
43
0.0000000001
44
0.0000000001
40
0
40
0
40
0
40
0
40
0
40
0
40
0.040000000000000001
40
0.080000000000000002
40
0.12
40
0.16
40
0.20000000000000001
40
0.24000000000000002
40
0.28000000000000003
40
0.32000000000000001
40
0.35999999999999999
40
0.39999999999999997
40
0.43999999999999995
40
0.47999999999999993
40
0.51999999999999991
40
0.55999999999999994
40
0.59999999999999998
40
0.64000000000000001
40
0.68000000000000005
40
0.72000000000000008
40
0.76000000000000012
40
0.80000000000000016
40
0.84000000000000019
40
0.88000000000000023
40
0.92000000000000026
40
0.9600000000000003
40
1
40
1
40
1
40
1
40
1
40
1
10
1.224277930801424
20
48.274945859275057
30
0
10
1.2542462401504249
20
48.27328300292718
30
0
10
1.3197168681296139
20
48.271879538095575
30
0
10
1.4345268755435661
20
48.275541419024357
30
0
10
1.6093113159667052
20
48.291877594401811
30
0
10
1.8138469171457761
20
48.330998400210056
30
0
10
1.9683099594256657
20
48.388366241895135
30
0
10
2.0875435014745127
20
48.46372167489794
30
0
10
2.2104577187021239
20
48.55997660670166
30
0
10
2.3644797563639317
20
48.687821943108034
30
0
10
2.5522361004395595
20
48.86514308120119
30
0
10
2.7638255331489687
20
49.109908220126407
30
0
10
2.9821926625770905
20
49.435059898083125
30
0
10
3.1917982509237706
20
49.841766091773501
30
0
10
3.3840320932306795
20
50.315530362907296
30
0
10
3.5545308896490835
20
50.832919187634985
30
0
10
3.7016218945922028
20
51.366595614141886
30
0
10
3.8243538374422417
20
51.891008023637575
30
0
10
3.9207831600358789
20
52.387618169012519
30
0
10
3.9860280933666519
20
52.850788001935221
30
0
10
4.0107302073806066
20
53.292533536329785
30
0
10
3.9779928865710428
20
53.751537365474732
30
0
10
3.8880905082973518
20
54.238171127997838
30
0
10
3.7504306839738888
20
54.74866271140904
30
0
10
3.5813908723593237
20
55.267240445152517
30
0
10
3.4000053620511461
20
55.772721674712329
30
0
10
3.2597037078623972
20
56.149041385978478
30
0
10
3.1634478000484147
20
56.40769084477666
30
0
10
3.1040503027333455
20
56.568628168925166
30
0
10
3.075544780454329
20
56.646223033059272
30
0
0
SPLINE
5
111
100
AcDbEntity
8
0
100
AcDbSpline
70
1064
71
5
72
31
73
25
74
0
42
0.000000001
43
0.0000000001
44
0.0000000001
40
0
40
0
40
0
40
0
40
0
40
0
40
0.050000000000000003
40
0.10000000000000001
40
0.15000000000000002
40
0.20000000000000001
40
0.25
40
0.29999999999999999
40
0.34999999999999998
40
0.39999999999999997
40
0.44999999999999996
40
0.49999999999999994
40
0.54999999999999993
40
0.59999999999999998
40
0.65000000000000002
40
0.70000000000000007
40
0.75000000000000011
40
0.80000000000000016
40
0.8500000000000002
40
0.90000000000000024
40
0.95000000000000029
40
1
40
1
40
1
40
1
40
1
40
1
10
-9.1453161707133184
20
57.649873559759151
30
0
10
-9.1559204581726714
20
57.607601957283187
30
0
10
-9.1797980525863512
20
57.520758750943259
30
0
10
-9.2236217878496056
20
57.383593736321195
30
0
10
-9.2967508679343247
20
57.189251132532249
30
0
10
-9.4058696176563927
20
56.940589815233018
30
0
10
-9.525348477212729
20
56.703022115055873
30
0
10
-9.6503741355391028
20
56.492691427881333
30
0
10
-9.7813849019406351
20
56.321259727704629
30
0
10
-9.9278649931367884
20
56.191092836015699
30
0
10
-10.104659236992301
20
56.097217187676421
30
0
10
-10.326463490509054
20
56.030749272037887
30
0
10
-10.603342543864166
20
55.981543246473784
30
0
10
-10.934767319329049
20
55.941465861846694
30
0
10
-11.307171139033018
20
55.906196240352713
30
0
10
-11.699364972731704
20
55.873948123178025
30
0
10
-12.086264885240443
20
55.844830615512201
30
0
10
-12.443075644698451
20
55.820000548858836
30
0
10
-12.749497315507863
20
55.800890445655781
30
0
10
-12.993451794185773
20
55.788483702305086
30
0
10
-13.176518035301697
20
55.782377743082257
30
0
10
-13.287013073967268
20
55.780872178176637
30
0
10
-13.357639292103883
20
55.780646010443185
30
0
10
-13.400569138644004
20
55.780737783154109
30
0
10
-13.420994660246194
20
55.780844421060479
30
0
0
SPLINE
5
112
100
AcDbEntity
8
0
100
AcDbSpline
70
1064
71
5
72
41
73
35
74
0
42
0.000000001
43
0.0000000001
44
0.0000000001
40
0
40
0
40
0
40
0
40
0
40
0
40
0.033333333333333333
40
0.066666666666666666
40
0.10000000000000001
40
0.13333333333333333
40
0.16666666666666666
40
0.19999999999999998
40
0.23333333333333331
40
0.26666666666666666
40
0.29999999999999999
40
0.33333333333333331
40
0.36666666666666664
40
0.39999999999999997
40
0.43333333333333329
40
0.46666666666666662
40
0.49999999999999994
40
0.53333333333333333
40
0.56666666666666665
40
0.59999999999999998
40
0.6333333333333333
40
0.66666666666666663
40
0.69999999999999996
40
0.73333333333333328
40
0.76666666666666661
40
0.79999999999999993
40
0.83333333333333326
40
0.86666666666666659
40
0.89999999999999991
40
0.93333333333333324
40
0.96666666666666656
40
1
40
1
40
1
40
1
40
1
40
1
10
-5.1103538922849738
20
56.406927056536908
30
0
10
-5.1411785943349502
20
56.348213352776135
30
0
10
-5.2034169915886457
20
56.227575828461916
30
0
10
-5.2985415072713096
20
56.036989256009775
30
0
10
-5.4278644944975536
20
55.764757810528693
30
0
10
-5.5875157843723846
20
55.401076486443067
30
0
10
-5.7371298057381175
20
55.022979417311191
30
0
10
-5.8684269601410994
20
54.639882726829747
30
0
10
-5.9745535382742592
20
54.259880189932822
30
0
10
-6.0516853451446151
20
53.888048435668445
30
0
10
-6.1008557147935285
20
53.524541107959102
30
0
10
-6.1264452983155966
20
53.165876142973325
30
0
10
-6.1344661958926539
20
52.806426045221265
30
0
10
-6.1309169575494353
20
52.439826649423424
30
0
10
-6.1201698037598069
20
52.06038463558103
30
0
10
-6.1032093986333251
20
51.664551837525188
30
0
10
-6.0762892720377604
20
51.252201703416155
30
0
10
-6.0330176736112895
20
50.82616397056367
30
0
10
-5.966138740530945
20
50.391956570119973
30
0
10
-5.8693565094778686
20
49.957440629931895
30
0
10
-5.7393007437134909
20
49.532586016232202
30
0
10
-5.5771017122600428
20
49.129074424488266
30
0
10
-5.3910386248243158
20
48.760308269359157
30
0
10
-5.1956290124614011
20
48.44009594812163
30
0
10
-5.0063418774916419
20
48.179841769879303
30
0
10
-4.835054374721512
20
47.985779700491605
30
0
10
-4.6859848943244256
20
47.85681065936997
30
0
10
-4.5494815915240068
20
47.78043488591323
30
0
10
-4.4024798874958391
20
47.734277261177681
30
0
10
-4.2231435345934978
20
47.698975952116051
30
0
10
-4.0066965439430842
20
47.672638385648646
30
0
10
-3.8127268598299202
20
47.669600547077444
30
0
10
-3.661936420541378
20
47.684683891499304
30
0
10
-3.5601648920824149
20
47.703670313990919
30
0
10
-3.5089666974504627
20
47.715395022278429
30
0
0
LINE
5
113
100
AcDbEntity
8
0
100
AcDbLine
10
-13.419858338414622
20
56.419320370185176
30
0
11
-13.449587633041446
21
39.715038998165525
31
0
0
LINE
5
114
100
AcDbEntity
8
0
100
AcDbLine
10
-20.966799728470026
20
56.668436414147784
30
0
11
-20.206952453704012
21
56.241183787194799
31
0
0
LINE
5
115
100
AcDbEntity
8
0
100
AcDbLine
10
-20.206952453704012
20
56.241183787194799
30
0
11
-20.047414478708859
21
56.948068499970589
31
0
0
LINE
5
116
100
AcDbEntity
8
0
100
AcDbLine
10
-19.290877435346289
20
57.178170115688978
30
0
11
-18.560064152166046
21
56.684959476163833
31
0
0
LINE
5
117
100
AcDbEntity
8
0
100
AcDbLine
10
-18.560064152166046
20
56.684959476163833
30
0
11
-18.371492185585119
21
57.457802201511782
31
0
0
LINE
5
118
100
AcDbEntity
8
0
100
AcDbLine
10
-8.2787395529109968
20
56.666661381121131
30
0
11
-8.4645594138264073
21
57.440170426958844
31
0
0
LINE
5
119
100
AcDbEntity
8
0
100
AcDbLine
10
-6.6334412908889711
20
56.217026452707138
30
0
11
-6.790462119763478
21
56.924474558168754
31
0
0
LINE
5
120
100
AcDbEntity
8
0
100
AcDbLine
10
-7.5461753305418888
20
57.157267587684203
30
0
11
-8.2787395529109968
21
56.666661381121131
31
0
0
LINE
5
121
100
AcDbEntity
8
0
100
AcDbLine
10
-5.8720780364789587
20
56.641571718894106
30
0
11
-6.6334412908889711
21
56.217026452707138
31
0
0
LINE
5
122
100
AcDbEntity
8
0
100
AcDbLine
10
4.5853983529489328
20
56.474623914542406
30
0
11
4.7314980662803041
21
57.184407850952731
31
0
0
LINE
5
123
100
AcDbEntity
8
0
100
AcDbLine
10
5.4645206877920511
20
57.422640202944031
30
0
11
6.2045593550687901
21
56.943382144567039
31
0
0
LINE
5
124
100
AcDbEntity
8
0
100
AcDbLine
10
3.8175828572519221
20
56.887385408018496
30
0
11
4.5853983529489328
21
56.474623914542406
31
0
0
LINE
5
125
100
AcDbEntity
8
0
100
AcDbLine
10
6.2045593550687901
20
56.943382144567039
30
0
11
6.3784358968204353
21
57.719662645878259
31
0
0
LINE
5
126
100
AcDbEntity
8
0
100
AcDbLine
10
15.360232473216247
20
56.943382144567032
30
0
11
15.186355931464604
21
57.719662645878259
31
0
0
LINE
5
127
100
AcDbEntity
8
0
100
AcDbLine
10
16.100271140492985
20
57.422640202944031
30
0
11
15.360232473216247
21
56.943382144567032
31
0
0
LINE
5
128
100
AcDbEntity
8
0
100
AcDbLine
10
16.979393475336106
20
56.474623914542406
30
0
11
16.833293762004732
21
57.184407850952731
31
0
0
LINE
5
129
100
AcDbEntity
8
0
100
AcDbLine
10
17.747208971033114
20
56.887385408018496
30
0
11
16.979393475336106
21
56.474623914542406
31
0
0
LINE
5
130
100
AcDbEntity
8
0
100
AcDbLine
10
-23.364821113897914
20
46.656638480227564
30
0
11
-21.900000698923122
21
45.900001464866271
31
0
0
LINE
5
131
100
AcDbEntity
8
0
100
AcDbLine
10
-21.900000698923122
20
45.900001464866271
30
0
11
-23.371072266452867
21
45.4372222804109
31
0
0
LINE
5
132
100
AcDbEntity
8
0
100
AcDbLine
10
-23.374404137388165
20
44.249674717517358
30
0
11
-21.900000698923122
21
43.500001464866273
31
0
0
LINE
5
133
100
AcDbEntity
8
0
100
AcDbLine
10
-21.900000698923122
20
43.500001464866273
30
0
11
-23.375258047164369
21
43.034513573149226
31
0
0
LINE
5
134
100
AcDbEntity
8
0
100
AcDbLine
10
-4.9772129070047644
20
45.869883285402665
30
0
11
-3.5077979075894974
21
45.40187079641008
31
0
0
LINE
5
135
100
AcDbEntity
8
0
100
AcDbLine
10
-3.5097085442501563
20
46.621301522097738
30
0
11
-4.9772129070047644
21
45.869883285402665
31
0
0
LINE
5
136
100
AcDbEntity
8
0
100
AcDbLine
10
-3.5086930985741063
20
44.2143188968573
30
0
11
-4.9857556368014562
21
43.469898489249232
31
0
0
LINE
5
137
100
AcDbEntity
8
0
100
AcDbLine
10
-4.9857556368014562
20
43.469898489249232
30
0
11
-3.5121645247556073
21
42.999162410990465
31
0
0
LINE
5
138
100
AcDbEntity
8
0
100
AcDbLine
10
1.3960529501985257
20
47.194425575970698
30
0
11
4.9000001563800595
21
47.000001499972001
31
0
0
LINE
5
139
100
AcDbEntity
8
0
100
AcDbLine
10
4.9000001563800595
20
47.000001499972001
30
0
11
1.5875046575579232
21
45.990132578064802
31
0
0
LINE
5
140
100
AcDbEntity
8
0
100
AcDbLine
10
1.7728596327929476
20
44.82418999190903
30
0
11
3.1463958982916913
21
44.666871381792006
31
0
0
LINE
5
141
100
AcDbEntity
8
0
100
AcDbLine
10
3.1463958982916913
20
44.666871381792006
30
0
11
1.9643113401523391
21
43.619896994003135
31
0
0
LINE
5
142
100
AcDbEntity
8
0
100
AcDbLine
10
16.664791671904979
20
47.000001499972001
30
0
11
19.977287170727116
21
45.990132578064802
31
0
0
LINE
5
143
100
AcDbEntity
8
0
100
AcDbLine
10
18.418395929993345
20
44.666871381792006
30
0
11
19.600480488132696
21
43.619896994003135
31
0
0
LINE
5
144
100
AcDbEntity
8
0
100
AcDbLine
10
20.168738878086511
20
47.194425575970698
30
0
11
16.664791671904979
21
47.000001499972001
31
0
0
LINE
5
145
100
AcDbEntity
8
0
100
AcDbLine
10
19.791932195492087
20
44.82418999190903
30
0
11
18.418395929993345
21
44.666871381792006
31
0
0
LINE
5
146
100
AcDbEntity
8
0
100
AcDbLine
10
1.224277930801424
20
48.274945859275057
30
0
11
1.3960529501985257
21
47.194425575970698
31
0
0
LINE
5
147
100
AcDbEntity
8
0
100
AcDbLine
10
1.5875046575579232
20
45.990132578064802
30
0
11
1.7728596327929476
21
44.82418999190903
31
0
0
LINE
5
148
100
AcDbEntity
8
0
100
AcDbLine
10
1.9643113401523391
20
43.619896994003135
30
0
11
2.2507099009715827
21
41.8183576598176
31
0
0
LINE
5
149
100
AcDbEntity
8
0
100
AcDbLine
10
-21.729354258002232
20
56.436504573059281
30
0
11
-20.966799728470026
21
56.668436414147784
31
0
0
LINE
5
150
100
AcDbEntity
8
0
100
AcDbLine
10
-20.047414478708859
20
56.948068499970589
30
0
11
-19.290877435346289
21
57.178170115688978
31
0
0
LINE
5
151
100
AcDbEntity
8
0
100
AcDbLine
10
-18.371492185585119
20
57.457802201511782
30
0
11
-17.689993309081654
21
57.6650808720931
31
0
0
LINE
5
152
100
AcDbEntity
8
0
100
AcDbLine
10
-23.361668562187898
20
47.750727689977857
30
0
11
-23.364821113897914
21
46.656638480227564
31
0
0
LINE
5
153
100
AcDbEntity
8
0
100
AcDbLine
10
-23.368332304058512
20
45.438084235458014
30
0
11
-23.371760507180653
21
44.24833054074405
31
0
0
LINE
5
154
100
AcDbEntity
8
0
100
AcDbLine
10
-23.375258047164369
20
43.034513573149226
30
0
11
-23.380475970717814
21
41.223639594774248
31
0
0
LINE
5
155
100
AcDbEntity
8
0
100
AcDbLine
10
-3.510534784522588
20
45.402742498812763
30
0
11
-3.5113414965922951
21
44.212984138523659
31
0
0
LINE
5
156
100
AcDbEntity
8
0
100
AcDbLine
10
-3.508693098574108
20
44.2143188968573
30
0
11
-4.9857556368014562
21
43.469898489249232
31
0
0
LINE
5
157
100
AcDbEntity
8
0
100
AcDbLine
10
-4.9857556368014562
20
43.469898489249232
30
0
11
-3.5121645247556086
21
42.999162410990465
31
0
0
LINE
5
158
100
AcDbEntity
8
0
100
AcDbLine
10
-4.9772129070047644
20
45.869883285402665
30
0
11
-3.5077979075894974
21
45.40187079641008
31
0
0
LINE
5
159
100
AcDbEntity
8
0
100
AcDbLine
10
-3.5097085442501563
20
46.621301522097738
30
0
11
-4.9772129070047644
21
45.869883285402665
31
0
0
LINE
5
160
100
AcDbEntity
8
0
100
AcDbLine
10
-3.5121645247556073
20
42.999162410990465
30
0
11
-3.5133923872128388
21
41.188281331340114
31
0
0
LINE
5
161
100
AcDbEntity
8
0
100
AcDbLine
10
-3.5089666974504627
20
47.715395022278429
30
0
11
-3.5097085442501563
21
46.621301522097738
31
0
0
LINE
5
162
100
AcDbEntity
8
0
100
AcDbLine
10
-3.510534784522588
20
45.402742498812763
30
0
11
-3.5113414965922951
21
44.212984138523659
31
0
0
LINE
5
163
100
AcDbEntity
8
0
100
AcDbLine
10
-8.4645594138264073
20
57.440170426958844
30
0
11
-9.1453161707133184
21
57.649873559759151
31
0
0
LINE
5
164
100
AcDbEntity
8
0
100
AcDbLine
10
-5.1103538922849738
20
56.406927056536908
30
0
11
-5.8720780364789587
21
56.641571718894106
31
0
0
LINE
5
165
100
AcDbEntity
8
0
100
AcDbLine
10
-6.790462119763478
20
56.924474558168754
30
0
11
-7.5461753305418888
21
57.157267587684203
31
0
0
LINE
5
166
100
AcDbEntity
8
0
100
AcDbLine
10
3.8175828572519221
20
56.887385408018496
30
0
11
3.075544780454329
21
56.646223033059272
31
0
0
LINE
5
167
100
AcDbEntity
8
0
100
AcDbLine
10
7.0493188032120839
20
57.937699590455544
30
0
11
6.3784358968204353
21
57.719662645878259
31
0
0
LINE
5
168
100
AcDbEntity
8
0
100
AcDbLine
10
5.4645206877920511
20
57.422640202944031
30
0
11
4.7314980662803041
21
57.184407850952717
31
0
0
LINE
5
169
100
AcDbEntity
8
0
100
AcDbLine
10
14.515473025072954
20
57.937699590455544
30
0
11
15.186355931464604
21
57.719662645878259
31
0
0
LINE
5
170
100
AcDbEntity
8
0
100
AcDbLine
10
16.100271140492985
20
57.422640202944031
30
0
11
16.833293762004732
21
57.184407850952731
31
0
0
LINE
5
171
100
AcDbEntity
8
0
100
AcDbLine
10
17.747208971033114
20
56.887385408018496
30
0
11
18.489247047830712
21
56.646223033059272
31
0
0
LINE
5
172
100
AcDbEntity
8
0
100
AcDbLine
10
20.340513897483611
20
48.274945859275057
30
0
11
20.168738878086511
21
47.194425575970698
31
0
0
LINE
5
173
100
AcDbEntity
8
0
100
AcDbLine
10
19.977287170727116
20
45.990132578064802
30
0
11
19.791932195492087
21
44.82418999190903
31
0
0
LINE
5
174
100
AcDbEntity
8
0
100
AcDbLine
10
19.600480488132696
20
43.619896994003135
30
0
11
19.314081927313453
21
41.8183576598176
31
0
0
LINE
5
175
100
AcDbEntity
8
0
100
AcDbLine
10
-13.423442475279169
20
54.405467320097181
30
0
11
-13.421956523644855
21
54.405467320097181
31
0
0
LINE
5
176
100
AcDbEntity
8
0
100
AcDbLine
10
-13.421956523644855
20
54.405467320097181
30
0
11
-13.421956523644855
21
55.24039308999415
31
0
0
LINE
5
177
100
AcDbEntity
8
0
100
AcDbLine
10
-13.421956523644855
20
55.24039308999415
30
0
11
-13.423442475279169
21
55.24039308999415
31
0
0
LINE
5
178
100
AcDbEntity
8
0
100
AcDbLine
10
-13.423442475279169
20
55.24039308999415
30
0
11
-13.423442475279169
21
54.405467320097181
31
0
0
LINE
5
179
100
AcDbEntity
8
0
100
AcDbLine
10
-13.423442475279169
20
54.405467320097181
30
0
11
-13.421956523644855
21
55.24039308999415
31
0
0
LINE
5
180
100
AcDbEntity
8
0
100
AcDbLine
10
-13.421956523644855
20
54.405467320097181
30
0
11
-13.423442475279169
21
55.24039308999415
31
0
0
LWPOLYLINE
5
181
100
AcDbEntity
8
0
100
AcDbPolyline
90
4
70
1
43
0.0
10
-13.005700161348706
20
54.823673180862826
10
-13.421956523644855
20
54.405930866932358
10
-13.839698837575316
20
54.822187229228504
10
-13.42344247527917
20
55.239929543158972
0
LWPOLYLINE
5
182
100
AcDbEntity
8
0
100
AcDbPolyline
90
4
70
1
43
0.0
10
-13.073192406867411
20
53.50442049857206
10
-13.425671197249063
20
53.153194121137638
10
-13.776897574683488
20
53.505672911519291
10
-13.424418784301837
20
53.856899288953713
0
LWPOLYLINE
5
183
100
AcDbEntity
8
0
100
AcDbPolyline
90
4
70
1
43
0.0
10
-13.137329587512507
20
52.186646971775744
10
-13.427906715358827
20
51.897102310469307
10
-13.71745137666527
20
52.187679438315627
10
-13.426874248818946
20
52.47722409962207
0
LWPOLYLINE
5
184
100
AcDbEntity
8
0
100
AcDbPolyline
90
4
70
1
43
0.0
10
-13.206666323636853
20
50.86888269884156
10
-13.430132979606457
20
50.646210055280207
10
-13.652805623167808
20
50.869676711249809
10
-13.429338967198206
20
51.092349354811162
0
LWPOLYLINE
5
185
100
AcDbEntity
8
0
100
AcDbPolyline
90
4
70
1
43
0.0
10
-13.283452309238479
20
49.551131683642161
10
-13.432345986119293
20
49.402767049568396
10
-13.580710620193058
20
49.551660726449207
10
-13.431816943312246
20
49.700025360522972
0
LWPOLYLINE
5
186
100
AcDbEntity
8
0
100
AcDbPolyline
90
4
70
1
43
0.0
10
-13.319668361033964
20
48.233310551505824
10
-13.434631192886169
20
48.118756200796284
10
-13.549185543595705
20
48.233719032648487
10
-13.4342227117435
20
48.348273383358027
0
ENDSEC
0
SECTION
2
OBJECTS
0
DICTIONARY
5
C
100
AcDbDictionary
3
ACAD_GROUP
350
D
3
ACAD_MLINESTYLE
350
17
0
DICTIONARY
5
D
100
AcDbDictionary
0
DICTIONARY
5
1A
330
C
100
AcDbDictionary
0
DICTIONARY
5
17
100
AcDbDictionary
0
ENDSEC
0
EOF
