<?xml version="1.0" encoding="utf-8"?>
<!-- Generator: Adobe Illustrator 21.1.0, SVG Export Plug-In . SVG Version: 6.00 Build 0)  -->
<svg version="1.1" id="_x30_" xmlns="http://www.w3.org/2000/svg" xmlns:xlink="http://www.w3.org/1999/xlink" x="0px" y="0px"
	 width="864px" height="864px" viewBox="0 0 864 864" style="enable-background:new 0 0 864 864;" xml:space="preserve">
<style type="text/css">
	.st0{fill:none;stroke:#000000;stroke-width:0.7087;stroke-linecap:round;stroke-linejoin:round;stroke-miterlimit:10;}
</style>
<g id="ARC">
	<path class="st0" d="M511.9,192.5c1-44.8-34.5-82-79.4-82.9s-82,34.5-82.9,79.4c0,1.2,0,2.4,0,3.6"/>
</g>
<g id="SPLINE">
	<polyline class="st0" points="511.9,192.5 511.7,206.5 510.6,219.7 508.7,232.2 505.9,244 502.4,255 498,265.3 492.9,274.9 
		487.2,283.8 481.1,292.2 474.7,300.1 462.2,315.3 456.6,322.7 451.6,330.3 447.4,338.1 444.2,346.1 	"/>
</g>
<g id="LINE">
	<line class="st0" x1="405.8" y1="377.9" x2="-119.1" y2="600.7"/>
</g>
<g id="LINE_2_">
	<line class="st0" x1="458.3" y1="377.9" x2="983.1" y2="600.7"/>
</g>
<g id="ARC_1_">
	<path class="st0" d="M492.1,192.3c0.9-33.9-25.8-62-59.7-63c-33.9-0.9-62,25.8-63,59.7c0,0.6,0,1.1,0,1.7"/>
</g>
<g id="LINE_3_">
	<line class="st0" x1="349.6" y1="192.5" x2="349.9" y2="202.8"/>
</g>
<g id="LINE_4_">
	<line class="st0" x1="354.5" y1="204.9" x2="368.5" y2="192.9"/>
</g>
<g id="ARC_2_">
	<path class="st0" d="M349.9,202.8c0,1.6,1.3,2.8,2.9,2.8c0.7,0,1.3-0.3,1.8-0.7"/>
</g>
<g id="ARC_3_">
	<path class="st0" d="M368.5,192.9c0.6-0.5,1-1.3,1-2.2"/>
</g>
<g id="SPLINE_1_">
	<path class="st0" d="M492.1,192.3c0,0.1,0,0.2,0,0.3c0.2,18.7-1.9,34.8-6,48.4c-3.7,12.3-9,22.5-15.8,32.2
		c-6.4,9.1-14.2,17.8-21.9,27.4c-6.7,8.3-13.3,17.4-18.3,27.6c-4.5,9.3-7.6,19.3-9.1,29.7"/>
</g>
<g id="ARC_4_">
	<path class="st0" d="M405.8,377.9c8.2-3.5,14-11.1,15.3-19.9"/>
</g>
<g id="ARC_5_">
	<path class="st0" d="M444.2,346.1c-4.4,12.7,1.8,26.6,14.2,31.8"/>
</g>
<g id="ARC_6_">
	<path class="st0" d="M987.3,624c5.7-5.4,5.9-14.4,0.6-20c-1.3-1.4-3-2.5-4.8-3.3"/>
</g>
<g id="LWPOLYLINE">
	<polygon class="st0" points="544.2,435.9 319.8,435.9 432,388.3 	"/>
</g>
<g id="LINE_5_">
	<line class="st0" x1="273.1" y1="455.8" x2="590.9" y2="455.8"/>
</g>
<g id="LINE_6_">
	<line class="st0" x1="590.9" y1="455.8" x2="987.3" y2="624"/>
</g>
<g id="LINE_7_">
	<line class="st0" x1="273.1" y1="455.8" x2="-123.3" y2="624"/>
</g>
<g id="ARC_7_">
	<path class="st0" d="M-119.1,600.7c-7.2,3.1-10.6,11.4-7.5,18.6c0.8,1.8,1.9,3.4,3.3,4.8"/>
</g>
</svg>
