0
SECTION
2
HEADER
9
$INSUNITS
70
4
9
$ACADVER
1
AC1014
9
$HANDSEED
5
FFFF
0
ENDSEC
0
SECTION
2
TABLES
0
TABLE
2
VPORT
5
8
100
AcDbSymbolTable
0
ENDTAB
0
TABLE
2
LTYPE
5
5
100
AcDbSymbolTable
0
LTYPE
5
14
100
AcDbSymbolTableRecord
100
AcDbLinetypeTableRecord
2
BYBLOCK
70
0
0
LTYPE
5
15
100
AcDbSymbolTableRecord
100
AcDbLinetypeTableRecord
2
BYLAYER
70
0
0
ENDTAB
0
TABLE
2
LAYER
5
2
100
AcDbSymbolTable
70
2
0
LAYER
5
50
100
AcDbSymbolTableRecord
100
AcDbLayerTableRecord
2
0
70
0
6
CONTINUOUS
0
ENDTAB
0
TABLE
2
STYLE
5
3
100
AcDbSymbolTable
70
1
0
STYLE
5
11
100
AcDbSymbolTableRecord
100
AcDbTextStyleTableRecord
2
STANDARD
70
0
0
ENDTAB
0
TABLE
2
VIEW
5
6
100
AcDbSymbolTable
70
0
0
ENDTAB
0
TABLE
2
UCS
5
7
100
AcDbSymbolTable
70
0
0
ENDTAB
0
TABLE
2
APPID
5
9
100
AcDbSymbolTable
70
2
0
APPID
5
12
100
AcDbSymbolTableRecord
100
AcDbRegAppTableRecord
2
ACAD
70
0
0
ENDTAB
0
TABLE
2
DIMSTYLE
5
A
100
AcDbSymbolTable
70
1
0
ENDTAB
0
TABLE
2
BLOCK_RECORD
5
1
100
AcDbSymbolTable
70
1
0
BLOCK_RECORD
5
1F
100
AcDbSymbolTableRecord
100
AcDbBlockTableRecord
2
*MODEL_SPACE
0
BLOCK_RECORD
5
1B
100
AcDbSymbolTableRecord
100
AcDbBlockTableRecord
2
*PAPER_SPACE
0
ENDTAB
0
ENDSEC
0
SECTION
2
BLOCKS
0
BLOCK
5
20
100
AcDbEntity
100
AcDbBlockBegin
2
*MODEL_SPACE
0
ENDBLK
5
21
100
AcDbEntity
100
AcDbBlockEnd
0
BLOCK
5
1C
100
AcDbEntity
100
AcDbBlockBegin
2
*PAPER_SPACE
0
ENDBLK
5
1D
100
AcDbEntity
100
AcDbBlockEnd
0
ENDSEC
0
SECTION
2
ENTITIES
0
ARC
5
100
100
AcDbEntity
8
0
100
AcDbCircle
10
5.5000000819563883
20
46.540000693500048
30
0
40
28.63522628279561
100
AcDbArc
50
-1.262641316313194
51
181.26264131631319
0
SPLINE
5
101
100
AcDbEntity
8
0
100
AcDbSpline
70
1064
71
5
72
24
73
18
74
0
42
0.000000001
43
0.0000000001
44
0.0000000001
40
0
40
0
40
0
40
0
40
0
40
0
40
0.066666666666666666
40
0.13333333333333333
40
0.20000000000000001
40
0.26666666666666666
40
0.33333333333333331
40
0.39999999999999997
40
0.46666666666666662
40
0.53333333333333333
40
0.59999999999999998
40
0.66666666666666663
40
0.73333333333333328
40
0.79999999999999993
40
0.85084633221948514
40
0.85084633221948514
40
0.85084633221948514
40
0.85084633221948514
40
0.85084633221948514
40
0.85084633221948514
10
34.128273436058841
20
45.90901017875656
30
0
10
34.141446961336186
20
44.641059100297653
30
0
10
34.122522455732692
20
42.145029915793742
30
0
10
33.958322916635623
20
38.520603618317757
30
0
10
33.465773474602429
20
33.929021805961568
30
0
10
32.387182669673436
20
28.599280107285061
30
0
10
30.845769619967065
20
23.685314254808866
30
0
10
28.859232217726152
20
19.18395118948678
30
0
10
26.473957569018495
20
15.075156784106735
30
0
10
23.780401865539282
20
11.311274262243366
30
0
10
20.923008575266444
20
7.8096449889311064
30
0
10
18.072731645883064
20
4.4701144145109515
30
0
10
15.404463347987855
20
1.1887390085588629
30
0
10
13.185358312820703
20
-1.9713996360544581
30
0
10
11.750357498656115
20
-4.5426563892347538
30
0
10
10.886296385750692
20
-6.4834236285972624
30
0
10
10.414069722900944
20
-7.7448440900677706
30
0
10
10.224636910992606
20
-8.2950670667166584
30
0
0
LINE
5
102
100
AcDbEntity
8
0
100
AcDbLine
10
-3.3268018399277195
20
-19.49423928416466
30
0
11
-188.49260690882818
21
-98.092460359089586
31
0
0
LINE
5
103
100
AcDbEntity
8
0
100
AcDbLine
10
5.9276718937925175
20
92.824931619583424
30
0
11
5.9276718937925015
21
-170.0000025331974
31
0
0
LINE
5
104
100
AcDbEntity
8
0
100
AcDbLine
10
15.217838916378801
20
-19.50939018639599
30
0
11
200.34795069641322
21
-98.092460359089642
31
0
0
ARC
5
105
100
AcDbEntity
8
0
100
AcDbCircle
10
5.5000000819563883
20
46.540000693500048
30
0
40
21.635226282795607
100
AcDbArc
50
-1.5422018918587088
51
180.05466087244233
0
LINE
5
106
100
AcDbEntity
8
0
100
AcDbLine
10
-23.128273272146064
20
45.90901017875656
30
0
11
-23.048306304289778
21
42.280879229721322
31
0
0
LINE
5
107
100
AcDbEntity
8
0
100
AcDbLine
10
-21.397396000784866
20
41.543968304671459
30
0
11
-16.484062786402664
21
45.759460025198138
31
0
0
ARC
5
108
100
AcDbEntity
8
0
100
AcDbCircle
10
-22.048549114618027
20
42.302914694310005
30
0
40
1
100
AcDbArc
50
181.26264131631319
51
310.62859823564344
0
ARC
5
109
100
AcDbEntity
8
0
100
AcDbCircle
10
-17.135215900235952
20
46.518406414836726
30
0
40
1.0000000000001152
100
AcDbArc
50
-49.371401764352584
51
0.054660872442328777
0
SPLINE
5
110
100
AcDbEntity
8
0
100
AcDbSpline
70
1064
71
3
72
23
73
19
74
0
42
0.000000001
43
0.0000000001
44
0.0000000001
40
-0.001277017044688346
40
-0.001277017044688346
40
-0.001277017044688346
40
-0.001277017044688346
40
0
40
0
40
0
40
0.22575257089476117
40
0.22575257089476117
40
0.22575257089476117
40
0.430695906901568
40
0.430695906901568
40
0.430695906901568
40
0.6231385569157053
40
0.6231385569157053
40
0.6231385569157053
40
0.79006075383124008
40
0.79006075383124008
40
0.79006075383124008
40
0.94293582002502574
40
0.94293582002502574
40
0.94293582002502574
40
0.94293582002502574
10
27.127389498700325
20
45.957726424539722
30
0
10
27.127810069108264
20
45.917246546064021
30
0
10
27.128230639516204
20
45.876766667588491
30
0
10
27.128651209924147
20
45.836286789113018
30
0
10
27.197192622918319
20
39.239179583914769
30
0
10
26.460602420453093
20
33.553972405462417
30
0
10
25.025969278917131
20
28.763994403094458
30
0
10
23.72357657168472
20
24.415543055171007
30
0
10
21.857007447962275
20
20.809003425988873
30
0
10
19.467541810339519
20
17.394184054302695
30
0
10
17.223823578844684
20
14.187654376338084
30
0
10
14.473981545484978
20
11.123235155849349
30
0
10
11.735548897800992
20
7.7391303182834603
30
0
10
9.3602688150175997
20
4.8038027594627444
30
0
10
7.0297080481578833
20
1.5858517875464817
30
0
10
5.2797071593424576
20
-1.991141815214172
30
0
10
3.6769754276709827
20
-5.2671179520097402
30
0
10
2.5827012356567316
20
-8.8099754225438733
30
0
10
2.0689040065302011
20
-12.463154099893082
30
0
0
ARC
5
111
100
AcDbEntity
8
0
100
AcDbCircle
10
-6.8433819963311837
20
-11.209695603092696
30
0
40
9.0000000000000018
100
AcDbArc
50
293
51
351.99421029194525
0
ARC
5
112
100
AcDbEntity
8
0
100
AcDbCircle
10
18.734419072782266
20
-11.224846505324029
30
0
40
9.0000000000000018
100
AcDbArc
50
161.00224848777754
51
247
0
ARC
5
113
100
AcDbEntity
8
0
100
AcDbCircle
10
198.39429505396691
20
-102.69498462635177
30
0
40
4.9999999999998286
100
AcDbArc
50
-46.578178478204357
51
67.000000000000313
0
LWPOLYLINE
5
114
100
AcDbEntity
8
0
100
AcDbPolyline
90
3
70
1
43
0.0
10
45.497346995845149
20
-39.966801455181781
10
-33.642003208260142
20
-39.966801455181781
10
5.9276718937925121
20
-23.170470888764214
0
LINE
5
115
100
AcDbEntity
8
0
100
AcDbLine
10
-50.132969769026445
20
-46.966801455181788
30
0
11
61.988313556611445
21
-46.966801455181788
31
0
0
LINE
5
116
100
AcDbEntity
8
0
100
AcDbLine
10
61.988313556611445
20
-46.966801455181788
30
0
11
201.83111596550813
21
-106.32654930593429
31
0
0
LINE
5
117
100
AcDbEntity
8
0
100
AcDbLine
10
-50.132969769026445
20
-46.966801455181788
30
0
11
-189.97577217792309
21
-106.32654930593425
31
0
0
ARC
5
118
100
AcDbEntity
8
0
100
AcDbCircle
10
-186.53895126638187
20
-102.69498462635173
30
0
40
4.9999999999999254
100
AcDbArc
50
112.99999999999962
51
226.57817847820434
0
ENDSEC
0
SECTION
2
OBJECTS
0
DICTIONARY
5
C
100
AcDbDictionary
3
ACAD_GROUP
350
D
3
ACAD_MLINESTYLE
350
17
0
DICTIONARY
5
D
100
AcDbDictionary
0
DICTIONARY
5
1A
330
C
100
AcDbDictionary
0
DICTIONARY
5
17
100
AcDbDictionary
0
ENDSEC
0
EOF
