0
SECTION
2
HEADER
9
$INSUNITS
70
1
9
$ACADVER
1
AC1014
9
$HANDSEED
5
FFFF
0
ENDSEC
0
SECTION
2
TABLES
0
TABLE
2
VPORT
5
8
100
AcDbSymbolTable
0
ENDTAB
0
TABLE
2
LTYPE
5
5
100
AcDbSymbolTable
0
LTYPE
5
14
100
AcDbSymbolTableRecord
100
AcDbLinetypeTableRecord
2
BYBLOCK
70
0
0
LTYPE
5
15
100
AcDbSymbolTableRecord
100
AcDbLinetypeTableRecord
2
BYLAYER
70
0
0
ENDTAB
0
TABLE
2
LAYER
5
2
100
AcDbSymbolTable
70
2
0
LAYER
5
50
100
AcDbSymbolTableRecord
100
AcDbLayerTableRecord
2
0
70
0
6
CONTINUOUS
0
ENDTAB
0
TABLE
2
STYLE
5
3
100
AcDbSymbolTable
70
1
0
STYLE
5
11
100
AcDbSymbolTableRecord
100
AcDbTextStyleTableRecord
2
STANDARD
70
0
0
ENDTAB
0
TABLE
2
VIEW
5
6
100
AcDbSymbolTable
70
0
0
ENDTAB
0
TABLE
2
UCS
5
7
100
AcDbSymbolTable
70
0
0
ENDTAB
0
TABLE
2
APPID
5
9
100
AcDbSymbolTable
70
2
0
APPID
5
12
100
AcDbSymbolTableRecord
100
AcDbRegAppTableRecord
2
ACAD
70
0
0
ENDTAB
0
TABLE
2
DIMSTYLE
5
A
100
AcDbSymbolTable
70
1
0
ENDTAB
0
TABLE
2
BLOCK_RECORD
5
1
100
AcDbSymbolTable
70
1
0
BLOCK_RECORD
5
1F
100
AcDbSymbolTableRecord
100
AcDbBlockTableRecord
2
*MODEL_SPACE
0
BLOCK_RECORD
5
1B
100
AcDbSymbolTableRecord
100
AcDbBlockTableRecord
2
*PAPER_SPACE
0
ENDTAB
0
ENDSEC
0
SECTION
2
BLOCKS
0
BLOCK
5
20
100
AcDbEntity
100
AcDbBlockBegin
2
*MODEL_SPACE
0
ENDBLK
5
21
100
AcDbEntity
100
AcDbBlockEnd
0
BLOCK
5
1C
100
AcDbEntity
100
AcDbBlockBegin
2
*PAPER_SPACE
0
ENDBLK
5
1D
100
AcDbEntity
100
AcDbBlockEnd
0
ENDSEC
0
SECTION
2
ENTITIES
0
LINE
5
100
100
AcDbEntity
8
0
100
AcDbLine
10
-21.669293952494947
20
9.7515541609801364
30
0
11
-17.629927562019457
21
10.980118208781757
31
0
0
LINE
5
101
100
AcDbEntity
8
0
100
AcDbLine
10
-23.301605000436371
20
1.06576987335752
30
0
11
-23.320412408966281
21
-5.4613182218460858
31
0
0
LINE
5
102
100
AcDbEntity
8
0
100
AcDbLine
10
-23.320412408966281
20
-5.4613182218460858
30
0
11
-13.386870617213791
21
-5.478997353563158
31
0
0
LINE
5
103
100
AcDbEntity
8
0
100
AcDbLine
10
-13.359794776663085
20
9.7343625535648322
30
0
11
-13.389524071289909
21
-6.9699188184548024
31
0
0
LINE
5
104
100
AcDbEntity
8
0
100
AcDbLine
10
10.842459475894056
20
9.5327872603975692
30
0
11
10.842459475894056
21
-7.7472132910814997
31
0
0
LINE
5
105
100
AcDbEntity
8
0
100
AcDbLine
10
7.1093823649636221
20
11.252741773835204
30
0
11
3.1356083422058671
21
9.9612652164389335
31
0
0
LINE
5
106
100
AcDbEntity
8
0
100
AcDbLine
10
1.2843414925529621
20
1.5899880426547173
30
0
11
2.3107734627231209
21
-4.8666001568027379
31
0
0
LINE
5
107
100
AcDbEntity
8
0
100
AcDbLine
10
-5.0502870479535682
20
9.7219766328203239
30
0
11
-9.0852548115102465
21
10.964910904257112
31
0
0
LINE
5
108
100
AcDbEntity
8
0
100
AcDbLine
10
-3.4533288254613006
20
-5.4966764852802221
30
0
11
-13.386870617213791
21
-5.478997353563158
31
0
0
LINE
5
109
100
AcDbEntity
8
0
100
AcDbLine
10
-3.4489031356989246
20
1.0304372056580926
30
0
11
-3.4533288254613006
21
-5.4966764852802221
31
0
0
LINE
5
110
100
AcDbEntity
8
0
100
AcDbLine
10
20.400577459235151
20
1.5899880426547179
30
0
11
19.37414548906499
21
-4.8666001568027388
31
0
0
LINE
5
111
100
AcDbEntity
8
0
100
AcDbLine
10
14.575536586824491
20
11.252741773835204
30
0
11
18.54931060958225
21
9.9612652164389335
31
0
0
LINE
5
112
100
AcDbEntity
8
0
100
AcDbLine
10
-23.31972643449005
20
15.538680565139723
30
0
11
-13.386156139362379
21
15.521001382694037
31
0
0
SPLINE
5
113
100
AcDbEntity
8
0
100
AcDbSpline
70
1064
71
5
72
36
73
30
74
0
42
0.000000001
43
0.0000000001
44
0.0000000001
40
0
40
0
40
0
40
0
40
0
40
0
40
0.040000000000000001
40
0.080000000000000002
40
0.12
40
0.16
40
0.20000000000000001
40
0.24000000000000002
40
0.28000000000000003
40
0.32000000000000001
40
0.35999999999999999
40
0.39999999999999997
40
0.43999999999999995
40
0.47999999999999993
40
0.51999999999999991
40
0.55999999999999994
40
0.59999999999999998
40
0.64000000000000001
40
0.68000000000000005
40
0.72000000000000008
40
0.76000000000000012
40
0.80000000000000016
40
0.84000000000000019
40
0.88000000000000023
40
0.92000000000000026
40
0.9600000000000003
40
1
40
1
40
1
40
1
40
1
40
1
10
20.400577459235151
20
22.589988042654717
30
0
10
20.364363247069324
20
22.586828573939581
30
0
10
20.289426341165974
20
22.583156844236218
30
0
10
20.169494164973447
20
22.585591366783692
30
0
10
20.002142073716456
20
22.603708424434554
30
0
10
19.812761132098636
20
22.646460498622215
30
0
10
19.664248162011475
20
22.705254076020974
30
0
10
19.541041761836411
20
22.779657578871348
30
0
10
19.411211536013056
20
22.874255356794833
30
0
10
19.253215178511532
20
23.001148398942487
30
0
10
19.065686275154214
20
23.17852403331565
30
0
10
18.857595126021629
20
23.424127401557158
30
0
10
18.643731001902935
20
23.750358052544112
30
0
10
18.437612506975675
20
24.157899795014153
30
0
10
18.247027949219028
20
24.63205925429018
30
0
10
18.076311594666301
20
25.149395949585717
30
0
10
17.927674028492497
20
25.682701801772293
30
0
10
17.802881770898939
20
26.206620535495421
30
0
10
17.70471951420047
20
26.702815449351068
30
0
10
17.638655105212877
20
27.165788926202858
30
0
10
17.6141430403591
20
27.607579998626601
30
0
10
17.647311560366045
20
28.066687148204757
30
0
10
17.737544116634467
20
28.553400025284894
30
0
10
17.875268928065644
20
29.063907180376617
30
0
10
18.044127362017047
20
29.582441453884439
30
0
10
18.22519825953443
20
30.087847298494374
30
0
10
18.365269669657962
20
30.464111840556232
30
0
10
18.461429039357185
20
30.722738167679086
30
0
10
18.520805087303234
20
30.883670352304829
30
0
10
18.54931060958225
20
30.961265216438935
30
0
0
LINE
5
114
100
AcDbEntity
8
0
100
AcDbLine
10
7.1093823649636221
20
32.252741773835204
30
0
11
3.1356083422058671
21
30.961265216438935
31
0
0
SPLINE
5
115
100
AcDbEntity
8
0
100
AcDbSpline
70
1064
71
5
72
26
73
20
74
0
42
0.000000001
43
0.0000000001
44
0.0000000001
40
0
40
0
40
0
40
0
40
0
40
0
40
0.066666666666666666
40
0.13333333333333333
40
0.20000000000000001
40
0.26666666666666666
40
0.33333333333333331
40
0.39999999999999997
40
0.46666666666666662
40
0.53333333333333333
40
0.59999999999999998
40
0.66666666666666663
40
0.73333333333333328
40
0.79999999999999993
40
0.86666666666666659
40
0.93333333333333324
40
1
40
1
40
1
40
1
40
1
40
1
10
14.575536586824491
20
32.252741773835204
30
0
10
14.560406227095763
20
32.083702329688094
30
0
10
14.530309445185898
20
31.763769792530983
30
0
10
14.485655772919044
20
31.338310320601629
30
0
10
14.426892284561577
20
30.872530370625284
30
0
10
14.35265525024837
20
30.417709174861187
30
0
10
14.273532443424431
20
30.037540027641583
30
0
10
14.18273958255979
20
29.680727684988327
30
0
10
14.070413528065609
20
29.308207966932024
30
0
10
13.922433650865782
20
28.907909133569255
30
0
10
13.722886992988922
20
28.491410361543007
30
0
10
13.458216190780808
20
28.082896634241919
30
0
10
13.121012150726221
20
27.711081111688948
30
0
10
12.714345745647028
20
27.400069537090058
30
0
10
12.256327882672499
20
27.160600033635578
30
0
10
11.773019465698567
20
26.994381427942834
30
0
10
11.387969799895769
20
26.917317174685312
30
0
10
11.109915167722923
20
26.888823878348891
30
0
10
10.930601907796552
20
26.882492028142522
30
0
10
10.842459475894056
20
26.882492028142522
30
0
0
SPLINE
5
116
100
AcDbEntity
8
0
100
AcDbSpline
70
1064
71
5
72
26
73
20
74
0
42
0.000000001
43
0.0000000001
44
0.0000000001
40
0
40
0
40
0
40
0
40
0
40
0
40
0.066666666666666666
40
0.13333333333333333
40
0.20000000000000001
40
0.26666666666666666
40
0.33333333333333331
40
0.39999999999999997
40
0.46666666666666662
40
0.53333333333333333
40
0.59999999999999998
40
0.66666666666666663
40
0.73333333333333328
40
0.79999999999999993
40
0.86666666666666659
40
0.93333333333333324
40
1
40
1
40
1
40
1
40
1
40
1
10
19.37414548906499
20
16.13339984319726
30
0
10
19.324132792417885
20
16.139446078027113
30
0
10
19.214665267499928
20
16.1497004309022
30
0
10
19.022135298580018
20
16.159569167934848
30
0
10
18.712239886445381
20
16.1605412332467
30
0
10
18.254339012524753
20
16.136132023146605
30
0
10
17.746696557386581
20
16.081353398000932
30
0
10
17.204848904241537
20
15.995881637765326
30
0
10
16.635437884645025
20
15.885390730210975
30
0
10
16.040302157435512
20
15.758852815284634
30
0
10
15.418786593512365
20
15.626968346482858
30
0
10
14.770810049503639
20
15.500248843419742
30
0
10
14.099581906612052
20
15.387345525811638
30
0
10
13.41493287776955
20
15.293074021906778
30
0
10
12.730906867552982
20
15.219347161596088
30
0
10
12.063084749853203
20
15.166197403631053
30
0
10
11.553480256034529
20
15.13934953830671
30
0
10
11.190103226499835
20
15.127494291527473
30
0
10
10.956842295829533
20
15.123186000467198
30
0
10
10.842459475894049
20
15.121930663881102
30
0
0
SPLINE
5
117
100
AcDbEntity
8
0
100
AcDbSpline
70
1064
71
5
72
36
73
30
74
0
42
0.000000001
43
0.0000000001
44
0.0000000001
40
0
40
0
40
0
40
0
40
0
40
0
40
0.040000000000000001
40
0.080000000000000002
40
0.12
40
0.16
40
0.20000000000000001
40
0.24000000000000002
40
0.28000000000000003
40
0.32000000000000001
40
0.35999999999999999
40
0.39999999999999997
40
0.43999999999999995
40
0.47999999999999993
40
0.51999999999999991
40
0.55999999999999994
40
0.59999999999999998
40
0.64000000000000001
40
0.68000000000000005
40
0.72000000000000008
40
0.76000000000000012
40
0.80000000000000016
40
0.84000000000000019
40
0.88000000000000023
40
0.92000000000000026
40
0.9600000000000003
40
1
40
1
40
1
40
1
40
1
40
1
10
1.2843414925529621
20
22.589988042654717
30
0
10
1.3205557047187879
20
22.586828573939581
30
0
10
1.3954926121224756
20
22.583156844236225
30
0
10
1.5154247950671651
20
22.585591366783735
30
0
10
1.6827769007296225
20
22.603708424434632
30
0
10
1.8721578537665116
20
22.646460498622208
30
0
10
2.0206708176581465
20
22.705254076020928
30
0
10
2.1438771992308321
20
22.779657578871301
30
0
10
2.2737074068429726
20
22.874255356794855
30
0
10
2.4317037554777641
20
23.0011483989426
30
0
10
2.6192326601987124
20
23.178524033315743
30
0
10
2.8273238178366595
20
23.424127401557211
30
0
10
3.0411879523873595
20
23.75035805254408
30
0
10
3.2473064552623265
20
24.15789979501411
30
0
10
3.4378910167220891
20
24.63205925429012
30
0
10
3.608607370731856
20
25.149395949585632
30
0
10
3.7572449333655853
20
25.682701801772254
30
0
10
3.8820371862770364
20
26.206620535495421
30
0
10
3.9801994390504603
20
26.702815449351085
30
0
10
4.0462638461860783
20
27.16578892620284
30
0
10
4.0707759114693545
20
27.607579998626612
30
0
10
4.0376073924370983
20
28.066687148204764
30
0
10
3.9473748369149058
20
28.553400025284898
30
0
10
3.8096500256305377
20
29.063907180376628
30
0
10
3.640791591269108
20
29.582441453884456
30
0
10
3.4597206930406643
20
30.087847298494392
30
0
10
3.3196492823968096
20
30.464111840556239
30
0
10
3.2234899124794123
20
30.722738167679086
30
0
10
3.1641138644848836
20
30.883670352304829
30
0
10
3.1356083422058671
20
30.961265216438935
30
0
0
LINE
5
118
100
AcDbEntity
8
0
100
AcDbLine
10
10.842459475894056
20
30.532787260397569
30
0
11
10.842459475894056
21
13.252786708918498
31
0
0
LINE
5
119
100
AcDbEntity
8
0
100
AcDbLine
10
14.575536586824491
20
32.252741773835204
30
0
11
18.54931060958225
21
30.961265216438935
31
0
0
LINE
5
120
100
AcDbEntity
8
0
100
AcDbLine
10
-23.300934653959981
20
22.065818181619495
30
0
11
-23.31972643449005
21
15.538680565139723
31
0
0
SPLINE
5
121
100
AcDbEntity
8
0
100
AcDbSpline
70
1064
71
5
72
41
73
35
74
0
42
0.000000001
43
0.0000000001
44
0.0000000001
40
0
40
0
40
0
40
0
40
0
40
0
40
0.033333333333333333
40
0.066666666666666666
40
0.10000000000000001
40
0.13333333333333333
40
0.16666666666666666
40
0.19999999999999998
40
0.23333333333333331
40
0.26666666666666666
40
0.29999999999999999
40
0.33333333333333331
40
0.36666666666666664
40
0.39999999999999997
40
0.43333333333333329
40
0.46666666666666662
40
0.49999999999999994
40
0.53333333333333333
40
0.56666666666666665
40
0.59999999999999998
40
0.6333333333333333
40
0.66666666666666663
40
0.69999999999999996
40
0.73333333333333328
40
0.76666666666666661
40
0.79999999999999993
40
0.83333333333333326
40
0.86666666666666659
40
0.89999999999999991
40
0.93333333333333324
40
0.96666666666666656
40
1
40
1
40
1
40
1
40
1
40
1
10
-21.668562663827736
20
30.751561899767154
30
0
10
-21.637947191342015
20
30.692738412132474
30
0
10
-21.576138784840467
20
30.571879149694887
30
0
10
-21.481693849922422
20
30.380953459143765
30
0
10
-21.353342040920857
20
30.10826060847538
30
0
10
-21.194988691946133
20
29.744009358108162
30
0
10
-21.046724255222525
20
29.365378222985072
30
0
10
-20.916794398396977
20
28.981813212543646
30
0
10
-20.812023629273749
20
28.601432793234075
30
0
10
-20.736217756591014
20
28.229327277010963
30
0
10
-20.688342738919861
20
27.86564637360522
30
0
10
-20.664030319069489
20
27.506891985657461
30
0
10
-20.657288552914345
20
27.14741471819999
30
0
10
-20.66214178097265
20
26.78082863183247
30
0
10
-20.67423836240788
20
26.401424618559485
30
0
10
-20.692606663106432
20
26.005651136003074
30
0
10
-20.720993976269128
20
25.593395508694201
30
0
10
-20.765782241416229
20
25.167510958107947
30
0
10
-20.83420780944002
20
24.733542006776513
30
0
10
-20.9325386198296
20
24.299372811878474
30
0
10
-21.064109156443347
20
23.874985523782886
30
0
10
-21.227747077386191
20
23.472057622094585
30
0
10
-21.41512460863542
20
23.103961125926492
30
0
10
-21.611674344365635
20
22.784451127078054
30
0
10
-21.801886307936183
20
22.524875283753158
30
0
10
-21.973861417379577
20
22.331424364657455
30
0
10
-22.123386149626949
20
22.202984633587739
30
0
10
-22.26015919099941
20
22.127093099718287
30
0
10
-22.407326938771842
20
22.081461766399453
30
0
10
-22.586795137568416
20
22.04681063683924
30
0
10
-22.803344324225769
20
22.021262739130425
30
0
10
-22.997331311387537
20
22.018930599338542
30
0
10
-23.148071739605871
20
22.034558519667168
30
0
10
-23.249777469115323
20
22.05391024994287
30
0
10
-23.300934653959981
20
22.065818181619495
30
0
0
LINE
5
122
100
AcDbEntity
8
0
100
AcDbLine
10
-21.668562663827736
20
30.751561899767154
30
0
11
-17.629219291946111
21
31.980170995603732
31
0
0
LINE
5
123
100
AcDbEntity
8
0
100
AcDbLine
10
-13.359080298825621
20
30.734361281979293
30
0
11
-13.388809593452445
21
14.030079909959721
31
0
0
LINE
5
124
100
AcDbEntity
8
0
100
AcDbLine
10
-5.0495893487672285
20
30.72198443138792
30
0
11
-9.0845339335286983
21
31.964963668640276
31
0
0
LINE
5
125
100
AcDbEntity
8
0
100
AcDbLine
10
1.2843414925529621
20
22.589988042654717
30
0
11
2.3107734627231209
21
16.13339984319726
31
0
0
LINE
5
126
100
AcDbEntity
8
0
100
AcDbLine
10
20.400577459235151
20
22.589988042654717
30
0
11
19.37414548906499
21
16.13339984319726
31
0
0
SPLINE
5
127
100
AcDbEntity
8
0
100
AcDbSpline
70
1064
71
5
72
26
73
20
74
0
42
0.000000001
43
0.0000000001
44
0.0000000001
40
0
40
0
40
0
40
0
40
0
40
0
40
0.066666666666666666
40
0.13333333333333333
40
0.20000000000000001
40
0.26666666666666666
40
0.33333333333333331
40
0.39999999999999997
40
0.46666666666666662
40
0.53333333333333333
40
0.59999999999999998
40
0.66666666666666663
40
0.73333333333333328
40
0.79999999999999993
40
0.86666666666666659
40
0.93333333333333324
40
1
40
1
40
1
40
1
40
1
40
1
10
2.3107734627231209
20
16.13339984319726
30
0
10
2.3607861593702255
20
16.139446078027113
30
0
10
2.4702536842883216
20
16.149700430902204
30
0
10
2.6627836532089191
20
16.159569167934858
30
0
10
2.9726790653441006
20
16.160541233246722
30
0
10
3.4305799392640774
20
16.136132023146637
30
0
10
3.9382223944011163
20
16.081353398000903
30
0
10
4.4800700475453015
20
15.995881637765271
30
0
10
5.0494810671415493
20
15.885390730210926
30
0
10
5.6446167943513892
20
15.758852815284586
30
0
10
6.266132358275164
20
15.626968346482821
30
0
10
6.9141089022845232
20
15.500248843419733
30
0
10
7.5853370451764057
20
15.38734552581168
30
0
10
8.2699860740188971
20
15.293074021906884
30
0
10
8.9540120842352824
20
15.219347161596206
30
0
10
9.6218342019348935
20
15.166197403631131
30
0
10
10.131438695753536
20
15.139349538306744
30
0
10
10.494815725288271
20
15.127494291527478
30
0
10
10.728076655958581
20
15.123186000467198
30
0
10
10.842459475894064
20
15.121930663881102
30
0
0
SPLINE
5
128
100
AcDbEntity
8
0
100
AcDbSpline
70
1064
71
5
72
31
73
25
74
0
42
0.000000001
43
0.0000000001
44
0.0000000001
40
0
40
0
40
0
40
0
40
0
40
0
40
0.050000000000000003
40
0.10000000000000001
40
0.15000000000000002
40
0.20000000000000001
40
0.25
40
0.29999999999999999
40
0.34999999999999998
40
0.39999999999999997
40
0.44999999999999996
40
0.49999999999999994
40
0.54999999999999993
40
0.59999999999999998
40
0.65000000000000002
40
0.70000000000000007
40
0.75000000000000011
40
0.80000000000000016
40
0.8500000000000002
40
0.90000000000000024
40
0.95000000000000029
40
1
40
1
40
1
40
1
40
1
40
1
10
-9.0845339335286983
20
31.964963668640276
30
0
10
-9.0955408590129974
20
31.9210867097494
30
0
10
-9.117832389006141
20
31.831322880196588
30
0
10
-9.1521034067345894
20
31.690647437265568
30
0
10
-9.2026772762596529
20
31.492926750655926
30
0
10
-9.2905523173164202
20
31.239923012127065
30
0
10
-9.420514928251249
20
30.995324687080267
30
0
10
-9.6035337134044596
20
30.773466153825634
30
0
10
-9.8361217774619245
20
30.585730024119517
30
0
10
-10.093319105640731
20
30.437257153575164
30
0
10
-10.341720949768927
20
30.327818655695886
30
0
10
-10.558681655175688
20
30.251448647820613
30
0
10
-10.736950381126038
20
30.198630807903925
30
0
10
-10.924533321449497
20
30.152102830563511
30
0
10
-11.16402841541405
20
30.100810816180708
30
0
10
-11.456916404675853
20
30.044625088158345
30
0
10
-11.789885218855746
20
29.988032308177011
30
0
10
-12.136701858035583
20
29.938127071938361
30
0
10
-12.469567721673696
20
29.901142575602581
30
0
10
-12.767943113799028
20
29.878817456525624
30
0
10
-13.020877209952882
20
29.868414101364401
30
0
10
-13.18269373998819
20
29.866033101912777
30
0
10
-13.280709030013261
20
29.865599845697975
30
0
10
-13.335710631045448
20
29.86562556760919
30
0
10
-13.360626260807978
20
29.865716927392334
30
0
0
SPLINE
5
129
100
AcDbEntity
8
0
100
AcDbSpline
70
1064
71
5
72
41
73
35
74
0
42
0.000000001
43
0.0000000001
44
0.0000000001
40
0
40
0
40
0
40
0
40
0
40
0
40
0.033333333333333333
40
0.066666666666666666
40
0.10000000000000001
40
0.13333333333333333
40
0.16666666666666666
40
0.19999999999999998
40
0.23333333333333331
40
0.26666666666666666
40
0.29999999999999999
40
0.33333333333333331
40
0.36666666666666664
40
0.39999999999999997
40
0.43333333333333329
40
0.46666666666666662
40
0.49999999999999994
40
0.53333333333333333
40
0.56666666666666665
40
0.59999999999999998
40
0.6333333333333333
40
0.66666666666666663
40
0.69999999999999996
40
0.73333333333333328
40
0.76666666666666661
40
0.79999999999999993
40
0.83333333333333326
40
0.86666666666666659
40
0.89999999999999991
40
0.93333333333333324
40
0.96666666666666656
40
1
40
1
40
1
40
1
40
1
40
1
10
-5.0495893487672285
20
30.72198443138792
30
0
10
-5.0804140077894573
20
30.663270291275044
30
0
10
-5.1426522177483145
20
30.542631799687975
30
0
10
-5.2377761487757599
20
30.35204349262143
30
0
10
-5.3670977869038312
20
30.079809233953569
30
0
10
-5.5267466743920233
20
29.716123945207741
30
0
10
-5.6763578983191181
20
29.338022951614544
30
0
10
-5.8076522204804348
20
28.954922852558688
30
0
10
-5.9137762788615555
20
28.574917771423895
30
0
10
-5.9909061700183024
20
28.203084441252454
30
0
10
-6.0400753959414928
20
27.839576251467079
30
0
10
-6.0656646375242902
20
27.480910675552401
30
0
10
-6.0736859097895355
20
27.121459682479355
30
0
10
-6.0701375649278848
20
26.75485864348769
30
0
10
-6.0593915376112477
20
26.375413976287312
30
0
10
-6.0424320974090184
20
25.979577619502219
30
0
10
-6.0155123759243523
20
25.567223559996194
30
0
10
-5.9722403181079784
20
25.141182284841967
30
0
10
-5.9053598833437775
20
24.706972523868092
30
0
10
-5.8085751084228514
20
24.272456073760388
30
0
10
-5.6785159994381775
20
23.847603152654088
30
0
10
-5.5163133252111365
20
23.444095339094808
30
0
10
-5.3302472096974762
20
23.075334209952793
30
0
10
-5.1348360055920779
20
22.755126622144761
30
0
10
-4.9455491996234917
20
22.494875369296022
30
0
10
-4.7742637625191318
20
22.300813535328221
30
0
10
-4.6251971549669859
20
22.171842389005572
30
0
10
-4.4886951137378297
20
22.095464496264245
30
0
10
-4.3416907216598721
20
22.049309612723523
30
0
10
-4.1623469994650657
20
22.014019890872
30
0
10
-3.9458901216275959
20
21.987701354511923
30
0
10
-3.751912664544252
20
21.984678738487613
30
0
10
-3.6011175641316089
20
21.999770003669521
30
0
10
-3.4993435970036018
20
22.018759592784093
30
0
10
-3.4481443503019595
20
22.030485356521694
30
0
0
LINE
5
130
100
AcDbEntity
8
0
100
AcDbLine
10
-3.4481443503019595
20
22.030485356521694
30
0
11
-3.452585844234711
21
15.50332220024834
31
0
0
LINE
5
131
100
AcDbEntity
8
0
100
AcDbLine
10
-3.452585844234711
20
15.50332220024834
30
0
11
-13.386156139362384
21
15.521001382694037
31
0
0
SPLINE
5
132
100
AcDbEntity
8
0
100
AcDbSpline
70
1064
71
5
72
31
73
25
74
0
42
0.000000001
43
0.0000000001
44
0.0000000001
40
0
40
0
40
0
40
0
40
0
40
0
40
0.050000000000000003
40
0.10000000000000001
40
0.15000000000000002
40
0.20000000000000001
40
0.25
40
0.29999999999999999
40
0.34999999999999998
40
0.39999999999999997
40
0.44999999999999996
40
0.49999999999999994
40
0.54999999999999993
40
0.59999999999999998
40
0.65000000000000002
40
0.70000000000000007
40
0.75000000000000011
40
0.80000000000000016
40
0.8500000000000002
40
0.90000000000000024
40
0.95000000000000029
40
1
40
1
40
1
40
1
40
1
40
1
10
-17.629219291946111
20
31.980170995603732
30
0
10
-17.618368614941691
20
31.936255135841286
30
0
10
-17.596396737889499
20
31.846412528887655
30
0
10
-17.562626667389786
20
31.70561599044153
30
0
10
-17.512756899247236
20
31.507716540170559
30
0
10
-17.425782974279915
20
31.254401615766039
30
0
10
-17.296691827233214
20
31.009342242121882
30
0
10
-17.114463900451856
20
30.786833664314674
30
0
10
-16.882545551086992
20
30.598270833494404
30
0
10
-16.625878337076443
20
30.448883417149883
30
0
10
-16.377867609690025
20
30.338561433458462
30
0
10
-16.161180115524608
20
30.261419644097835
30
0
10
-15.983100522451476
20
30.207967596463355
30
0
10
-15.795684385428238
20
30.160772217885697
30
0
10
-15.556373381074536
20
30.108628052653152
30
0
10
-15.263687238694676
20
30.051400154333429
30
0
10
-14.930921974195845
20
29.993622540109449
30
0
10
-14.584285168305984
20
29.942483136334914
30
0
10
-14.251553058584976
20
29.904314047988702
30
0
10
-13.953259022257216
20
29.880927011859541
30
0
10
-13.700363558863085
20
29.86962341108633
30
0
10
-13.53855652902282
20
29.866666445512891
30
0
10
-13.440543402081046
20
29.865884309484979
30
0
10
-13.385542057924056
20
29.865714254643258
30
0
10
-13.360626260807972
20
29.865716927392324
30
0
0
SPLINE
5
133
100
AcDbEntity
8
0
100
AcDbSpline
70
1064
71
5
72
26
73
20
74
0
42
0.000000001
43
0.0000000001
44
0.0000000001
40
0
40
0
40
0
40
0
40
0
40
0
40
0.066666666666666666
40
0.13333333333333333
40
0.20000000000000001
40
0.26666666666666666
40
0.33333333333333331
40
0.39999999999999997
40
0.46666666666666662
40
0.53333333333333333
40
0.59999999999999998
40
0.66666666666666663
40
0.73333333333333328
40
0.79999999999999993
40
0.86666666666666659
40
0.93333333333333324
40
1
40
1
40
1
40
1
40
1
40
1
10
7.1093823649636221
20
32.252741773835204
30
0
10
7.1245127246923508
20
32.083702329688094
30
0
10
7.1546095066020756
20
31.763769792530983
30
0
10
7.1992631788683514
20
31.338310320601629
30
0
10
7.2580266672250122
20
30.872530370625284
30
0
10
7.332263701537963
20
30.417709174861187
30
0
10
7.4113865083624351
20
30.037540027641583
30
0
10
7.5021793692280827
20
29.680727684988327
30
0
10
7.6145054237231253
20
29.308207966932024
30
0
10
7.7624853009233519
20
28.907909133569255
30
0
10
7.9620319588001447
20
28.491410361543007
30
0
10
8.2267027610078145
20
28.082896634241919
30
0
10
8.5639068010618313
20
27.711081111688948
30
0
10
8.970573206140676
20
27.400069537090058
30
0
10
9.4285910691151162
20
27.160600033635578
30
0
10
9.9118994860891974
20
26.994381427942834
30
0
10
10.29694915189221
20
26.917317174685312
30
0
10
10.575003784065155
20
26.888823878348891
30
0
10
10.754317043991561
20
26.882492028142522
30
0
10
10.842459475894056
20
26.882492028142522
30
0
0
SPLINE
5
134
100
AcDbEntity
8
0
100
AcDbSpline
70
1064
71
5
72
31
73
25
74
0
42
0.000000001
43
0.0000000001
44
0.0000000001
40
0
40
0
40
0
40
0
40
0
40
0
40
0.050000000000000003
40
0.10000000000000001
40
0.15000000000000002
40
0.20000000000000001
40
0.25
40
0.29999999999999999
40
0.34999999999999998
40
0.39999999999999997
40
0.44999999999999996
40
0.49999999999999994
40
0.54999999999999993
40
0.59999999999999998
40
0.65000000000000002
40
0.70000000000000007
40
0.75000000000000011
40
0.80000000000000016
40
0.8500000000000002
40
0.90000000000000024
40
0.95000000000000029
40
1
40
1
40
1
40
1
40
1
40
1
10
14.515473025072954
20
57.937699590455544
30
0
10
14.494950640820733
20
57.8811800570884
30
0
10
14.451198059970597
20
57.764898452788557
30
0
10
14.377445889200853
20
57.580748615731174
30
0
10
14.264500191030246
20
57.318018754552853
30
0
10
14.108270536271959
20
56.974060307779638
30
0
10
13.948601359282696
20
56.63142333092302
30
0
10
13.796556221667068
20
56.307082480892603
30
0
10
13.659775130711415
20
56.014444869631596
30
0
10
13.539604423013932
20
55.759686102437527
30
0
10
13.427983023857832
20
55.53778611239796
30
0
10
13.311391863602335
20
55.337087707033255
30
0
10
13.175139106790542
20
55.144242995638926
30
0
10
13.007085202686666
20
54.948457814589879
30
0
10
12.802617277217299
20
54.747215635223803
30
0
10
12.564976896422435
20
54.546354139815747
30
0
10
12.302284864248275
20
54.356147159836205
30
0
10
12.025604610389902
20
54.188523793065755
30
0
10
11.746774038661991
20
54.054105421757534
30
0
10
11.476125127504341
20
53.958684388441526
30
0
10
11.221102995875764
20
53.901888276710132
30
0
10
11.033693465634379
20
53.884740698706423
30
0
10
10.903791422857177
20
53.886004615558988
30
0
10
10.822050971362268
20
53.892843926232693
30
0
10
10.782395914142519
20
53.897762598541924
30
0
0
SPLINE
5
135
100
AcDbEntity
8
0
100
AcDbSpline
70
1064
71
5
72
31
73
25
74
0
42
0.000000001
43
0.0000000001
44
0.0000000001
40
0
40
0
40
0
40
0
40
0
40
0
40
0.050000000000000003
40
0.10000000000000001
40
0.15000000000000002
40
0.20000000000000001
40
0.25
40
0.29999999999999999
40
0.34999999999999998
40
0.39999999999999997
40
0.44999999999999996
40
0.49999999999999994
40
0.54999999999999993
40
0.59999999999999998
40
0.65000000000000002
40
0.70000000000000007
40
0.75000000000000011
40
0.80000000000000016
40
0.8500000000000002
40
0.90000000000000024
40
0.95000000000000029
40
1
40
1
40
1
40
1
40
1
40
1
10
7.0493188032120839
20
57.937699590455544
30
0
10
7.0698411874643048
20
57.8811800570884
30
0
10
7.1135937683143613
20
57.764898452788572
30
0
10
7.1873459390838024
20
57.580748615731238
30
0
10
7.3002916372540518
20
57.318018754553052
30
0
10
7.4565212920121189
20
56.974060307780007
30
0
10
7.6161904690014763
20
56.631423330923411
30
0
10
7.7682356066174982
20
56.307082480892767
30
0
10
7.9050166975736413
20
56.014444869631596
30
0
10
8.0251874052714918
20
55.759686102437435
30
0
10
8.136808804427714
20
55.537786112397889
30
0
10
8.2533999646830782
20
55.337087707033184
30
0
10
8.3896527214946222
20
55.144242995638884
30
0
10
8.5577066255981862
20
54.948457814589915
30
0
10
8.7621745510673588
20
54.747215635223881
30
0
10
8.9998149318621188
20
54.546354139815826
30
0
10
9.262506964036346
20
54.356147159836283
30
0
10
9.5391872178949377
20
54.188523793065784
30
0
10
9.818017789623152
20
54.054105421757505
30
0
10
10.088666700781047
20
53.958684388441526
30
0
10
10.343688832409622
20
53.901888276710132
30
0
10
10.531098362650779
20
53.884740698706423
30
0
10
10.66100040542789
20
53.886004615558988
30
0
10
10.74274085692277
20
53.892843926232693
30
0
10
10.782395914142519
20
53.897762598541924
30
0
0
SPLINE
5
136
100
AcDbEntity
8
0
100
AcDbSpline
70
1064
71
5
72
31
73
25
74
0
42
0.000000001
43
0.0000000001
44
0.0000000001
40
0
40
0
40
0
40
0
40
0
40
0
40
0.050000000000000003
40
0.10000000000000001
40
0.15000000000000002
40
0.20000000000000001
40
0.25
40
0.29999999999999999
40
0.34999999999999998
40
0.39999999999999997
40
0.44999999999999996
40
0.49999999999999994
40
0.54999999999999993
40
0.59999999999999998
40
0.65000000000000002
40
0.70000000000000007
40
0.75000000000000011
40
0.80000000000000016
40
0.8500000000000002
40
0.90000000000000024
40
0.95000000000000029
40
1
40
1
40
1
40
1
40
1
40
1
10
-17.689993309081654
20
57.6650808720931
30
0
10
-17.679539553332297
20
57.622771791754012
30
0
10
-17.655971226034449
20
57.53584414396137
30
0
10
-17.612636003249765
20
57.398524008967108
30
0
10
-17.540199143247168
20
57.203922335504501
30
0
10
-17.431966187470891
20
56.954874188460813
30
0
10
-17.313333700084392
20
56.716882711754195
30
0
10
-17.18905749971513
20
56.506108331837815
30
0
10
-17.058657769379884
20
56.334211388679726
30
0
10
-16.912641931368984
20
56.203523929990233
30
0
10
-16.736182955118217
20
56.109019582407754
30
0
10
-16.514616697319017
20
56.041762582086548
30
0
10
-16.237914545383976
20
55.991571325347437
30
0
10
-15.906634523752281
20
55.950314497813473
30
0
10
-15.53435860438878
20
55.913719539246614
30
0
10
-15.142282041442604
20
55.880075623882547
30
0
10
-14.755488222836687
20
55.849581141753319
30
0
10
-14.398768105647859
20
55.823481174936475
30
0
10
-14.092416397853503
20
55.803280493821497
30
0
10
-13.848507626051802
20
55.790005480236481
30
0
10
-13.665464278632177
20
55.783247940764333
30
0
10
-13.554975298959755
20
55.781349081538188
30
0
10
-13.484350333273103
20
55.780871523279771
30
0
10
-13.441420432028517
20
55.780810487876309
30
0
10
-13.42099466024619
20
55.780844421060465
30
0
0
LINE
5
137
100
AcDbEntity
8
0
100
AcDbLine
10
-3.5133923872128388
20
41.188281331340114
30
0
11
-13.446934178965327
21
41.205960463057181
31
0
0
LINE
5
138
100
AcDbEntity
8
0
100
AcDbLine
10
-23.380475970717814
20
41.223639594774248
30
0
11
-13.446934178965327
21
41.205960463057181
31
0
0
SPLINE
5
139
100
AcDbEntity
8
0
100
AcDbSpline
70
1064
71
5
72
41
73
35
74
0
42
0.000000001
43
0.0000000001
44
0.0000000001
40
0
40
0
40
0
40
0
40
0
40
0
40
0.033333333333333333
40
0.066666666666666666
40
0.10000000000000001
40
0.13333333333333333
40
0.16666666666666666
40
0.19999999999999998
40
0.23333333333333331
40
0.26666666666666666
40
0.29999999999999999
40
0.33333333333333331
40
0.36666666666666664
40
0.39999999999999997
40
0.43333333333333329
40
0.46666666666666662
40
0.49999999999999994
40
0.53333333333333333
40
0.56666666666666665
40
0.59999999999999998
40
0.6333333333333333
40
0.66666666666666663
40
0.69999999999999996
40
0.73333333333333328
40
0.76666666666666661
40
0.79999999999999993
40
0.83333333333333326
40
0.86666666666666659
40
0.89999999999999991
40
0.93333333333333324
40
0.96666666666666656
40
1
40
1
40
1
40
1
40
1
40
1
10
-21.729354258002232
20
56.436504573059281
30
0
10
-21.698738740935852
20
56.377681521620772
30
0
10
-21.636930143697672
20
56.256823225783087
30
0
10
-21.542484617953814
20
56.065899267753522
30
0
10
-21.414131449849041
20
55.793209225450845
30
0
10
-21.255775684390738
20
55.42896193116632
30
0
10
-21.107508436277222
20
55.050334710522172
30
0
10
-20.977575735095385
20
54.666773098553463
30
0
10
-20.87280243718002
20
54.286395214498761
30
0
10
-20.79699464318622
20
53.914291267355893
30
0
10
-20.749118478727883
20
53.550611221951293
30
0
10
-20.724805714765843
20
53.191857443711896
30
0
10
-20.718064320109715
20
52.832381072902479
30
0
10
-20.722918435795147
20
52.465796632897046
30
0
10
-20.735016134251797
20
52.08639527697315
30
0
10
-20.753385387201408
20
51.690625356556964
30
0
10
-20.781773091500167
20
51.278373656061817
30
0
10
-20.826560884651574
20
50.85249264611992
30
0
10
-20.894984942598793
20
50.418526049959091
30
0
10
-20.993313207321549
20
49.984357355923223
30
0
10
-21.124880406760855
20
49.559968363345305
30
0
10
-21.288514698401329
20
49.157036670529919
30
0
10
-21.475889219481516
20
48.788935137627973
30
0
10
-21.672437380327796
20
48.469420399714075
30
0
10
-21.862649683310316
20
48.20984163218521
30
0
10
-22.034626859244497
20
48.016390485023976
30
0
10
-22.184154456825361
20
47.887952869368007
30
0
10
-22.320928752217643
20
47.812063459260287
30
0
10
-22.468093821714447
20
47.766429375195798
30
0
10
-22.647554692509409
20
47.731766632268148
30
0
10
-22.864094059779365
20
47.706199669379409
30
0
10
-23.05807332820449
20
47.703852279469416
30
0
10
-23.208809123522052
20
47.719472262497
30
0
10
-23.310512425649424
20
47.738820817489454
30
0
10
-23.361668562187898
20
47.750727689977857
30
0
0
SPLINE
5
140
100
AcDbEntity
8
0
100
AcDbSpline
70
1064
71
5
72
26
73
20
74
0
42
0.000000001
43
0.0000000001
44
0.0000000001
40
0
40
0
40
0
40
0
40
0
40
0
40
0.066666666666666666
40
0.13333333333333333
40
0.20000000000000001
40
0.26666666666666666
40
0.33333333333333331
40
0.39999999999999997
40
0.46666666666666662
40
0.53333333333333333
40
0.59999999999999998
40
0.66666666666666663
40
0.73333333333333328
40
0.79999999999999993
40
0.86666666666666659
40
0.93333333333333324
40
1
40
1
40
1
40
1
40
1
40
1
10
2.2507099009715827
20
41.8183576598176
30
0
10
2.3007225976186874
20
41.824403894647453
30
0
10
2.4101901225367803
20
41.834658247522668
30
0
10
2.6027200914573627
20
41.844526984555927
30
0
10
2.9126155035925247
20
41.845499049868224
30
0
10
3.3705163775125011
20
41.821089839767431
30
0
10
3.878158832649595
20
41.766311214620927
30
0
10
4.420006485793845
20
41.680839454384916
30
0
10
4.9894175053901195
20
41.570348546830552
30
0
10
5.5845532325999372
20
41.443810631904469
30
0
10
6.2060687965236703
20
41.311926163103024
30
0
10
6.8540453405329833
20
41.185206660040123
30
0
10
7.5252734834248383
20
41.072303342432043
30
0
10
8.209922512267342
20
40.978031838527166
30
0
10
8.8939485224837558
20
40.904304978216437
30
0
10
9.5617706401833829
20
40.851155220251357
30
0
10
10.071375134002011
20
40.824307354927022
30
0
10
10.434752163536738
20
40.812452108147802
30
0
10
10.668013094207042
20
40.808143817087533
30
0
10
10.782395914142526
20
40.806888480501442
30
0
0
LINE
5
141
100
AcDbEntity
8
0
100
AcDbLine
10
10.782395914142519
20
56.217745077017909
30
0
11
10.782395914142519
21
38.937744525538839
31
0
0
SPLINE
5
142
100
AcDbEntity
8
0
100
AcDbSpline
70
1064
71
5
72
26
73
20
74
0
42
0.000000001
43
0.0000000001
44
0.0000000001
40
0
40
0
40
0
40
0
40
0
40
0
40
0.066666666666666666
40
0.13333333333333333
40
0.20000000000000001
40
0.26666666666666666
40
0.33333333333333331
40
0.39999999999999997
40
0.46666666666666662
40
0.53333333333333333
40
0.59999999999999998
40
0.66666666666666663
40
0.73333333333333328
40
0.79999999999999993
40
0.86666666666666659
40
0.93333333333333324
40
1
40
1
40
1
40
1
40
1
40
1
10
19.314081927313453
20
41.8183576598176
30
0
10
19.264069230666347
20
41.824403894647453
30
0
10
19.154601705748373
20
41.834658247522682
30
0
10
18.962071736828381
20
41.844526984556012
30
0
10
18.652176324693681
20
41.845499049868387
30
0
10
18.194275450773116
20
41.821089839767609
30
0
10
17.686632995635094
20
41.766311214620849
30
0
10
17.144785342490209
20
41.680839454384518
30
0
10
16.575374322893797
20
41.570348546830004
30
0
10
15.980238595684279
20
41.443810631904014
30
0
10
15.358723031761027
20
41.311926163102783
30
0
10
14.710746487752106
20
41.185206660040144
30
0
10
14.039518344860353
20
41.072303342432178
30
0
10
13.354869316017785
20
40.978031838527301
30
0
10
12.670843305801256
20
40.904304978216494
30
0
10
12.003021188101574
20
40.851155220251378
30
0
10
11.493416694282965
20
40.824307354927022
30
0
10
11.130039664748294
20
40.812452108147802
30
0
10
10.896778734077996
20
40.808143817087533
30
0
10
10.782395914142512
20
40.806888480501442
30
0
0
SPLINE
5
143
100
AcDbEntity
8
0
100
AcDbSpline
70
1064
71
5
72
36
73
30
74
0
42
0.000000001
43
0.0000000001
44
0.0000000001
40
0
40
0
40
0
40
0
40
0
40
0
40
0.040000000000000001
40
0.080000000000000002
40
0.12
40
0.16
40
0.20000000000000001
40
0.24000000000000002
40
0.28000000000000003
40
0.32000000000000001
40
0.35999999999999999
40
0.39999999999999997
40
0.43999999999999995
40
0.47999999999999993
40
0.51999999999999991
40
0.55999999999999994
40
0.59999999999999998
40
0.64000000000000001
40
0.68000000000000005
40
0.72000000000000008
40
0.76000000000000012
40
0.80000000000000016
40
0.84000000000000019
40
0.88000000000000023
40
0.92000000000000026
40
0.9600000000000003
40
1
40
1
40
1
40
1
40
1
40
1
10
20.340513897483611
20
48.274945859275057
30
0
10
20.310545588134612
20
48.27328300292718
30
0
10
20.245074961647461
20
48.271879538095568
30
0
10
20.13026496094832
20
48.275541419024293
30
0
10
19.95548053485086
20
48.291877594401747
30
0
10
19.750944945027509
20
48.330998400210078
30
0
10
19.596481896586379
20
48.388366241895127
30
0
10
19.477248336038215
20
48.463721674897918
30
0
10
19.354334100700346
20
48.55997660670166
30
0
10
19.200312054220969
20
48.687821943108105
30
0
10
19.012555711501399
20
48.865143081201218
30
0
10
18.800966287250176
20
49.109908220126393
30
0
10
18.58259916819625
20
49.435059898083139
30
0
10
18.372993587753275
20
49.841766091773479
30
0
10
18.180759749129045
20
50.315530362907282
30
0
10
18.010260952170725
20
50.832919187635078
30
0
10
17.86316994370716
20
51.366595614141993
30
0
10
17.740437996200914
20
51.891008023637603
30
0
10
17.644008669703904
20
52.387618169012491
30
0
10
17.578763734531371
20
52.850788001935243
30
0
10
17.554061620944548
20
53.292533536329806
30
0
10
17.58679894272343
20
53.751537365474611
30
0
10
17.676701321739216
20
54.238171127997532
30
0
10
17.814361146208658
20
54.748662711408656
30
0
10
17.983400957415444
20
55.267240445152176
30
0
10
18.164786467016494
20
55.772721674712152
30
0
10
18.305088120687813
20
56.149041385978421
30
0
10
18.401344028284839
20
56.407690844776646
30
0
10
18.460741525551693
20
56.568628168925166
30
0
10
18.489247047830712
20
56.646223033059272
30
0
0
SPLINE
5
144
100
AcDbEntity
8
0
100
AcDbSpline
70
1064
71
5
72
36
73
30
74
0
42
0.000000001
43
0.0000000001
44
0.0000000001
40
0
40
0
40
0
40
0
40
0
40
0
40
0.040000000000000001
40
0.080000000000000002
40
0.12
40
0.16
40
0.20000000000000001
40
0.24000000000000002
40
0.28000000000000003
40
0.32000000000000001
40
0.35999999999999999
40
0.39999999999999997
40
0.43999999999999995
40
0.47999999999999993
40
0.51999999999999991
40
0.55999999999999994
40
0.59999999999999998
40
0.64000000000000001
40
0.68000000000000005
40
0.72000000000000008
40
0.76000000000000012
40
0.80000000000000016
40
0.84000000000000019
40
0.88000000000000023
40
0.92000000000000026
40
0.9600000000000003
40
1
40
1
40
1
40
1
40
1
40
1
10
1.224277930801424
20
48.274945859275057
30
0
10
1.2542462401504249
20
48.27328300292718
30
0
10
1.3197168681296139
20
48.271879538095575
30
0
10
1.4345268755435661
20
48.275541419024357
30
0
10
1.6093113159667052
20
48.291877594401811
30
0
10
1.8138469171457761
20
48.330998400210056
30
0
10
1.9683099594256657
20
48.388366241895135
30
0
10
2.0875435014745127
20
48.46372167489794
30
0
10
2.2104577187021239
20
48.55997660670166
30
0
10
2.3644797563639317
20
48.687821943108034
30
0
10
2.5522361004395595
20
48.86514308120119
30
0
10
2.7638255331489687
20
49.109908220126407
30
0
10
2.9821926625770905
20
49.435059898083125
30
0
10
3.1917982509237706
20
49.841766091773501
30
0
10
3.3840320932306795
20
50.315530362907296
30
0
10
3.5545308896490835
20
50.832919187634985
30
0
10
3.7016218945922028
20
51.366595614141886
30
0
10
3.8243538374422417
20
51.891008023637575
30
0
10
3.9207831600358789
20
52.387618169012519
30
0
10
3.9860280933666519
20
52.850788001935221
30
0
10
4.0107302073806066
20
53.292533536329785
30
0
10
3.9779928865710428
20
53.751537365474732
30
0
10
3.8880905082973518
20
54.238171127997838
30
0
10
3.7504306839738888
20
54.74866271140904
30
0
10
3.5813908723593237
20
55.267240445152517
30
0
10
3.4000053620511461
20
55.772721674712329
30
0
10
3.2597037078623972
20
56.149041385978478
30
0
10
3.1634478000484147
20
56.40769084477666
30
0
10
3.1040503027333455
20
56.568628168925166
30
0
10
3.075544780454329
20
56.646223033059272
30
0
0
SPLINE
5
145
100
AcDbEntity
8
0
100
AcDbSpline
70
1064
71
5
72
31
73
25
74
0
42
0.000000001
43
0.0000000001
44
0.0000000001
40
0
40
0
40
0
40
0
40
0
40
0
40
0.050000000000000003
40
0.10000000000000001
40
0.15000000000000002
40
0.20000000000000001
40
0.25
40
0.29999999999999999
40
0.34999999999999998
40
0.39999999999999997
40
0.44999999999999996
40
0.49999999999999994
40
0.54999999999999993
40
0.59999999999999998
40
0.65000000000000002
40
0.70000000000000007
40
0.75000000000000011
40
0.80000000000000016
40
0.8500000000000002
40
0.90000000000000024
40
0.95000000000000029
40
1
40
1
40
1
40
1
40
1
40
1
10
-9.1453161707133184
20
57.649873559759151
30
0
10
-9.1559204581726714
20
57.607601957283187
30
0
10
-9.1797980525863512
20
57.520758750943259
30
0
10
-9.2236217878496056
20
57.383593736321195
30
0
10
-9.2967508679343247
20
57.189251132532249
30
0
10
-9.4058696176563927
20
56.940589815233018
30
0
10
-9.525348477212729
20
56.703022115055873
30
0
10
-9.6503741355391028
20
56.492691427881333
30
0
10
-9.7813849019406351
20
56.321259727704629
30
0
10
-9.9278649931367884
20
56.191092836015699
30
0
10
-10.104659236992301
20
56.097217187676421
30
0
10
-10.326463490509054
20
56.030749272037887
30
0
10
-10.603342543864166
20
55.981543246473784
30
0
10
-10.934767319329049
20
55.941465861846694
30
0
10
-11.307171139033018
20
55.906196240352713
30
0
10
-11.699364972731704
20
55.873948123178025
30
0
10
-12.086264885240443
20
55.844830615512201
30
0
10
-12.443075644698451
20
55.820000548858836
30
0
10
-12.749497315507863
20
55.800890445655781
30
0
10
-12.993451794185773
20
55.788483702305086
30
0
10
-13.176518035301697
20
55.782377743082257
30
0
10
-13.287013073967268
20
55.780872178176637
30
0
10
-13.357639292103883
20
55.780646010443185
30
0
10
-13.400569138644004
20
55.780737783154109
30
0
10
-13.420994660246194
20
55.780844421060479
30
0
0
SPLINE
5
146
100
AcDbEntity
8
0
100
AcDbSpline
70
1064
71
5
72
41
73
35
74
0
42
0.000000001
43
0.0000000001
44
0.0000000001
40
0
40
0
40
0
40
0
40
0
40
0
40
0.033333333333333333
40
0.066666666666666666
40
0.10000000000000001
40
0.13333333333333333
40
0.16666666666666666
40
0.19999999999999998
40
0.23333333333333331
40
0.26666666666666666
40
0.29999999999999999
40
0.33333333333333331
40
0.36666666666666664
40
0.39999999999999997
40
0.43333333333333329
40
0.46666666666666662
40
0.49999999999999994
40
0.53333333333333333
40
0.56666666666666665
40
0.59999999999999998
40
0.6333333333333333
40
0.66666666666666663
40
0.69999999999999996
40
0.73333333333333328
40
0.76666666666666661
40
0.79999999999999993
40
0.83333333333333326
40
0.86666666666666659
40
0.89999999999999991
40
0.93333333333333324
40
0.96666666666666656
40
1
40
1
40
1
40
1
40
1
40
1
10
-5.1103538922849738
20
56.406927056536908
30
0
10
-5.1411785943349502
20
56.348213352776135
30
0
10
-5.2034169915886457
20
56.227575828461916
30
0
10
-5.2985415072713096
20
56.036989256009775
30
0
10
-5.4278644944975536
20
55.764757810528693
30
0
10
-5.5875157843723846
20
55.401076486443067
30
0
10
-5.7371298057381175
20
55.022979417311191
30
0
10
-5.8684269601410994
20
54.639882726829747
30
0
10
-5.9745535382742592
20
54.259880189932822
30
0
10
-6.0516853451446151
20
53.888048435668445
30
0
10
-6.1008557147935285
20
53.524541107959102
30
0
10
-6.1264452983155966
20
53.165876142973325
30
0
10
-6.1344661958926539
20
52.806426045221265
30
0
10
-6.1309169575494353
20
52.439826649423424
30
0
10
-6.1201698037598069
20
52.06038463558103
30
0
10
-6.1032093986333251
20
51.664551837525188
30
0
10
-6.0762892720377604
20
51.252201703416155
30
0
10
-6.0330176736112895
20
50.82616397056367
30
0
10
-5.966138740530945
20
50.391956570119973
30
0
10
-5.8693565094778686
20
49.957440629931895
30
0
10
-5.7393007437134909
20
49.532586016232202
30
0
10
-5.5771017122600428
20
49.129074424488266
30
0
10
-5.3910386248243158
20
48.760308269359157
30
0
10
-5.1956290124614011
20
48.44009594812163
30
0
10
-5.0063418774916419
20
48.179841769879303
30
0
10
-4.835054374721512
20
47.985779700491605
30
0
10
-4.6859848943244256
20
47.85681065936997
30
0
10
-4.5494815915240068
20
47.78043488591323
30
0
10
-4.4024798874958391
20
47.734277261177681
30
0
10
-4.2231435345934978
20
47.698975952116051
30
0
10
-4.0066965439430842
20
47.672638385648646
30
0
10
-3.8127268598299202
20
47.669600547077444
30
0
10
-3.661936420541378
20
47.684683891499304
30
0
10
-3.5601648920824149
20
47.703670313990919
30
0
10
-3.5089666974504627
20
47.715395022278429
30
0
0
LINE
5
147
100
AcDbEntity
8
0
100
AcDbLine
10
-13.419858338414622
20
56.419320370185176
30
0
11
-13.449587633041446
21
39.715038998165525
31
0
0
LINE
5
148
100
AcDbEntity
8
0
100
AcDbLine
10
10.842459475894056
20
-11.467212739602431
30
0
11
10.842459475894056
21
-28.747213291081501
31
0
0
SPLINE
5
149
100
AcDbEntity
8
0
100
AcDbSpline
70
1064
71
5
72
36
73
30
74
0
42
0.000000001
43
0.0000000001
44
0.0000000001
40
0
40
0
40
0
40
0
40
0
40
0
40
0.040000000000000001
40
0.080000000000000002
40
0.12
40
0.16
40
0.20000000000000001
40
0.24000000000000002
40
0.28000000000000003
40
0.32000000000000001
40
0.35999999999999999
40
0.39999999999999997
40
0.43999999999999995
40
0.47999999999999993
40
0.51999999999999991
40
0.55999999999999994
40
0.59999999999999998
40
0.64000000000000001
40
0.68000000000000005
40
0.72000000000000008
40
0.76000000000000012
40
0.80000000000000016
40
0.84000000000000019
40
0.88000000000000023
40
0.92000000000000026
40
0.9600000000000003
40
1
40
1
40
1
40
1
40
1
40
1
10
1.2843414925529621
20
-19.410011957345283
30
0
10
1.3205557047187879
20
-19.413171426060419
30
0
10
1.3954926121224751
20
-19.416843158669668
30
0
10
1.5154247950671624
20
-19.414408649199931
30
0
10
1.6827769007296161
20
-19.39629161945
30
0
10
1.8721578537665098
20
-19.353539567379197
30
0
10
2.020670817658154
20
-19.294745977980828
30
0
10
2.1438771992308401
20
-19.220342439100797
30
0
10
2.2737074068429686
20
-19.125744625905231
30
0
10
2.4317037554777374
20
-18.998851566584118
30
0
10
2.6192326601986724
20
-18.821475934852032
30
0
10
2.8273238178366271
20
-18.575872583083971
30
0
10
3.0411879523873648
20
-18.249641952302206
30
0
10
3.2473064552623785
20
-17.842100225225721
30
0
10
3.4378910167221712
20
-17.367940773122179
30
0
10
3.6086073707319448
20
-16.85060407677506
30
0
10
3.7572449333656546
20
-16.317298217731892
30
0
10
3.8820371862770751
20
-15.793379474940194
30
0
10
3.9801994390504714
20
-15.297184553482237
30
0
10
4.0462638461860747
20
-14.834211073043397
30
0
10
4.0707759114693545
20
-14.392420001451525
30
0
10
4.0376073924371045
20
-13.933312853761253
30
0
10
3.9473748369149213
20
-13.446599978126484
30
0
10
3.8096500256305532
20
-12.936092823319115
30
0
10
3.6407915912691182
20
-12.417558549017105
30
0
10
3.4597206930406679
20
-11.912152703029912
30
0
10
3.3196492823968109
20
-11.535888159960239
30
0
10
3.2234899124794123
20
-11.277261832414821
30
0
10
3.1641138644848836
20
-11.116329647695174
30
0
10
3.1356083422058671
20
-11.038734783561065
30
0
0
SPLINE
5
150
100
AcDbEntity
8
0
100
AcDbSpline
70
1064
71
5
72
26
73
20
74
0
42
0.000000001
43
0.0000000001
44
0.0000000001
40
0
40
0
40
0
40
0
40
0
40
0
40
0.066666666666666666
40
0.13333333333333333
40
0.20000000000000001
40
0.26666666666666666
40
0.33333333333333331
40
0.39999999999999997
40
0.46666666666666662
40
0.53333333333333333
40
0.59999999999999998
40
0.66666666666666663
40
0.73333333333333328
40
0.79999999999999993
40
0.86666666666666659
40
0.93333333333333324
40
1
40
1
40
1
40
1
40
1
40
1
10
19.37414548906499
20
-25.86660015680274
30
0
10
19.324132792417885
20
-25.860553921972887
30
0
10
19.214665267499928
20
-25.850299569098077
30
0
10
19.022135298580018
20
-25.840430832066804
30
0
10
18.712239886445381
20
-25.839458766756049
30
0
10
18.254339012524753
20
-25.863867976854809
30
0
10
17.746696557386581
20
-25.918646601998244
30
0
10
17.204848904241537
20
-26.004118362232209
30
0
10
16.635437884645025
20
-26.114609269786094
30
0
10
16.040302157435512
20
-26.241147184713132
30
0
10
15.418786593512365
20
-26.373031653516119
30
0
10
14.770810049503639
20
-26.49975115658037
30
0
10
14.099581906612052
20
-26.612654474188911
30
0
10
13.41493287776955
20
-26.706925978093654
30
0
10
12.730906867552982
20
-26.78065283840397
30
0
10
12.063084749853203
20
-26.833802596368759
30
0
10
11.553480256034529
20
-26.860650461693115
30
0
10
11.190103226499835
20
-26.872505708472499
30
0
10
10.956842295829533
20
-26.8768139995328
30
0
10
10.842459475894049
20
-26.878069336118898
30
0
0
SPLINE
5
151
100
AcDbEntity
8
0
100
AcDbSpline
70
1064
71
5
72
31
73
25
74
0
42
0.000000001
43
0.0000000001
44
0.0000000001
40
0
40
0
40
0
40
0
40
0
40
0
40
0.050000000000000003
40
0.10000000000000001
40
0.15000000000000002
40
0.20000000000000001
40
0.25
40
0.29999999999999999
40
0.34999999999999998
40
0.39999999999999997
40
0.44999999999999996
40
0.49999999999999994
40
0.54999999999999993
40
0.59999999999999998
40
0.65000000000000002
40
0.70000000000000007
40
0.75000000000000011
40
0.80000000000000016
40
0.8500000000000002
40
0.90000000000000024
40
0.95000000000000029
40
1
40
1
40
1
40
1
40
1
40
1
10
14.575536586824491
20
-9.7472582261647958
30
0
10
14.555014202572272
20
-9.8037777595319433
30
0
10
14.511261621722175
20
-9.9200593638317098
30
0
10
14.437509450952613
20
-10.104209200888901
30
0
10
14.32456375278222
20
-10.36693906206693
30
0
10
14.168334098024101
20
-10.710897508839837
30
0
10
14.00866492103478
20
-11.05353448569628
30
0
10
13.856619783418875
20
-11.377875335727015
30
0
10
13.719838692462931
20
-11.670512946988699
30
0
10
13.59966798476527
20
-11.9252717141835
30
0
10
13.488046585609169
20
-12.147171704223398
30
0
10
13.371455425353764
20
-12.347870109587912
30
0
10
13.235202668542069
20
-12.540714820981728
30
0
10
13.06714876443824
20
-12.736500002030041
30
0
10
12.862680838968874
20
-12.937742181395729
30
0
10
12.625040458173972
20
-13.138603676803539
30
0
10
12.362348425999796
20
-13.328810656783201
30
0
10
12.085668172141443
20
-13.496434023554167
30
0
10
11.806837600413532
20
-13.630852394863009
30
0
10
11.536188689255878
20
-13.726273428179612
30
0
10
11.281166557627301
20
-13.783069539911018
30
0
10
11.093757027385923
20
-13.800217117914192
30
0
10
10.963854984608718
20
-13.798953201061416
30
0
10
10.882114533113805
20
-13.792113890387649
30
0
10
10.842459475894056
20
-13.78719521807842
30
0
0
SPLINE
5
152
100
AcDbEntity
8
0
100
AcDbSpline
70
1064
71
5
72
36
73
30
74
0
42
0.000000001
43
0.0000000001
44
0.0000000001
40
0
40
0
40
0
40
0
40
0
40
0
40
0.040000000000000001
40
0.080000000000000002
40
0.12
40
0.16
40
0.20000000000000001
40
0.24000000000000002
40
0.28000000000000003
40
0.32000000000000001
40
0.35999999999999999
40
0.39999999999999997
40
0.43999999999999995
40
0.47999999999999993
40
0.51999999999999991
40
0.55999999999999994
40
0.59999999999999998
40
0.64000000000000001
40
0.68000000000000005
40
0.72000000000000008
40
0.76000000000000012
40
0.80000000000000016
40
0.84000000000000019
40
0.88000000000000023
40
0.92000000000000026
40
0.9600000000000003
40
1
40
1
40
1
40
1
40
1
40
1
10
20.400577459235151
20
-19.410011957345283
30
0
10
20.364363247069324
20
-19.413171426060419
30
0
10
20.289426341165974
20
-19.416843158669668
30
0
10
20.169494164973468
20
-19.41440864919992
30
0
10
20.002142073716499
20
-19.396291619450004
30
0
10
19.812761132098629
20
-19.353539567379208
30
0
10
19.664248162011432
20
-19.294745977980796
30
0
10
19.541041761836379
20
-19.220342439100776
30
0
10
19.411211536013095
20
-19.125744625905231
30
0
10
19.253215178511638
20
-18.998851566584182
30
0
10
19.065686275154313
20
-18.821475934852138
30
0
10
18.857595126021671
20
-18.575872583084049
30
0
10
18.643731001902903
20
-18.249641952302181
30
0
10
18.437612506975587
20
-17.84210022522554
30
0
10
18.247027949218914
20
-17.36794077312187
30
0
10
18.076311594666169
20
-16.850604076774715
30
0
10
17.927674028492405
20
-16.317298217731608
30
0
10
17.802881770898907
20
-15.793379474940016
30
0
10
17.70471951420047
20
-15.297184553482172
30
0
10
17.63865510521288
20
-14.834211073043413
30
0
10
17.6141430403591
20
-14.392420001451528
30
0
10
17.64731156036606
20
-13.933312853761187
30
0
10
17.737544116634474
20
-13.446599978126356
30
0
10
17.875268928065648
20
-12.936092823318958
30
0
10
18.044127362017043
20
-12.417558549016963
30
0
10
18.225198259534427
20
-11.912152703029824
30
0
10
18.365269669657959
20
-11.535888159960205
30
0
10
18.461429039357185
20
-11.277261832414817
30
0
10
18.520805087303234
20
-11.116329647695174
30
0
10
18.54931060958225
20
-11.038734783561065
30
0
0
SPLINE
5
153
100
AcDbEntity
8
0
100
AcDbSpline
70
1064
71
5
72
26
73
20
74
0
42
0.000000001
43
0.0000000001
44
0.0000000001
40
0
40
0
40
0
40
0
40
0
40
0
40
0.066666666666666666
40
0.13333333333333333
40
0.20000000000000001
40
0.26666666666666666
40
0.33333333333333331
40
0.39999999999999997
40
0.46666666666666662
40
0.53333333333333333
40
0.59999999999999998
40
0.66666666666666663
40
0.73333333333333328
40
0.79999999999999993
40
0.86666666666666659
40
0.93333333333333324
40
1
40
1
40
1
40
1
40
1
40
1
10
2.3107734627231209
20
-25.86660015680274
30
0
10
2.3607861593702255
20
-25.860553921972887
30
0
10
2.4702536842883198
20
-25.85029956909807
30
0
10
2.6627836532089062
20
-25.840430832066765
30
0
10
2.97267906534407
20
-25.839458766755961
30
0
10
3.4305799392640433
20
-25.863867976854721
30
0
10
3.938222394401131
20
-25.918646601998283
30
0
10
4.4800700475453707
20
-26.004118362232404
30
0
10
5.0494810671416372
20
-26.114609269786374
30
0
10
5.6446167943514665
20
-26.24114718471338
30
0
10
6.266132358275212
20
-26.373031653516282
30
0
10
6.9141089022845232
20
-26.49975115658038
30
0
10
7.5853370451763649
20
-26.612654474188801
30
0
10
8.2699860740188473
20
-26.706925978093508
30
0
10
8.9540120842352451
20
-26.780652838403867
30
0
10
9.6218342019348739
20
-26.83380259636872
30
0
10
10.131438695753527
20
-26.860650461693105
30
0
10
10.494815725288271
20
-26.872505708472495
30
0
10
10.728076655958581
20
-26.8768139995328
30
0
10
10.842459475894064
20
-26.878069336118898
30
0
0
LINE
5
154
100
AcDbEntity
8
0
100
AcDbLine
10
20.400577459235151
20
-19.410011957345283
30
0
11
19.37414548906499
21
-25.86660015680274
31
0
0
LINE
5
155
100
AcDbEntity
8
0
100
AcDbLine
10
14.575536586824491
20
-9.7472582261647958
30
0
11
18.54931060958225
21
-11.038734783561065
31
0
0
LINE
5
156
100
AcDbEntity
8
0
100
AcDbLine
10
1.2843414925529621
20
-19.410011957345283
30
0
11
2.3107734627231209
21
-25.86660015680274
31
0
0
LINE
5
157
100
AcDbEntity
8
0
100
AcDbLine
10
7.1093823649636221
20
-9.7472582261647958
30
0
11
3.1356083422058671
21
-11.038734783561065
31
0
0
SPLINE
5
158
100
AcDbEntity
8
0
100
AcDbSpline
70
1064
71
5
72
31
73
25
74
0
42
0.000000001
43
0.0000000001
44
0.0000000001
40
0
40
0
40
0
40
0
40
0
40
0
40
0.050000000000000003
40
0.10000000000000001
40
0.15000000000000002
40
0.20000000000000001
40
0.25
40
0.29999999999999999
40
0.34999999999999998
40
0.39999999999999997
40
0.44999999999999996
40
0.49999999999999994
40
0.54999999999999993
40
0.59999999999999998
40
0.65000000000000002
40
0.70000000000000007
40
0.75000000000000011
40
0.80000000000000016
40
0.8500000000000002
40
0.90000000000000024
40
0.95000000000000029
40
1
40
1
40
1
40
1
40
1
40
1
10
7.1093823649636221
20
-9.7472582261647958
30
0
10
7.1299047492158429
20
-9.8037777595319433
30
0
10
7.1736573300659261
20
-9.9200593638317116
30
0
10
7.2474095008354817
20
-10.104209200888928
30
0
10
7.3603551990058964
20
-10.366939062067008
30
0
10
7.5165848537640967
20
-10.710897508839981
30
0
10
7.6762540307534373
20
-11.053534485696451
30
0
10
7.828299168369278
20
-11.37787533572714
30
0
10
7.9650802593251715
20
-11.67051294698871
30
0
10
8.0852509670228336
20
-11.925271714183367
30
0
10
8.1968723661790008
20
-12.147171704223188
30
0
10
8.3134635264344432
20
-12.347870109587733
30
0
10
8.4497162832461274
20
-12.540714820981682
30
0
10
8.6177701873497909
20
-12.736500002030114
30
0
10
8.8222381128189831
20
-12.937742181395841
30
0
10
9.0598784936137076
20
-13.138603676803648
30
0
10
9.3225705257878886
20
-13.328810656783274
30
0
10
9.5992507796464661
20
-13.496434023554192
30
0
10
9.8780813513746946
20
-13.630852394862989
30
0
10
10.148730262532618
20
-13.726273428179578
30
0
10
10.403752394161211
20
-13.783069539910999
30
0
10
10.591161924402362
20
-13.800217117914187
30
0
10
10.721063967179429
20
-13.798953201061414
30
0
10
10.80280441867431
20
-13.792113890387649
30
0
10
10.842459475894058
20
-13.78719521807842
30
0
0
LINE
5
159
100
AcDbEntity
8
0
100
AcDbLine
10
-23.320412408966277
20
-26.461318221846089
30
0
11
-13.386870617213788
21
-26.478997353563155
31
0
0
CIRCLE
5
160
100
AcDbEntity
8
0
100
AcDbCircle
10
-13.367326920337353
20
-15.497794611574664
30
0
40
0.29006135395678306
0
LINE
5
161
100
AcDbEntity
8
0
100
AcDbLine
10
-13.359794776663085
20
-11.265637446435168
30
0
11
-13.389524071289909
21
-27.969918818454804
31
0
0
CIRCLE
5
162
100
AcDbEntity
8
0
100
AcDbCircle
10
-13.374363390563296
20
-19.451443024543185
30
0
40
0.11475877302838484
0
CIRCLE
5
163
100
AcDbEntity
8
0
100
AcDbCircle
10
-13.364981429023912
20
-14.179911111574667
30
0
40
0.35185314115027266
0
CIRCLE
5
164
100
AcDbEntity
8
0
100
AcDbCircle
10
-13.362635937710474
20
-12.862027611574666
30
0
40
0.41746354610022107
0
LINE
5
165
100
AcDbEntity
8
0
100
AcDbLine
10
-3.4533288254613006
20
-26.496676485280222
30
0
11
-13.386870617213788
21
-26.478997353563155
31
0
0
LINE
5
166
100
AcDbEntity
8
0
100
AcDbLine
10
-12.981108108808627
20
-11.887155263707212
30
0
11
-13.740660563806143
21
-11.868522098065132
31
0
0
CIRCLE
5
167
100
AcDbEntity
8
0
100
AcDbCircle
10
-13.372017902964231
20
-18.133561611574656
30
0
40
0.14862939086689925
0
CIRCLE
5
168
100
AcDbEntity
8
0
100
AcDbCircle
10
-13.369672411650793
20
-16.815678111574659
30
0
40
0.22307000304931252
0
SPLINE
5
169
100
AcDbEntity
8
0
100
AcDbSpline
70
1064
71
5
72
31
73
25
74
0
42
0.000000001
43
0.0000000001
44
0.0000000001
40
0
40
0
40
0
40
0
40
0
40
0
40
0.050000000000000003
40
0.10000000000000001
40
0.15000000000000002
40
0.20000000000000001
40
0.25
40
0.29999999999999999
40
0.34999999999999998
40
0.39999999999999997
40
0.44999999999999996
40
0.49999999999999994
40
0.54999999999999993
40
0.59999999999999998
40
0.65000000000000002
40
0.70000000000000007
40
0.75000000000000011
40
0.80000000000000016
40
0.8500000000000002
40
0.90000000000000024
40
0.95000000000000029
40
1
40
1
40
1
40
1
40
1
40
1
10
-17.629927562019454
20
-10.019881791218243
30
0
10
-17.619456814672336
20
-10.062259643539141
30
0
10
-17.595824497945696
20
-10.149357020621014
30
0
10
-17.552303273454243
20
-10.287028306047375
30
0
10
-17.479484361834839
20
-10.482232909396783
30
0
10
-17.37078141957819
20
-10.73195759506638
30
0
10
-17.251921630056344
20
-10.970224257473253
30
0
10
-17.127787353811581
20
-11.180660544146235
30
0
10
-16.997804510293161
20
-11.351638605935049
30
0
10
-16.85204295709822
20
-11.481252141304184
30
0
10
-16.675131958248596
20
-11.575124710600413
30
0
10
-16.451999210339523
20
-11.642733865375218
30
0
10
-16.172537928223125
20
-11.694552789725472
30
0
10
-15.83788464074572
20
-11.738474870877916
30
0
10
-15.462747532068093
20
-11.777988674713722
30
0
10
-15.069559924169582
20
-11.813783169916189
30
0
10
-14.684430387412339
20
-11.844619856964369
30
0
10
-14.332621289597967
20
-11.86843777643363
30
0
10
-14.033923920281211
20
-11.883405669691712
30
0
10
-13.798708525338872
20
-11.88885951875765
30
0
10
-13.621719124507761
20
-11.886660837802527
30
0
10
-13.510318305815735
20
-11.882338372448656
30
0
10
-13.434085258981906
20
-11.879621864949064
30
0
10
-13.384995303338174
20
-11.878344298591969
30
0
10
-13.36088433630737
20
-11.877838680886173
30
0
0
SPLINE
5
170
100
AcDbEntity
8
0
100
AcDbSpline
70
1064
71
5
72
41
73
35
74
0
42
0.000000001
43
0.0000000001
44
0.0000000001
40
0
40
0
40
0
40
0
40
0
40
0
40
0.033333333333333333
40
0.066666666666666666
40
0.10000000000000001
40
0.13333333333333333
40
0.16666666666666666
40
0.19999999999999998
40
0.23333333333333331
40
0.26666666666666666
40
0.29999999999999999
40
0.33333333333333331
40
0.36666666666666664
40
0.39999999999999997
40
0.43333333333333329
40
0.46666666666666662
40
0.49999999999999994
40
0.53333333333333333
40
0.56666666666666665
40
0.59999999999999998
40
0.6333333333333333
40
0.66666666666666663
40
0.69999999999999996
40
0.73333333333333328
40
0.76666666666666661
40
0.79999999999999993
40
0.83333333333333326
40
0.86666666666666659
40
0.89999999999999991
40
0.93333333333333324
40
0.96666666666666656
40
1
40
1
40
1
40
1
40
1
40
1
10
-21.669293952494947
20
-11.248445839019864
30
0
10
-21.638678371938997
20
-11.307269012870499
30
0
10
-21.576869641996904
20
-11.42812756243497
30
0
10
-21.48242390002623
20
-11.619051927759052
30
0
10
-21.354070411216686
20
-11.891742560994215
30
0
10
-21.195714204299918
20
-12.255990639203745
30
0
10
-21.047446494257301
20
-12.634618641481994
30
0
10
-20.917513337181266
20
-13.018180978251092
30
0
10
-20.812739618581102
20
-13.398559478202305
30
0
10
-20.73693147535484
20
-13.770663884132462
30
0
10
-20.689055059888208
20
-14.134344209233831
30
0
10
-20.664742142790438
20
-14.493098104706819
30
0
10
-20.658000678272007
20
-14.852574468104271
30
0
10
-20.662854779229928
20
-15.219158828955182
30
0
10
-20.674952484942715
20
-15.598560089970148
30
0
10
-20.693321727325472
20
-15.994329952482767
30
0
10
-20.721709380210946
20
-16.406581663285781
30
0
10
-20.766497079438484
20
-16.832462762298999
30
0
10
-20.834921012546374
20
-17.266429522688224
30
0
10
-20.9332491431859
20
-17.700598442297583
30
0
10
-21.064816226417928
20
-18.124987703107376
30
0
10
-21.228450447018325
20
-18.527919686996235
30
0
10
-21.415824968357992
20
-18.896021519682666
30
0
10
-21.612373196273392
20
-19.215536549770764
30
0
10
-21.802585610686666
20
-19.475115585143065
30
0
10
-21.974562908772707
20
-19.668566958850285
30
0
10
-22.124090606676578
20
-19.797004746460001
30
0
10
-22.260864950370031
20
-19.872894258769794
30
0
10
-22.408030030959068
20
-19.91852838930113
30
0
10
-22.587490915505885
20
-19.953191154540793
30
0
10
-22.804030331562355
20
-19.978758141478217
30
0
10
-22.998009661731832
20
-19.981105545725942
30
0
10
-23.148745508770009
20
-19.965485563593116
30
0
10
-23.250448846106181
20
-19.946137003272
30
0
10
-23.301605000436364
20
-19.934230126642479
30
0
0
LINE
5
171
100
AcDbEntity
8
0
100
AcDbLine
10
-23.301605000436364
20
-19.934230126642479
30
0
11
-23.320412408966277
21
-26.461318221846089
31
0
0
LINE
5
172
100
AcDbEntity
8
0
100
AcDbLine
10
-21.669293952494947
20
-11.248445839019864
30
0
11
-17.629927562019454
21
-10.019881791218243
31
0
0
SPLINE
5
173
100
AcDbEntity
8
0
100
AcDbSpline
70
1064
71
5
72
31
73
25
74
0
42
0.000000001
43
0.0000000001
44
0.0000000001
40
0
40
0
40
0
40
0
40
0
40
0
40
0.050000000000000003
40
0.10000000000000001
40
0.15000000000000002
40
0.20000000000000001
40
0.25
40
0.29999999999999999
40
0.34999999999999998
40
0.39999999999999997
40
0.44999999999999996
40
0.49999999999999994
40
0.54999999999999993
40
0.59999999999999998
40
0.65000000000000002
40
0.70000000000000007
40
0.75000000000000011
40
0.80000000000000016
40
0.8500000000000002
40
0.90000000000000024
40
0.95000000000000029
40
1
40
1
40
1
40
1
40
1
40
1
10
-9.0852548115102465
20
-10.035089095742888
30
0
10
-9.0958763352515764
20
-10.077429409283903
30
0
10
-9.1198185228349544
20
-10.164442116069356
30
0
10
-9.1638295085354642
20
-10.301957616831439
30
0
10
-9.2373427839272182
20
-10.496901786786371
30
0
10
-9.3469339252715766
20
-10.746237965522822
30
0
10
-9.4666410650396067
20
-10.984080040581592
30
0
10
-9.5915235967086474
20
-11.19407314182887
30
0
10
-9.7221142082037719
20
-11.364587450353213
30
0
10
-9.8683361935964946
20
-11.493681330643941
30
0
10
-10.045580208390781
20
-11.586923595737966
30
0
10
-10.2689521955768
20
-11.653738087723921
30
0
10
-10.548596155269118
20
-11.704561949545575
30
0
10
-10.883403662102202
20
-11.747292563866722
30
0
10
-11.258679042539045
20
-11.785470827820037
30
0
10
-11.651991569077746
20
-11.819865556477621
30
0
10
-12.037228428349506
20
-11.849331190856841
30
0
10
-12.389120076663501
20
-11.871896705248341
30
0
10
-12.687868831529931
20
-11.885801299136997
30
0
10
-12.923102149214257
20
-11.890417871335252
30
0
10
-13.10008260268841
20
-11.887589215713554
30
0
10
-13.211467329974271
20
-11.882870249786714
30
0
10
-13.287690224547552
20
-11.879882410195737
30
0
10
-13.336775321749453
20
-11.878430117670781
30
0
10
-13.360884336307386
20
-11.877838680886173
30
0
0
SPLINE
5
174
100
AcDbEntity
8
0
100
AcDbSpline
70
1064
71
5
72
41
73
35
74
0
42
0.000000001
43
0.0000000001
44
0.0000000001
40
0
40
0
40
0
40
0
40
0
40
0
40
0.033333333333333333
40
0.066666666666666666
40
0.10000000000000001
40
0.13333333333333333
40
0.16666666666666666
40
0.19999999999999998
40
0.23333333333333331
40
0.26666666666666666
40
0.29999999999999999
40
0.33333333333333331
40
0.36666666666666664
40
0.39999999999999997
40
0.43333333333333329
40
0.46666666666666662
40
0.49999999999999994
40
0.53333333333333333
40
0.56666666666666665
40
0.59999999999999998
40
0.6333333333333333
40
0.66666666666666663
40
0.69999999999999996
40
0.73333333333333328
40
0.76666666666666661
40
0.79999999999999993
40
0.83333333333333326
40
0.86666666666666659
40
0.89999999999999991
40
0.93333333333333324
40
0.96666666666666656
40
1
40
1
40
1
40
1
40
1
40
1
10
-5.0502870479535682
20
-11.278023367179676
30
0
10
-5.0811118139284321
20
-11.336737193125826
30
0
10
-5.1433503447882503
20
-11.457374970692841
30
0
10
-5.2384750781456804
20
-11.647961949667264
30
0
10
-5.3677983881778335
20
-11.920193984935533
30
0
10
-5.5274501222987675
20
-12.283876091370173
30
0
10
-5.6770646083733087
20
-12.661973940487369
30
0
10
-5.8083622212477648
20
-13.045071354141999
30
0
10
-5.9144892222553516
20
-13.425074505433519
30
0
10
-5.9916213799888576
20
-13.796906717237922
30
0
10
-6.0407920016398711
20
-14.16041432374718
30
0
10
-6.0663817387139423
20
-14.519079405419641
30
0
10
-6.0744027061265768
20
-14.878529495511344
30
0
10
-6.0708534822292171
20
-15.24512881210417
30
0
10
-6.0601063208457315
20
-15.624570731066388
30
0
10
-6.0431459260798546
20
-16.02040347118373
30
0
10
-6.0162258509337265
20
-16.432753615419077
30
0
10
-5.9729543467474562
20
-16.858791437008279
30
0
10
-5.906075539090212
20
-17.292999001234108
30
0
10
-5.8092934429225309
20
-17.727515166515516
30
0
10
-5.6792377943196071
20
-18.152370048030186
30
0
10
-5.5170388349421113
20
-18.555881930591873
30
0
10
-5.3309757483140592
20
-18.924648385504202
30
0
10
-5.1355660699224117
20
-19.244860999152952
30
0
10
-4.9462788244759057
20
-19.505115445633951
30
0
10
-4.774991200360998
20
-19.699177742001289
30
0
10
-4.6259216202535809
20
-19.828146955432842
30
0
10
-4.4894182695160803
20
-19.904522831263062
30
0
10
-4.3424165545611579
20
-19.95068050250455
30
0
10
-4.1630801879864672
20
-19.985981833926751
30
0
10
-3.9466331486354851
20
-20.012319424616251
30
0
10
-3.7526634028293868
20
-20.015357277744958
30
0
10
-3.6018729118237269
20
-20.000273934402099
30
0
10
-3.5001013481372096
20
-19.981287506707176
30
0
10
-3.4489031356989246
20
-19.969562794341908
30
0
0
LINE
5
175
100
AcDbEntity
8
0
100
AcDbLine
10
-3.4489031356989246
20
-19.969562794341908
30
0
11
-3.4533288254613006
21
-26.496676485280222
31
0
0
LINE
5
176
100
AcDbEntity
8
0
100
AcDbLine
10
-5.0502870479535682
20
-11.278023367179676
30
0
11
-9.0852548115102465
21
-10.035089095742888
31
0
0
LINE
5
177
100
AcDbEntity
8
0
100
AcDbLine
10
-20.966799728470026
20
56.668436414147784
30
0
11
-20.206952453704012
21
56.241183787194799
31
0
0
LINE
5
178
100
AcDbEntity
8
0
100
AcDbLine
10
-20.206952453704012
20
56.241183787194799
30
0
11
-20.047414478708859
21
56.948068499970589
31
0
0
LINE
5
179
100
AcDbEntity
8
0
100
AcDbLine
10
-19.290877435346289
20
57.178170115688978
30
0
11
-18.560064152166046
21
56.684959476163833
31
0
0
LINE
5
180
100
AcDbEntity
8
0
100
AcDbLine
10
-18.560064152166046
20
56.684959476163833
30
0
11
-18.371492185585119
21
57.457802201511782
31
0
0
LINE
5
181
100
AcDbEntity
8
0
100
AcDbLine
10
-8.2787395529109968
20
56.666661381121131
30
0
11
-8.4645594138264073
21
57.440170426958844
31
0
0
LINE
5
182
100
AcDbEntity
8
0
100
AcDbLine
10
-6.6334412908889711
20
56.217026452707138
30
0
11
-6.790462119763478
21
56.924474558168754
31
0
0
LINE
5
183
100
AcDbEntity
8
0
100
AcDbLine
10
-7.5461753305418888
20
57.157267587684203
30
0
11
-8.2787395529109968
21
56.666661381121131
31
0
0
LINE
5
184
100
AcDbEntity
8
0
100
AcDbLine
10
-5.8720780364789587
20
56.641571718894106
30
0
11
-6.6334412908889711
21
56.217026452707138
31
0
0
LINE
5
185
100
AcDbEntity
8
0
100
AcDbLine
10
4.5853983529489328
20
56.474623914542406
30
0
11
4.7314980662803041
21
57.184407850952731
31
0
0
LINE
5
186
100
AcDbEntity
8
0
100
AcDbLine
10
5.4645206877920511
20
57.422640202944031
30
0
11
6.2045593550687901
21
56.943382144567039
31
0
0
LINE
5
187
100
AcDbEntity
8
0
100
AcDbLine
10
3.8175828572519221
20
56.887385408018496
30
0
11
4.5853983529489328
21
56.474623914542406
31
0
0
LINE
5
188
100
AcDbEntity
8
0
100
AcDbLine
10
6.2045593550687901
20
56.943382144567039
30
0
11
6.3784358968204353
21
57.719662645878259
31
0
0
LINE
5
189
100
AcDbEntity
8
0
100
AcDbLine
10
15.360232473216247
20
56.943382144567032
30
0
11
15.186355931464604
21
57.719662645878259
31
0
0
LINE
5
190
100
AcDbEntity
8
0
100
AcDbLine
10
16.100271140492985
20
57.422640202944031
30
0
11
15.360232473216247
21
56.943382144567032
31
0
0
LINE
5
191
100
AcDbEntity
8
0
100
AcDbLine
10
16.979393475336106
20
56.474623914542406
30
0
11
16.833293762004732
21
57.184407850952731
31
0
0
LINE
5
192
100
AcDbEntity
8
0
100
AcDbLine
10
17.747208971033114
20
56.887385408018496
30
0
11
16.979393475336106
21
56.474623914542406
31
0
0
LINE
5
193
100
AcDbEntity
8
0
100
AcDbLine
10
7.1093823649636221
20
95.252741773835211
30
0
11
3.1356083422058671
21
93.961265216438946
31
0
0
CIRCLE
5
194
100
AcDbEntity
8
0
100
AcDbCircle
10
-13.364981429023915
20
90.820088888425346
30
0
40
0.35185314115027266
0
LINE
5
195
100
AcDbEntity
8
0
100
AcDbLine
10
14.575536586824491
20
95.252741773835211
30
0
11
18.54931060958225
21
93.961265216438946
31
0
0
CIRCLE
5
196
100
AcDbEntity
8
0
100
AcDbCircle
10
-13.367326920337353
20
89.502205388425352
30
0
40
0.29006135395678306
0
SPLINE
5
197
100
AcDbEntity
8
0
100
AcDbSpline
70
1064
71
5
72
36
73
30
74
0
42
0.000000001
43
0.0000000001
44
0.0000000001
40
0
40
0
40
0
40
0
40
0
40
0
40
0.040000000000000001
40
0.080000000000000002
40
0.12
40
0.16
40
0.20000000000000001
40
0.24000000000000002
40
0.28000000000000003
40
0.32000000000000001
40
0.35999999999999999
40
0.39999999999999997
40
0.43999999999999995
40
0.47999999999999993
40
0.51999999999999991
40
0.55999999999999994
40
0.59999999999999998
40
0.64000000000000001
40
0.68000000000000005
40
0.72000000000000008
40
0.76000000000000012
40
0.80000000000000016
40
0.84000000000000019
40
0.88000000000000023
40
0.92000000000000026
40
0.9600000000000003
40
1
40
1
40
1
40
1
40
1
40
1
10
1.2843414925529621
20
85.589988042654724
30
0
10
1.3205557047187881
20
85.586828573939584
30
0
10
1.3954926121224749
20
85.58315684859511
30
0
10
1.5154247950671611
20
85.585591390759419
30
0
10
1.6827769007296118
20
85.603708490261695
30
0
10
1.8721578537665093
20
85.646460597624241
30
0
10
2.0206708176581585
20
85.705254157023674
30
0
10
2.1438771992308436
20
85.779657605829598
30
0
10
2.2737074068429659
20
85.874255330844903
30
0
10
2.4317037554777321
20
86.001148347232416
30
0
10
2.619232660198676
20
86.178523985567267
30
0
10
2.8273238178366369
20
86.424127378518975
30
0
10
3.0411879523873644
20
86.750358059813649
30
0
10
3.2473064552623518
20
87.157899825373576
30
0
10
3.4378910167221215
20
87.632059295407984
30
0
10
3.6086073707318822
20
88.149395989125878
30
0
10
3.7572449333656022
20
88.682701831027785
30
0
10
3.8820371862770422
20
89.206620551148404
30
0
10
3.9801994390504611
20
89.702815453600905
30
0
10
4.0462638461860774
20
90.165788925072249
30
0
10
4.0707759114693545
20
90.607579998743773
30
0
10
4.0376073924370992
20
91.066687151153801
30
0
10
3.9473748369149071
20
91.553400030402145
30
0
10
3.8096500256305377
20
92.063907185920627
30
0
10
3.6407915912691045
20
92.582441458237312
30
0
10
3.4597206930406608
20
93.087847300781235
30
0
10
3.3196492823968091
20
93.464111841331146
30
0
10
3.2234899124794123
20
93.722738167820012
30
0
10
3.1641138644848836
20
93.883670352304833
30
0
10
3.1356083422058671
20
93.961265216438946
30
0
0
LINE
5
198
100
AcDbEntity
8
0
100
AcDbLine
10
-21.669293952494947
20
93.751554160980149
30
0
11
-17.629927562019454
21
94.980118208781775
31
0
0
SPLINE
5
199
100
AcDbEntity
8
0
100
AcDbSpline
70
1064
71
5
72
31
73
25
74
0
42
0.000000001
43
0.0000000001
44
0.0000000001
40
0
40
0
40
0
40
0
40
0
40
0
40
0.050000000000000003
40
0.10000000000000001
40
0.15000000000000002
40
0.20000000000000001
40
0.25
40
0.29999999999999999
40
0.34999999999999998
40
0.39999999999999997
40
0.44999999999999996
40
0.49999999999999994
40
0.54999999999999993
40
0.59999999999999998
40
0.65000000000000002
40
0.70000000000000007
40
0.75000000000000011
40
0.80000000000000016
40
0.8500000000000002
40
0.90000000000000024
40
0.95000000000000029
40
1
40
1
40
1
40
1
40
1
40
1
10
-9.0852548115102465
20
94.964910904257124
30
0
10
-9.0958763693859712
20
94.92257045464703
30
0
10
-9.1198187450037107
20
94.835587191930642
30
0
10
-9.1638303720735532
20
94.698205018736857
30
0
10
-9.2373450245995627
20
94.503564944358999
30
0
10
-9.3469377595625307
20
94.254553631164953
30
0
10
-9.4666453235152144
20
94.016697985208822
30
0
10
-9.5915265017610825
20
93.806178051230575
30
0
10
-9.7221142558857547
20
93.634667696900351
30
0
10
-9.8683335906702379
20
93.504528143687708
30
0
10
-10.045577501468266
20
93.410811461477863
30
0
10
-10.26895393455154
20
93.344662292606131
30
0
10
-10.548607781164732
20
93.295956270105179
30
0
10
-10.883429203088605
20
93.256570170406548
30
0
10
-11.258718889646081
20
93.222118857620274
30
0
10
-11.652041753576119
20
93.190711218034451
30
0
10
-12.037281010125074
20
93.162345770859943
30
0
10
-12.389164734525297
20
93.138097089995924
30
0
10
-12.687895811691616
20
93.119377066013811
30
0
10
-12.923106171302377
20
93.107248333547119
30
0
10
-13.100068920051889
20
93.10151563850016
30
0
10
-13.211455594645923
20
93.100727754350217
30
0
10
-13.287694868905145
20
93.101466271085599
30
0
10
-13.336798348288125
20
93.10241918477611
30
0
10
-13.360918419106481
20
93.103010892790351
30
0
0
SPLINE
5
200
100
AcDbEntity
8
0
100
AcDbSpline
70
1064
71
5
72
41
73
35
74
0
42
0.000000001
43
0.0000000001
44
0.0000000001
40
0
40
0
40
0
40
0
40
0
40
0
40
0.033333333333333333
40
0.066666666666666666
40
0.10000000000000001
40
0.13333333333333333
40
0.16666666666666666
40
0.19999999999999998
40
0.23333333333333331
40
0.26666666666666666
40
0.29999999999999999
40
0.33333333333333331
40
0.36666666666666664
40
0.39999999999999997
40
0.43333333333333329
40
0.46666666666666662
40
0.49999999999999994
40
0.53333333333333333
40
0.56666666666666665
40
0.59999999999999998
40
0.6333333333333333
40
0.66666666666666663
40
0.69999999999999996
40
0.73333333333333328
40
0.76666666666666661
40
0.79999999999999993
40
0.83333333333333326
40
0.86666666666666659
40
0.89999999999999991
40
0.93333333333333324
40
0.96666666666666656
40
1
40
1
40
1
40
1
40
1
40
1
10
-21.669293952494947
20
93.751554160980149
30
0
10
-21.639568465387907
20
93.694441166088652
30
0
10
-21.579613501291
20
93.57717796189759
30
0
10
-21.488169175717424
20
93.392171615692305
30
0
10
-21.364095480404739
20
93.128304511363481
30
0
10
-21.210648013002917
20
92.775988519037156
30
0
10
-21.065760407220989
20
92.409398219446572
30
0
10
-20.936734692382579
20
92.037269899384896
30
0
10
-20.829887197556971
20
91.667290101867806
30
0
10
-20.749329369731996
20
91.304686905438771
30
0
10
-20.695325129193481
20
90.950366111152874
30
0
10
-20.66498921363257
20
90.601578829019616
30
0
10
-20.653745341822443
20
90.253405942490019
30
0
10
-20.656488892823596
20
89.899936571950903
30
0
10
-20.668914202496033
20
89.535597792348227
30
0
10
-20.688648839650551
20
89.156340195388736
30
0
10
-20.716796646377539
20
88.761102469783125
30
0
10
-20.757169840107071
20
88.351768624784327
30
0
10
-20.814864216311996
20
87.93270071034155
30
0
10
-20.895054059718841
20
87.510440006121129
30
0
10
-21.001716756585605
20
87.093346963662029
30
0
10
-21.136326328784406
20
86.691307841491607
30
0
10
-21.29665699684033
20
86.315367256589099
30
0
10
-21.475193508860755
20
85.977548784869214
30
0
10
-21.661399000906119
20
85.689007003564626
30
0
10
-21.8443337657915
20
85.458141862736028
30
0
10
-22.015349307487647
20
85.288367309887619
30
0
10
-22.170287062569802
20
85.176732380675261
30
0
10
-22.313100393267877
20
85.110255852610265
30
0
10
-22.453827490292465
20
85.071063864072343
30
0
10
-22.602892735501392
20
85.046644420365027
30
0
10
-22.733168205010692
20
85.042012017372301
30
0
10
-22.837701590896838
20
85.052325347472461
30
0
10
-22.910406708125539
20
85.066337431018184
30
0
10
-22.947512842073962
20
85.075128896555952
30
0
0
LINE
5
201
100
AcDbEntity
8
0
100
AcDbLine
10
-3.802959737740832
20
85.041056550247731
30
0
11
-4.3000001308486206
21
70.500002249958001
31
0
0
LINE
5
202
100
AcDbEntity
8
0
100
AcDbLine
10
-22.947512842073962
20
85.075128896555952
30
0
11
-22.502234055121303
21
70.532397512175478
31
0
0
SPLINE
5
203
100
AcDbEntity
8
0
100
AcDbSpline
70
1064
71
5
72
26
73
20
74
0
42
0.000000001
43
0.0000000001
44
0.0000000001
40
0
40
0
40
0
40
0
40
0
40
0
40
0.066666666666666666
40
0.13333333333333333
40
0.20000000000000001
40
0.26666666666666666
40
0.33333333333333331
40
0.39999999999999997
40
0.46666666666666662
40
0.53333333333333333
40
0.59999999999999998
40
0.66666666666666663
40
0.73333333333333328
40
0.79999999999999993
40
0.86666666666666659
40
0.93333333333333324
40
1
40
1
40
1
40
1
40
1
40
1
10
2.3107734627231209
20
71.133399843197267
30
0
10
2.3607861593702255
20
71.13944607802712
30
0
10
2.4702536842883198
20
71.149700430902456
30
0
10
2.6627836532089089
20
71.159569167936468
30
0
10
2.9726790653440731
20
71.160541233249347
30
0
10
3.4305799392640441
20
71.136132023147866
30
0
10
3.9382223944011288
20
71.081353398000147
30
0
10
4.4800700475453716
20
70.995881637763318
30
0
10
5.0494810671416417
20
70.885390730208755
30
0
10
5.6446167943514665
20
70.758852815283163
30
0
10
6.2661323582751933
20
70.626968346482286
30
0
10
6.9141089022845117
20
70.500248843419868
30
0
10
7.5853370451763888
20
70.387345525811853
30
0
10
8.2699860740189184
20
70.293074021906946
30
0
10
8.9540120842353463
20
70.219347161596076
30
0
10
9.6218342019349627
20
70.166197403630918
30
0
10
10.131438695753573
20
70.13934953830659
30
0
10
10.494815725288277
20
70.127494291527469
30
0
10
10.728076655958574
20
70.123186000467214
30
0
10
10.842459475894056
20
70.121930663881116
30
0
0
SPLINE
5
204
100
AcDbEntity
8
0
100
AcDbSpline
70
1064
71
5
72
31
73
25
74
0
42
0.000000001
43
0.0000000001
44
0.0000000001
40
0
40
0
40
0
40
0
40
0
40
0
40
0.050000000000000003
40
0.10000000000000001
40
0.15000000000000002
40
0.20000000000000001
40
0.25
40
0.29999999999999999
40
0.34999999999999998
40
0.39999999999999997
40
0.44999999999999996
40
0.49999999999999994
40
0.54999999999999993
40
0.59999999999999998
40
0.65000000000000002
40
0.70000000000000007
40
0.75000000000000011
40
0.80000000000000016
40
0.8500000000000002
40
0.90000000000000024
40
0.95000000000000029
40
1
40
1
40
1
40
1
40
1
40
1
10
-17.629927562019454
20
94.980118208781775
30
0
10
-17.619456781022489
20
94.937740220271152
30
0
10
-17.595824171457163
20
94.850672286402713
30
0
10
-17.552301831023787
20
94.713134325417727
30
0
10
-17.479480459858451
20
94.51823381081752
30
0
10
-17.370774767643635
20
94.268833982959805
30
0
10
-17.251914602246007
20
94.0305537482311
30
0
10
-17.127783554663051
20
93.819590636981516
30
0
10
-16.997807113894098
20
93.647616545867123
30
0
10
-16.852051933333229
20
93.516957353635206
30
0
10
-16.675142727152817
20
93.422610370598548
30
0
10
-16.452003165175768
20
93.355666518898289
30
0
10
-16.172524457813171
20
93.305965385260407
30
0
10
-15.837845350630468
20
93.265387748013168
30
0
10
-15.462680669948837
20
93.229600820812237
30
0
10
-15.069472092268295
20
93.196793358962879
30
0
10
-14.684336242165168
20
93.167056843616749
30
0
10
-14.332541059396629
20
93.141555796542463
30
0
10
-14.033878508050995
20
93.121772566619413
30
0
10
-13.798712810351789
20
93.108806686592715
30
0
10
-13.621771588010478
20
93.102444134134117
30
0
10
-13.510388423494277
20
93.101259777365414
30
0
10
-13.434147003477124
20
93.10172691795573
30
0
10
-13.385040443293097
20
93.102505043211082
30
0
10
-13.360918419106481
20
93.103010892790351
30
0
0
SPLINE
5
205
100
AcDbEntity
8
0
100
AcDbSpline
70
1064
71
5
72
41
73
35
74
0
42
0.000000001
43
0.0000000001
44
0.0000000001
40
0
40
0
40
0
40
0
40
0
40
0
40
0.033333333333333333
40
0.066666666666666666
40
0.10000000000000001
40
0.13333333333333333
40
0.16666666666666666
40
0.19999999999999998
40
0.23333333333333331
40
0.26666666666666666
40
0.29999999999999999
40
0.33333333333333331
40
0.36666666666666664
40
0.39999999999999997
40
0.43333333333333329
40
0.46666666666666662
40
0.49999999999999994
40
0.53333333333333333
40
0.56666666666666665
40
0.59999999999999998
40
0.6333333333333333
40
0.66666666666666663
40
0.69999999999999996
40
0.73333333333333328
40
0.76666666666666661
40
0.79999999999999993
40
0.83333333333333326
40
0.86666666666666659
40
0.89999999999999991
40
0.93333333333333324
40
0.96666666666666656
40
1
40
1
40
1
40
1
40
1
40
1
10
-5.0502870479535682
20
93.721976632820329
30
0
10
-5.0802156387862256
20
93.664969806737844
30
0
10
-5.1405876180177339
20
93.547920753342737
30
0
10
-5.2326898889763278
20
93.363241072543374
30
0
10
-5.3577020255311103
20
93.099817276485908
30
0
10
-5.5124025793231244
20
92.748049707831541
30
0
10
-5.6585941346989479
20
92.38197745376182
30
0
10
-5.7889436120362081
20
92.010310754366259
30
0
10
-5.8971073622545784
20
91.640713621178435
30
0
10
-5.9789553552202612
20
91.278399465047414
30
0
10
-6.0342204481473649
20
90.924273141873854
30
0
10
-6.0657976696603182
20
90.575596049088929
30
0
10
-6.0782807814467361
20
90.227465390445232
30
0
10
-6.0767954117115845
20
89.873988493523825
30
0
10
-6.0656670339821979
20
89.509607794459683
30
0
10
-6.0472824781686256
20
89.130282355211065
30
0
10
-6.020541686879608
20
88.734946942117617
30
0
10
-5.9816257607593837
20
88.325471983020705
30
0
10
-5.9254234100275802
20
87.906201361901282
30
0
10
-5.8467370992429819
20
87.483657899272345
30
0
10
-5.7415597085613683
20
87.06618783632068
30
0
10
-5.6083820356005809
20
86.663672122207331
30
0
10
-5.4493905327442365
20
86.287163226541523
30
0
10
-5.2720576067095761
20
85.948711399388216
30
0
10
-5.0868803502944075
20
85.65950865297529
30
0
10
-4.9047685020047922
20
85.427993823717955
30
0
10
-4.7343583512359668
20
85.25761162156202
30
0
10
-4.5798189389397397
20
85.145425903142566
30
0
10
-4.4372431342120855
20
85.07844145632923
30
0
10
-4.2966564314214066
20
85.03874880208464
30
0
10
-4.1476790508268087
20
85.013798919692633
30
0
10
-4.0174208955072048
20
85.008702834322861
30
0
10
-3.9128514618366093
20
85.018644015559673
30
0
10
-3.8400969295886891
20
85.032397218601716
30
0
10
-3.802959737740832
20
85.041056550247731
30
0
0
LINE
5
206
100
AcDbEntity
8
0
100
AcDbLine
10
-22.502234055121303
20
70.532397512175478
30
0
11
-13.401117092984961
21
70.516199881066697
31
0
0
LINE
5
207
100
AcDbEntity
8
0
100
AcDbLine
10
20.400577459235151
20
85.589988042654724
30
0
11
19.37414548906499
21
71.133399843197267
31
0
0
SPLINE
5
208
100
AcDbEntity
8
0
100
AcDbSpline
70
1064
71
5
72
36
73
30
74
0
42
0.000000001
43
0.0000000001
44
0.0000000001
40
0
40
0
40
0
40
0
40
0
40
0
40
0.040000000000000001
40
0.080000000000000002
40
0.12
40
0.16
40
0.20000000000000001
40
0.24000000000000002
40
0.28000000000000003
40
0.32000000000000001
40
0.35999999999999999
40
0.39999999999999997
40
0.43999999999999995
40
0.47999999999999993
40
0.51999999999999991
40
0.55999999999999994
40
0.59999999999999998
40
0.64000000000000001
40
0.68000000000000005
40
0.72000000000000008
40
0.76000000000000012
40
0.80000000000000016
40
0.84000000000000019
40
0.88000000000000023
40
0.92000000000000026
40
0.9600000000000003
40
1
40
1
40
1
40
1
40
1
40
1
10
20.400577459235151
20
85.589988042654724
30
0
10
20.364363247069324
20
85.586828573939584
30
0
10
20.289426341165974
20
85.583156848595095
30
0
10
20.169494164973475
20
85.585591390759376
30
0
10
20.002142073716502
20
85.603708490261681
30
0
10
19.81276113209864
20
85.64646059762434
30
0
10
19.664248162011418
20
85.705254157023418
30
0
10
19.541041761836361
20
85.779657605829357
30
0
10
19.411211536013088
20
85.874255330845003
30
0
10
19.253215178511635
20
86.001148347232871
30
0
10
19.065686275154327
20
86.178523985567864
30
0
10
18.857595126021682
20
86.424127378519387
30
0
10
18.643731001902903
20
86.750358059813465
30
0
10
18.437612506975604
20
87.157899825373136
30
0
10
18.247027949218921
20
87.632059295407316
30
0
10
18.076311594666144
20
88.149395989125139
30
0
10
17.927674028492376
20
88.682701831027131
30
0
10
17.802881770898878
20
89.206620551147992
30
0
10
17.704719514200459
20
89.702815453600749
30
0
10
17.63865510521288
20
90.165788925072277
30
0
10
17.614143040359103
20
90.607579998743816
30
0
10
17.647311560366035
20
91.066687151153602
30
0
10
17.737544116634442
20
91.553400030401733
30
0
10
17.875268928065623
20
92.063907185920101
30
0
10
18.04412736201704
20
92.582441458236872
30
0
10
18.225198259534434
20
93.087847300781036
30
0
10
18.365269669657962
20
93.464111841331075
30
0
10
18.461429039357188
20
93.722738167819983
30
0
10
18.520805087303234
20
93.883670352304833
30
0
10
18.54931060958225
20
93.961265216438946
30
0
0
LINE
5
209
100
AcDbEntity
8
0
100
AcDbLine
10
-13.359794776663085
20
93.734362553564836
30
0
11
-13.389532030572983
21
77.025609023505609
31
0
0
CIRCLE
5
210
100
AcDbEntity
8
0
100
AcDbCircle
10
-13.3743633905633
20
85.548556975456819
30
0
40
0.11475877302838484
0
CIRCLE
5
211
100
AcDbEntity
8
0
100
AcDbCircle
10
-13.372017902964235
20
86.866438388425351
30
0
40
0.14862939086689925
0
LINE
5
212
100
AcDbEntity
8
0
100
AcDbLine
10
-5.0502870479535682
20
93.721976632820329
30
0
11
-9.0852548115102465
21
94.964910904257124
31
0
0
LINE
5
213
100
AcDbEntity
8
0
100
AcDbLine
10
1.2843414925529621
20
85.589988042654724
30
0
11
2.3107734627231209
21
71.133399843197267
31
0
0
CIRCLE
5
214
100
AcDbEntity
8
0
100
AcDbCircle
10
-13.369672411650793
20
88.184321888425345
30
0
40
0.22307000304931252
0
CIRCLE
5
215
100
AcDbEntity
8
0
100
AcDbCircle
10
-13.362635937710474
20
92.137972388425354
30
0
40
0.41746354610022107
0
LINE
5
216
100
AcDbEntity
8
0
100
AcDbLine
10
-4.3000001308486206
20
70.500002249958001
30
0
11
-13.401117092984961
21
70.516199881066697
31
0
0
SPLINE
5
217
100
AcDbEntity
8
0
100
AcDbSpline
70
1064
71
5
72
31
73
25
74
0
42
0.000000001
43
0.0000000001
44
0.0000000001
40
0
40
0
40
0
40
0
40
0
40
0
40
0.050000000000000003
40
0.10000000000000001
40
0.15000000000000002
40
0.20000000000000001
40
0.25
40
0.29999999999999999
40
0.34999999999999998
40
0.39999999999999997
40
0.44999999999999996
40
0.49999999999999994
40
0.54999999999999993
40
0.59999999999999998
40
0.65000000000000002
40
0.70000000000000007
40
0.75000000000000011
40
0.80000000000000016
40
0.8500000000000002
40
0.90000000000000024
40
0.95000000000000029
40
1
40
1
40
1
40
1
40
1
40
1
10
14.575536586824491
20
95.252741773835211
30
0
10
14.555014202572272
20
95.19622224046806
30
0
10
14.511261621722172
20
95.079940636168402
30
0
10
14.437509450952607
20
94.895790799111978
30
0
10
14.324563752782202
20
94.633060937934857
30
0
10
14.168334098024065
20
94.289102491162538
30
0
10
14.008664921034738
20
93.946465514305544
30
0
10
13.856619783418852
20
93.622124664273656
30
0
10
13.719838692462927
20
93.329487053011135
30
0
10
13.599667984765283
20
93.074728285816235
30
0
10
13.48804658560916
20
92.852828295776717
30
0
10
13.37145542535373
20
92.652129890412439
30
0
10
13.235202668542053
20
92.45928517901865
30
0
10
13.067148764438254
20
92.263499997969589
30
0
10
12.86268083896895
20
92.0622578186032
30
0
10
12.625040458174084
20
91.861396323194583
30
0
10
12.362348425999897
20
91.671189343214877
30
0
10
12.085668172141482
20
91.503565976444762
30
0
10
11.806837600413502
20
91.369147605137528
30
0
10
11.536188689255816
20
91.273726571822465
30
0
10
11.281166557627248
20
91.216930460091305
30
0
10
11.093757027385895
20
91.199782882086851
30
0
10
10.963854984608712
20
91.201046798938762
30
0
10
10.882114533113805
20
91.20788610961236
30
0
10
10.842459475894056
20
91.212804781921591
30
0
0
LINE
5
218
100
AcDbEntity
8
0
100
AcDbLine
10
10.842459475894056
20
93.532787260397583
30
0
11
10.842459475894056
21
76.252786708918507
31
0
0
SPLINE
5
219
100
AcDbEntity
8
0
100
AcDbSpline
70
1064
71
5
72
26
73
20
74
0
42
0.000000001
43
0.0000000001
44
0.0000000001
40
0
40
0
40
0
40
0
40
0
40
0
40
0.066666666666666666
40
0.13333333333333333
40
0.20000000000000001
40
0.26666666666666666
40
0.33333333333333331
40
0.39999999999999997
40
0.46666666666666662
40
0.53333333333333333
40
0.59999999999999998
40
0.66666666666666663
40
0.73333333333333328
40
0.79999999999999993
40
0.86666666666666659
40
0.93333333333333324
40
1
40
1
40
1
40
1
40
1
40
1
10
19.37414548906499
20
71.133399843197267
30
0
10
19.324132792417885
20
71.13944607802712
30
0
10
19.214665267499953
20
71.149700430902456
30
0
10
19.022135298580146
20
71.15956916793651
30
0
10
18.712239886445587
20
71.160541233249432
30
0
10
18.254339012524813
20
71.136132023148008
30
0
10
17.746696557386528
20
71.08135339800009
30
0
10
17.204848904241494
20
70.995881637762906
30
0
10
16.635437884645015
20
70.885390730208016
30
0
10
16.040302157435523
20
70.758852815282268
30
0
10
15.418786593512383
20
70.626968346481647
30
0
10
14.770810049503639
20
70.500248843419797
30
0
10
14.099581906612039
20
70.387345525812421
30
0
10
13.414932877769546
20
70.293074021907756
30
0
10
12.730906867552976
20
70.219347161596787
30
0
10
12.063084749853193
20
70.166197403631315
30
0
10
11.553480256034524
20
70.139349538306732
30
0
10
11.190103226499838
20
70.127494291527483
30
0
10
10.95684229582954
20
70.123186000467214
30
0
10
10.842459475894056
20
70.121930663881116
30
0
0
SPLINE
5
220
100
AcDbEntity
8
0
100
AcDbSpline
70
1064
71
5
72
31
73
25
74
0
42
0.000000001
43
0.0000000001
44
0.0000000001
40
0
40
0
40
0
40
0
40
0
40
0
40
0.050000000000000003
40
0.10000000000000001
40
0.15000000000000002
40
0.20000000000000001
40
0.25
40
0.29999999999999999
40
0.34999999999999998
40
0.39999999999999997
40
0.44999999999999996
40
0.49999999999999994
40
0.54999999999999993
40
0.59999999999999998
40
0.65000000000000002
40
0.70000000000000007
40
0.75000000000000011
40
0.80000000000000016
40
0.8500000000000002
40
0.90000000000000024
40
0.95000000000000029
40
1
40
1
40
1
40
1
40
1
40
1
10
7.1093823649636221
20
95.252741773835211
30
0
10
7.1299047492158429
20
95.19622224046806
30
0
10
7.1736573300659279
20
95.079940636168516
30
0
10
7.2474095008354888
20
94.895790799112518
30
0
10
7.3603551990059159
20
94.633060937936477
30
0
10
7.5165848537641358
20
94.28910249116538
30
0
10
7.6762540307534763
20
93.946465514308642
30
0
10
7.8282991683692877
20
93.622124664275589
30
0
10
7.9650802593251662
20
93.329487053011064
30
0
10
8.0852509670228425
20
93.074728285814686
30
0
10
8.1968723661790399
20
92.852828295774756
30
0
10
8.3134635264344823
20
92.652129890411018
30
0
10
8.4497162832461417
20
92.459285179018323
30
0
10
8.6177701873497732
20
92.263499997970158
30
0
10
8.82223811281896
20
92.062257818604181
30
0
10
9.0598784936136951
20
91.861396323195592
30
0
10
9.3225705257878797
20
91.671189343215502
30
0
10
9.5992507796464572
20
91.503565976444989
30
0
10
9.8780813513746999
20
91.369147605137357
30
0
10
10.148730262532629
20
91.273726571822223
30
0
10
10.40375239416122
20
91.216930460091149
30
0
10
10.591161924402357
20
91.199782882086794
30
0
10
10.721063967179429
20
91.201046798938762
30
0
10
10.802804418674308
20
91.20788610961236
30
0
10
10.842459475894056
20
91.212804781921591
30
0
0
LINE
5
221
100
AcDbEntity
8
0
100
AcDbLine
10
-23.364821113897914
20
46.656638480227564
30
0
11
-21.900000698923122
21
45.900001464866271
31
0
0
LINE
5
222
100
AcDbEntity
8
0
100
AcDbLine
10
-21.900000698923122
20
45.900001464866271
30
0
11
-23.371072266452867
21
45.4372222804109
31
0
0
LINE
5
223
100
AcDbEntity
8
0
100
AcDbLine
10
-23.374404137388165
20
44.249674717517358
30
0
11
-21.900000698923122
21
43.500001464866273
31
0
0
LINE
5
224
100
AcDbEntity
8
0
100
AcDbLine
10
-21.900000698923122
20
43.500001464866273
30
0
11
-23.375258047164369
21
43.034513573149226
31
0
0
LINE
5
225
100
AcDbEntity
8
0
100
AcDbLine
10
-4.9772129070047644
20
45.869883285402665
30
0
11
-3.5077979075894974
21
45.40187079641008
31
0
0
LINE
5
226
100
AcDbEntity
8
0
100
AcDbLine
10
-3.5097085442501563
20
46.621301522097738
30
0
11
-4.9772129070047644
21
45.869883285402665
31
0
0
LINE
5
227
100
AcDbEntity
8
0
100
AcDbLine
10
-3.5086930985741063
20
44.2143188968573
30
0
11
-4.9857556368014562
21
43.469898489249232
31
0
0
LINE
5
228
100
AcDbEntity
8
0
100
AcDbLine
10
-4.9857556368014562
20
43.469898489249232
30
0
11
-3.5121645247556073
21
42.999162410990465
31
0
0
LINE
5
229
100
AcDbEntity
8
0
100
AcDbLine
10
1.3960529501985257
20
47.194425575970698
30
0
11
4.9000001563800595
21
47.000001499972001
31
0
0
LINE
5
230
100
AcDbEntity
8
0
100
AcDbLine
10
4.9000001563800595
20
47.000001499972001
30
0
11
1.5875046575579232
21
45.990132578064802
31
0
0
LINE
5
231
100
AcDbEntity
8
0
100
AcDbLine
10
1.7728596327929476
20
44.82418999190903
30
0
11
3.1463958982916913
21
44.666871381792006
31
0
0
LINE
5
232
100
AcDbEntity
8
0
100
AcDbLine
10
3.1463958982916913
20
44.666871381792006
30
0
11
1.9643113401523391
21
43.619896994003135
31
0
0
LINE
5
233
100
AcDbEntity
8
0
100
AcDbLine
10
16.664791671904979
20
47.000001499972001
30
0
11
19.977287170727116
21
45.990132578064802
31
0
0
LINE
5
234
100
AcDbEntity
8
0
100
AcDbLine
10
18.418395929993345
20
44.666871381792006
30
0
11
19.600480488132696
21
43.619896994003135
31
0
0
LINE
5
235
100
AcDbEntity
8
0
100
AcDbLine
10
20.168738878086511
20
47.194425575970698
30
0
11
16.664791671904979
21
47.000001499972001
31
0
0
LINE
5
236
100
AcDbEntity
8
0
100
AcDbLine
10
19.791932195492087
20
44.82418999190903
30
0
11
18.418395929993345
21
44.666871381792006
31
0
0
LINE
5
237
100
AcDbEntity
8
0
100
AcDbLine
10
1.224277930801424
20
48.274945859275057
30
0
11
1.3960529501985257
21
47.194425575970698
31
0
0
LINE
5
238
100
AcDbEntity
8
0
100
AcDbLine
10
1.5875046575579232
20
45.990132578064802
30
0
11
1.7728596327929476
21
44.82418999190903
31
0
0
LINE
5
239
100
AcDbEntity
8
0
100
AcDbLine
10
1.9643113401523391
20
43.619896994003135
30
0
11
2.2507099009715827
21
41.8183576598176
31
0
0
LINE
5
240
100
AcDbEntity
8
0
100
AcDbLine
10
-21.729354258002232
20
56.436504573059281
30
0
11
-20.966799728470026
21
56.668436414147784
31
0
0
LINE
5
241
100
AcDbEntity
8
0
100
AcDbLine
10
-20.047414478708859
20
56.948068499970589
30
0
11
-19.290877435346289
21
57.178170115688978
31
0
0
LINE
5
242
100
AcDbEntity
8
0
100
AcDbLine
10
-18.371492185585119
20
57.457802201511782
30
0
11
-17.689993309081654
21
57.6650808720931
31
0
0
LINE
5
243
100
AcDbEntity
8
0
100
AcDbLine
10
-23.361668562187898
20
47.750727689977857
30
0
11
-23.364821113897914
21
46.656638480227564
31
0
0
LINE
5
244
100
AcDbEntity
8
0
100
AcDbLine
10
-23.368332304058512
20
45.438084235458014
30
0
11
-23.371760507180653
21
44.24833054074405
31
0
0
LINE
5
245
100
AcDbEntity
8
0
100
AcDbLine
10
-23.375258047164369
20
43.034513573149226
30
0
11
-23.380475970717814
21
41.223639594774248
31
0
0
LINE
5
246
100
AcDbEntity
8
0
100
AcDbLine
10
-3.510534784522588
20
45.402742498812763
30
0
11
-3.5113414965922951
21
44.212984138523659
31
0
0
LINE
5
247
100
AcDbEntity
8
0
100
AcDbLine
10
-3.508693098574108
20
44.2143188968573
30
0
11
-4.9857556368014562
21
43.469898489249232
31
0
0
LINE
5
248
100
AcDbEntity
8
0
100
AcDbLine
10
-4.9857556368014562
20
43.469898489249232
30
0
11
-3.5121645247556086
21
42.999162410990465
31
0
0
LINE
5
249
100
AcDbEntity
8
0
100
AcDbLine
10
-4.9772129070047644
20
45.869883285402665
30
0
11
-3.5077979075894974
21
45.40187079641008
31
0
0
LINE
5
250
100
AcDbEntity
8
0
100
AcDbLine
10
-3.5097085442501563
20
46.621301522097738
30
0
11
-4.9772129070047644
21
45.869883285402665
31
0
0
LINE
5
251
100
AcDbEntity
8
0
100
AcDbLine
10
-3.5121645247556073
20
42.999162410990465
30
0
11
-3.5133923872128388
21
41.188281331340114
31
0
0
LINE
5
252
100
AcDbEntity
8
0
100
AcDbLine
10
-3.5089666974504627
20
47.715395022278429
30
0
11
-3.5097085442501563
21
46.621301522097738
31
0
0
LINE
5
253
100
AcDbEntity
8
0
100
AcDbLine
10
-3.510534784522588
20
45.402742498812763
30
0
11
-3.5113414965922951
21
44.212984138523659
31
0
0
LINE
5
254
100
AcDbEntity
8
0
100
AcDbLine
10
-8.4645594138264073
20
57.440170426958844
30
0
11
-9.1453161707133184
21
57.649873559759151
31
0
0
LINE
5
255
100
AcDbEntity
8
0
100
AcDbLine
10
-5.1103538922849738
20
56.406927056536908
30
0
11
-5.8720780364789587
21
56.641571718894106
31
0
0
LINE
5
256
100
AcDbEntity
8
0
100
AcDbLine
10
-6.790462119763478
20
56.924474558168754
30
0
11
-7.5461753305418888
21
57.157267587684203
31
0
0
LINE
5
257
100
AcDbEntity
8
0
100
AcDbLine
10
3.8175828572519221
20
56.887385408018496
30
0
11
3.075544780454329
21
56.646223033059272
31
0
0
LINE
5
258
100
AcDbEntity
8
0
100
AcDbLine
10
7.0493188032120839
20
57.937699590455544
30
0
11
6.3784358968204353
21
57.719662645878259
31
0
0
LINE
5
259
100
AcDbEntity
8
0
100
AcDbLine
10
5.4645206877920511
20
57.422640202944031
30
0
11
4.7314980662803041
21
57.184407850952717
31
0
0
LINE
5
260
100
AcDbEntity
8
0
100
AcDbLine
10
14.515473025072954
20
57.937699590455544
30
0
11
15.186355931464604
21
57.719662645878259
31
0
0
LINE
5
261
100
AcDbEntity
8
0
100
AcDbLine
10
16.100271140492985
20
57.422640202944031
30
0
11
16.833293762004732
21
57.184407850952731
31
0
0
LINE
5
262
100
AcDbEntity
8
0
100
AcDbLine
10
17.747208971033114
20
56.887385408018496
30
0
11
18.489247047830712
21
56.646223033059272
31
0
0
LINE
5
263
100
AcDbEntity
8
0
100
AcDbLine
10
20.340513897483611
20
48.274945859275057
30
0
11
20.168738878086511
21
47.194425575970698
31
0
0
LINE
5
264
100
AcDbEntity
8
0
100
AcDbLine
10
19.977287170727116
20
45.990132578064802
30
0
11
19.791932195492087
21
44.82418999190903
31
0
0
LINE
5
265
100
AcDbEntity
8
0
100
AcDbLine
10
19.600480488132696
20
43.619896994003135
30
0
11
19.314081927313453
21
41.8183576598176
31
0
0
LINE
5
266
100
AcDbEntity
8
0
100
AcDbLine
10
-13.423442475279169
20
54.405467320097181
30
0
11
-13.421956523644855
21
54.405467320097181
31
0
0
LINE
5
267
100
AcDbEntity
8
0
100
AcDbLine
10
-13.421956523644855
20
54.405467320097181
30
0
11
-13.421956523644855
21
55.24039308999415
31
0
0
LINE
5
268
100
AcDbEntity
8
0
100
AcDbLine
10
-13.421956523644855
20
55.24039308999415
30
0
11
-13.423442475279169
21
55.24039308999415
31
0
0
LINE
5
269
100
AcDbEntity
8
0
100
AcDbLine
10
-13.423442475279169
20
55.24039308999415
30
0
11
-13.423442475279169
21
54.405467320097181
31
0
0
LINE
5
270
100
AcDbEntity
8
0
100
AcDbLine
10
-13.423442475279169
20
54.405467320097181
30
0
11
-13.421956523644855
21
55.24039308999415
31
0
0
LINE
5
271
100
AcDbEntity
8
0
100
AcDbLine
10
-13.421956523644855
20
54.405467320097181
30
0
11
-13.423442475279169
21
55.24039308999415
31
0
0
LWPOLYLINE
5
272
100
AcDbEntity
8
0
100
AcDbPolyline
90
4
70
1
43
0.0
10
-13.005700161348706
20
54.823673180862826
10
-13.421956523644855
20
54.405930866932358
10
-13.839698837575316
20
54.822187229228504
10
-13.42344247527917
20
55.239929543158972
0
LWPOLYLINE
5
273
100
AcDbEntity
8
0
100
AcDbPolyline
90
4
70
1
43
0.0
10
-13.073192406867411
20
53.50442049857206
10
-13.425671197249063
20
53.153194121137638
10
-13.776897574683488
20
53.505672911519291
10
-13.424418784301837
20
53.856899288953713
0
LWPOLYLINE
5
274
100
AcDbEntity
8
0
100
AcDbPolyline
90
4
70
1
43
0.0
10
-13.137329587512507
20
52.186646971775744
10
-13.427906715358827
20
51.897102310469307
10
-13.71745137666527
20
52.187679438315627
10
-13.426874248818946
20
52.47722409962207
0
LWPOLYLINE
5
275
100
AcDbEntity
8
0
100
AcDbPolyline
90
4
70
1
43
0.0
10
-13.206666323636853
20
50.86888269884156
10
-13.430132979606457
20
50.646210055280207
10
-13.652805623167808
20
50.869676711249809
10
-13.429338967198206
20
51.092349354811162
0
LWPOLYLINE
5
276
100
AcDbEntity
8
0
100
AcDbPolyline
90
4
70
1
43
0.0
10
-13.283452309238479
20
49.551131683642161
10
-13.432345986119293
20
49.402767049568396
10
-13.580710620193058
20
49.551660726449207
10
-13.431816943312246
20
49.700025360522972
0
LWPOLYLINE
5
277
100
AcDbEntity
8
0
100
AcDbPolyline
90
4
70
1
43
0.0
10
-13.319668361033964
20
48.233310551505824
10
-13.434631192886169
20
48.118756200796284
10
-13.549185543595705
20
48.233719032648487
10
-13.4342227117435
20
48.348273383358027
0
LINE
5
278
100
AcDbEntity
8
0
100
AcDbLine
10
14.575536586824491
20
11.252741773835204
30
0
11
18.54931060958225
21
9.9612652164389335
31
0
0
LINE
5
279
100
AcDbEntity
8
0
100
AcDbLine
10
20.400577459235151
20
1.5899880426547179
30
0
11
19.37414548906499
21
-4.8666001568027388
31
0
0
LINE
5
280
100
AcDbEntity
8
0
100
AcDbLine
10
7.1093823649636221
20
11.252741773835204
30
0
11
7.1093823649636221
21
6.1574560289950595
31
0
0
LINE
5
281
100
AcDbEntity
8
0
100
AcDbLine
10
7.1093823649636221
20
6.1574560289950595
30
0
11
10.842459475894056
21
6.1574560289950586
31
0
0
LINE
5
282
100
AcDbEntity
8
0
100
AcDbLine
10
14.575536586824491
20
6.1574560289950595
30
0
11
10.842459475894056
21
6.1574560289950595
31
0
0
LINE
5
283
100
AcDbEntity
8
0
100
AcDbLine
10
14.575536586824491
20
11.252741773835204
30
0
11
14.575536586824491
21
6.1574560289950595
31
0
0
LINE
5
284
100
AcDbEntity
8
0
100
AcDbLine
10
-17.629927562019457
20
10.980118208781757
30
0
11
-17.629927562019457
21
9.3074581279184461
31
0
0
LINE
5
285
100
AcDbEntity
8
0
100
AcDbLine
10
-17.629927562019457
20
9.3074581279184461
30
0
11
-9.0852548115102465
21
9.3074581279184461
31
0
0
LINE
5
286
100
AcDbEntity
8
0
100
AcDbLine
10
-9.0852548115102465
20
9.3074581279184461
30
0
11
-9.0852548115102465
21
10.964910904257112
31
0
0
LINE
5
287
100
AcDbEntity
8
0
100
AcDbLine
10
-21.669293952494947
20
9.7515541609801364
30
0
11
-20.474411011219786
21
6.2459540256387287
31
0
0
LINE
5
288
100
AcDbEntity
8
0
100
AcDbLine
10
-20.474411011219786
20
6.2459540256387287
30
0
11
-21.116224351162305
21
2.3743703298564149
31
0
0
LINE
5
289
100
AcDbEntity
8
0
100
AcDbLine
10
-21.116224351162305
20
2.3743703298564149
30
0
11
-22.317036406538637
21
0.98722536933547933
31
0
0
LINE
5
290
100
AcDbEntity
8
0
100
AcDbLine
10
-22.317036406538637
20
0.98722536933547933
30
0
11
-23.301605000436371
21
1.06576987335752
31
0
0
LINE
5
291
100
AcDbEntity
8
0
100
AcDbLine
10
-5.0502870479535682
20
9.7219766328203239
30
0
11
-6.2576405008598002
21
6.2206518561091615
31
0
0
LINE
5
292
100
AcDbEntity
8
0
100
AcDbLine
10
-6.2576405008598002
20
6.2206518561091615
30
0
11
-5.6296120156797347
21
2.346808170752452
31
0
0
LINE
5
293
100
AcDbEntity
8
0
100
AcDbLine
10
-5.6296120156797347
20
2.346808170752452
30
0
11
-4.4337450692820815
21
0.95539774232045771
31
0
0
LINE
5
294
100
AcDbEntity
8
0
100
AcDbLine
10
-4.4337450692820815
20
0.95539774232045771
30
0
11
-3.4489031356989148
21
1.0304372056580942
31
0
0
LINE
5
295
100
AcDbEntity
8
0
100
AcDbLine
10
3.1356083422058671
20
9.9612652164389335
30
0
11
4.1818332776201199
21
6.4821617238528901
31
0
0
LINE
5
296
100
AcDbEntity
8
0
100
AcDbLine
10
4.1818332776201199
20
6.4821617238528901
30
0
11
3.1957316383780356
21
2.8218861476831174
31
0
0
LINE
5
297
100
AcDbEntity
8
0
100
AcDbLine
10
3.1957316383780356
20
2.8218861476831174
30
0
11
1.9422126054431821
21
1.7522165729120427
31
0
0
LINE
5
298
100
AcDbEntity
8
0
100
AcDbLine
10
1.9422126054431821
20
1.7522165729120427
30
0
11
1.2843414925529621
21
1.5899880426547173
31
0
0
LINE
5
299
100
AcDbEntity
8
0
100
AcDbLine
10
18.54931060958225
20
9.9612652164389335
30
0
11
17.503085674167995
21
6.4821617238528901
31
0
0
LINE
5
300
100
AcDbEntity
8
0
100
AcDbLine
10
17.503085674167995
20
6.4821617238528901
30
0
11
18.489187313410078
21
2.8218861476831174
31
0
0
LINE
5
301
100
AcDbEntity
8
0
100
AcDbLine
10
18.489187313410078
20
2.8218861476831174
30
0
11
19.742706346344931
21
1.752216572912042
31
0
0
LINE
5
302
100
AcDbEntity
8
0
100
AcDbLine
10
19.742706346344931
20
1.752216572912042
30
0
11
20.400577459235151
21
1.5899880426547179
31
0
0
LINE
5
303
100
AcDbEntity
8
0
100
AcDbLine
10
2.3107734627231209
20
-4.8666001568027379
30
0
11
4.2000001340400512
21
-4.8666001568027379
31
0
0
LINE
5
304
100
AcDbEntity
8
0
100
AcDbLine
10
4.2000001340400512
20
-4.8666001568027379
30
0
11
9.8351480869425263
21
-5.8426332781824062
31
0
0
LINE
5
305
100
AcDbEntity
8
0
100
AcDbLine
10
9.8351480869425263
20
-5.8426332781824062
30
0
11
10.842459475894051
21
-5.878069336118898
31
0
0
LINE
5
306
100
AcDbEntity
8
0
100
AcDbLine
10
19.37414548906499
20
-4.8666001568027388
30
0
11
17.484918817748063
21
-4.8666001568027388
31
0
0
LINE
5
307
100
AcDbEntity
8
0
100
AcDbLine
10
17.484918817748063
20
-4.8666001568027388
30
0
11
11.849770864845588
21
-5.8426332781824071
31
0
0
LINE
5
308
100
AcDbEntity
8
0
100
AcDbLine
10
11.849770864845588
20
-5.8426332781824071
30
0
11
10.842459475894062
21
-5.878069336118898
31
0
0
LINE
5
309
100
AcDbEntity
8
0
100
AcDbLine
10
10.842459475894056
20
-32.467212739602431
30
0
11
10.842459475894056
21
-49.747213291081501
31
0
0
LINE
5
310
100
AcDbEntity
8
0
100
AcDbLine
10
20.400577459235151
20
-40.410011957345283
30
0
11
19.37414548906499
21
-46.86660015680274
31
0
0
LINE
5
311
100
AcDbEntity
8
0
100
AcDbLine
10
14.575536586824491
20
-30.747258226164796
30
0
11
18.54931060958225
21
-32.038734783561061
31
0
0
SPLINE
5
312
100
AcDbEntity
8
0
100
AcDbSpline
70
1064
71
5
72
26
73
20
74
0
42
0.000000001
43
0.0000000001
44
0.0000000001
40
0
40
0
40
0
40
0
40
0
40
0
40
0.066666666666666666
40
0.13333333333333333
40
0.20000000000000001
40
0.26666666666666666
40
0.33333333333333331
40
0.39999999999999997
40
0.46666666666666662
40
0.53333333333333333
40
0.59999999999999998
40
0.66666666666666663
40
0.73333333333333328
40
0.79999999999999993
40
0.86666666666666659
40
0.93333333333333324
40
1
40
1
40
1
40
1
40
1
40
1
10
2.3107734627231209
20
-46.86660015680274
30
0
10
2.3607861593702255
20
-46.860553921972887
30
0
10
2.4702536842883061
20
-46.850299569098169
30
0
10
2.6627836532088311
20
-46.840430832067348
30
0
10
2.9726790653439497
20
-46.839458766756891
30
0
10
3.4305799392639851
20
-46.863867976855083
30
0
10
3.9382223944011665
20
-46.918646601998027
30
0
10
4.4800700475454693
20
-47.004118362231928
30
0
10
5.0494810671417509
20
-47.114609269785966
30
0
10
5.6446167943515402
20
-47.241147184713149
30
0
10
6.2661323582752351
20
-47.373031653516215
30
0
10
6.9141089022845188
20
-47.499751156580416
30
0
10
7.5853370451763595
20
-47.612654474188787
30
0
10
8.2699860740188651
20
-47.70692597809343
30
0
10
8.9540120842352842
20
-47.780652838403689
30
0
10
9.6218342019349183
20
-47.833802596368521
30
0
10
10.131438695753559
20
-47.860650461692984
30
0
10
10.494815725288277
20
-47.872505708472481
30
0
10
10.728076655958581
20
-47.8768139995328
30
0
10
10.842459475894065
20
-47.878069336118898
30
0
0
SPLINE
5
313
100
AcDbEntity
8
0
100
AcDbSpline
70
1064
71
5
72
36
73
30
74
0
42
0.000000001
43
0.0000000001
44
0.0000000001
40
0
40
0
40
0
40
0
40
0
40
0
40
0.040000000000000001
40
0.080000000000000002
40
0.12
40
0.16
40
0.20000000000000001
40
0.24000000000000002
40
0.28000000000000003
40
0.32000000000000001
40
0.35999999999999999
40
0.39999999999999997
40
0.43999999999999995
40
0.47999999999999993
40
0.51999999999999991
40
0.55999999999999994
40
0.59999999999999998
40
0.64000000000000001
40
0.68000000000000005
40
0.72000000000000008
40
0.76000000000000012
40
0.80000000000000016
40
0.84000000000000019
40
0.88000000000000023
40
0.92000000000000026
40
0.9600000000000003
40
1
40
1
40
1
40
1
40
1
40
1
10
20.400577459235151
20
-40.410011957345283
30
0
10
20.364363247069324
20
-40.413171426060416
30
0
10
20.289426341165974
20
-40.416843160122632
30
0
10
20.169494164973443
20
-40.41440865719192
30
0
10
20.00214207371646
20
-40.396291641392494
30
0
10
19.81276113209864
20
-40.353539600379897
30
0
10
19.664248162011479
20
-40.294746004981569
30
0
10
19.541041761836407
20
-40.220342448086754
30
0
10
19.41121153601307
20
-40.125744617255314
30
0
10
19.253215178511546
20
-39.998851549347656
30
0
10
19.065686275154206
20
-39.821475918936152
30
0
10
18.857595126021593
20
-39.575872575404723
30
0
10
18.643731001902932
20
-39.249641954725298
30
0
10
18.437612506975722
20
-38.842100235345391
30
0
10
18.24702794921917
20
-38.367940786828022
30
0
10
18.076311594666475
20
-37.850604089955141
30
0
10
17.927674028492664
20
-37.317298227483775
30
0
10
17.802881770899056
20
-36.793379480157874
30
0
10
17.704719514200509
20
-36.297184554898827
30
0
10
17.638655105212866
20
-35.83421107266652
30
0
10
17.6141430403591
20
-35.392420001490599
30
0
10
17.64731156036607
20
-34.933312854744152
30
0
10
17.737544116634474
20
-34.446599979831873
30
0
10
17.875268928065644
20
-33.936092825166547
30
0
10
18.04412736201704
20
-33.41755855046744
30
0
10
18.225198259534434
20
-32.912152703791762
30
0
10
18.365269669657962
20
-32.535888160218363
30
0
10
18.461429039357185
20
-32.277261832461747
30
0
10
18.520805087303234
20
-32.116329647695167
30
0
10
18.54931060958225
20
-32.038734783561061
30
0
0
LINE
5
314
100
AcDbEntity
8
0
100
AcDbLine
10
7.1093823649636221
20
-30.747258226164796
30
0
11
3.1356083422058671
21
-32.038734783561061
31
0
0
LINE
5
315
100
AcDbEntity
8
0
100
AcDbLine
10
-3.4533288254613006
20
-47.496676485280226
30
0
11
-13.386870617213791
21
-47.478997353563159
31
0
0
SPLINE
5
316
100
AcDbEntity
8
0
100
AcDbSpline
70
1064
71
5
72
36
73
30
74
0
42
0.000000001
43
0.0000000001
44
0.0000000001
40
0
40
0
40
0
40
0
40
0
40
0
40
0.040000000000000001
40
0.080000000000000002
40
0.12
40
0.16
40
0.20000000000000001
40
0.24000000000000002
40
0.28000000000000003
40
0.32000000000000001
40
0.35999999999999999
40
0.39999999999999997
40
0.43999999999999995
40
0.47999999999999993
40
0.51999999999999991
40
0.55999999999999994
40
0.59999999999999998
40
0.64000000000000001
40
0.68000000000000005
40
0.72000000000000008
40
0.76000000000000012
40
0.80000000000000016
40
0.84000000000000019
40
0.88000000000000023
40
0.92000000000000026
40
0.9600000000000003
40
1
40
1
40
1
40
1
40
1
40
1
10
1.2843414925529621
20
-40.410011957345283
30
0
10
1.3205557047187879
20
-40.413171426060416
30
0
10
1.3954926121224744
20
-40.416843160122653
30
0
10
1.5154247950671602
20
-40.414408657191998
30
0
10
1.6827769007296112
20
-40.396291641392551
30
0
10
1.87215785376651
20
-40.353539600379875
30
0
10
2.0206708176581576
20
-40.294746004981562
30
0
10
2.1438771992308436
20
-40.220342448086782
30
0
10
2.2737074068429659
20
-40.1257446172553
30
0
10
2.4317037554777312
20
-39.998851549347535
30
0
10
2.6192326601986782
20
-39.821475918936052
30
0
10
2.8273238178366387
20
-39.575872575404667
30
0
10
3.0411879523873644
20
-39.24964195472532
30
0
10
3.2473064552623567
20
-38.842100235345455
30
0
10
3.4378910167221424
20
-38.367940786828079
30
0
10
3.6086073707319111
20
-37.850604089955112
30
0
10
3.7572449333656293
20
-37.317298227483711
30
0
10
3.8820371862770617
20
-36.793379480157824
30
0
10
3.9801994390504687
20
-36.297184554898813
30
0
10
4.0462638461860774
20
-35.834211072666534
30
0
10
4.0707759114693536
20
-35.392420001490585
30
0
10
4.037607392437109
20
-34.933312854744216
30
0
10
3.9473748369149249
20
-34.446599979832087
30
0
10
3.8096500256305563
20
-33.936092825166867
30
0
10
3.6407915912691204
20
-33.417558550467753
30
0
10
3.4597206930406696
20
-32.912152703791946
30
0
10
3.3196492823968118
20
-32.535888160218427
30
0
10
3.2234899124794123
20
-32.277261832461761
30
0
10
3.1641138644848836
20
-32.116329647695167
30
0
10
3.1356083422058671
20
-32.038734783561061
30
0
0
SPLINE
5
317
100
AcDbEntity
8
0
100
AcDbSpline
70
1064
71
5
72
41
73
35
74
0
42
0.000000001
43
0.0000000001
44
0.0000000001
40
0
40
0
40
0
40
0
40
0
40
0
40
0.033333333333333333
40
0.066666666666666666
40
0.10000000000000001
40
0.13333333333333333
40
0.16666666666666666
40
0.19999999999999998
40
0.23333333333333331
40
0.26666666666666666
40
0.29999999999999999
40
0.33333333333333331
40
0.36666666666666664
40
0.39999999999999997
40
0.43333333333333329
40
0.46666666666666662
40
0.49999999999999994
40
0.53333333333333333
40
0.56666666666666665
40
0.59999999999999998
40
0.6333333333333333
40
0.66666666666666663
40
0.69999999999999996
40
0.73333333333333328
40
0.76666666666666661
40
0.79999999999999993
40
0.83333333333333326
40
0.86666666666666659
40
0.89999999999999991
40
0.93333333333333324
40
0.96666666666666656
40
1
40
1
40
1
40
1
40
1
40
1
10
-21.669293952494947
20
-32.248445839019865
30
0
10
-21.638678371938997
20
-32.307269012870499
30
0
10
-21.576869641996883
20
-32.428127562435066
30
0
10
-21.482423900026099
20
-32.619051927759635
30
0
10
-21.354070411216309
20
-32.891742560995418
30
0
10
-21.195714204299335
20
-33.255990639205429
30
0
10
-21.047446494256711
20
-33.634618641483442
30
0
10
-20.917513337180964
20
-34.018180978251898
30
0
10
-20.812739618581141
20
-34.398559478202337
30
0
10
-20.736931475355025
20
-34.770663884131821
30
0
10
-20.689055059888311
20
-35.134344209232715
30
0
10
-20.664742142790342
20
-35.493098104705631
30
0
10
-20.65800067827178
20
-35.852574468103313
30
0
10
-20.662854779229743
20
-36.219158828954733
30
0
10
-20.674952484942715
20
-36.598560089970213
30
0
10
-20.693321727325795
20
-36.994329952483277
30
0
10
-20.721709380211546
20
-37.406581663286438
30
0
10
-20.766497079439137
20
-37.832462762299564
30
0
10
-20.834921012546864
20
-38.266429522688576
30
0
10
-20.933249143186156
20
-38.70059844229776
30
0
10
-21.064816226417996
20
-39.124987703107394
30
0
10
-21.228450447018243
20
-39.527919686996178
30
0
10
-21.415824968357938
20
-39.896021519682577
30
0
10
-21.612373196273417
20
-40.215536549770675
30
0
10
-21.802585610686737
20
-40.475115585142987
30
0
10
-21.974562908772754
20
-40.668566958850228
30
0
10
-22.12409060667655
20
-40.79700474645999
30
0
10
-22.260864950369978
20
-40.872894258769868
30
0
10
-22.408030030959054
20
-40.91852838930113
30
0
10
-22.587490915505928
20
-40.953191154540782
30
0
10
-22.804030331562402
20
-40.978758141478174
30
0
10
-22.998009661731849
20
-40.981105545725889
30
0
10
-23.148745508770009
20
-40.965485563593106
30
0
10
-23.250448846106181
20
-40.946137003272
30
0
10
-23.301605000436364
20
-40.934230126642483
30
0
0
SPLINE
5
318
100
AcDbEntity
8
0
100
AcDbSpline
70
1064
71
5
72
31
73
25
74
0
42
0.000000001
43
0.0000000001
44
0.0000000001
40
0
40
0
40
0
40
0
40
0
40
0
40
0.050000000000000003
40
0.10000000000000001
40
0.15000000000000002
40
0.20000000000000001
40
0.25
40
0.29999999999999999
40
0.34999999999999998
40
0.39999999999999997
40
0.44999999999999996
40
0.49999999999999994
40
0.54999999999999993
40
0.59999999999999998
40
0.65000000000000002
40
0.70000000000000007
40
0.75000000000000011
40
0.80000000000000016
40
0.8500000000000002
40
0.90000000000000024
40
0.95000000000000029
40
1
40
1
40
1
40
1
40
1
40
1
10
-9.0852548115102465
20
-31.035089095742887
30
0
10
-9.0958763352515764
20
-31.077429409283901
30
0
10
-9.119818522834958
20
-31.164442116069331
30
0
10
-9.1638295085354731
20
-31.301957616831363
30
0
10
-9.2373427839272342
20
-31.496901786786317
30
0
10
-9.3469339252715891
20
-31.746237965522873
30
0
10
-9.4666410650396067
20
-31.984080040581684
30
0
10
-9.5915235967086367
20
-32.194073141828873
30
0
10
-9.7221142082037861
20
-32.36458745035317
30
0
10
-9.8683361935965657
20
-32.493681330643966
30
0
10
-10.04558020839087
20
-32.586923595738057
30
0
10
-10.268952195576864
20
-32.653738087724022
30
0
10
-10.548596155269092
20
-32.704561949545557
30
0
10
-10.883403662102028
20
-32.747292563866388
30
0
10
-11.258679042538718
20
-32.785470827819402
30
0
10
-11.651991569077342
20
-32.819865556476785
30
0
10
-12.037228428349147
20
-32.849331190856034
30
0
10
-12.389120076663268
20
-32.871896705247792
30
0
10
-12.687868831529869
20
-32.885801299136816
30
0
10
-12.923102149214314
20
-32.890417871335394
30
0
10
-13.100082602688483
20
-32.88758921571376
30
0
10
-13.211467329974306
20
-32.882870249786762
30
0
10
-13.287690224547552
20
-32.879882410195727
30
0
10
-13.336775321749448
20
-32.878430117670774
30
0
10
-13.360884336307381
20
-32.877838680886171
30
0
0
LINE
5
319
100
AcDbEntity
8
0
100
AcDbLine
10
-21.669293952494947
20
-32.248445839019865
30
0
11
-17.629927562019457
21
-31.019881791218239
31
0
0
LINE
5
320
100
AcDbEntity
8
0
100
AcDbLine
10
-5.0502870479535682
20
-32.278023367179678
30
0
11
-9.0852548115102465
21
-31.035089095742887
31
0
0
SPLINE
5
321
100
AcDbEntity
8
0
100
AcDbSpline
70
1064
71
5
72
41
73
35
74
0
42
0.000000001
43
0.0000000001
44
0.0000000001
40
0
40
0
40
0
40
0
40
0
40
0
40
0.033333333333333333
40
0.066666666666666666
40
0.10000000000000001
40
0.13333333333333333
40
0.16666666666666666
40
0.19999999999999998
40
0.23333333333333331
40
0.26666666666666666
40
0.29999999999999999
40
0.33333333333333331
40
0.36666666666666664
40
0.39999999999999997
40
0.43333333333333329
40
0.46666666666666662
40
0.49999999999999994
40
0.53333333333333333
40
0.56666666666666665
40
0.59999999999999998
40
0.6333333333333333
40
0.66666666666666663
40
0.69999999999999996
40
0.73333333333333328
40
0.76666666666666661
40
0.79999999999999993
40
0.83333333333333326
40
0.86666666666666659
40
0.89999999999999991
40
0.93333333333333324
40
0.96666666666666656
40
1
40
1
40
1
40
1
40
1
40
1
10
-5.0502870479535682
20
-32.278023367179678
30
0
10
-5.0811118139284321
20
-32.336737193125828
30
0
10
-5.1433503447882503
20
-32.457374970692925
30
0
10
-5.2384750781456804
20
-32.647961949667803
30
0
10
-5.3677983881778335
20
-32.920193984936802
30
0
10
-5.5274501222987675
20
-33.283876091372065
30
0
10
-5.6770646083733087
20
-33.661973940489155
30
0
10
-5.8083622212477648
20
-34.045071354143083
30
0
10
-5.9144892222553516
20
-34.425074505433571
30
0
10
-5.9916213799888576
20
-34.796906717236986
30
0
10
-6.0407920016398711
20
-35.160414323745663
30
0
10
-6.0663817387139423
20
-35.519079405418061
30
0
10
-6.0744027061265768
20
-35.878529495510122
30
0
10
-6.0708534822292171
20
-36.245128812103623
30
0
10
-6.0601063208457315
20
-36.62457073106652
30
0
10
-6.0431459260798546
20
-37.020403471184295
30
0
10
-6.0162258509337265
20
-37.432753615419742
30
0
10
-5.9729543467474562
20
-37.858791437008826
30
0
10
-5.906075539090212
20
-38.292999001234463
30
0
10
-5.8092934429225309
20
-38.727515166515701
30
0
10
-5.6792377943196071
20
-39.152370048030207
30
0
10
-5.5170388349421113
20
-39.555881930591838
30
0
10
-5.3309757483140592
20
-39.924648385504149
30
0
10
-5.1355660699224117
20
-40.244860999152891
30
0
10
-4.9462788244759057
20
-40.505115445633905
30
0
10
-4.774991200360998
20
-40.699177742001282
30
0
10
-4.6259216202535809
20
-40.82814695543285
30
0
10
-4.4894182695160803
20
-40.904522831263058
30
0
10
-4.3424165545611579
20
-40.950680502504561
30
0
10
-4.1630801879864672
20
-40.985981833926743
30
0
10
-3.9466331486354851
20
-41.012319424616173
30
0
10
-3.7526634028293868
20
-41.015357277744847
30
0
10
-3.6018729118237269
20
-41.000273934402074
30
0
10
-3.5001013481372096
20
-40.981287506707176
30
0
10
-3.4489031356989246
20
-40.969562794341911
30
0
0
SPLINE
5
322
100
AcDbEntity
8
0
100
AcDbSpline
70
1064
71
5
72
31
73
25
74
0
42
0.000000001
43
0.0000000001
44
0.0000000001
40
0
40
0
40
0
40
0
40
0
40
0
40
0.050000000000000003
40
0.10000000000000001
40
0.15000000000000002
40
0.20000000000000001
40
0.25
40
0.29999999999999999
40
0.34999999999999998
40
0.39999999999999997
40
0.44999999999999996
40
0.49999999999999994
40
0.54999999999999993
40
0.59999999999999998
40
0.65000000000000002
40
0.70000000000000007
40
0.75000000000000011
40
0.80000000000000016
40
0.8500000000000002
40
0.90000000000000024
40
0.95000000000000029
40
1
40
1
40
1
40
1
40
1
40
1
10
-17.629927562019457
20
-31.019881791218239
30
0
10
-17.61945681467234
20
-31.062259643539136
30
0
10
-17.595824497945696
20
-31.149357020620979
30
0
10
-17.552303273454235
20
-31.287028306047254
30
0
10
-17.479484361834785
20
-31.482232909396501
30
0
10
-17.370781419578098
20
-31.731957595066014
30
0
10
-17.251921630056273
20
-31.970224257473024
30
0
10
-17.127787353811588
20
-32.180660544146185
30
0
10
-16.997804510293225
20
-32.351638605935236
30
0
10
-16.852042957098273
20
-32.48125214130453
30
0
10
-16.675131958248656
20
-32.575124710600832
30
0
10
-16.451999210339586
20
-32.642733865375483
30
0
10
-16.172537928223118
20
-32.694552789725364
30
0
10
-15.837884640745594
20
-32.73847487087729
30
0
10
-15.462747532067883
20
-32.77798867471278
30
0
10
-15.069559924169344
20
-32.813783169915105
30
0
10
-14.684430387412158
20
-32.84461985696344
30
0
10
-14.33262128959786
20
-32.868437776433034
30
0
10
-14.03392392028119
20
-32.883405669691506
30
0
10
-13.798708525338906
20
-32.888859518757791
30
0
10
-13.621719124507795
20
-32.886660837802758
30
0
10
-13.510318305815744
20
-32.882338372448764
30
0
10
-13.434085258981915
20
-32.87962186494908
30
0
10
-13.384995303338183
20
-32.878344298591969
30
0
10
-13.360884336307381
20
-32.877838680886171
30
0
0
LINE
5
323
100
AcDbEntity
8
0
100
AcDbLine
10
-23.301605000436364
20
-40.934230126642483
30
0
11
-23.320412408966281
21
-47.461318221846092
31
0
0
LINE
5
324
100
AcDbEntity
8
0
100
AcDbLine
10
-13.359794776663085
20
-32.265637446435164
30
0
11
-13.389524071289909
21
-48.969918818454801
31
0
0
LINE
5
325
100
AcDbEntity
8
0
100
AcDbLine
10
1.2843414925529621
20
-40.410011957345283
30
0
11
2.3107734627231209
21
-46.86660015680274
31
0
0
LINE
5
326
100
AcDbEntity
8
0
100
AcDbLine
10
-12.981108108808627
20
-32.887155263707214
30
0
11
-13.740660563806143
21
-32.868522098065128
31
0
0
LINE
5
327
100
AcDbEntity
8
0
100
AcDbLine
10
-3.4489031356989246
20
-40.969562794341911
30
0
11
-3.4533288254613006
21
-47.496676485280226
31
0
0
SPLINE
5
328
100
AcDbEntity
8
0
100
AcDbSpline
70
1064
71
5
72
26
73
20
74
0
42
0.000000001
43
0.0000000001
44
0.0000000001
40
0
40
0
40
0
40
0
40
0
40
0
40
0.066666666666666666
40
0.13333333333333333
40
0.20000000000000001
40
0.26666666666666666
40
0.33333333333333331
40
0.39999999999999997
40
0.46666666666666662
40
0.53333333333333333
40
0.59999999999999998
40
0.66666666666666663
40
0.73333333333333328
40
0.79999999999999993
40
0.86666666666666659
40
0.93333333333333324
40
1
40
1
40
1
40
1
40
1
40
1
10
19.37414548906499
20
-46.86660015680274
30
0
10
19.324132792417885
20
-46.860553921972887
30
0
10
19.214665267499928
20
-46.85029956909819
30
0
10
19.022135298580018
20
-46.840430832067483
30
0
10
18.712239886445388
20
-46.839458766757161
30
0
10
18.254339012524756
20
-46.863867976855389
30
0
10
17.746696557386581
20
-46.918646601997928
30
0
10
17.204848904241526
20
-47.004118362231182
30
0
10
16.635437884645
20
-47.114609269784879
30
0
10
16.040302157435494
20
-47.24114718471219
30
0
10
15.418786593512364
20
-47.37303165351571
30
0
10
14.770810049503636
20
-47.499751156580423
30
0
10
14.099581906612057
20
-47.612654474189114
30
0
10
13.414932877769557
20
-47.706925978093793
30
0
10
12.73090686755299
20
-47.780652838403945
30
0
10
12.063084749853207
20
-47.833802596368621
30
0
10
11.553480256034526
20
-47.860650461693012
30
0
10
11.190103226499833
20
-47.872505708472481
30
0
10
10.956842295829532
20
-47.8768139995328
30
0
10
10.842459475894049
20
-47.878069336118898
30
0
0
LINE
5
329
100
AcDbEntity
8
0
100
AcDbLine
10
-23.320412408966281
20
-47.461318221846092
30
0
11
-13.386870617213791
21
-47.478997353563159
31
0
0
LINE
5
330
100
AcDbEntity
8
0
100
AcDbLine
10
10.842459475894056
20
-54.467212739602424
30
0
11
10.842459475894064
21
-72.900002326552311
31
0
0
LINE
5
331
100
AcDbEntity
8
0
100
AcDbLine
10
-21.669293782502191
20
-54.248445906922697
30
0
11
-17.629927395876525
21
-53.019881846463328
31
0
0
LINE
5
332
100
AcDbEntity
8
0
100
AcDbLine
10
7.1093823649636221
20
-52.747258226164789
30
0
11
3.1356083422058671
21
-54.038734783561061
31
0
0
LINE
5
333
100
AcDbEntity
8
0
100
AcDbLine
10
-13.358542326710035
20
-54.265639675471704
30
0
11
-13.388271621336859
21
-70.96992104749134
31
0
0
LWPOLYLINE
5
334
100
AcDbEntity
8
0
100
AcDbPolyline
90
4
70
1
43
0.0
10
-32.040190702868422
20
-20.083143694691472
10
-37.15061672705756
20
-20.083143694691472
10
-37.15061672705756
20
-18.689143694691474
10
-32.040190702868422
20
-18.689143694691474
0
LINE
5
335
100
AcDbEntity
8
0
100
AcDbLine
10
9.7605425041601102
20
-34.706546560804604
30
0
11
10.842459475894056
21
-35.394026295856264
31
0
0
SPLINE
5
336
100
AcDbEntity
8
0
100
AcDbSpline
70
1064
71
5
72
26
73
20
74
0
42
0.000000001
43
0.0000000001
44
0.0000000001
40
0
40
0
40
0
40
0
40
0
40
0
40
0.066666666666666666
40
0.13333333333333333
40
0.20000000000000001
40
0.26666666666666666
40
0.33333333333333331
40
0.39999999999999997
40
0.46666666666666662
40
0.53333333333333333
40
0.59999999999999998
40
0.66666666666666663
40
0.73333333333333328
40
0.79999999999999993
40
0.86666666666666659
40
0.93333333333333324
40
1
40
1
40
1
40
1
40
1
40
1
10
7.1093823649636221
20
-30.747258226164796
30
0
10
7.1309575247338781
20
-30.80667714881773
30
0
10
7.1757724973817316
20
-30.927522486402239
30
0
10
7.2479891255709319
20
-31.114813107212317
30
0
10
7.3542727867175977
20
-31.37619904136805
30
0
10
7.5031346464015227
20
-31.719074834434096
30
0
10
7.6658711345570003
20
-32.071848639922699
30
0
10
7.8380962161582604
20
-32.424729318698077
30
0
10
8.0120639700831902
20
-32.763454200939641
30
0
10
8.1760063592484915
20
-33.06874196181171
30
0
10
8.3131251926272007
20
-33.315710226661345
30
0
10
8.4234588256172955
20
-33.498721234188551
30
0
10
8.5195675590168936
20
-33.628160306313575
30
0
10
8.6813427610564062
20
-33.79066356624984
30
0
10
8.9470900845505881
20
-34.034383358643169
30
0
10
9.2680654252558501
20
-34.317496769707098
30
0
10
9.512371688051692
20
-34.523521966475784
30
0
10
9.6559085154000748
20
-34.635450354954443
30
0
10
9.7293737162844369
20
-34.686741057618619
30
0
10
9.7605425041601102
20
-34.706546560804604
30
0
0
SPLINE
5
337
100
AcDbEntity
8
0
100
AcDbSpline
70
1064
71
5
72
26
73
20
74
0
42
0.000000001
43
0.0000000001
44
0.0000000001
40
0
40
0
40
0
40
0
40
0
40
0
40
0.066666666666666666
40
0.13333333333333333
40
0.20000000000000001
40
0.26666666666666666
40
0.33333333333333331
40
0.39999999999999997
40
0.46666666666666662
40
0.53333333333333333
40
0.59999999999999998
40
0.66666666666666663
40
0.73333333333333328
40
0.79999999999999993
40
0.86666666666666659
40
0.93333333333333324
40
1
40
1
40
1
40
1
40
1
40
1
10
14.575536586824491
20
-30.747258226164796
30
0
10
14.553961427054237
20
-30.80667714881773
30
0
10
14.509146454406382
20
-30.927522486402239
30
0
10
14.436929826217183
20
-31.114813107212317
30
0
10
14.330646165070517
20
-31.37619904136805
30
0
10
14.181784305386591
20
-31.719074834434096
30
0
10
14.019047817231113
20
-32.071848639922699
30
0
10
13.846822735629853
20
-32.424729318698077
30
0
10
13.672854981704925
20
-32.763454200939641
30
0
10
13.508912592539621
20
-33.06874196181171
30
0
10
13.371793759160912
20
-33.315710226661345
30
0
10
13.261460126170821
20
-33.498721234188551
30
0
10
13.165351392771219
20
-33.628160306313575
30
0
10
13.003576190731708
20
-33.79066356624984
30
0
10
12.737828867237527
20
-34.034383358643169
30
0
10
12.416853526532265
20
-34.317496769707098
30
0
10
12.172547263736423
20
-34.523521966475784
30
0
10
12.02901043638804
20
-34.635450354954443
30
0
10
11.955545235503678
20
-34.686741057618619
30
0
10
11.924376447628003
20
-34.706546560804604
30
0
0
LINE
5
338
100
AcDbEntity
8
0
100
AcDbLine
10
11.924376447628003
20
-34.706546560804604
30
0
11
10.842459475894056
21
-35.394026295856264
31
0
0
LINE
5
339
100
AcDbEntity
8
0
100
AcDbLine
10
-21.669293782502191
20
-54.248445906922697
30
0
11
-21.669293952494947
21
-59.400001911666443
31
0
0
LINE
5
340
100
AcDbEntity
8
0
100
AcDbLine
10
-17.629927395876525
20
-53.019881846463328
30
0
11
-17.629927562019454
21
-60.500001930815024
31
0
0
LINE
5
341
100
AcDbEntity
8
0
100
AcDbLine
10
3.1356083422058671
20
-54.038734783561061
30
0
11
3.1356083422058671
21
-58.700001873369288
31
0
0
LINE
5
342
100
AcDbEntity
8
0
100
AcDbLine
10
7.1093823649636221
20
-52.747258226164789
30
0
11
7.1093823649636221
21
-58.700001873369288
31
0
0
LINE
5
343
100
AcDbEntity
8
0
100
AcDbLine
10
0.40000001276571917
20
-58.700001873369288
30
0
11
3.1356083422058671
21
-58.700001873369288
31
0
0
LINE
5
344
100
AcDbEntity
8
0
100
AcDbLine
10
7.1093823649636221
20
-58.700001873369288
30
0
11
10.842459475894056
21
-58.700001873369288
31
0
0
LINE
5
345
100
AcDbEntity
8
0
100
AcDbLine
10
0.40000001276571917
20
-58.700001873369288
30
0
11
0.40000001276571917
21
-72.200002304212305
31
0
0
LINE
5
346
100
AcDbEntity
8
0
100
AcDbLine
10
0.40000001276571917
20
-72.200002304212305
30
0
11
10.842459475894064
21
-72.200002304212305
31
0
0
LINE
5
347
100
AcDbEntity
8
0
100
AcDbLine
10
-23.096224706956658
20
-58.872131103790835
30
0
11
-21.669293952494947
21
-59.400001911666443
31
0
0
LINE
5
348
100
AcDbEntity
8
0
100
AcDbLine
10
-17.629927562019454
20
-60.500001930815024
30
0
11
-13.372017902964235
21
-61.837289801242235
31
0
0
LINE
5
349
100
AcDbEntity
8
0
100
AcDbLine
10
-23.096224706956658
20
-58.872131103790835
30
0
11
-23.121036134417626
21
-72.37210873435896
31
0
0
LINE
5
350
100
AcDbEntity
8
0
100
AcDbLine
10
-23.121036134417626
20
-72.37210873435896
30
0
11
-13.392004139132341
21
-73.067146301740095
31
0
0
LINE
5
351
100
AcDbEntity
8
0
100
AcDbLine
10
-3.660559810752559
20
-72.406743342177151
30
0
11
-13.392004139132341
21
-73.067146301740095
31
0
0
LINE
5
352
100
AcDbEntity
8
0
100
AcDbLine
10
-9.109375180437226
20
-60.515166307329878
30
0
11
-13.372017902964235
21
-61.837289801242235
31
0
0
LINE
5
353
100
AcDbEntity
8
0
100
AcDbLine
10
-5.0477823182808397
20
-54.278027892550085
30
0
11
-5.0661189611979429
21
-59.429551263120956
31
0
0
LINE
5
354
100
AcDbEntity
8
0
100
AcDbLine
10
-5.0477823182808397
20
-54.278027892550085
30
0
11
-9.0827500779426664
21
-53.035093608469332
31
0
0
LINE
5
355
100
AcDbEntity
8
0
100
AcDbLine
10
-3.6373183055516374
20
-58.90676291754589
30
0
11
-5.0661189611979429
21
-59.429551263120956
31
0
0
LINE
5
356
100
AcDbEntity
8
0
100
AcDbLine
10
-9.0827500779426664
20
-53.035093608469332
30
0
11
-9.109375180437226
21
-60.515166307329878
31
0
0
LINE
5
357
100
AcDbEntity
8
0
100
AcDbLine
10
-3.6373183055516374
20
-58.90676291754589
30
0
11
-3.660559810752559
21
-72.406743342177151
31
0
0
LINE
5
358
100
AcDbEntity
8
0
100
AcDbLine
10
21.284918939022397
20
-58.700001873369274
30
0
11
21.284918939022408
21
-72.200002304212305
31
0
0
LINE
5
359
100
AcDbEntity
8
0
100
AcDbLine
10
21.284918939022397
20
-58.700001873369274
30
0
11
18.54931060958225
21
-58.700001873369288
31
0
0
LINE
5
360
100
AcDbEntity
8
0
100
AcDbLine
10
14.575536586824491
20
-52.747258226164789
30
0
11
18.54931060958225
21
-54.038734783561047
31
0
0
LINE
5
361
100
AcDbEntity
8
0
100
AcDbLine
10
18.54931060958225
20
-54.038734783561047
30
0
11
18.54931060958225
21
-58.700001873369288
31
0
0
LINE
5
362
100
AcDbEntity
8
0
100
AcDbLine
10
14.575536586824491
20
-52.747258226164789
30
0
11
14.575536586824494
21
-58.700001873369288
31
0
0
LINE
5
363
100
AcDbEntity
8
0
100
AcDbLine
10
14.575536586824494
20
-58.700001873369288
30
0
11
10.84245947589406
21
-58.700001873369288
31
0
0
LINE
5
364
100
AcDbEntity
8
0
100
AcDbLine
10
21.284918939022408
20
-72.200002304212305
30
0
11
10.842459475894064
21
-72.200002304212305
31
0
0
LINE
5
365
100
AcDbEntity
8
0
100
AcDbLine
10
-3.4489031356989246
20
-88.969562794341897
30
0
11
-3.4533288254613006
21
-95.496676485280219
31
0
0
SPLINE
5
366
100
AcDbEntity
8
0
100
AcDbSpline
70
1064
71
5
72
26
73
20
74
0
42
0.000000001
43
0.0000000001
44
0.0000000001
40
0
40
0
40
0
40
0
40
0
40
0
40
0.066666666666666666
40
0.13333333333333333
40
0.20000000000000001
40
0.26666666666666666
40
0.33333333333333331
40
0.39999999999999997
40
0.46666666666666662
40
0.53333333333333333
40
0.59999999999999998
40
0.66666666666666663
40
0.73333333333333328
40
0.79999999999999993
40
0.86666666666666659
40
0.93333333333333324
40
1
40
1
40
1
40
1
40
1
40
1
10
2.3107734627231209
20
-94.866600156802733
30
0
10
2.3607861593702255
20
-94.86055392197288
30
0
10
2.4699892182935161
20
-94.850322138592304
30
0
10
2.661327810737506
20
-94.840555073476821
30
0
10
2.9688916466584123
20
-94.839781984581407
30
0
10
3.4264029933696567
20
-94.864224436882097
30
0
10
3.9393888228503742
20
-94.918547059143734
30
0
10
4.492076266415145
20
-95.00309375305325
30
0
10
5.073219098526538
20
-95.112583469231822
30
0
10
5.674745806674875
20
-95.238575978665793
30
0
10
6.291303207555762
20
-95.370883576467421
30
0
10
6.9194419841300094
20
-95.499296032060045
30
0
10
7.5569742898926116
20
-95.615074948086061
30
0
10
8.2022238448958511
20
-95.712708798032438
30
0
10
8.8539557592793035
20
-95.789191632336255
30
0
10
9.5113312179161653
20
-95.843232906843696
30
0
10
10.041340557466096
20
-95.868339425251406
30
0
10
10.441049801543167
20
-95.877094085504368
30
0
10
10.708494304063946
20
-95.878485154930146
30
0
10
10.842459475894064
20
-95.878069336118884
30
0
0
LINE
5
367
100
AcDbEntity
8
0
100
AcDbLine
10
1.2843414925529621
20
-88.410011957345276
30
0
11
2.3107734627231209
21
-94.866600156802733
31
0
0
SPLINE
5
368
100
AcDbEntity
8
0
100
AcDbSpline
70
1064
71
5
72
36
73
30
74
0
42
0.000000001
43
0.0000000001
44
0.0000000001
40
0
40
0
40
0
40
0
40
0
40
0
40
0.040000000000000001
40
0.080000000000000002
40
0.12
40
0.16
40
0.20000000000000001
40
0.24000000000000002
40
0.28000000000000003
40
0.32000000000000001
40
0.35999999999999999
40
0.39999999999999997
40
0.43999999999999995
40
0.47999999999999993
40
0.51999999999999991
40
0.55999999999999994
40
0.59999999999999998
40
0.64000000000000001
40
0.68000000000000005
40
0.72000000000000008
40
0.76000000000000012
40
0.80000000000000016
40
0.84000000000000019
40
0.88000000000000023
40
0.92000000000000026
40
0.9600000000000003
40
1
40
1
40
1
40
1
40
1
40
1
10
1.2843414925529621
20
-88.410011957345276
30
0
10
1.3205557047187881
20
-88.413171426060416
30
0
10
1.3954926121224749
20
-88.416843163443644
30
0
10
1.5154247950671611
20
-88.414408675458844
30
0
10
1.6827769007296118
20
-88.396291691546125
30
0
10
1.8721578537665093
20
-88.353539675809984
30
0
10
2.0206708176581585
20
-88.294746066698153
30
0
10
2.1438771992308436
20
-88.220342468626569
30
0
10
2.2737074068429659
20
-88.12574459748383
30
0
10
2.4317037554777321
20
-87.998851509948878
30
0
10
2.619232660198676
20
-87.821475882555674
30
0
10
2.8273238178366369
20
-87.575872557851326
30
0
10
3.0411879523873644
20
-87.249641960264071
30
0
10
3.2473064552623518
20
-86.842100258477075
30
0
10
3.4378910167221215
20
-86.367940818156811
30
0
10
3.6086073707318822
20
-85.850604120081854
30
0
10
3.7572449333656022
20
-85.317298249774268
30
0
10
3.8820371862770422
20
-84.79337949208427
30
0
10
3.9801994390504611
20
-84.297184558136891
30
0
10
4.0462638461860774
20
-83.8342110718051
30
0
10
4.0707759114693545
20
-83.392420001579879
30
0
10
4.0376073924370992
20
-82.933312856991066
30
0
10
3.9473748369149071
20
-82.446599983730778
30
0
10
3.8096500256305377
20
-81.936092829390617
30
0
10
3.6407915912691045
20
-81.417558553783962
30
0
10
3.4597206930406608
20
-80.912152705534169
30
0
10
3.3196492823968091
20
-80.535888160808824
30
0
10
3.2234899124794123
20
-80.277261832569096
30
0
10
3.1641138644848836
20
-80.116329647695167
30
0
10
3.1356083422058671
20
-80.038734783561054
30
0
0
SPLINE
5
369
100
AcDbEntity
8
0
100
AcDbSpline
70
1064
71
5
72
31
73
25
74
0
42
0.000000001
43
0.0000000001
44
0.0000000001
40
0
40
0
40
0
40
0
40
0
40
0
40
0.050000000000000003
40
0.10000000000000001
40
0.15000000000000002
40
0.20000000000000001
40
0.25
40
0.29999999999999999
40
0.34999999999999998
40
0.39999999999999997
40
0.44999999999999996
40
0.49999999999999994
40
0.54999999999999993
40
0.59999999999999998
40
0.65000000000000002
40
0.70000000000000007
40
0.75000000000000011
40
0.80000000000000016
40
0.8500000000000002
40
0.90000000000000024
40
0.95000000000000029
40
1
40
1
40
1
40
1
40
1
40
1
10
7.1093823649636221
20
-78.747258226164789
30
0
10
7.1299047492158429
20
-78.803777759531926
30
0
10
7.1736815738499331
20
-78.920119382946766
30
0
10
7.2475428390792267
20
-79.104539299663855
30
0
10
7.3607468398547002
20
-79.36790862759338
30
0
10
7.5173122087957065
20
-79.71269818506272
30
0
10
7.6771292398710189
20
-80.055701196834221
30
0
10
7.8289758887293868
20
-80.379550658243559
30
0
10
7.9651647338943414
20
-80.670722076425463
30
0
10
8.0844823259467908
20
-80.923368828179633
30
0
10
8.1953784411557677
20
-81.143473269276527
30
0
10
8.3118353011366377
20
-81.343839194214809
30
0
10
8.4488763168449754
20
-81.538635358462983
30
0
10
8.6186775561004563
20
-81.738746329151155
30
0
10
8.8253212839410455
20
-81.945375032874665
30
0
10
9.0646041169015756
20
-82.150302664395497
30
0
10
9.3274299996391736
20
-82.340841011474268
30
0
10
9.6021041292977252
20
-82.503497917591531
30
0
10
9.8768374701623785
20
-82.627772980787398
30
0
10
10.142508068075214
20
-82.71086945470995
30
0
10
10.394065770108794
20
-82.759088852560396
30
0
10
10.582048483246631
20
-82.777655430594905
30
0
10
10.715267488766859
20
-82.784603151363939
30
0
10
10.800636094580391
20
-82.786745879624306
30
0
10
10.842459475894058
20
-82.787195218078409
30
0
0
SPLINE
5
370
100
AcDbEntity
8
0
100
AcDbSpline
70
1064
71
5
72
41
73
35
74
0
42
0.000000001
43
0.0000000001
44
0.0000000001
40
0
40
0
40
0
40
0
40
0
40
0
40
0.033333333333333333
40
0.066666666666666666
40
0.10000000000000001
40
0.13333333333333333
40
0.16666666666666666
40
0.19999999999999998
40
0.23333333333333331
40
0.26666666666666666
40
0.29999999999999999
40
0.33333333333333331
40
0.36666666666666664
40
0.39999999999999997
40
0.43333333333333329
40
0.46666666666666662
40
0.49999999999999994
40
0.53333333333333333
40
0.56666666666666665
40
0.59999999999999998
40
0.6333333333333333
40
0.66666666666666663
40
0.69999999999999996
40
0.73333333333333328
40
0.76666666666666661
40
0.79999999999999993
40
0.83333333333333326
40
0.86666666666666659
40
0.89999999999999991
40
0.93333333333333324
40
0.96666666666666656
40
1
40
1
40
1
40
1
40
1
40
1
10
-21.669293952494947
20
-80.248445839019851
30
0
10
-21.638678371938997
20
-80.307269012870478
30
0
10
-21.576869641996907
20
-80.428127562435307
30
0
10
-21.482423900026252
20
-80.619051927761092
30
0
10
-21.354070411216764
20
-80.891742560998566
30
0
10
-21.195714204300035
20
-81.255990639209628
30
0
10
-21.047446494257407
20
-81.634618641487052
30
0
10
-20.917513337181344
20
-82.018180978253909
30
0
10
-20.812739618581148
20
-82.398559478202415
30
0
10
-20.736931475354741
20
-82.770663884130158
30
0
10
-20.689055059887895
20
-83.134344209230349
30
0
10
-20.664742142789922
20
-83.493098104703577
30
0
10
-20.658000678271442
20
-83.852574468101778
30
0
10
-20.662854779229548
20
-84.219158828954079
30
0
10
-20.674952484942729
20
-84.598560089970348
30
0
10
-20.693321727326058
20
-84.994329952484009
30
0
10
-20.721709380212005
20
-85.406581663287326
30
0
10
-20.766497079439702
20
-85.832462762300466
30
0
10
-20.834921012547426
20
-86.266429522689421
30
0
10
-20.933249143186558
20
-86.700598442298343
30
0
10
-21.064816226418117
20
-87.124987703107564
30
0
10
-21.228450447018144
20
-87.527919686996057
30
0
10
-21.415824968357654
20
-87.896021519682151
30
0
10
-21.612373196273076
20
-88.21553654977015
30
0
10
-21.802585610686485
20
-88.475115585142575
30
0
10
-21.974562908772644
20
-88.668566958850079
30
0
10
-22.12409060667661
20
-88.797004746460047
30
0
10
-22.260864950370092
20
-88.87289425877016
30
0
10
-22.40803003095909
20
-88.91852838930123
30
0
10
-22.587490915505882
20
-88.953191154540676
30
0
10
-22.804030331562327
20
-88.978758141477797
30
0
10
-22.998009661731796
20
-88.981105545725541
30
0
10
-23.148745508770006
20
-88.965485563593049
30
0
10
-23.250448846106181
20
-88.946137003271986
30
0
10
-23.301605000436364
20
-88.934230126642476
30
0
0
SPLINE
5
371
100
AcDbEntity
8
0
100
AcDbSpline
70
1064
71
5
72
31
73
25
74
0
42
0.000000001
43
0.0000000001
44
0.0000000001
40
0
40
0
40
0
40
0
40
0
40
0
40
0.050000000000000003
40
0.10000000000000001
40
0.15000000000000002
40
0.20000000000000001
40
0.25
40
0.29999999999999999
40
0.34999999999999998
40
0.39999999999999997
40
0.44999999999999996
40
0.49999999999999994
40
0.54999999999999993
40
0.59999999999999998
40
0.65000000000000002
40
0.70000000000000007
40
0.75000000000000011
40
0.80000000000000016
40
0.8500000000000002
40
0.90000000000000024
40
0.95000000000000029
40
1
40
1
40
1
40
1
40
1
40
1
10
-9.0852548115102465
20
-79.035089095742876
30
0
10
-9.0958763352515764
20
-79.077429409283894
30
0
10
-9.1198185228349544
20
-79.164442116069168
30
0
10
-9.1638295085354695
20
-79.301957616830578
30
0
10
-9.2373427839272182
20
-79.496901786784889
30
0
10
-9.3469339252715731
20
-79.746237965521388
30
0
10
-9.4666410650395871
20
-79.984080040580636
30
0
10
-9.591523596708635
20
-80.194073141828682
30
0
10
-9.7221142082037986
20
-80.364587450353895
30
0
10
-9.8683361935965763
20
-80.493681330645387
30
0
10
-10.045580208390849
20
-80.586923595739336
30
0
10
-10.268952195576821
20
-80.653738087724506
30
0
10
-10.548596155269101
20
-80.704561949545251
30
0
10
-10.883403662102191
20
-80.747292563865614
30
0
10
-11.258679042539036
20
-80.785470827818472
30
0
10
-11.651991569077738
20
-80.819865556475833
30
0
10
-12.037228428349501
20
-80.849331190855111
30
0
10
-12.389120076663499
20
-80.871896705247124
30
0
10
-12.687868831529931
20
-80.885801299136432
30
0
10
-12.923102149214261
20
-80.890417871335586
30
0
10
-13.100082602688408
20
-80.887589215714158
30
0
10
-13.211467329974267
20
-80.882870249787047
30
0
10
-13.287690224547552
20
-80.87988241019579
30
0
10
-13.336775321749453
20
-80.878430117670774
30
0
10
-13.360884336307386
20
-80.877838680886157
30
0
0
LINE
5
372
100
AcDbEntity
8
0
100
AcDbLine
10
-21.669293952494947
20
-80.248445839019851
30
0
11
-17.629927562019454
21
-79.019881791218225
31
0
0
LINE
5
373
100
AcDbEntity
8
0
100
AcDbLine
10
-5.0502870479535682
20
-80.278023367179671
30
0
11
-9.0852548115102465
21
-79.035089095742876
31
0
0
LINE
5
374
100
AcDbEntity
8
0
100
AcDbLine
10
-23.301605000436364
20
-88.934230126642476
30
0
11
-23.320412408966277
21
-95.461318221846085
31
0
0
LINE
5
375
100
AcDbEntity
8
0
100
AcDbLine
10
7.1093823649636221
20
-78.747258226164789
30
0
11
3.1356083422058671
21
-80.038734783561054
31
0
0
CIRCLE
5
376
100
AcDbEntity
8
0
100
AcDbCircle
10
-13.374363390563296
20
-88.451443024543181
30
0
40
0.11475877302838484
0
CIRCLE
5
377
100
AcDbEntity
8
0
100
AcDbCircle
10
-13.362635937710474
20
-81.862027611574646
30
0
40
0.41746354610022107
0
CIRCLE
5
378
100
AcDbEntity
8
0
100
AcDbCircle
10
-13.372017902964231
20
-87.133561611574649
30
0
40
0.14862939086689925
0
LINE
5
379
100
AcDbEntity
8
0
100
AcDbLine
10
-12.981108108808627
20
-80.8871552637072
30
0
11
-13.740660563806143
21
-80.868522098065128
31
0
0
CIRCLE
5
380
100
AcDbEntity
8
0
100
AcDbCircle
10
-13.369672411650793
20
-85.815678111574655
30
0
40
0.22307000304931252
0
CIRCLE
5
381
100
AcDbEntity
8
0
100
AcDbCircle
10
-13.367326920337353
20
-84.497794611574648
30
0
40
0.29006135395678306
0
CIRCLE
5
382
100
AcDbEntity
8
0
100
AcDbCircle
10
-13.364981429023912
20
-83.179911111574654
30
0
40
0.35185314115027266
0
SPLINE
5
383
100
AcDbEntity
8
0
100
AcDbSpline
70
1064
71
5
72
31
73
25
74
0
42
0.000000001
43
0.0000000001
44
0.0000000001
40
0
40
0
40
0
40
0
40
0
40
0
40
0.050000000000000003
40
0.10000000000000001
40
0.15000000000000002
40
0.20000000000000001
40
0.25
40
0.29999999999999999
40
0.34999999999999998
40
0.39999999999999997
40
0.44999999999999996
40
0.49999999999999994
40
0.54999999999999993
40
0.59999999999999998
40
0.65000000000000002
40
0.70000000000000007
40
0.75000000000000011
40
0.80000000000000016
40
0.8500000000000002
40
0.90000000000000024
40
0.95000000000000029
40
1
40
1
40
1
40
1
40
1
40
1
10
-17.629927562019454
20
-79.019881791218225
30
0
10
-17.619456814672336
20
-79.062259643539122
30
0
10
-17.595824497945703
20
-79.149357020620812
30
0
10
-17.552303273454264
20
-79.287028306046423
30
0
10
-17.479484361834906
20
-79.482232909395378
30
0
10
-17.370781419578307
20
-79.731957595065083
30
0
10
-17.251921630056469
20
-79.970224257472665
30
0
10
-17.12778735381162
20
-80.180660544146207
30
0
10
-16.997804510293058
20
-80.351638605935378
30
0
10
-16.852042957097989
20
-80.48125214130468
30
0
10
-16.675131958248357
20
-80.575124710600861
30
0
10
-16.451999210339419
20
-80.642733865375462
30
0
10
-16.172537928223182
20
-80.694552789725378
30
0
10
-15.837884640745912
20
-80.738474870877283
30
0
10
-15.462747532068365
20
-80.77798867471283
30
0
10
-15.069559924169857
20
-80.813783169915126
30
0
10
-14.684430387412545
20
-80.844619856963376
30
0
10
-14.332621289598066
20
-80.868437776432955
30
0
10
-14.033923920281223
20
-80.883405669691442
30
0
10
-13.798708525338862
20
-80.888859518757812
30
0
10
-13.621719124507752
20
-80.886660837802836
30
0
10
-13.510318305815732
20
-80.882338372448729
30
0
10
-13.434085258981906
20
-80.87962186494903
30
0
10
-13.384995303338174
20
-80.878344298591955
30
0
10
-13.36088433630737
20
-80.877838680886157
30
0
0
SPLINE
5
384
100
AcDbEntity
8
0
100
AcDbSpline
70
1064
71
5
72
41
73
35
74
0
42
0.000000001
43
0.0000000001
44
0.0000000001
40
0
40
0
40
0
40
0
40
0
40
0
40
0.033333333333333333
40
0.066666666666666666
40
0.10000000000000001
40
0.13333333333333333
40
0.16666666666666666
40
0.19999999999999998
40
0.23333333333333331
40
0.26666666666666666
40
0.29999999999999999
40
0.33333333333333331
40
0.36666666666666664
40
0.39999999999999997
40
0.43333333333333329
40
0.46666666666666662
40
0.49999999999999994
40
0.53333333333333333
40
0.56666666666666665
40
0.59999999999999998
40
0.6333333333333333
40
0.66666666666666663
40
0.69999999999999996
40
0.73333333333333328
40
0.76666666666666661
40
0.79999999999999993
40
0.83333333333333326
40
0.86666666666666659
40
0.89999999999999991
40
0.93333333333333324
40
0.96666666666666656
40
1
40
1
40
1
40
1
40
1
40
1
10
-5.0502870479535682
20
-80.278023367179671
30
0
10
-5.0811118139284321
20
-80.336737193125828
30
0
10
-5.1433503447882449
20
-80.457374970693081
30
0
10
-5.2384750781456555
20
-80.647961949668755
30
0
10
-5.3677983881777651
20
-80.920193984938948
30
0
10
-5.5274501222986556
20
-81.283876091375163
30
0
10
-5.6770646083731915
20
-81.661973940492061
30
0
10
-5.808362221247676
20
-82.045071354144767
30
0
10
-5.9144892222553427
20
-82.425074505433656
30
0
10
-5.9916213799889411
20
-82.796906717235572
30
0
10
-6.0407920016400247
20
-83.160414323743424
30
0
10
-6.0663817387141146
20
-83.519079405415695
30
0
10
-6.0744027061267074
20
-83.878529495508118
30
0
10
-6.0708534822292641
20
-84.245128812102564
30
0
10
-6.0601063208457164
20
-84.624570731066612
30
0
10
-6.0431459260798164
20
-85.020403471185588
30
0
10
-6.016225850933715
20
-85.432753615421774
30
0
10
-5.9729543467474642
20
-85.858791437011007
30
0
10
-5.9060755390902164
20
-86.292999001236197
30
0
10
-5.809293442922538
20
-86.727515166516824
30
0
10
-5.6792377943196106
20
-87.152370048030463
30
0
10
-5.5170388349421087
20
-87.555881930591553
30
0
10
-5.3309757483140565
20
-87.924648385503545
30
0
10
-5.1355660699224082
20
-88.244860999152223
30
0
10
-4.9462788244759031
20
-88.505115445633464
30
0
10
-4.7749912003609953
20
-88.699177742001083
30
0
10
-4.62592162025358
20
-88.828146955432871
30
0
10
-4.4894182695160847
20
-88.904522831263208
30
0
10
-4.3424165545611606
20
-88.950680502504582
30
0
10
-4.1630801879864627
20
-88.985981833926658
30
0
10
-3.9466331486354793
20
-89.012319424616038
30
0
10
-3.7526634028293842
20
-89.015357277744698
30
0
10
-3.6018729118237265
20
-89.000273934402031
30
0
10
-3.5001013481372096
20
-88.981287506707162
30
0
10
-3.4489031356989246
20
-88.969562794341897
30
0
0
SPLINE
5
385
100
AcDbEntity
8
0
100
AcDbSpline
70
1064
71
5
72
26
73
20
74
0
42
0.000000001
43
0.0000000001
44
0.0000000001
40
0
40
0
40
0
40
0
40
0
40
0
40
0.066666666666666666
40
0.13333333333333333
40
0.20000000000000001
40
0.26666666666666666
40
0.33333333333333331
40
0.39999999999999997
40
0.46666666666666662
40
0.53333333333333333
40
0.59999999999999998
40
0.66666666666666663
40
0.73333333333333328
40
0.79999999999999993
40
0.86666666666666659
40
0.93333333333333324
40
1
40
1
40
1
40
1
40
1
40
1
10
22.42768617421925
20
-94.866600156802733
30
0
10
22.377673477572145
20
-94.86055392197288
30
0
10
22.268205952654181
20
-94.850299569098325
30
0
10
22.075675983734229
20
-94.840430832068563
30
0
10
21.76578057159956
20
-94.839458766759037
30
0
10
21.307879697678935
20
-94.863867976856284
30
0
10
20.800237242540874
20
-94.918646601997366
30
0
10
20.258389589395971
20
-95.004118362229505
30
0
10
19.688978569799541
20
-95.114609269782846
30
0
10
19.093842842590046
20
-95.241147184710755
30
0
10
18.472327278666814
20
-95.373031653515241
30
0
10
17.824350734657912
20
-95.499751156580572
30
0
10
17.153122591766174
20
-95.612654474189227
30
0
10
16.468473562923588
20
-95.706925978093366
30
0
10
15.784447552707027
20
-95.780652838403014
30
0
10
15.116625435007323
20
-95.833802596367661
30
0
10
14.607020941188729
20
-95.860650461692487
30
0
10
14.243643911654091
20
-95.87250570847236
30
0
10
14.010382980983803
20
-95.876813999532786
30
0
10
13.896000161048319
20
-95.878069336118884
30
0
0
SPLINE
5
386
100
AcDbEntity
8
0
100
AcDbSpline
70
1064
71
5
72
31
73
25
74
0
42
0.000000001
43
0.0000000001
44
0.0000000001
40
0
40
0
40
0
40
0
40
0
40
0
40
0.050000000000000003
40
0.10000000000000001
40
0.15000000000000002
40
0.20000000000000001
40
0.25
40
0.29999999999999999
40
0.34999999999999998
40
0.39999999999999997
40
0.44999999999999996
40
0.49999999999999994
40
0.54999999999999993
40
0.59999999999999998
40
0.65000000000000002
40
0.70000000000000007
40
0.75000000000000011
40
0.80000000000000016
40
0.8500000000000002
40
0.90000000000000024
40
0.95000000000000029
40
1
40
1
40
1
40
1
40
1
40
1
10
17.629077271978755
20
-78.747258226164789
30
0
10
17.608554887726534
20
-78.80377775953194
30
0
10
17.564798699615235
20
-78.920128327254915
30
0
10
17.491030296552442
20
-79.10458849241094
30
0
10
17.378046165233179
20
-79.368053116441715
30
0
10
17.221766559166507
20
-79.712966529622364
30
0
10
17.062075382793765
20
-80.056024089500823
30
0
10
16.910059778553943
20
-80.379800322052915
30
0
10
16.773366808546612
20
-80.670753241799147
30
0
10
16.653323036930203
20
-80.923085251874397
30
0
10
16.541809553626397
20
-81.14292211249834
30
0
10
16.425238376066872
20
-81.343238489764275
30
0
10
16.288868333285933
20
-81.538325467960178
30
0
10
16.120554441127943
20
-81.739081086538874
30
0
10
15.91576277546257
20
-81.946512513431159
30
0
10
15.677878012276626
20
-82.15204609815126
30
0
10
15.415166064319635
20
-82.342633826989484
30
0
10
15.138784304042446
20
-82.504550609648831
30
0
10
14.860563364117546
20
-82.627314073176237
30
0
10
14.59065518204752
20
-82.708573887925255
30
0
10
14.336148526976251
20
-82.755515146758597
30
0
10
14.148653712176957
20
-82.774293190318289
30
0
10
14.018258134608878
20
-82.782464644860354
30
0
10
13.935977845762283
20
-82.785945915431114
30
0
10
13.896000161048319
20
-82.787195218078409
30
0
0
LINE
5
387
100
AcDbEntity
8
0
100
AcDbLine
10
23.454118144389408
20
-88.41001195734529
30
0
11
22.42768617421925
21
-94.866600156802733
31
0
0
LINE
5
388
100
AcDbEntity
8
0
100
AcDbLine
10
17.629077271978755
20
-78.747258226164789
30
0
11
21.60285129473651
21
-80.038734783561068
31
0
0
SPLINE
5
389
100
AcDbEntity
8
0
100
AcDbSpline
70
1064
71
5
72
36
73
30
74
0
42
0.000000001
43
0.0000000001
44
0.0000000001
40
0
40
0
40
0
40
0
40
0
40
0
40
0.040000000000000001
40
0.080000000000000002
40
0.12
40
0.16
40
0.20000000000000001
40
0.24000000000000002
40
0.28000000000000003
40
0.32000000000000001
40
0.35999999999999999
40
0.39999999999999997
40
0.43999999999999995
40
0.47999999999999993
40
0.51999999999999991
40
0.55999999999999994
40
0.59999999999999998
40
0.64000000000000001
40
0.68000000000000005
40
0.72000000000000008
40
0.76000000000000012
40
0.80000000000000016
40
0.84000000000000019
40
0.88000000000000023
40
0.92000000000000026
40
0.9600000000000003
40
1
40
1
40
1
40
1
40
1
40
1
10
23.454118144389408
20
-88.41001195734529
30
0
10
23.417903932223581
20
-88.41317142606043
30
0
10
23.342967026531518
20
-88.416843163443644
30
0
10
23.223034851289885
20
-88.414408675458759
30
0
10
23.055682762061444
20
-88.396291691546196
30
0
10
22.866301822051376
20
-88.35353967581004
30
0
10
22.7177888510918
20
-88.294746066698067
30
0
10
22.59458244829726
20
-88.220342468626427
30
0
10
22.464752219909577
20
-88.125744597483859
30
0
10
22.306755861159523
20
-87.998851509949318
30
0
10
22.119226957994165
20
-87.821475882556072
30
0
10
21.911135810059207
20
-87.575872557851596
30
0
10
21.697271687409515
20
-87.249641960263943
30
0
10
21.491153193601559
20
-86.842100258476918
30
0
10
21.300568636366545
20
-86.367940818156967
30
0
10
21.129852281737453
20
-85.850604120082437
30
0
10
20.981214715065111
20
-85.317298249774794
30
0
10
20.856422456812133
20
-84.793379492084568
30
0
10
20.758260199560794
20
-84.297184558136934
30
0
10
20.692195790312326
20
-83.834211071805086
30
0
10
20.667683725519034
20
-83.392420001579879
30
0
10
20.700852245663327
20
-82.933312856991122
30
0
10
20.791084802036945
20
-82.44659998373082
30
0
10
20.92880961348887
20
-81.936092829390475
30
0
10
21.09766804738253
20
-81.417558553783707
30
0
10
21.278738944799702
20
-80.912152705533913
30
0
10
21.418810354849857
20
-80.535888160808668
30
0
10
21.514969724518298
20
-80.277261832569067
30
0
10
21.574345772457495
20
-80.116329647695167
30
0
10
21.60285129473651
20
-80.038734783561068
30
0
0
LWPOLYLINE
5
390
100
AcDbEntity
8
0
100
AcDbPolyline
90
6
70
1
43
0.0
10
11.217459475894058
20
-82.787195218078409
10
10.842459475894058
20
-82.787195218078409
10
10.842459475894064
20
-95.878069336118884
10
11.217459475894064
20
-95.878069336118884
10
11.967459475894065
20
-95.878069336118884
10
11.967459475894058
20
-82.787195218078409
0
LWPOLYLINE
5
391
100
AcDbEntity
8
0
100
AcDbPolyline
90
6
70
1
43
0.0
10
13.521000161048319
20
-82.787195218078409
10
13.896000161048319
20
-82.787195218078409
10
13.896000161048319
20
-95.878069336118884
10
13.521000161048319
20
-95.878069336118884
10
12.771000161048319
20
-95.878069336118884
10
12.771000161048319
20
-82.787195218078409
0
LINE
5
392
100
AcDbEntity
8
0
100
AcDbLine
10
11.217459475894062
20
-83.170018773862367
30
0
11
11.217459475894058
21
-83.500002664843876
31
0
0
LINE
5
393
100
AcDbEntity
8
0
100
AcDbLine
10
13.521000161048319
20
-83.25037733102522
30
0
11
13.521000161048319
21
-83.541833066856185
31
0
0
LINE
5
394
100
AcDbEntity
8
0
100
AcDbLine
10
11.217459475894058
20
-95.445108060693769
30
0
11
11.217459475893961
21
-95.100003035049724
31
0
0
LINE
5
395
100
AcDbEntity
8
0
100
AcDbLine
10
13.521000161048319
20
-95.386938459514653
30
0
11
13.521000161048319
21
-95.141833437062033
31
0
0
LINE
5
396
100
AcDbEntity
8
0
100
AcDbLine
10
11.217459475894058
20
-82.787195218078409
30
0
11
11.217459475894058
21
-82.900002645695295
31
0
0
LINE
5
397
100
AcDbEntity
8
0
100
AcDbLine
10
13.521000161048319
20
-82.787195218078409
30
0
11
13.524236290428981
21
-82.890751358259593
31
0
0
LINE
5
398
100
AcDbEntity
8
0
100
AcDbLine
10
13.521000161048319
20
-95.878069336118884
30
0
11
13.521000161048319
21
-95.784484634410731
31
0
0
LINE
5
399
100
AcDbEntity
8
0
100
AcDbLine
10
11.217459475894064
20
-95.878069336118884
30
0
11
11.217459475894064
21
-95.800003057389745
31
0
0
LINE
5
400
100
AcDbEntity
8
0
100
AcDbLine
10
-16.534105923555163
20
-95.473396089815353
30
0
11
-15.987069122031324
21
-88.663097285966202
31
0
0
LINE
5
401
100
AcDbEntity
8
0
100
AcDbLine
10
-15.987069122031324
20
-88.663097285966202
30
0
11
-15.987069122031324
21
-88.641132051547899
31
0
0
LINE
5
402
100
AcDbEntity
8
0
100
AcDbLine
10
-15.987069122031324
20
-88.641132051547899
30
0
11
-15.789308101780557
21
-95.474721637044084
31
0
0
LINE
5
403
100
AcDbEntity
8
0
100
AcDbLine
10
-10.239635310872433
20
-95.484598617310951
30
0
11
-10.762427587571418
21
-88.672395794775909
31
0
0
LINE
5
404
100
AcDbEntity
8
0
100
AcDbLine
10
-10.762427587571418
20
-88.672395794775909
30
0
11
-10.984433132647037
21
-95.483273070082191
31
0
0
LINE
5
405
100
AcDbEntity
8
0
100
AcDbLine
10
-3.4533288254613006
20
-95.496676485280219
30
0
11
-10.239635310872433
21
-95.484598617310951
31
0
0
LINE
5
406
100
AcDbEntity
8
0
100
AcDbLine
10
-10.984433132647037
20
-95.483273070082191
30
0
11
-13.386870617213788
21
-95.478997353563145
31
0
0
LINE
5
407
100
AcDbEntity
8
0
100
AcDbLine
10
-23.320412408966277
20
-95.461318221846085
30
0
11
-16.534105923555163
21
-95.473396089815353
31
0
0
LINE
5
408
100
AcDbEntity
8
0
100
AcDbLine
10
-15.789308101780557
20
-95.474721637044084
30
0
11
-13.386870617213788
21
-95.478997353563145
31
0
0
SPLINE
5
409
100
AcDbEntity
8
0
100
AcDbSpline
70
1064
71
5
72
36
73
30
74
0
42
0.000000001
43
0.0000000001
44
0.0000000001
40
0
40
0
40
0
40
0
40
0
40
0
40
0.040000000000000001
40
0.080000000000000002
40
0.12
40
0.16
40
0.20000000000000001
40
0.24000000000000002
40
0.28000000000000003
40
0.32000000000000001
40
0.35999999999999999
40
0.39999999999999997
40
0.43999999999999995
40
0.47999999999999993
40
0.51999999999999991
40
0.55999999999999994
40
0.59999999999999998
40
0.64000000000000001
40
0.68000000000000005
40
0.72000000000000008
40
0.76000000000000012
40
0.80000000000000016
40
0.84000000000000019
40
0.88000000000000023
40
0.92000000000000026
40
0.9600000000000003
40
1
40
1
40
1
40
1
40
1
40
1
10
20.227892183386889
20
115.3958526632799
30
0
10
20.191677971221061
20
115.39269319456477
30
0
10
20.116741065305757
20
115.38902147128225
30
0
10
19.996808889059452
20
115.3914560227263
30
0
10
19.829456797687751
20
115.40957314202872
30
0
10
19.640075855978992
20
115.45232526508846
30
0
10
19.491562885941221
20
115.51111881597258
30
0
10
19.368356485914287
20
115.58552223920911
30
0
10
19.238526260235925
20
115.68011993919283
30
0
10
19.08052990280498
20
115.80701294339292
30
0
10
18.893000999436811
20
115.98438858360225
30
0
10
18.684909850236494
20
116.22999198824473
30
0
10
18.471045726034745
20
116.55622268387803
30
0
10
18.264927231044204
20
116.96376446036186
30
0
10
18.074342673258077
20
117.43792393548594
30
0
10
17.903626318709659
20
117.95526062845748
30
0
10
17.754988752564081
20
118.48856646549379
30
0
10
17.63019649500783
20
119.01248517917911
30
0
10
17.532034238340593
20
119.50868007623677
30
0
10
17.465969829367701
20
119.97165354516252
30
0
10
17.441457764510506
20
120.41344461942441
30
0
10
17.474626284509739
20
120.8725517731741
30
0
10
17.564858840772249
20
121.35926465344791
30
0
10
17.702583652202286
20
121.86977180916809
30
0
10
17.871442086156943
20
122.38830608092111
30
0
10
18.052512983679947
20
122.89371192248773
30
0
10
18.192584393807579
20
123.26997646232257
30
0
10
18.288743763508538
20
123.52860278851172
30
0
10
18.348119811454971
20
123.68953497293001
30
0
10
18.376625333733987
20
123.76712983706413
30
0
0
SPLINE
5
410
100
AcDbEntity
8
0
100
AcDbSpline
70
1064
71
5
72
26
73
20
74
0
42
0.000000001
43
0.0000000001
44
0.0000000001
40
0
40
0
40
0
40
0
40
0
40
0
40
0.066666666666666666
40
0.13333333333333333
40
0.20000000000000001
40
0.26666666666666666
40
0.33333333333333331
40
0.39999999999999997
40
0.46666666666666662
40
0.53333333333333333
40
0.59999999999999998
40
0.66666666666666663
40
0.73333333333333328
40
0.79999999999999993
40
0.86666666666666659
40
0.93333333333333324
40
1
40
1
40
1
40
1
40
1
40
1
10
19.20146021321673
20
100.93926446382247
30
0
10
19.151447516569625
20
100.94531069865231
30
0
10
19.041979991651662
20
100.9555650515277
30
0
10
18.849450022731773
20
100.96543378856204
30
0
10
18.539554610597143
20
100.96640585387519
30
0
10
18.081653736676504
20
100.94199664377348
30
0
10
17.574011281538315
20
100.88721801862509
30
0
10
17.03216362839326
20
100.80174625838771
30
0
10
16.462752608796738
20
100.69125535083283
30
0
10
15.867616881587244
20
100.56471743590724
30
0
10
15.246101317664134
20
100.43283296710692
30
0
10
14.598124773655396
20
100.30611346404513
30
0
10
13.92689663076376
20
100.19321014643742
30
0
10
13.242247601921209
20
100.09893864253243
30
0
10
12.558221591704617
20
100.02521178222139
30
0
10
11.890399474004857
20
99.972062024256161
30
0
10
11.380794980186225
20
99.945214158931762
30
0
10
11.017417950651568
20
99.933358912152656
30
0
10
10.784157019981278
20
99.929050621092401
30
0
10
10.669774200045794
20
99.927795284506303
30
0
0
LINE
5
411
100
AcDbEntity
8
0
100
AcDbLine
10
20.227892183386889
20
115.3958526632799
30
0
11
19.20146021321673
21
100.93926446382247
31
0
0
LINE
5
412
100
AcDbEntity
8
0
100
AcDbLine
10
1.5509147659026024
20
109.20919817141683
30
0
11
2.1380881868748678
21
100.93926446382247
31
0
0
SPLINE
5
413
100
AcDbEntity
8
0
100
AcDbSpline
70
1064
71
5
72
26
73
20
74
0
42
0.000000001
43
0.0000000001
44
0.0000000001
40
0
40
0
40
0
40
0
40
0
40
0
40
0.066666666666666666
40
0.13333333333333333
40
0.20000000000000001
40
0.26666666666666666
40
0.33333333333333331
40
0.39999999999999997
40
0.46666666666666662
40
0.53333333333333333
40
0.59999999999999998
40
0.66666666666666663
40
0.73333333333333328
40
0.79999999999999993
40
0.86666666666666659
40
0.93333333333333324
40
1
40
1
40
1
40
1
40
1
40
1
10
2.1380881868748678
20
100.93926446382247
30
0
10
2.1881008835219724
20
100.94531069865231
30
0
10
2.2975684084400561
20
100.9555650515277
30
0
10
2.4900983773605949
20
100.96543378856204
30
0
10
2.7999937894957259
20
100.96640585387519
30
0
10
3.2578946634157568
20
100.94199664377348
30
0
10
3.765537118552901
20
100.88721801862509
30
0
10
4.3073847716971647
20
100.80174625838771
30
0
10
4.876795791293425
20
100.69125535083283
30
0
10
5.4719315185032267
20
100.56471743590724
30
0
10
6.0934470824269571
20
100.43283296710692
30
0
10
6.7414236264362675
20
100.30611346404513
30
0
10
7.4126517693281162
20
100.19321014643742
30
0
10
8.0973007981706218
20
100.09893864253243
30
0
10
8.7813268083870355
20
100.02521178222139
30
0
10
9.4491489260866679
20
99.972062024256161
30
0
10
9.9587534199053032
20
99.945214158931762
30
0
10
10.322130449440021
20
99.933358912152656
30
0
10
10.555391380110324
20
99.929050621092401
30
0
10
10.669774200045808
20
99.927795284506303
30
0
0
LINE
5
414
100
AcDbEntity
8
0
100
AcDbLine
10
18.376625333733987
20
123.76712983706413
30
0
11
1.5509147659026024
21
109.20919817141683
31
0
0
SPLINE
5
415
100
AcDbEntity
8
0
100
AcDbSpline
70
1064
71
5
72
31
73
25
74
0
42
0.000000001
43
0.0000000001
44
0.0000000001
40
0
40
0
40
0
40
0
40
0
40
0
40
0.050000000000000003
40
0.10000000000000001
40
0.15000000000000002
40
0.20000000000000001
40
0.25
40
0.29999999999999999
40
0.34999999999999998
40
0.39999999999999997
40
0.44999999999999996
40
0.49999999999999994
40
0.54999999999999993
40
0.59999999999999998
40
0.65000000000000002
40
0.70000000000000007
40
0.75000000000000011
40
0.80000000000000016
40
0.8500000000000002
40
0.90000000000000024
40
0.95000000000000029
40
1
40
1
40
1
40
1
40
1
40
1
10
6.9366970891153761
20
126.79679871986735
30
0
10
6.9572194733675969
20
126.7402791865002
30
0
10
7.0009720542176632
20
126.62399758220032
30
0
10
7.0747242249871416
20
126.43984774514281
30
0
10
7.1876699231574417
20
126.17711788396453
30
0
10
7.3438995779155682
20
125.83315943719167
30
0
10
7.5035687549049435
20
125.49052246033523
30
0
10
7.6556138925209103
20
125.16618161030485
30
0
10
7.7923949834769308
20
124.87354399904336
30
0
10
7.9125656911746738
20
124.618785231849
30
0
10
8.0241870903308588
20
124.3968852418093
30
0
10
8.1407782505862638
20
124.19618683644474
30
0
10
8.2770310073978948
20
124.00334212505075
30
0
10
8.4450849115015227
20
123.80755694400177
30
0
10
8.6495528369707131
20
123.60631476463543
30
0
10
8.8871932177654571
20
123.40545326922691
30
0
10
9.1498852499396417
20
123.21524628924713
30
0
10
9.4265655037982139
20
123.04762292247699
30
0
10
9.7053960755264388
20
122.91320455116964
30
0
10
9.9760449866843732
20
122.81778351785449
30
0
10
10.23106711831297
20
122.76098740612325
30
0
10
10.418476648554108
20
122.74383982811881
30
0
10
10.548378691331179
20
122.74510374497092
30
0
10
10.630119142826052
20
122.75194305564452
30
0
10
10.669774200045801
20
122.75686172795375
30
0
0
SPLINE
5
416
100
AcDbEntity
8
0
100
AcDbSpline
70
1064
71
5
72
31
73
25
74
0
42
0.000000001
43
0.0000000001
44
0.0000000001
40
0
40
0
40
0
40
0
40
0
40
0
40
0.050000000000000003
40
0.10000000000000001
40
0.15000000000000002
40
0.20000000000000001
40
0.25
40
0.29999999999999999
40
0.34999999999999998
40
0.39999999999999997
40
0.44999999999999996
40
0.49999999999999994
40
0.54999999999999993
40
0.59999999999999998
40
0.65000000000000002
40
0.70000000000000007
40
0.75000000000000011
40
0.80000000000000016
40
0.8500000000000002
40
0.90000000000000024
40
0.95000000000000029
40
1
40
1
40
1
40
1
40
1
40
1
10
14.402851310976223
20
126.79679871986735
30
0
10
14.382328926724002
20
126.7402791865002
30
0
10
14.338576345873912
20
126.62399758220026
30
0
10
14.264824175104401
20
126.43984774514247
30
0
10
14.151878476934041
20
126.17711788396352
30
0
10
13.995648822175905
20
125.83315943718992
30
0
10
13.835979645186542
20
125.49052246033349
30
0
10
13.683934507570621
20
125.16618161030372
30
0
10
13.547153416614664
20
124.87354399904349
30
0
10
13.426982708916977
20
124.61878523184986
30
0
10
13.315361309760844
20
124.39688524181048
30
0
10
13.198770149505403
20
124.19618683644545
30
0
10
13.062517392693756
20
124.00334212505091
30
0
10
12.894463488590015
20
123.8075569440016
30
0
10
12.68999556312076
20
123.60631476463526
30
0
10
12.452355182325926
20
123.40545326922701
30
0
10
12.189663150151711
20
123.21524628924725
30
0
10
11.912982896293247
20
123.04762292247707
30
0
10
11.634152324565221
20
122.91320455116958
30
0
10
11.363503413407532
20
122.81778351785449
30
0
10
11.108481281778982
20
122.76098740612332
30
0
10
10.921071751537646
20
122.74383982811889
30
0
10
10.791169708760453
20
122.74510374497092
30
0
10
10.709429257265549
20
122.75194305564452
30
0
10
10.669774200045801
20
122.75686172795375
30
0
0
LINE
5
417
100
AcDbEntity
8
0
100
AcDbLine
10
1.1116562167047337
20
117.1340449886869
30
0
11
1.5509147659026259
21
110.94739049682384
31
0
0
LINE
5
418
100
AcDbEntity
8
0
100
AcDbLine
10
6.9366970891153761
20
126.79679871986735
30
0
11
2.9629230663576327
21
125.50532216247109
31
0
0
SPLINE
5
419
100
AcDbEntity
8
0
100
AcDbSpline
70
1064
71
5
72
36
73
30
74
0
42
0.000000001
43
0.0000000001
44
0.0000000001
40
0
40
0
40
0
40
0
40
0
40
0
40
0.040000000000000001
40
0.080000000000000002
40
0.12
40
0.16
40
0.20000000000000001
40
0.24000000000000002
40
0.28000000000000003
40
0.32000000000000001
40
0.35999999999999999
40
0.39999999999999997
40
0.43999999999999995
40
0.47999999999999993
40
0.51999999999999991
40
0.55999999999999994
40
0.59999999999999998
40
0.64000000000000001
40
0.68000000000000005
40
0.72000000000000008
40
0.76000000000000012
40
0.80000000000000016
40
0.84000000000000019
40
0.88000000000000023
40
0.92000000000000026
40
0.9600000000000003
40
1
40
1
40
1
40
1
40
1
40
1
10
1.1116562167047337
20
117.1340449886869
30
0
10
1.1478704288705595
20
117.13088551997176
30
0
10
1.2228073362622969
20
117.12721379680973
30
0
10
1.3427395191532068
20
117.1296483487959
30
0
10
1.5100916247009444
20
117.14776546925316
30
0
10
1.6994725776469151
20
117.19051759322684
30
0
10
1.8479855415878865
20
117.24931114361368
30
0
10
1.9711919233087067
20
117.32371456535948
30
0
10
2.1010221310658688
20
117.41831226388406
30
0
10
2.2590184797712665
20
117.5452052673741
30
0
10
2.4465473844813559
20
117.72258090769266
30
0
10
2.6546385420515652
20
117.96818431301622
30
0
10
2.8685026765191988
20
118.29441500948536
30
0
10
3.074621179330896
20
118.70195678660676
30
0
10
3.2652057407611941
20
119.17611626202864
30
0
10
3.4359220947753046
20
119.69345295495741
30
0
10
3.5845596574372172
20
120.22675879170961
30
0
10
3.7093519103859309
20
120.75067750501896
30
0
10
3.8075141631905853
20
121.24687240176121
30
0
10
3.8735785703409373
20
121.70984587053823
30
0
10
3.8980906356207949
20
122.15163694483465
30
0
10
3.864922116580785
20
122.61074409866254
30
0
10
3.7746895610526603
20
123.09745697899621
30
0
10
3.6369647497671282
20
123.60796413472791
30
0
10
3.4681063154089622
20
124.12649840644788
30
0
10
3.2870354171861744
20
124.63190424795755
30
0
10
3.1469640065464555
20
125.00816878775085
30
0
10
3.0508046366307919
20
125.2667951139226
30
0
10
2.9914285886366487
20
125.42772729833698
30
0
10
2.9629230663576327
20
125.50532216247109
30
0
0
LINE
5
420
100
AcDbEntity
8
0
100
AcDbLine
10
18.376625333733966
20
125.50532216247109
30
0
11
1.5509147659026259
21
110.94739049682384
31
0
0
LINE
5
421
100
AcDbEntity
8
0
100
AcDbLine
10
14.402851310976223
20
126.79679871986735
30
0
11
18.376625333733966
21
125.50532216247109
31
0
0
SPLINE
5
422
100
AcDbEntity
8
0
100
AcDbSpline
70
1064
71
5
72
41
73
35
74
0
42
0.000000001
43
0.0000000001
44
0.0000000001
40
0
40
0
40
0
40
0
40
0
40
0
40
0.033333333333333333
40
0.066666666666666666
40
0.10000000000000001
40
0.13333333333333333
40
0.16666666666666666
40
0.19999999999999998
40
0.23333333333333331
40
0.26666666666666666
40
0.29999999999999999
40
0.33333333333333331
40
0.36666666666666664
40
0.39999999999999997
40
0.43333333333333329
40
0.46666666666666662
40
0.49999999999999994
40
0.53333333333333333
40
0.56666666666666665
40
0.59999999999999998
40
0.6333333333333333
40
0.66666666666666663
40
0.69999999999999996
40
0.73333333333333328
40
0.76666666666666661
40
0.79999999999999993
40
0.83333333333333326
40
0.86666666666666659
40
0.89999999999999991
40
0.93333333333333324
40
0.96666666666666656
40
1
40
1
40
1
40
1
40
1
40
1
10
-21.305331338947926
20
125.5265955187437
30
0
10
-21.275402748115269
20
125.46958869266123
30
0
10
-21.215030768884038
20
125.35253963926631
30
0
10
-21.122928497926896
20
125.16785995846804
30
0
10
-20.997916361373917
20
124.90443616241129
30
0
10
-20.84321580758315
20
124.55266859375682
30
0
10
-20.697024252206781
20
124.18659633968586
30
0
10
-20.566674774867817
20
123.81492964028901
30
0
10
-20.458511024647269
20
123.44533250710113
30
0
10
-20.376663031679886
20
123.08301835097188
30
0
10
-20.321397938751907
20
122.72889202780115
30
0
10
-20.289820717238904
20
122.38021493501874
30
0
10
-20.27733760545302
20
122.03208427637574
30
0
10
-20.278822975189041
20
121.67860737945247
30
0
10
-20.289951352919264
20
121.31422668038444
30
0
10
-20.30833590873327
20
120.93490124113079
30
0
10
-20.335076700022295
20
120.53956582803289
30
0
10
-20.3739926261423
20
120.13009086893361
30
0
10
-20.430194976873857
20
119.71082024781448
30
0
10
-20.508881287658376
20
119.28827678518846
30
0
10
-20.614058678340015
20
118.87080672224066
30
0
10
-20.747236351300913
20
118.46829100813081
30
0
10
-20.906227854157368
20
118.09178211246689
30
0
10
-21.083560780192087
20
117.75333028531411
30
0
10
-21.268738036607228
20
117.46412753890056
30
0
10
-21.450849884896794
20
117.23261270964225
30
0
10
-21.621260035665532
20
117.06223050748548
30
0
10
-21.775799447961745
20
116.95004478906574
30
0
10
-21.918375252689394
20
116.88306034225239
30
0
10
-22.05896195548009
20
116.84336768800806
30
0
10
-22.207939336074698
20
116.81841780561615
30
0
10
-22.338197491394244
20
116.81332172024619
30
0
10
-22.442766925064884
20
116.82326290148306
30
0
10
-22.515521457312804
20
116.83701610452511
30
0
10
-22.552658649160662
20
116.84567543617112
30
0
0
LINE
5
423
100
AcDbEntity
8
0
100
AcDbLine
10
-22.552658649160662
20
116.84567543617112
30
0
11
-22.166078190269449
21
105.53615709095077
31
0
0
SPLINE
5
424
100
AcDbEntity
8
0
100
AcDbSpline
70
1064
71
5
72
31
73
25
74
0
42
0.000000001
43
0.0000000001
44
0.0000000001
40
0
40
0
40
0
40
0
40
0
40
0
40
0.050000000000000003
40
0.10000000000000001
40
0.15000000000000002
40
0.20000000000000001
40
0.25
40
0.29999999999999999
40
0.34999999999999998
40
0.39999999999999997
40
0.44999999999999996
40
0.49999999999999994
40
0.54999999999999993
40
0.59999999999999998
40
0.65000000000000002
40
0.70000000000000007
40
0.75000000000000011
40
0.80000000000000016
40
0.8500000000000002
40
0.90000000000000024
40
0.95000000000000029
40
1
40
1
40
1
40
1
40
1
40
1
10
-8.7256908248820739
20
126.78473709470515
30
0
10
-8.7361616058790386
20
126.74235910619453
30
0
10
-8.7597942154441046
20
126.65529117232575
30
0
10
-8.8033165558762754
20
126.5177532113393
30
0
10
-8.876137927040423
20
126.32285269673775
30
0
10
-8.9848436192550114
20
126.07345286887966
30
0
10
-9.1037037846537512
20
125.83517263415237
30
0
10
-9.2278348322382957
20
125.62420952290452
30
0
10
-9.3578112730085756
20
125.45223543179198
30
0
10
-9.5035664535700111
20
125.32157623956108
30
0
10
-9.6804756597502291
20
125.22722925652458
30
0
10
-9.9036152217264473
20
125.16028540482299
30
0
10
-10.183093929088017
20
125.11058427118316
30
0
10
-10.517773036269766
20
125.07000663393363
30
0
10
-10.892937716950859
20
125.03421970673071
30
0
10
-11.28614629463128
20
125.00141224488057
30
0
10
-11.671282144734711
20
124.97167572953495
30
0
10
-12.023077327503877
20
124.94617468246254
30
0
10
-12.321739878850206
20
124.92639145254162
30
0
10
-12.556905576549967
20
124.91342557251686
30
0
10
-12.733846798891415
20
124.90706302005887
30
0
10
-12.845229963407423
20
124.90587866328964
30
0
10
-12.921471383424439
20
124.90634580387933
30
0
10
-12.970577943608424
20
124.9071239291345
30
0
10
-12.994699967795041
20
124.90762977871377
30
0
0
LINE
5
425
100
AcDbEntity
8
0
100
AcDbLine
10
-21.305331338947926
20
125.5265955187437
30
0
11
-17.270363575391261
21
126.76952979018048
31
0
0
SPLINE
5
426
100
AcDbEntity
8
0
100
AcDbSpline
70
1064
71
5
72
41
73
35
74
0
42
0.000000001
43
0.0000000001
44
0.0000000001
40
0
40
0
40
0
40
0
40
0
40
0
40
0.033333333333333333
40
0.066666666666666666
40
0.10000000000000001
40
0.13333333333333333
40
0.16666666666666666
40
0.19999999999999998
40
0.23333333333333331
40
0.26666666666666666
40
0.29999999999999999
40
0.33333333333333331
40
0.36666666666666664
40
0.39999999999999997
40
0.43333333333333329
40
0.46666666666666662
40
0.49999999999999994
40
0.53333333333333333
40
0.56666666666666665
40
0.59999999999999998
40
0.6333333333333333
40
0.66666666666666663
40
0.69999999999999996
40
0.73333333333333328
40
0.76666666666666661
40
0.79999999999999993
40
0.83333333333333326
40
0.86666666666666659
40
0.89999999999999991
40
0.93333333333333324
40
0.96666666666666656
40
1
40
1
40
1
40
1
40
1
40
1
10
-4.6863244344066066
20
125.55617304690354
30
0
10
-4.7160499215136431
20
125.49906005201204
30
0
10
-4.7760048856107815
20
125.38179684782136
30
0
10
-4.8674492111855763
20
125.19679050161828
30
0
10
-4.9915229064997249
20
124.93292339729241
30
0
10
-5.1449703739025185
20
124.58060740496832
30
0
10
-5.2898579796839398
20
124.21401710537684
30
0
10
-5.4188836945210017
20
123.84188878531211
30
0
10
-5.5257311893448442
20
123.47190898779151
30
0
10
-5.6062890171684874
20
123.10930579136037
30
0
10
-5.6602932577064093
20
122.754984997074
30
0
10
-5.6906291732673706
20
122.40619771494146
30
0
10
-5.701873045077904
20
122.05802482841283
30
0
10
-5.6991294940773312
20
121.70455545787435
30
0
10
-5.6867041844054658
20
121.3402166782719
30
0
10
-5.6669695472513038
20
120.96095908131173
30
0
10
-5.638821740524393
20
120.56572135570492
30
0
10
-5.5984485467947422
20
120.15638751070514
30
0
10
-5.5407541705896497
20
119.73731959626195
30
0
10
-5.460564327182734
20
119.31505889204193
30
0
10
-5.3539016303159057
20
118.89796584958395
30
0
10
-5.219292058117146
20
118.49592672741495
30
0
10
-5.0589613900612331
20
118.11998614251347
30
0
10
-4.8804248780407882
20
117.78216767079398
30
0
10
-4.6942193859953933
20
117.49362588948925
30
0
10
-4.511284621110013
20
117.26276074866017
30
0
10
-4.3402690794138756
20
117.09298619581119
30
0
10
-4.1853313243317878
20
116.98135126659844
30
0
10
-4.0425179936337026
20
116.91487473853357
30
0
10
-3.9017908966090955
20
116.87568274999578
30
0
10
-3.7527256514001288
20
116.8512633062884
30
0
10
-3.6224501818908048
20
116.84663090329553
30
0
10
-3.5179167960047
20
116.85694423339584
30
0
10
-3.4452116787760181
20
116.87095631694157
30
0
10
-3.4081055448275941
20
116.87974778247934
30
0
0
LINE
5
427
100
AcDbEntity
8
0
100
AcDbLine
10
-3.4081055448275941
20
116.87974778247934
30
0
11
-22.166078190269449
21
105.53615709095077
31
0
0
LINE
5
428
100
AcDbEntity
8
0
100
AcDbLine
10
-4.6863244344066066
20
125.55617304690354
30
0
11
-8.7256908248820739
21
126.78473709470515
31
0
0
SPLINE
5
429
100
AcDbEntity
8
0
100
AcDbSpline
70
1064
71
5
72
31
73
25
74
0
42
0.000000001
43
0.0000000001
44
0.0000000001
40
0
40
0
40
0
40
0
40
0
40
0
40
0.050000000000000003
40
0.10000000000000001
40
0.15000000000000002
40
0.20000000000000001
40
0.25
40
0.29999999999999999
40
0.34999999999999998
40
0.39999999999999997
40
0.44999999999999996
40
0.49999999999999994
40
0.54999999999999993
40
0.59999999999999998
40
0.65000000000000002
40
0.70000000000000007
40
0.75000000000000011
40
0.80000000000000016
40
0.8500000000000002
40
0.90000000000000024
40
0.95000000000000029
40
1
40
1
40
1
40
1
40
1
40
1
10
-17.270363575391261
20
126.76952979018048
30
0
10
-17.259742017515538
20
126.7271893405704
30
0
10
-17.235799641897586
20
126.64020607785396
30
0
10
-17.191788014826756
20
126.50282390465981
30
0
10
-17.118273362299778
20
126.30818383028128
30
0
10
-17.00868062733662
20
126.05917251708686
30
0
10
-16.888973063384814
20
125.82131687113097
30
0
10
-16.764091885140267
20
125.61079693715362
30
0
10
-16.633504131016675
20
125.43928658282475
30
0
10
-16.487284796232743
20
125.30914702961314
30
0
10
-16.310040885434567
20
125.21543034740314
30
0
10
-16.086664452350572
20
125.14928117853049
30
0
10
-15.80701060573648
20
125.100575156028
30
0
10
-15.472189183811793
20
125.06118905632792
30
0
10
-15.096899497253922
20
125.02673774354065
30
0
10
-14.7035766333238
20
124.99533010395463
30
0
10
-14.318337376775087
20
124.96696465678073
30
0
10
-13.966453652375362
20
124.94271597591762
30
0
10
-13.667722575209615
20
124.92399595193656
30
0
10
-13.432512215599331
20
124.91186721947101
30
0
10
-13.255549466849997
20
124.90613452442443
30
0
10
-13.144162792255765
20
124.90534664027406
30
0
10
-13.067923517996409
20
124.90608515700909
30
0
10
-13.018820038613393
20
124.90703807069953
30
0
10
-12.994699967795041
20
124.90762977871377
30
0
0
LWPOLYLINE
5
430
100
AcDbEntity
8
0
100
AcDbPolyline
90
6
70
1
43
0.0
10
-3.4081055448275048
20
115.14155545707236
10
-22.166078190269403
20
103.79796476554375
10
-22.373066779783915
20
104.14024494874285
10
-3.6150941343420171
20
115.48383564027145
10
-3.4081055448275048
20
115.14155545707236
10
-3.8533843317801675
20
100.59882407269191
0
LINE
5
431
100
AcDbEntity
8
0
100
AcDbLine
10
-3.8533843317801675
20
100.59882407269191
30
0
11
-12.954501293916501
21
100.58262644158317
31
0
0
LINE
5
432
100
AcDbEntity
8
0
100
AcDbLine
10
-22.055618256052838
20
100.56642881047443
30
0
11
-12.954501293916501
21
100.58262644158317
31
0
0
LINE
5
433
100
AcDbEntity
8
0
100
AcDbLine
10
-3.4081055448275941
20
116.87974778247934
30
0
11
-3.2011169553130818
21
116.53746759928026
31
0
0
LINE
5
434
100
AcDbEntity
8
0
100
AcDbLine
10
-22.166078190269449
20
105.53615709095077
30
0
11
-21.959089600754936
21
105.19387690775167
31
0
0
LINE
5
435
100
AcDbEntity
8
0
100
AcDbLine
10
-21.959089600754936
20
105.19387690775167
30
0
11
-3.2011169553130818
21
116.53746759928026
31
0
0
LINE
5
436
100
AcDbEntity
8
0
100
AcDbLine
10
1.5509147659026259
20
110.94739049682384
30
0
11
1.8126368912364836
21
110.64489830004725
31
0
0
LINE
5
437
100
AcDbEntity
8
0
100
AcDbLine
10
18.376625333733966
20
125.50532216247109
30
0
11
18.638347459067827
21
125.20282996569451
31
0
0
LINE
5
438
100
AcDbEntity
8
0
100
AcDbLine
10
18.376625333733987
20
123.76712983706413
30
0
11
18.114903208400133
21
124.06962203384072
31
0
0
LINE
5
439
100
AcDbEntity
8
0
100
AcDbLine
10
1.5509147659026024
20
109.20919817141683
30
0
11
1.2891926405687442
21
109.51169036819343
31
0
0
LINE
5
440
100
AcDbEntity
8
0
100
AcDbLine
10
1.2891926405687442
20
109.51169036819343
30
0
11
18.114903208400133
21
124.06962203384072
31
0
0
LINE
5
441
100
AcDbEntity
8
0
100
AcDbLine
10
18.638347459067827
20
125.20282996569451
30
0
11
1.8126368912364836
21
110.64489830004725
31
0
0
ENDSEC
0
SECTION
2
OBJECTS
0
DICTIONARY
5
C
100
AcDbDictionary
3
ACAD_GROUP
350
D
3
ACAD_MLINESTYLE
350
17
0
DICTIONARY
5
D
100
AcDbDictionary
0
DICTIONARY
5
1A
330
C
100
AcDbDictionary
0
DICTIONARY
5
17
100
AcDbDictionary
0
ENDSEC
0
EOF
