0
SECTION
2
HEADER
9
$INSUNITS
70
1
9
$ACADVER
1
AC1014
9
$HANDSEED
5
FFFF
0
ENDSEC
0
SECTION
2
TABLES
0
TABLE
2
VPORT
5
8
100
AcDbSymbolTable
0
ENDTAB
0
TABLE
2
LTYPE
5
5
100
AcDbSymbolTable
0
LTYPE
5
14
100
AcDbSymbolTableRecord
100
AcDbLinetypeTableRecord
2
BYBLOCK
70
0
0
LTYPE
5
15
100
AcDbSymbolTableRecord
100
AcDbLinetypeTableRecord
2
BYLAYER
70
0
0
ENDTAB
0
TABLE
2
LAYER
5
2
100
AcDbSymbolTable
70
2
0
LAYER
5
50
100
AcDbSymbolTableRecord
100
AcDbLayerTableRecord
2
0
70
0
6
CONTINUOUS
0
ENDTAB
0
TABLE
2
STYLE
5
3
100
AcDbSymbolTable
70
1
0
STYLE
5
11
100
AcDbSymbolTableRecord
100
AcDbTextStyleTableRecord
2
STANDARD
70
0
0
ENDTAB
0
TABLE
2
VIEW
5
6
100
AcDbSymbolTable
70
0
0
ENDTAB
0
TABLE
2
UCS
5
7
100
AcDbSymbolTable
70
0
0
ENDTAB
0
TABLE
2
APPID
5
9
100
AcDbSymbolTable
70
2
0
APPID
5
12
100
AcDbSymbolTableRecord
100
AcDbRegAppTableRecord
2
ACAD
70
0
0
ENDTAB
0
TABLE
2
DIMSTYLE
5
A
100
AcDbSymbolTable
70
1
0
ENDTAB
0
TABLE
2
BLOCK_RECORD
5
1
100
AcDbSymbolTable
70
1
0
BLOCK_RECORD
5
1F
100
AcDbSymbolTableRecord
100
AcDbBlockTableRecord
2
*MODEL_SPACE
0
BLOCK_RECORD
5
1B
100
AcDbSymbolTableRecord
100
AcDbBlockTableRecord
2
*PAPER_SPACE
0
ENDTAB
0
ENDSEC
0
SECTION
2
BLOCKS
0
BLOCK
5
20
100
AcDbEntity
100
AcDbBlockBegin
2
*MODEL_SPACE
0
ENDBLK
5
21
100
AcDbEntity
100
AcDbBlockEnd
0
BLOCK
5
1C
100
AcDbEntity
100
AcDbBlockBegin
2
*PAPER_SPACE
0
ENDBLK
5
1D
100
AcDbEntity
100
AcDbBlockEnd
0
ENDSEC
0
SECTION
2
ENTITIES
0
LINE
5
100
100
AcDbEntity
8
0
100
AcDbLine
10
-24.698094871492387
20
11.546591581095301
30
0
11
-20.20990999318628
21
12.91166274531933
31
0
0
LINE
5
101
100
AcDbEntity
8
0
100
AcDbLine
10
-26.511773813649523
20
1.8957201504034884
30
0
11
-26.532670934238322
21
-5.3565999553783072
31
0
0
LINE
5
102
100
AcDbEntity
8
0
100
AcDbLine
10
-26.532670934238322
20
-5.3565999553783072
30
0
11
-15.495402276735527
21
-5.3762434350639374
31
0
0
LINE
5
103
100
AcDbEntity
8
0
100
AcDbLine
10
-15.46531800945697
20
11.527489795078294
30
0
11
-15.498350559042331
21
-7.0328228404991071
31
0
0
SPLINE
5
104
100
AcDbEntity
8
0
100
AcDbSpline
70
1064
71
5
72
41
73
35
74
0
42
0.000000001
43
0.0000000001
44
0.0000000001
40
0
40
0
40
0
40
0
40
0
40
0
40
0.033333333333333333
40
0.066666666666666666
40
0.10000000000000001
40
0.13333333333333333
40
0.16666666666666666
40
0.19999999999999998
40
0.23333333333333331
40
0.26666666666666666
40
0.29999999999999999
40
0.33333333333333331
40
0.36666666666666664
40
0.39999999999999997
40
0.43333333333333329
40
0.46666666666666662
40
0.49999999999999994
40
0.53333333333333333
40
0.56666666666666665
40
0.59999999999999998
40
0.6333333333333333
40
0.66666666666666663
40
0.69999999999999996
40
0.73333333333333328
40
0.76666666666666661
40
0.79999999999999993
40
0.83333333333333326
40
0.86666666666666659
40
0.89999999999999991
40
0.93333333333333324
40
0.96666666666666656
40
1
40
1
40
1
40
1
40
1
40
1
10
-24.698094871492387
20
11.546591581095301
30
0
10
-24.660305255607962
20
11.473984591302768
30
0
10
-24.585013225596978
20
11.326956692723352
30
0
10
-24.472936835232652
20
11.100973130335113
30
0
10
-24.326067107907839
20
10.789492075690921
30
0
10
-24.151687298664431
20
10.387379168493419
30
0
10
-23.992895374167887
20
9.9779400913277385
30
0
10
-23.856163343454948
20
9.566721148199866
30
0
10
-23.746666014514986
20
9.158222101826393
30
0
10
-23.666950085474348
20
8.7547855553484979
30
0
10
-23.615405461036918
20
8.3553368665575434
30
0
10
-23.587624629358036
20
7.9563496810834149
30
0
10
-23.577943028451944
20
7.552956758041991
30
0
10
-23.580918549943256
20
7.1400038252231841
30
0
10
-23.592781006004842
20
6.7131057870257314
30
0
10
-23.613018886464875
20
6.2697493383896017
30
0
10
-23.645583950052259
20
5.8102668610526322
30
0
10
-23.696889701071278
20
5.3376089393334469
30
0
10
-23.774089152054707
20
4.8572631391042647
30
0
10
-23.883313989282041
20
4.377105804878199
30
0
10
-24.027778056022196
20
3.9073782130272443
30
0
10
-24.206247537050512
20
3.4604532279472462
30
0
10
-24.410499670934286
20
3.0511344408095975
30
0
10
-24.626119772758617
20
2.6952122805746432
30
0
10
-24.837518303430063
20
2.4059874677094761
30
0
10
-25.032166938746357
20
2.1909069601422657
30
0
10
-25.204544016010459
20
2.0489051184497784
30
0
10
-25.36172647960025
20
1.9654684797582076
30
0
10
-25.523783459922356
20
1.9143957367769544
30
0
10
-25.712345460037955
20
1.8733957202770262
30
0
10
-25.938854248740704
20
1.8416744218900449
30
0
10
-26.150820506929865
20
1.8381754048497043
30
0
10
-26.325533123835921
20
1.857182316556218
30
0
10
-26.448595176662348
20
1.8810149747295684
30
0
10
-26.511773813649523
20
1.8957201504034884
30
0
0
SPLINE
5
105
100
AcDbEntity
8
0
100
AcDbSpline
70
1064
71
5
72
31
73
25
74
0
42
0.000000001
43
0.0000000001
44
0.0000000001
40
0
40
0
40
0
40
0
40
0
40
0
40
0.050000000000000003
40
0.10000000000000001
40
0.15000000000000002
40
0.20000000000000001
40
0.25
40
0.29999999999999999
40
0.34999999999999998
40
0.39999999999999997
40
0.44999999999999996
40
0.49999999999999994
40
0.54999999999999993
40
0.59999999999999998
40
0.65000000000000002
40
0.70000000000000007
40
0.75000000000000011
40
0.80000000000000016
40
0.8500000000000002
40
0.90000000000000024
40
0.95000000000000029
40
1
40
1
40
1
40
1
40
1
40
1
10
-20.20990999318628
20
12.91166274531933
30
0
10
-20.196984760179021
20
12.859350947752601
30
0
10
-20.168477586296806
20
12.753619571296571
30
0
10
-20.117746380022432
20
12.591698978567988
30
0
10
-20.035566401075062
20
12.371156940537254
30
0
10
-19.915725828205947
20
12.099060542499437
30
0
10
-19.786255866284215
20
11.844694287934507
30
0
10
-19.65159750136559
20
11.621408410860763
30
0
10
-19.510142219834833
20
11.438432096380657
30
0
10
-19.350027092695022
20
11.296655204415911
30
0
10
-19.153574075064384
20
11.190537480907729
30
0
10
-18.903770245919915
20
11.11129041147154
30
0
10
-18.589538144752993
20
11.049351255513951
30
0
10
-18.212860584708245
20
10.997476354057708
30
0
10
-17.791342084219835
20
10.952311260844272
30
0
10
-17.351315573497327
20
10.912976155503989
30
0
10
-16.923018431474677
20
10.880286534801684
30
0
10
-16.535228656080772
20
10.855770965954244
30
0
10
-16.209746404530897
20
10.840729622169805
30
0
10
-15.956710536494681
20
10.835398324455639
30
0
10
-15.767143917752147
20
10.837726022434216
30
0
10
-15.64429776013252
20
10.842212865949726
30
0
10
-15.55573771365095
20
10.845154680802978
30
0
10
-15.496326107263899
20
10.846641334915418
30
0
10
-15.46652863128396
20
10.847266201243853
30
0
0
LINE
5
106
100
AcDbEntity
8
0
100
AcDbLine
10
-4.4532161861634503
20
1.8564616307374582
30
0
11
-4.4581336192319734
21
-5.3958869135971561
31
0
0
LINE
5
107
100
AcDbEntity
8
0
100
AcDbLine
10
-4.4581336192319734
20
-5.3958869135971561
30
0
11
-15.495402276733488
21
-5.3762434339115295
31
0
0
SPLINE
5
108
100
AcDbEntity
8
0
100
AcDbSpline
70
1064
71
5
72
41
73
35
74
0
42
0.000000001
43
0.0000000001
44
0.0000000001
40
0
40
0
40
0
40
0
40
0
40
0
40
0.033333333333333333
40
0.066666666666666666
40
0.10000000000000001
40
0.13333333333333333
40
0.16666666666666666
40
0.19999999999999998
40
0.23333333333333331
40
0.26666666666666666
40
0.29999999999999999
40
0.33333333333333331
40
0.36666666666666664
40
0.39999999999999997
40
0.43333333333333329
40
0.46666666666666662
40
0.49999999999999994
40
0.53333333333333333
40
0.56666666666666665
40
0.59999999999999998
40
0.6333333333333333
40
0.66666666666666663
40
0.69999999999999996
40
0.73333333333333328
40
0.76666666666666661
40
0.79999999999999993
40
0.83333333333333326
40
0.86666666666666659
40
0.89999999999999991
40
0.93333333333333324
40
0.96666666666666656
40
1
40
1
40
1
40
1
40
1
40
1
10
-6.2325316442241609
20
11.513727660917729
30
0
10
-6.2705794631700948
20
11.441255642118177
30
0
10
-6.3463943577153055
20
11.294496674729528
30
0
10
-6.45927441996393
20
11.068913476565822
30
0
10
-6.6072519245824708
20
10.757957173632514
30
0
10
-6.7830619382724597
20
10.3564675136248
30
0
10
-6.9433102432502283
20
9.9475962454398967
30
0
10
-7.0815051295725864
20
9.5368666010214369
30
0
10
-7.1924558052589438
20
9.1287598950026165
30
0
10
-7.2736072498892943
20
8.7256096507869216
30
0
10
-7.3265733737176602
20
8.3263469640606314
30
0
10
-7.35577421262259
20
7.9274611912024344
30
0
10
-7.3668916175065409
20
7.5241052850046435
30
0
10
-7.365386008750491
20
7.1111443769347122
30
0
10
-7.3550431589170007
20
6.6842068190439443
30
0
10
-7.3363835209732011
20
6.2407811428993289
30
0
10
-7.3054541781212139
20
5.7811856619633915
30
0
10
-7.2558311641673461
20
5.3083481131819834
30
0
10
-7.1803419790624874
20
4.8277305667250721
30
0
10
-7.0728269397531545
20
4.3471874916517175
30
0
10
-6.9300357698063531
20
3.8769486598750436
30
0
10
-6.7531582357819007
20
3.4293912491388676
30
0
10
-6.550364354072074
20
3.0193480255135907
30
0
10
-6.3360125127055298
20
2.6626606265775079
30
0
10
-6.1256448084914661
20
2.3726851790468673
30
0
10
-5.9317629790370887
20
2.1569131878773167
30
0
10
-5.759892445172393
20
2.0142986745932112
30
0
10
-5.6030079675982272
20
1.9303030780860766
30
0
10
-5.4411338058314662
20
1.8786538215662991
30
0
10
-5.2527189386035573
20
1.8369828838751197
30
0
10
-5.0263244958532374
20
1.8044555350328337
30
0
10
-4.8143720351054649
20
1.8002020524628306
30
0
10
-4.6395928704464753
20
1.8185869593124939
30
0
10
-4.5164467655606639
20
1.8419814307301796
30
0
10
-4.4532161861634503
20
1.8564616307374582
30
0
0
LINE
5
109
100
AcDbEntity
8
0
100
AcDbLine
10
-15.044555045174238
20
10.836914442553804
30
0
11
-15.8885022173937
21
10.85761795993389
31
0
0
SPLINE
5
110
100
AcDbEntity
8
0
100
AcDbSpline
70
1064
71
5
72
31
73
25
74
0
42
0.000000001
43
0.0000000001
44
0.0000000001
40
0
40
0
40
0
40
0
40
0
40
0
40
0.050000000000000003
40
0.10000000000000001
40
0.15000000000000002
40
0.20000000000000001
40
0.25
40
0.29999999999999999
40
0.34999999999999998
40
0.39999999999999997
40
0.44999999999999996
40
0.49999999999999994
40
0.54999999999999993
40
0.59999999999999998
40
0.65000000000000002
40
0.70000000000000007
40
0.75000000000000011
40
0.80000000000000016
40
0.8500000000000002
40
0.90000000000000024
40
0.95000000000000029
40
1
40
1
40
1
40
1
40
1
40
1
10
-10.715829159287148
20
12.894765740291945
30
0
10
-10.72894051272713
20
12.842500281105917
30
0
10
-10.7578238537599
20
12.736871044902946
30
0
10
-10.809131090268691
20
12.57513205417572
30
0
10
-10.892095561544268
20
12.354883930495856
30
0
10
-11.012903894400765
20
12.083215825184968
30
0
10
-11.143278445381158
20
11.829312026556336
30
0
10
-11.278730736795696
20
11.606506876495338
30
0
10
-11.420836421055343
20
11.424035227095304
30
0
10
-11.581455184575836
20
11.282829158389513
30
0
10
-11.778284680621926
20
11.177411375900066
30
0
10
-12.028369004900675
20
11.099053977911767
30
0
10
-12.342819586041134
20
11.038233714307204
30
0
10
-12.719679407051968
20
10.987699914231829
30
0
10
-13.141356001075863
20
10.944035489908915
30
0
10
-13.581519736415373
20
10.906266895247567
30
0
10
-14.00993052295158
20
10.875101992780644
30
0
10
-14.397805104172201
20
10.851966905599845
30
0
10
-14.723338833036067
20
10.838084201654889
30
0
10
-14.976392074704592
20
10.833653611484772
30
0
10
-15.165949207181924
20
10.836656051551865
30
0
10
-15.288778615790665
20
10.841580133948147
30
0
10
-15.377327629946079
20
10.844837157060137
30
0
10
-15.436733568262555
20
10.846535275629774
30
0
10
-15.466528631283971
20
10.847266201243853
30
0
0
LINE
5
111
100
AcDbEntity
8
0
100
AcDbLine
10
-6.2325316442241609
20
11.513727660917729
30
0
11
-10.715829159287148
21
12.894765740291945
31
0
0
LINE
5
112
100
AcDbEntity
8
0
100
AcDbLine
10
12.047177195437841
20
10.591985844886187
30
0
11
12.047177195437841
21
-8.6080147678683332
31
0
0
LINE
5
113
100
AcDbEntity
8
0
100
AcDbLine
10
7.899313738848468
20
12.503046415372449
30
0
11
3.4840092691176303
21
11.068072462709926
31
0
0
LINE
5
114
100
AcDbEntity
8
0
100
AcDbLine
10
1.4270461028366246
20
1.7666533807274634
30
0
11
2.5675260696923567
21
-5.4073335075585973
31
0
0
SPLINE
5
115
100
AcDbEntity
8
0
100
AcDbSpline
70
1064
71
5
72
36
73
30
74
0
42
0.000000001
43
0.0000000001
44
0.0000000001
40
0
40
0
40
0
40
0
40
0
40
0
40
0.040000000000000001
40
0.080000000000000002
40
0.12
40
0.16
40
0.20000000000000001
40
0.24000000000000002
40
0.28000000000000003
40
0.32000000000000001
40
0.35999999999999999
40
0.39999999999999997
40
0.43999999999999995
40
0.47999999999999993
40
0.51999999999999991
40
0.55999999999999994
40
0.59999999999999998
40
0.64000000000000001
40
0.68000000000000005
40
0.72000000000000008
40
0.76000000000000012
40
0.80000000000000016
40
0.84000000000000019
40
0.88000000000000023
40
0.92000000000000026
40
0.9600000000000003
40
1
40
1
40
1
40
1
40
1
40
1
10
1.4270461028366246
20
1.7666533807274634
30
0
10
1.4717899346861179
20
1.7627497548173792
30
0
10
1.5618982294331165
20
1.7581699604466805
30
0
10
1.6989234520544323
20
1.7609831701780343
30
0
10
1.8796697935782338
20
1.7822549693038714
30
0
10
2.0793424876745465
20
1.8300831663407879
30
0
10
2.2401899027675269
20
1.8935228873692345
30
0
10
2.3801357500228035
20
1.9753059362326828
30
0
10
2.5297126918649391
20
2.0844253106104809
30
0
10
2.7085175642660473
20
2.2338637675041069
30
0
10
2.9170063385449385
20
2.4380840806421471
30
0
10
3.1457356068165145
20
2.7098809967000639
30
0
10
3.3797976891146075
20
3.0575666489070534
30
0
10
3.6056248507827005
20
3.4815250736054444
30
0
10
3.8152456702136135
20
3.9722211536131513
30
0
10
4.0040220489114509
20
4.5139772499654747
30
0
10
4.1693326816729739
20
5.087773856751614
30
0
10
4.3089083132999733
20
5.6743964475326001
30
0
10
4.4193761114309273
20
6.2573277959819853
30
0
10
4.4946217746816082
20
6.8259412601950658
30
0
10
4.5244650838504201
20
7.3781795714716685
30
0
10
4.4920611074068209
20
7.9250741732218302
30
0
10
4.3976217448952664
20
8.4697595096870923
30
0
10
4.2504610026015115
20
9.0120068506530178
30
0
10
4.0668292155903698
20
9.5483825907741835
30
0
10
3.8656259577539016
20
10.07403963341272
30
0
10
3.7051886891380659
20
10.481843275776631
30
0
10
3.5913802948514428
20
10.778678337208492
30
0
10
3.5191865569848595
20
10.972316389695493
30
0
10
3.4840092691176303
20
11.068072462709926
30
0
0
SPLINE
5
116
100
AcDbEntity
8
0
100
AcDbSpline
70
1064
71
5
72
31
73
25
74
0
42
0.000000001
43
0.0000000001
44
0.0000000001
40
0
40
0
40
0
40
0
40
0
40
0
40
0.050000000000000003
40
0.10000000000000001
40
0.15000000000000002
40
0.20000000000000001
40
0.25
40
0.29999999999999999
40
0.34999999999999998
40
0.39999999999999997
40
0.44999999999999996
40
0.49999999999999994
40
0.54999999999999993
40
0.59999999999999998
40
0.65000000000000002
40
0.70000000000000007
40
0.75000000000000011
40
0.80000000000000016
40
0.8500000000000002
40
0.90000000000000024
40
0.95000000000000029
40
1
40
1
40
1
40
1
40
1
40
1
10
7.899313738848468
20
12.503046415372449
30
0
10
7.9246437951043545
20
12.43328634548236
30
0
10
7.9777232096604287
20
12.291940871961785
30
0
10
8.0646000982781167
20
12.074446806489599
30
0
10
8.1932958148806208
20
11.775353589935785
30
0
10
8.3662683337055874
20
11.397002869683455
30
0
10
8.5398382927611181
20
11.027792105208613
30
0
10
8.7032920721244107
20
10.681219273951365
30
0
10
8.8497112013740633
20
10.367554503999409
30
0
10
8.9789663456811137
20
10.090744252351689
30
0
10
9.1009816949199394
20
9.8450404957576474
30
0
10
9.2312701913463862
20
9.6191197823291343
30
0
10
9.3860543786546184
20
9.400567252292797
30
0
10
9.5780628169991342
20
9.1797168108312803
30
0
10
9.8107805832073254
20
8.9548646928267086
30
0
10
10.078433457148718
20
8.7322659520963946
30
0
10
10.370039889565833
20
8.5224313662380151
30
0
10
10.672242830791236
20
8.3374768347513761
30
0
10
10.972337466768522
20
8.1883051968789804
30
0
10
11.261728416305363
20
8.0812619439451137
30
0
10
11.537458638486177
20
8.0168273173662943
30
0
10
11.74721201236788
20
7.9974654628244997
30
0
10
11.89915383850955
20
7.9995842559515884
30
0
10
11.998209184931916
20
8.0081537175445501
30
0
10
12.047177195437841
20
8.0142275354684234
30
0
0
LINE
5
117
100
AcDbEntity
8
0
100
AcDbLine
10
22.667308288039056
20
1.7666533807274634
30
0
11
21.526828321183324
21
-5.4073335075585973
31
0
0
LINE
5
118
100
AcDbEntity
8
0
100
AcDbLine
10
16.195040652027213
20
12.503046415372449
30
0
11
20.610345121758051
21
11.068072462709926
31
0
0
LINE
5
119
100
AcDbEntity
8
0
100
AcDbLine
10
19.642507328947509
20
6.1358031009043046
30
0
11
19.54368263065043
21
8.003589898719051
31
0
0
SPLINE
5
120
100
AcDbEntity
8
0
100
AcDbSpline
70
1064
71
5
72
36
73
30
74
0
42
0.000000001
43
0.0000000001
44
0.0000000001
40
0
40
0
40
0
40
0
40
0
40
0
40
0.040000000000000001
40
0.080000000000000002
40
0.12
40
0.16
40
0.20000000000000001
40
0.24000000000000002
40
0.28000000000000003
40
0.32000000000000001
40
0.35999999999999999
40
0.39999999999999997
40
0.43999999999999995
40
0.47999999999999993
40
0.51999999999999991
40
0.55999999999999994
40
0.59999999999999998
40
0.64000000000000001
40
0.68000000000000005
40
0.72000000000000008
40
0.76000000000000012
40
0.80000000000000016
40
0.84000000000000019
40
0.88000000000000023
40
0.92000000000000026
40
0.9600000000000003
40
1
40
1
40
1
40
1
40
1
40
1
10
22.667308288039056
20
1.7666533807274634
30
0
10
22.622564456189561
20
1.7627497548173792
30
0
10
22.532456162708097
20
1.7581699604466798
30
0
10
22.395430945782174
20
1.7609831701780321
30
0
10
22.214684616404089
20
1.7822549693038683
30
0
10
22.015011931906653
20
1.830083166340789
30
0
10
21.854164511541182
20
1.8935228873692358
30
0
10
21.71421864857691
20
1.9753059362326837
30
0
10
21.564641691405033
20
2.0844253106104818
30
0
10
21.385836811575508
20
2.2338637675041095
30
0
10
21.177348038492706
20
2.4380840806421609
30
0
10
20.948618777421999
20
2.7098809967000772
30
0
10
20.714556703924917
20
3.0575666489070574
30
0
10
20.488729548947337
20
3.48152507360542
30
0
10
20.279108732622049
20
3.9722211536130851
30
0
10
20.090332353449725
20
4.513977249965377
30
0
10
19.925021717691155
20
5.0877738567515154
30
0
10
19.785446082110788
20
5.674396447532537
30
0
10
19.674978280671056
20
6.2573277959819684
30
0
10
19.59973261586433
20
6.82594126019508
30
0
10
19.569889307061878
20
7.3781795714716703
30
0
10
19.602293284328212
20
7.9250741732218204
30
0
10
19.696732647468913
20
8.4697595096870852
30
0
10
19.843893389885583
20
9.012006850653016
30
0
10
20.027525176550025
20
9.5483825907741906
30
0
10
20.228728433786053
20
10.074039633412731
30
0
10
20.389165701962689
20
10.481843275776635
30
0
10
20.50297409606517
20
10.778678337208492
30
0
10
20.575167833890823
20
10.972316389695493
30
0
10
20.610345121758051
20
11.068072462709926
30
0
0
SPLINE
5
121
100
AcDbEntity
8
0
100
AcDbSpline
70
1064
71
5
72
31
73
25
74
0
42
0.000000001
43
0.0000000001
44
0.0000000001
40
0
40
0
40
0
40
0
40
0
40
0
40
0.050000000000000003
40
0.10000000000000001
40
0.15000000000000002
40
0.20000000000000001
40
0.25
40
0.29999999999999999
40
0.34999999999999998
40
0.39999999999999997
40
0.44999999999999996
40
0.49999999999999994
40
0.54999999999999993
40
0.59999999999999998
40
0.65000000000000002
40
0.70000000000000007
40
0.75000000000000011
40
0.80000000000000016
40
0.8500000000000002
40
0.90000000000000024
40
0.95000000000000029
40
1
40
1
40
1
40
1
40
1
40
1
10
16.195040652027213
20
12.503046415372449
30
0
10
16.169710595771328
20
12.43328634548236
30
0
10
16.116631181215151
20
12.291940871961797
30
0
10
16.029754292597051
20
12.074446806489677
30
0
10
15.901058575994123
20
11.775353589936008
30
0
10
15.728086057169016
20
11.397002869683858
30
0
10
15.554516098113723
20
11.027792105209071
30
0
10
15.391062318750862
20
10.681219273951669
30
0
10
15.244643189501632
20
10.367554503999417
30
0
10
15.115388045194909
20
10.090744252351415
30
0
10
14.9933726959562
20
9.8450404957572744
30
0
10
14.863084199529647
20
9.6191197823288839
30
0
10
14.708300012221191
20
9.4005672522927437
30
0
10
14.516291573876384
20
9.1797168108313745
30
0
10
14.283573807668056
20
8.9548646928268489
30
0
10
14.015920933726585
20
8.7322659520965136
30
0
10
13.724314501309516
20
8.5224313662380737
30
0
10
13.422111560084288
20
8.3374768347513939
30
0
10
13.122016924107241
20
8.1883051968789715
30
0
10
12.832625974570622
20
8.0812619439450959
30
0
10
12.556895752389799
20
8.0168273173662783
30
0
10
12.347142378507916
20
7.9974654628244917
30
0
10
12.195200552366156
20
7.9995842559515866
30
0
10
12.096145205943767
20
8.0081537175445501
30
0
10
12.047177195437841
20
8.0142275354684234
30
0
0
SPLINE
5
122
100
AcDbEntity
8
0
100
AcDbSpline
70
1064
71
5
72
26
73
20
74
0
42
0.000000001
43
0.0000000001
44
0.0000000001
40
0
40
0
40
0
40
0
40
0
40
0
40
0.066666666666666666
40
0.13333333333333333
40
0.20000000000000001
40
0.26666666666666666
40
0.33333333333333331
40
0.39999999999999997
40
0.46666666666666662
40
0.53333333333333333
40
0.59999999999999998
40
0.66666666666666663
40
0.73333333333333328
40
0.79999999999999993
40
0.86666666666666659
40
0.93333333333333324
40
1
40
1
40
1
40
1
40
1
40
1
10
2.5675260696923567
20
-5.4073335075585973
30
0
10
2.6292969931182006
20
-5.3998657736884415
30
0
10
2.7608264739828399
20
-5.3872547964073147
30
0
10
2.9820839736417546
20
-5.3753102073335564
30
0
10
3.3234624229184906
20
-5.3744169253251162
30
0
10
3.8187801753981154
20
-5.40321424990222
30
0
10
4.3717486226296201
20
-5.466009691073455
30
0
10
4.9718279187300594
20
-5.5623051723686325
30
0
10
5.6103340862388595
20
-5.685507312722323
30
0
10
6.2798545324648485
20
-5.82570418757492
30
0
10
6.974031906267296
20
-5.9712989069493503
30
0
10
7.6871111794408282
20
-6.1109934957836582
30
0
10
8.4135340916209724
20
-6.2355252498409213
30
0
10
9.1474028183766389
20
-6.3397197172246962
30
0
10
9.8828717705617439
20
-6.4214933890731452
30
0
10
10.614582383315364
20
-6.4807679423419975
30
0
10
11.193382872665381
20
-6.5109984362486042
30
0
10
11.622399396620859
20
-6.5245590919186647
30
0
10
11.905988290542032
20
-6.5296386213578188
30
0
10
12.047177195437849
20
-6.5311881512432208
30
0
0
SPLINE
5
123
100
AcDbEntity
8
0
100
AcDbSpline
70
1064
71
5
72
26
73
20
74
0
42
0.000000001
43
0.0000000001
44
0.0000000001
40
0
40
0
40
0
40
0
40
0
40
0
40
0.066666666666666666
40
0.13333333333333333
40
0.20000000000000001
40
0.26666666666666666
40
0.33333333333333331
40
0.39999999999999997
40
0.46666666666666662
40
0.53333333333333333
40
0.59999999999999998
40
0.66666666666666663
40
0.73333333333333328
40
0.79999999999999993
40
0.86666666666666659
40
0.93333333333333324
40
1
40
1
40
1
40
1
40
1
40
1
10
21.526828321183324
20
-5.4073335075585973
30
0
10
21.46505739775748
20
-5.3998657736884415
30
0
10
21.333527916892891
20
-5.3872547964073147
30
0
10
21.112270417234239
20
-5.3753102073335546
30
0
10
20.770891967957805
20
-5.3744169253251126
30
0
10
20.275574215477874
20
-5.4032142499022227
30
0
10
19.722605768245863
20
-5.466009691073455
30
0
10
19.122526472145097
20
-5.5623051723686308
30
0
10
18.484020304636196
20
-5.6855073127223239
30
0
10
17.814499858410382
20
-5.825704187574928
30
0
10
17.120322484608181
20
-5.9712989069493636
30
0
10
16.407243211434881
20
-6.1109934957836627
30
0
10
15.68082029925481
20
-6.2355252498409026
30
0
10
14.946951572499108
20
-6.3397197172246464
30
0
10
14.211482620313948
20
-6.4214933890730812
30
0
10
13.479772007560285
20
-6.4807679423419415
30
0
10
12.900971518210255
20
-6.5109984362485802
30
0
10
12.471954994254817
20
-6.5245590919186602
30
0
10
12.188366100333649
20
-6.5296386213578197
30
0
10
12.047177195437834
20
-6.5311881512432217
30
0
0
CIRCLE
5
124
100
AcDbEntity
8
0
100
AcDbCircle
10
-15.468474855065178
20
9.7537229449232932
30
0
40
0.46384838455580119
0
CIRCLE
5
125
100
AcDbEntity
8
0
100
AcDbCircle
10
-15.47108095652456
20
8.289407944923294
30
0
40
0.39094793461141408
0
CIRCLE
5
126
100
AcDbEntity
8
0
100
AcDbCircle
10
-15.473687057983932
20
6.825092944923294
30
0
40
0.3222903932853145
0
CIRCLE
5
127
100
AcDbEntity
8
0
100
AcDbCircle
10
-15.476293159443312
20
5.3607779449232948
30
0
40
0.24785555894368058
0
CIRCLE
5
128
100
AcDbEntity
8
0
100
AcDbCircle
10
-15.478899260902688
20
3.8964629449232953
30
0
40
0.16514376762988806
0
CIRCLE
5
129
100
AcDbEntity
8
0
100
AcDbCircle
10
-15.481505358234983
20
2.432150263847153
30
0
40
0.12750974780931648
0
ENDSEC
0
SECTION
2
OBJECTS
0
DICTIONARY
5
C
100
AcDbDictionary
3
ACAD_GROUP
350
D
3
ACAD_MLINESTYLE
350
17
0
DICTIONARY
5
D
100
AcDbDictionary
0
DICTIONARY
5
1A
330
C
100
AcDbDictionary
0
DICTIONARY
5
17
100
AcDbDictionary
0
ENDSEC
0
EOF
