0
SECTION
2
HEADER
9
$INSUNITS
70
1
9
$ACADVER
1
AC1014
9
$HANDSEED
5
FFFF
0
ENDSEC
0
SECTION
2
TABLES
0
TABLE
2
VPORT
5
8
100
AcDbSymbolTable
0
ENDTAB
0
TABLE
2
LTYPE
5
5
100
AcDbSymbolTable
0
LTYPE
5
14
100
AcDbSymbolTableRecord
100
AcDbLinetypeTableRecord
2
BYBLOCK
70
0
0
LTYPE
5
15
100
AcDbSymbolTableRecord
100
AcDbLinetypeTableRecord
2
BYLAYER
70
0
0
ENDTAB
0
TABLE
2
LAYER
5
2
100
AcDbSymbolTable
70
2
0
LAYER
5
50
100
AcDbSymbolTableRecord
100
AcDbLayerTableRecord
2
0
70
0
6
CONTINUOUS
0
ENDTAB
0
TABLE
2
STYLE
5
3
100
AcDbSymbolTable
70
1
0
STYLE
5
11
100
AcDbSymbolTableRecord
100
AcDbTextStyleTableRecord
2
STANDARD
70
0
0
ENDTAB
0
TABLE
2
VIEW
5
6
100
AcDbSymbolTable
70
0
0
ENDTAB
0
TABLE
2
UCS
5
7
100
AcDbSymbolTable
70
0
0
ENDTAB
0
TABLE
2
APPID
5
9
100
AcDbSymbolTable
70
2
0
APPID
5
12
100
AcDbSymbolTableRecord
100
AcDbRegAppTableRecord
2
ACAD
70
0
0
ENDTAB
0
TABLE
2
DIMSTYLE
5
A
100
AcDbSymbolTable
70
1
0
ENDTAB
0
TABLE
2
BLOCK_RECORD
5
1
100
AcDbSymbolTable
70
1
0
BLOCK_RECORD
5
1F
100
AcDbSymbolTableRecord
100
AcDbBlockTableRecord
2
*MODEL_SPACE
0
BLOCK_RECORD
5
1B
100
AcDbSymbolTableRecord
100
AcDbBlockTableRecord
2
*PAPER_SPACE
0
ENDTAB
0
ENDSEC
0
SECTION
2
BLOCKS
0
BLOCK
5
20
100
AcDbEntity
100
AcDbBlockBegin
2
*MODEL_SPACE
0
ENDBLK
5
21
100
AcDbEntity
100
AcDbBlockEnd
0
BLOCK
5
1C
100
AcDbEntity
100
AcDbBlockBegin
2
*PAPER_SPACE
0
ENDBLK
5
1D
100
AcDbEntity
100
AcDbBlockEnd
0
ENDSEC
0
SECTION
2
ENTITIES
0
LINE
5
100
100
AcDbEntity
8
0
100
AcDbLine
10
-24.698140518316759
20
11.546585430789824
30
0
11
-20.209955572113291
21
12.911655506593641
31
0
0
LINE
5
101
100
AcDbEntity
8
0
100
AcDbLine
10
-26.188526229449376
20
1.8872309430044727
30
0
11
-26.209403528567623
21
-5.3571918510262222
31
0
0
LINE
5
102
100
AcDbEntity
8
0
100
AcDbLine
10
-26.209403528567623
20
-5.3571918510262222
30
0
11
-15.49544138784162
21
-5.3762558406004644
31
0
0
LINE
5
103
100
AcDbEntity
8
0
100
AcDbLine
10
-15.465363551992825
20
11.527487906424765
30
0
11
-15.498389015833553
21
-7.0328227720664369
31
0
0
SPLINE
5
104
100
AcDbEntity
8
0
100
AcDbSpline
70
1064
71
5
72
41
73
35
74
0
42
0.000000001
43
0.0000000001
44
0.0000000001
40
0
40
0
40
0
40
0
40
0
40
0
40
0.033333333333333333
40
0.066666666666666666
40
0.10000000000000001
40
0.13333333333333333
40
0.16666666666666666
40
0.19999999999999998
40
0.23333333333333331
40
0.26666666666666666
40
0.29999999999999999
40
0.33333333333333331
40
0.36666666666666664
40
0.39999999999999997
40
0.43333333333333329
40
0.46666666666666662
40
0.49999999999999994
40
0.53333333333333333
40
0.56666666666666665
40
0.59999999999999998
40
0.6333333333333333
40
0.66666666666666663
40
0.69999999999999996
40
0.73333333333333328
40
0.76666666666666661
40
0.79999999999999993
40
0.83333333333333326
40
0.86666666666666659
40
0.89999999999999991
40
0.93333333333333324
40
0.96666666666666656
40
1
40
1
40
1
40
1
40
1
40
1
10
-24.698140518316759
20
11.546585430789824
30
0
10
-24.661230599140268
20
11.475668736010856
30
0
10
-24.587720769488254
20
11.332107234915263
30
0
10
-24.478386123854794
20
11.111580713749166
30
0
10
-24.335190055086141
20
10.807823562900442
30
0
10
-24.16477990264201
20
10.415745475035543
30
0
10
-24.008558417711285
20
10.016284901190605
30
0
10
-23.872338966971704
20
9.614622169232657
30
0
10
-23.760971979937771
20
9.2150765335899099
30
0
10
-23.677295492037963
20
8.8201703492218968
30
0
10
-23.620735819654676
20
8.4294008815618291
30
0
10
-23.588066469961269
20
8.0398293391049478
30
0
10
-23.574733959668659
20
7.6471443585399879
30
0
10
-23.575956696246049
20
7.2465448922860825
30
0
10
-23.5879499578284
20
6.8337104952354562
30
0
10
-23.60900494677988
20
6.4056970037772833
30
0
10
-23.640886725735676
20
5.9619805574745115
30
0
10
-23.687862900571083
20
5.5044885425337551
30
0
10
-23.755306242711423
20
5.0374579312765251
30
0
10
-23.848451887691439
20
4.56737521382796
30
0
10
-23.971089656512625
20
4.1028979605564144
30
0
10
-24.124265085250869
20
3.6548112130651251
30
0
10
-24.304965684576629
20
3.2359640081117975
30
0
10
-24.504743295929757
20
2.8612788415060848
30
0
10
-24.712311595725453
20
2.5447603476985732
30
0
10
-24.916093037604281
20
2.2966849341730904
30
0
10
-25.106899591797276
20
2.1202704126191927
30
0
10
-25.280284584811067
20
2.0094622652718503
30
0
10
-25.43979668634525
20
1.9437127307579805
30
0
10
-25.595595512617429
20
1.8983449813027549
30
0
10
-25.761327698861557
20
1.8606679960772341
30
0
10
-25.913555764312957
20
1.8477888664191138
30
0
10
-26.044076028000617
20
1.858139471972269
30
0
10
-26.13904951630791
20
1.87574878806901
30
0
10
-26.188526229449376
20
1.8872309430044727
30
0
0
SPLINE
5
105
100
AcDbEntity
8
0
100
AcDbSpline
70
1064
71
5
72
31
73
25
74
0
42
0.000000001
43
0.0000000001
44
0.0000000001
40
0
40
0
40
0
40
0
40
0
40
0
40
0.050000000000000003
40
0.10000000000000001
40
0.15000000000000002
40
0.20000000000000001
40
0.25
40
0.29999999999999999
40
0.34999999999999998
40
0.39999999999999997
40
0.44999999999999996
40
0.49999999999999994
40
0.54999999999999993
40
0.59999999999999998
40
0.65000000000000002
40
0.70000000000000007
40
0.75000000000000011
40
0.80000000000000016
40
0.8500000000000002
40
0.90000000000000024
40
0.95000000000000029
40
1
40
1
40
1
40
1
40
1
40
1
10
-20.209955572113291
20
12.911655506593641
30
0
10
-20.197030329110927
20
12.859343792355892
30
0
10
-20.16852313010056
20
12.753612594850889
30
0
10
-20.117791870728432
20
12.591692307435254
30
0
10
-20.035611793983918
20
12.37115074045902
30
0
10
-19.915771074300178
20
12.099054982486461
30
0
10
-19.78630096237417
20
11.844689348751032
30
0
10
-19.651642460359529
20
11.621404006849275
30
0
10
-19.510187050957601
20
11.438428090644541
30
0
10
-19.350071786724243
20
11.296651455278848
30
0
10
-19.153618626163471
20
11.190533896884798
30
0
10
-18.903814661591333
20
11.11128696953522
30
0
10
-18.589582455462224
20
11.049347998509155
30
0
10
-18.212904858301432
20
10.997473359333028
30
0
10
-17.791386400819121
20
10.952308584650485
30
0
10
-17.351360004400085
20
10.912973801278664
30
0
10
-16.923063026039419
20
10.880284439442113
30
0
10
-16.535273434472714
20
10.855769005330529
30
0
10
-16.209791356518064
20
10.8407276368174
30
0
10
-15.956755627346503
20
10.835396162187127
30
0
10
-15.767189097682417
20
10.837723608089584
30
0
10
-15.644342984363879
20
10.842210305697808
30
0
10
-15.555782967440654
20
10.845152104131055
30
0
10
-15.496371381172853
20
10.846638797790778
30
0
10
-15.466573915355628
20
10.847263696511604
30
0
0
LINE
5
106
100
AcDbEntity
8
0
100
AcDbLine
10
-4.776575631623567
20
1.8491313867805879
30
0
11
-4.7814792471156151
21
-5.3953198301747092
31
0
0
LINE
5
107
100
AcDbEntity
8
0
100
AcDbLine
10
-4.7814792471156151
20
-5.3953198301747092
30
0
11
-15.495441387841622
21
-5.3762558406004644
31
0
0
SPLINE
5
108
100
AcDbEntity
8
0
100
AcDbSpline
70
1064
71
5
72
41
73
35
74
0
42
0.000000001
43
0.0000000001
44
0.0000000001
40
0
40
0
40
0
40
0
40
0
40
0
40
0.033333333333333333
40
0.066666666666666666
40
0.10000000000000001
40
0.13333333333333333
40
0.16666666666666666
40
0.19999999999999998
40
0.23333333333333331
40
0.26666666666666666
40
0.29999999999999999
40
0.33333333333333331
40
0.36666666666666664
40
0.39999999999999997
40
0.43333333333333329
40
0.46666666666666662
40
0.49999999999999994
40
0.53333333333333333
40
0.56666666666666665
40
0.59999999999999998
40
0.6333333333333333
40
0.66666666666666663
40
0.69999999999999996
40
0.73333333333333328
40
0.76666666666666661
40
0.79999999999999993
40
0.83333333333333326
40
0.86666666666666659
40
0.89999999999999991
40
0.93333333333333324
40
0.96666666666666656
40
1
40
1
40
1
40
1
40
1
40
1
10
-6.2325770871381101
20
11.513728556357126
30
0
10
-6.2697391443731219
20
11.442943662247931
30
0
10
-6.3437594019489634
20
11.299644670204371
30
0
10
-6.4538781446575326
20
11.079508635494484
30
0
10
-6.5981542895575203
20
10.776263001040238
30
0
10
-6.7699586541965155
20
10.384793835803537
30
0
10
-6.9276007132758997
20
9.9858917380154164
30
0
10
-7.065248701657568
20
9.5847163146679168
30
0
10
-7.1780368495777918
20
9.1855695315785244
30
0
10
-7.2631181632557604
20
8.7909636279964598
30
0
10
-7.321068111761929
20
8.4003979141105045
30
0
10
-7.3551236257919861
20
8.0109450991693389
30
0
10
-7.3698535026827274
20
7.6183100516776694
30
0
10
-7.3700563902113814
20
7.2177087707455243
30
0
10
-7.3595323614778465
20
6.8048343073416628
30
0
10
-7.340000680714577
20
6.3767485976095895
30
0
10
-7.309698160728848
20
5.9329215030877762
30
0
10
-7.2643503636648497
20
5.4752652106168442
30
0
10
-7.1985694739732828
20
5.007997545566389
30
0
10
-7.1070973057478843
20
4.5375863266710379
30
0
10
-6.9861132522238201
20
4.0726755826126482
30
0
10
-6.8345334031365805
20
3.624046565943952
30
0
10
-6.6553245027753682
20
3.204558952628314
30
0
10
-6.4568815514056643
20
2.8291652085088916
30
0
10
-6.2504409627457198
20
2.5119100440813078
30
0
10
-6.0475436391139565
20
2.2631110028591159
30
0
10
-5.8573661008477176
20
2.086018573667332
30
0
10
-5.6843765395413408
20
1.974594101490212
30
0
10
-5.5250994314406467
20
1.9082773263898063
30
0
10
-5.3694630422753402
20
1.8623554217469898
30
0
10
-5.2038659868572239
20
1.8240888827107007
30
0
10
-5.0516847184038642
20
1.8106680994335256
30
0
10
-4.9211284464207594
20
1.8205541559908145
30
0
10
-4.8260928930995703
20
1.8378253777074336
30
0
10
-4.776575631623567
20
1.8491313867805879
30
0
0
LINE
5
109
100
AcDbEntity
8
0
100
AcDbLine
10
-15.044600336084299
20
10.83691179840212
30
0
11
-15.88854749462708
21
10.857615594621086
31
0
0
SPLINE
5
110
100
AcDbEntity
8
0
100
AcDbSpline
70
1064
71
5
72
31
73
25
74
0
42
0.000000001
43
0.0000000001
44
0.0000000001
40
0
40
0
40
0
40
0
40
0
40
0
40
0.050000000000000003
40
0.10000000000000001
40
0.15000000000000002
40
0.20000000000000001
40
0.25
40
0.29999999999999999
40
0.34999999999999998
40
0.39999999999999997
40
0.44999999999999996
40
0.49999999999999994
40
0.54999999999999993
40
0.59999999999999998
40
0.65000000000000002
40
0.70000000000000007
40
0.75000000000000011
40
0.80000000000000016
40
0.8500000000000002
40
0.90000000000000024
40
0.95000000000000029
40
1
40
1
40
1
40
1
40
1
40
1
10
-10.71587572792248
20
12.894762126087972
30
0
10
-10.728987051174071
20
12.842496740259927
30
0
10
-10.757870336086068
20
12.73686766105368
30
0
10
-10.809177501173341
20
12.575128936670705
30
0
10
-10.89214190048477
20
12.354881221075198
30
0
10
-11.012950170550853
20
12.083213664152026
30
0
10
-11.143324675555814
20
11.829310387386375
30
0
10
-11.278776932124979
20
11.60650566961041
30
0
10
-11.420882603582772
20
11.424034310489205
30
0
10
-11.581501395520188
20
11.282828376291141
30
0
10
-11.778330953457306
20
11.17741060921111
30
0
10
-12.028415352857847
20
11.099053162936116
30
0
10
-12.342865991885759
20
11.038232844659339
30
0
10
-12.719725810513166
20
10.987699019390243
30
0
10
-13.141402327074282
20
10.944034591636587
30
0
10
-13.581565918141512
20
10.90626598261974
30
0
10
-14.009976516311729
20
10.875101011488804
30
0
10
-14.397850895571228
20
10.85196576237874
30
0
10
-14.723384440334518
20
10.838082784653393
30
0
10
-14.976437540387911
20
10.833651823954101
30
0
10
-15.16599458697582
20
10.836653866967298
30
0
10
-15.288823955560746
20
10.841577709561115
30
0
10
-15.377372942701889
20
10.844834648571014
30
0
10
-15.436778862054394
20
10.846532761279889
30
0
10
-15.46657391535569
20
10.847263696511604
30
0
0
LINE
5
111
100
AcDbEntity
8
0
100
AcDbLine
10
-6.2325770871381101
20
11.513728556357126
30
0
11
-10.71587572792248
21
12.894762126087972
31
0
0
LINE
5
112
100
AcDbEntity
8
0
100
AcDbLine
10
12.047177195437841
20
10.591985844886187
30
0
11
12.047177195437841
21
-8.6080147678683332
31
0
0
LINE
5
113
100
AcDbEntity
8
0
100
AcDbLine
10
7.899313738848468
20
12.503046415372449
30
0
11
3.4840092691176303
21
11.068072462709926
31
0
0
LINE
5
114
100
AcDbEntity
8
0
100
AcDbLine
10
1.7278336186837311
20
1.7995884917404106
30
0
11
2.8684539400308617
21
-5.3752812715721872
31
0
0
SPLINE
5
115
100
AcDbEntity
8
0
100
AcDbSpline
70
1064
71
5
72
36
73
30
74
0
42
0.000000001
43
0.0000000001
44
0.0000000001
40
0
40
0
40
0
40
0
40
0
40
0
40
0.040000000000000001
40
0.080000000000000002
40
0.12
40
0.16
40
0.20000000000000001
40
0.24000000000000002
40
0.28000000000000003
40
0.32000000000000001
40
0.35999999999999999
40
0.39999999999999997
40
0.43999999999999995
40
0.47999999999999993
40
0.51999999999999991
40
0.55999999999999994
40
0.59999999999999998
40
0.64000000000000001
40
0.68000000000000005
40
0.72000000000000008
40
0.76000000000000012
40
0.80000000000000016
40
0.84000000000000019
40
0.88000000000000023
40
0.92000000000000026
40
0.9600000000000003
40
1
40
1
40
1
40
1
40
1
40
1
10
1.7278336186837311
20
1.7995884917404106
30
0
10
1.7592446034815918
20
1.7967650346446093
30
0
10
1.8214624339107326
20
1.7937158121517391
30
0
10
1.9129701233577692
20
1.7969358556452713
30
0
10
2.031168580029902
20
1.8166286794719035
30
0
10
2.1737062571890489
20
1.8662663732463682
30
0
10
2.3179829104776335
20
1.9406465746674342
30
0
10
2.4740992217807514
20
2.0413275229521139
30
0
10
2.6492759128716554
20
2.1738354920909293
30
0
10
2.8434767818405247
20
2.3491467866091869
30
0
10
3.051852346159063
20
2.5800066349750144
30
0
10
3.2668557153113391
20
2.8774332239764275
30
0
10
3.4802719200800554
20
3.2474819375371728
30
0
10
3.6856669312780133
20
3.6869245469761123
30
0
10
3.8783709468534511
20
4.1844719596556414
30
0
10
4.0545426513703067
20
4.7240867800094231
30
0
10
4.2104533450216328
20
5.2876280432738527
30
0
10
4.3419012398156536
20
5.8575111648576073
30
0
10
4.4430877198826524
20
6.419830562602173
30
0
10
4.5068539594400043
20
6.9661814752585132
30
0
10
4.5216870817284622
20
7.4987263914233351
30
0
10
4.4765379355488344
20
8.0275944394709722
30
0
10
4.3748036974173461
20
8.5545367852552783
30
0
10
4.2263347283685766
20
9.0791130477637108
30
0
10
4.0464271364766038
20
9.5978188647343963
30
0
10
3.8520023831913615
20
10.106110957307175
30
0
10
3.697634811677132
20
10.50055902865466
30
0
10
3.5878919056872784
20
10.787838297835046
30
0
10
3.5180787356898593
20
10.975331989340679
30
0
10
3.4840092691176303
20
11.068072462709926
30
0
0
SPLINE
5
116
100
AcDbEntity
8
0
100
AcDbSpline
70
1064
71
5
72
31
73
25
74
0
42
0.000000001
43
0.0000000001
44
0.0000000001
40
0
40
0
40
0
40
0
40
0
40
0
40
0.050000000000000003
40
0.10000000000000001
40
0.15000000000000002
40
0.20000000000000001
40
0.25
40
0.29999999999999999
40
0.34999999999999998
40
0.39999999999999997
40
0.44999999999999996
40
0.49999999999999994
40
0.54999999999999993
40
0.59999999999999998
40
0.65000000000000002
40
0.70000000000000007
40
0.75000000000000011
40
0.80000000000000016
40
0.8500000000000002
40
0.90000000000000024
40
0.95000000000000029
40
1
40
1
40
1
40
1
40
1
40
1
10
7.899313738848468
20
12.503046415372449
30
0
10
7.9246437951043545
20
12.43328634548236
30
0
10
7.9777232096604287
20
12.291940871961785
30
0
10
8.0646000982781167
20
12.074446806489599
30
0
10
8.1932958148806208
20
11.775353589935785
30
0
10
8.3662683337055874
20
11.397002869683455
30
0
10
8.5398382927611181
20
11.027792105208613
30
0
10
8.7032920721244107
20
10.681219273951365
30
0
10
8.8497112013740633
20
10.367554503999409
30
0
10
8.9789663456811137
20
10.090744252351689
30
0
10
9.1009816949199394
20
9.8450404957576474
30
0
10
9.2312701913463862
20
9.6191197823291343
30
0
10
9.3860543786546184
20
9.400567252292797
30
0
10
9.5780628169991342
20
9.1797168108312803
30
0
10
9.8107805832073254
20
8.9548646928267086
30
0
10
10.078433457148718
20
8.7322659520963946
30
0
10
10.370039889565833
20
8.5224313662380151
30
0
10
10.672242830791236
20
8.3374768347513761
30
0
10
10.972337466768522
20
8.1883051968789804
30
0
10
11.261728416305363
20
8.0812619439451137
30
0
10
11.537458638486177
20
8.0168273173662943
30
0
10
11.74721201236788
20
7.9974654628244997
30
0
10
11.89915383850955
20
7.9995842559515884
30
0
10
11.998209184931916
20
8.0081537175445501
30
0
10
12.047177195437841
20
8.0142275354684234
30
0
0
LINE
5
117
100
AcDbEntity
8
0
100
AcDbLine
10
22.366520772191951
20
1.7995884917404112
30
0
11
21.225900450844819
21
-5.375281271572188
31
0
0
LINE
5
118
100
AcDbEntity
8
0
100
AcDbLine
10
16.195040652027213
20
12.503046415372449
30
0
11
20.610345121758051
21
11.068072462709926
31
0
0
LINE
5
119
100
AcDbEntity
8
0
100
AcDbLine
10
19.642507328947509
20
6.1358031009043046
30
0
11
19.54368263065043
21
8.003589898719051
31
0
0
SPLINE
5
120
100
AcDbEntity
8
0
100
AcDbSpline
70
1064
71
5
72
36
73
30
74
0
42
0.000000001
43
0.0000000001
44
0.0000000001
40
0
40
0
40
0
40
0
40
0
40
0
40
0.040000000000000001
40
0.080000000000000002
40
0.12
40
0.16
40
0.20000000000000001
40
0.24000000000000002
40
0.28000000000000003
40
0.32000000000000001
40
0.35999999999999999
40
0.39999999999999997
40
0.43999999999999995
40
0.47999999999999993
40
0.51999999999999991
40
0.55999999999999994
40
0.59999999999999998
40
0.64000000000000001
40
0.68000000000000005
40
0.72000000000000008
40
0.76000000000000012
40
0.80000000000000016
40
0.84000000000000019
40
0.88000000000000023
40
0.92000000000000026
40
0.9600000000000003
40
1
40
1
40
1
40
1
40
1
40
1
10
22.366520772191951
20
1.7995884917404112
30
0
10
22.335109787394089
20
1.79676503464461
30
0
10
22.272891942343001
20
1.7937158121517389
30
0
10
22.181384187706698
20
1.7969358556452695
30
0
10
22.063185658082336
20
1.8166286794718998
30
0
10
21.92064828510868
20
1.8662663732463727
30
0
10
21.776372282269651
20
1.9406465746674439
30
0
10
21.620256579820268
20
2.0413275229521162
30
0
10
21.445080105861788
20
2.1738354920909098
30
0
10
21.250879000674395
20
2.3491467866091527
30
0
10
21.04250287022079
20
2.5800066349749868
30
0
10
20.827498821674844
20
2.8774332239764187
30
0
10
20.614082046712042
20
3.2474819375371915
30
0
10
20.408686697357421
20
3.686924546976146
30
0
10
20.215982595950216
20
4.184471959655685
30
0
10
20.039811012560843
20
4.7240867800094639
30
0
10
19.883900559725376
20
5.2876280432738856
30
0
10
19.752452923320533
20
5.8575111648576232
30
0
10
19.651266631112275
20
6.419830562602173
30
0
10
19.587500454696588
20
6.9661814752585132
30
0
10
19.572667293808898
20
7.4987263914233377
30
0
10
19.617816387328791
20
8.0275944394709615
30
0
10
19.719550589216972
20
8.5545367852552499
30
0
10
19.868019555273047
20
9.0791130477636717
30
0
10
20.04792717240375
20
9.5978188647343519
30
0
10
20.242351965316853
20
10.106110957307147
30
0
10
20.396719564910519
20
10.500559028654653
30
0
10
20.506462482591282
20
10.787838297835046
30
0
10
20.576275655185825
20
10.975331989340679
30
0
10
20.610345121758051
20
11.068072462709926
30
0
0
SPLINE
5
121
100
AcDbEntity
8
0
100
AcDbSpline
70
1064
71
5
72
31
73
25
74
0
42
0.000000001
43
0.0000000001
44
0.0000000001
40
0
40
0
40
0
40
0
40
0
40
0
40
0.050000000000000003
40
0.10000000000000001
40
0.15000000000000002
40
0.20000000000000001
40
0.25
40
0.29999999999999999
40
0.34999999999999998
40
0.39999999999999997
40
0.44999999999999996
40
0.49999999999999994
40
0.54999999999999993
40
0.59999999999999998
40
0.65000000000000002
40
0.70000000000000007
40
0.75000000000000011
40
0.80000000000000016
40
0.8500000000000002
40
0.90000000000000024
40
0.95000000000000029
40
1
40
1
40
1
40
1
40
1
40
1
10
16.195040652027213
20
12.503046415372449
30
0
10
16.169710595771328
20
12.43328634548236
30
0
10
16.116631181215151
20
12.291940871961797
30
0
10
16.029754292597051
20
12.074446806489677
30
0
10
15.901058575994123
20
11.775353589936008
30
0
10
15.728086057169016
20
11.397002869683858
30
0
10
15.554516098113723
20
11.027792105209071
30
0
10
15.391062318750862
20
10.681219273951669
30
0
10
15.244643189501632
20
10.367554503999417
30
0
10
15.115388045194909
20
10.090744252351415
30
0
10
14.9933726959562
20
9.8450404957572744
30
0
10
14.863084199529647
20
9.6191197823288839
30
0
10
14.708300012221191
20
9.4005672522927437
30
0
10
14.516291573876384
20
9.1797168108313745
30
0
10
14.283573807668056
20
8.9548646928268489
30
0
10
14.015920933726585
20
8.7322659520965136
30
0
10
13.724314501309516
20
8.5224313662380737
30
0
10
13.422111560084288
20
8.3374768347513939
30
0
10
13.122016924107241
20
8.1883051968789715
30
0
10
12.832625974570622
20
8.0812619439450959
30
0
10
12.556895752389799
20
8.0168273173662783
30
0
10
12.347142378507916
20
7.9974654628244917
30
0
10
12.195200552366156
20
7.9995842559515866
30
0
10
12.096145205943767
20
8.0081537175445501
30
0
10
12.047177195437841
20
8.0142275354684234
30
0
0
SPLINE
5
122
100
AcDbEntity
8
0
100
AcDbSpline
70
1064
71
5
72
26
73
20
74
0
42
0.000000001
43
0.0000000001
44
0.0000000001
40
0
40
0
40
0
40
0
40
0
40
0
40
0.066666666666666666
40
0.13333333333333333
40
0.20000000000000001
40
0.26666666666666666
40
0.33333333333333331
40
0.39999999999999997
40
0.46666666666666662
40
0.53333333333333333
40
0.59999999999999998
40
0.66666666666666663
40
0.73333333333333328
40
0.79999999999999993
40
0.86666666666666659
40
0.93333333333333324
40
0.99727090287109221
40
0.99727090287109221
40
0.99727090287109221
40
0.99727090287109221
40
0.99727090287109221
40
0.99727090287109221
10
2.8684539400308617
20
-5.3752812715721872
30
0
10
2.9229921872469187
20
-5.3686811623110717
30
0
10
3.0389820172468833
20
-5.358728313748454
30
0
10
3.233705079827339
20
-5.3535401008271037
30
0
10
3.5351287115751955
20
-5.3662553974182705
30
0
10
3.9820882273242342
20
-5.4148173824915498
30
0
10
4.4978587621449035
20
-5.4945387051562813
30
0
10
5.0765453113085828
20
-5.6008198605977144
30
0
10
5.7081758812133874
20
-5.7263127423046569
30
0
10
6.3807599584238899
20
-5.862310777657127
30
0
10
7.0816127816884613
20
-5.9997107124081692
30
0
10
7.7987750245473197
20
-6.1300668146044917
30
0
10
8.5223359251716033
20
-6.2466458964328089
30
0
10
9.2456386106798014
20
-6.3454125462116879
30
0
10
9.9644995095967186
20
-6.424238140135528
30
0
10
10.67079496924716
20
-6.4818491194034626
30
0
10
11.228611148306985
20
-6.5115772850042575
30
0
10
11.642060654948823
20
-6.5248432065758184
30
0
10
11.914275806625218
20
-6.5297295757699665
30
0
10
12.047177195437849
20
-6.5311881512432208
30
0
0
SPLINE
5
123
100
AcDbEntity
8
0
100
AcDbSpline
70
1064
71
5
72
26
73
20
74
0
42
0.000000001
43
0.0000000001
44
0.0000000001
40
0
40
0
40
0
40
0
40
0
40
0
40
0.066666666666666666
40
0.13333333333333333
40
0.20000000000000001
40
0.26666666666666666
40
0.33333333333333331
40
0.39999999999999997
40
0.46666666666666662
40
0.53333333333333333
40
0.59999999999999998
40
0.66666666666666663
40
0.73333333333333328
40
0.79999999999999993
40
0.86666666666666659
40
0.93333333333333324
40
0.99727090287109221
40
0.99727090287109221
40
0.99727090287109221
40
0.99727090287109221
40
0.99727090287109221
40
0.99727090287109221
10
21.225900450844819
20
-5.3752812715721872
30
0
10
21.171362203628764
20
-5.3686811623110717
30
0
10
21.055372373628796
20
-5.358728313748454
30
0
10
20.860649311048341
20
-5.3535401008271037
30
0
10
20.559225679300486
20
-5.3662553974182705
30
0
10
20.11226616355145
20
-5.4148173824915498
30
0
10
19.596495628730779
20
-5.4945387051562813
30
0
10
19.017809079567101
20
-5.6008198605977144
30
0
10
18.386178509662294
20
-5.7263127423046569
30
0
10
17.713594432451792
20
-5.862310777657127
30
0
10
17.01274160918722
20
-5.9997107124081692
30
0
10
16.295579366328361
20
-6.1300668146044917
30
0
10
15.572018465704078
20
-6.2466458964328089
30
0
10
14.84871578019588
20
-6.3454125462116879
30
0
10
14.129854881278964
20
-6.424238140135528
30
0
10
13.423559421628521
20
-6.4818491194034626
30
0
10
12.865743242568696
20
-6.5115772850042575
30
0
10
12.45229373592686
20
-6.5248432065758184
30
0
10
12.180078584250463
20
-6.5297295757699665
30
0
10
12.047177195437833
20
-6.5311881512432208
30
0
0
ENDSEC
0
SECTION
2
OBJECTS
0
DICTIONARY
5
C
100
AcDbDictionary
3
ACAD_GROUP
350
D
3
ACAD_MLINESTYLE
350
17
0
DICTIONARY
5
D
100
AcDbDictionary
0
DICTIONARY
5
1A
330
C
100
AcDbDictionary
0
DICTIONARY
5
17
100
AcDbDictionary
0
ENDSEC
0
EOF
