<?xml version="1.0" encoding="utf-8"?>
<!-- Generator: Adobe Illustrator 21.1.0, SVG Export Plug-In . SVG Version: 6.00 Build 0)  -->
<svg version="1.1" id="_x30_" xmlns="http://www.w3.org/2000/svg" xmlns:xlink="http://www.w3.org/1999/xlink" x="0px" y="0px"
	 width="864px" height="864px" viewBox="0 0 864 864" style="enable-background:new 0 0 864 864;" xml:space="preserve">
<style type="text/css">
	.st0{fill:none;stroke:#000000;stroke-width:0.7087;stroke-linecap:round;stroke-linejoin:round;stroke-miterlimit:10;}
</style>
<g id="LINE">
	<line class="st0" x1="336.4" y1="-77.9" x2="-462.8" y2="-77.9"/>
</g>
<g id="SPLINE">
	<polyline class="st0" points="-462.8,-77.9 -465.2,-23.7 -467.2,40.2 -468.2,76 -469.4,114.4 -470.9,155.6 -472.8,199.5 
		-475.2,246.1 -478.2,295.5 -485.9,401.7 -495.8,515.8 -507.2,634.3 -518.7,752.3 -528.9,864.7 -533,917.3 -536.4,966.6 
		-538.8,1012.3 -540.2,1053.9 -540.6,1091.2 -540.1,1123.9 -538.8,1152.2 -536.8,1176.3 -534.6,1196.5 -532.4,1213.2 -530.4,1227 
		-529,1238 	"/>
</g>
<g id="SPLINE_1_">
	<polyline class="st0" points="-529,1238 -512,1241.3 -496,1246.2 -480.8,1252.8 -466.5,1261.3 -453.1,1271.9 -440.7,1284.9 
		-429.2,1300.3 -418.6,1318.2 -408.8,1338.1 -399.8,1359.8 -391.7,1382.9 -384.5,1407 -378.7,1431.9 -374.4,1457.7 -371.9,1484.2 
		-371.4,1511.3 -372.8,1538.7 -376.2,1566.3 -381.3,1593.9 -387.9,1621.2 -396,1648.1 -405.5,1674.7 -416.5,1700.9 -429.2,1726.9 
		-443.7,1753 -460.2,1779.2 -478.8,1805.7 -499.6,1832.7 -522.6,1860 -547.9,1887.9 -575.4,1916.4 -605.1,1945.3 	"/>
</g>
<g id="LINE_1_">
	<line class="st0" x1="-605.1" y1="1945.3" x2="62.8" y2="2118.1"/>
</g>
<g id="SPLINE_2_">
	<polyline class="st0" points="62.8,2118.1 64.8,2093.9 68.1,2068.9 72.8,2043.2 79.3,2016.9 83.5,2003.4 88.2,1989.8 93.7,1976.1 
		100,1962.3 107.1,1948.5 115.2,1934.7 124.2,1921 134.2,1907.7 145.1,1894.7 157.1,1882.2 169.9,1870.5 183.7,1859.6 198.1,1849.9 
		213.2,1841.3 228.6,1834 244.1,1828.1 259.3,1823.6 273.9,1820.4 287.4,1818.2 299.6,1816.9 310.3,1816.2 319.9,1815.8 
		328.5,1815.7 336.4,1815.7 	"/>
</g>
<g id="SPLINE_3_">
	<polyline class="st0" points="610,2118.1 608,2093.9 604.8,2068.9 600.1,2043.2 593.5,2016.9 589.4,2003.4 584.6,1989.8 
		579.1,1976.1 572.8,1962.3 565.7,1948.5 557.7,1934.7 548.7,1921 538.7,1907.7 527.7,1894.7 515.8,1882.2 502.9,1870.5 
		489.2,1859.6 474.7,1849.9 459.7,1841.3 444.3,1834 428.8,1828.1 413.5,1823.6 398.9,1820.4 385.4,1818.2 373.3,1816.9 
		362.5,1816.2 352.9,1815.8 344.3,1815.7 336.4,1815.7 	"/>
</g>
<g id="LINE_2_">
	<line class="st0" x1="1072" y1="1657.4" x2="813.5" y2="1995.3"/>
</g>
<g id="SPLINE_4_">
	<polyline class="st0" points="1201.8,1238 1189.7,1240.1 1178.1,1243.1 1166.9,1246.9 1156.1,1251.5 1145.8,1257.1 1136,1263.8 
		1126.6,1271.5 1117.7,1280.3 1109.2,1290.3 1101.1,1301.5 1093.5,1313.9 1086.3,1327.4 1079.6,1342.1 1073.3,1357.7 1067.6,1374.2 
		1062.4,1391.3 1053.5,1426.8 1047.1,1462.9 1045,1481 1043.8,1499.2 1043.7,1517.8 1044.7,1537.2 1047,1557.3 1050.5,1578 
		1055,1598.6 1059.8,1617.6 1062,1625.8 1064,1632.8 1065.7,1638.3 1067,1642.7 1069.3,1649.7 1072,1657.4 	"/>
</g>
<g id="SPLINE_5_">
	<polyline class="st0" points="813.5,1995.3 803.2,2008.1 792.4,2021.1 781.1,2034 769.4,2046.7 757.4,2058.9 745,2070.6 
		732.3,2081.3 719.4,2090.9 706.2,2099.3 692.9,2106.2 679.4,2111.7 665.7,2115.8 652,2118.4 638.1,2119.6 624.1,2119.5 610,2118.1 
			"/>
</g>
<g id="LINE_4_">
	<line class="st0" x1="336.4" y1="-77.9" x2="1135.6" y2="-77.9"/>
</g>
<g id="SPLINE_6_">
	<polyline class="st0" points="1135.6,-77.9 1138.1,-23.7 1140,40.2 1141.1,76 1142.3,114.4 1143.8,155.6 1145.7,199.5 
		1148.1,246.1 1151,295.5 1158.7,401.7 1168.7,515.8 1180,634.3 1191.6,752.3 1201.8,864.7 1205.9,917.3 1209.2,966.6 
		1211.6,1012.3 1213.1,1053.9 1213.5,1091.2 1212.9,1123.9 1211.6,1152.2 1209.7,1176.3 1207.5,1196.5 1205.2,1213.2 1203.3,1227 
		1201.8,1238 	"/>
</g>
<g id="LINE_5_">
	<line class="st0" x1="-462.8" y1="-77.9" x2="-462.8" y2="-113.9"/>
</g>
<g id="LINE_6_">
	<line class="st0" x1="1135.6" y1="-77.9" x2="1135.6" y2="-113.9"/>
</g>
<g id="LINE_7_">
	<line class="st0" x1="-462.8" y1="-113.9" x2="1135.6" y2="-113.9"/>
</g>
<g id="LINE_8_">
	<line class="st0" x1="-919.9" y1="62.8" x2="-582.8" y2="-196.7"/>
</g>
<g id="SPLINE_7_">
	<polyline class="st0" points="88.8,-997.5 183.3,-997.9 282.3,-997.8 333.7,-996.6 386.5,-994.3 440.9,-990.4 497,-985 554.8,-978 
		614.6,-969.7 676.3,-960.4 740.1,-950.5 806.2,-940.6 874.4,-930.9 945.1,-921.9 1018.1,-913.8 	"/>
</g>
<g id="SPLINE_8_">
	<polyline class="st0" points="1018.1,-913.8 1010.8,-903.3 1002.6,-890.2 998.5,-882.4 994.5,-873.6 990.8,-863.7 987.4,-852.7 
		984.4,-840.6 982,-827.5 978.8,-798.7 978,-767.2 979.8,-734.2 984,-700.4 990.3,-666 998.4,-630.9 1007.5,-594.3 1017.3,-555.3 
		1027.2,-512.9 1032,-490.1 1036.7,-466.1 1041.2,-440.9 1045.6,-414.3 	"/>
</g>
<g id="LINE_9_">
	<line class="st0" x1="1045.6" y1="-414.3" x2="492.8" y2="-313.5"/>
</g>
<g id="SPLINE_9_">
	<polyline class="st0" points="492.8,-313.5 474.1,-329.4 453.5,-344.6 410.3,-373.3 388.7,-387.2 366.2,-401.1 341.7,-414.8 
		328.2,-421.6 313.8,-428.3 298.5,-434.8 282.2,-441 247.6,-452.3 211.7,-461.5 194,-465.1 176.8,-468 160.5,-470.1 145.4,-471.5 
		131.6,-472.3 119.4,-472.6 109,-472.5 100.3,-472.3 93.6,-472 88.8,-471.9 	"/>
</g>
<g id="SPLINE_10_">
	<polyline class="st0" points="88.8,-997.5 -5.7,-997.9 -104.7,-997.8 -156.1,-996.6 -208.9,-994.3 -263.3,-990.4 -319.4,-985 
		-377.3,-978 -437,-969.7 -498.8,-960.4 -562.6,-950.5 -628.6,-940.6 -696.9,-930.9 -767.5,-921.9 -840.6,-913.8 	"/>
</g>
<g id="SPLINE_11_">
	<polyline class="st0" points="-840.6,-913.8 -833.2,-903.3 -825.1,-890.2 -821,-882.4 -817,-873.6 -813.2,-863.7 -809.8,-852.7 
		-806.9,-840.6 -804.4,-827.5 -801.2,-798.7 -800.5,-767.2 -802.3,-734.2 -806.5,-700.4 -812.8,-666 -820.8,-630.9 -830,-594.3 
		-839.7,-555.3 -849.6,-512.9 -854.4,-490.1 -859.1,-466.1 -863.7,-440.9 -868,-414.3 	"/>
</g>
<g id="SPLINE_12_">
	<polyline class="st0" points="-868,-414.3 -878.1,-355 -888.6,-297.1 -893.4,-269.5 -897.7,-242.9 -904.2,-191.7 -906.7,-165.9 
		-908.9,-139.1 -910.8,-110.8 -912.6,-80.5 -914.4,-48 -916.2,-13.3 -918.1,23.6 -919.9,62.8 	"/>
</g>
<g id="LINE_10_">
	<line class="st0" x1="-840.6" y1="-913.8" x2="-814.1" y2="-1003.6"/>
</g>
<g id="LINE_11_">
	<line class="st0" x1="1018.1" y1="-913.8" x2="999.9" y2="-1003.3"/>
</g>
<g id="SPLINE_13_">
	<polyline class="st0" points="88.8,-1069.5 182.4,-1069.5 280.5,-1068.7 383.5,-1065.6 437.1,-1062.6 492.3,-1058.7 549,-1053.7 
		607.4,-1047.8 667.7,-1041.1 729.9,-1033.9 794.1,-1026.3 860.5,-1018.6 929,-1010.8 999.9,-1003.3 	"/>
</g>
<g id="SPLINE_14_">
	<polyline class="st0" points="88.8,-1069.5 -4.5,-1069.5 -102.3,-1068.7 -204.8,-1065.6 -312.7,-1058.8 -368.9,-1053.8 
		-426.7,-1047.9 -486.2,-1041.3 -547.6,-1034.1 -611,-1026.5 -676.5,-1018.8 -744.1,-1011.1 -814.1,-1003.6 	"/>
</g>
<g id="SPLINE_15_">
	<polyline class="st0" points="-582.8,-196.7 -569.8,-206.2 -556.3,-215.6 -542.3,-224.9 -528,-233.9 -513.5,-242.5 -498.9,-250.4 
		-484.4,-257.5 -470.1,-263.5 -456.1,-268.3 -442.4,-271.8 -429.2,-274.1 -416.2,-275 -403.6,-274.8 -391.2,-273.4 -379,-270.9 
		-366.9,-267.4 	"/>
</g>
<g id="SPLINE_16_">
	<polyline class="st0" points="-366.9,-267.4 -338.9,-291.6 -309,-315.9 -278.8,-339.3 -250.3,-360.8 -236.9,-370.5 -224.3,-379.5 
		-200.2,-395.5 -176.1,-409.6 -149.6,-422.6 -134.8,-428.9 -118.8,-435.2 -101.6,-441.3 -83.6,-447.3 -45.7,-457.9 -7.8,-466.1 
		10.1,-469 26.8,-471 42,-472.2 55.4,-472.6 66.9,-472.6 76.3,-472.4 83.6,-472.1 88.8,-471.9 	"/>
</g>
<g id="LWPOLYLINE">
	<rect x="1278.8" y="1339.7" class="st0" width="1872" height="108"/>
</g>
<g id="LINE_13_">
	<line class="st0" x1="3150.8" y1="1555.7" x2="3150.8" y2="1447.7"/>
</g>
<g id="LINE_14_">
	<line class="st0" x1="1278.8" y1="1555.7" x2="1278.8" y2="1447.7"/>
</g>
<g id="LINE_15_">
	<line class="st0" x1="1278.8" y1="1555.7" x2="3150.8" y2="1555.7"/>
</g>
<g id="SPLINE_17_">
	<polyline class="st0" points="1585.9,1238 1587.9,1217.4 1588.9,1197.8 1588.8,1179.4 1587.9,1162.2 1586.4,1146.4 1584.2,1132 
		1581.7,1119 1578.9,1107.4 1575.9,1097.3 1572.7,1088.5 1569.5,1080.8 1566,1073.8 1558,1060.5 1553.1,1053.4 1547.6,1045.7 
		1541.3,1037.3 1534.5,1028.3 1519.5,1009.1 1503.9,990.7 1496.1,982.3 1488.2,974.7 1480.1,967.6 1471.4,961 1462.1,954.7 
		1452,948.7 1441.1,942.9 1429.3,937.2 1416.7,931.6 1403.1,926.2 	"/>
</g>
<g id="LINE_17_">
	<line class="st0" x1="1585.9" y1="1238" x2="2478.1" y2="1238"/>
</g>
<g id="LINE_18_">
	<line class="st0" x1="1403.1" y1="926.2" x2="1540.3" y2="-538.9"/>
</g>
<g id="LINE_19_">
	<line class="st0" x1="1540.3" y1="-538.9" x2="2478.1" y2="-538.9"/>
</g>
<g id="LINE_20_">
	<line class="st0" x1="3415.8" y1="-538.9" x2="2478.1" y2="-538.9"/>
</g>
<g id="LINE_21_">
	<line class="st0" x1="3553" y1="926.2" x2="3415.8" y2="-538.9"/>
</g>
<g id="SPLINE_18_">
	<polyline class="st0" points="3370.2,1238 3368.2,1217.4 3367.3,1197.8 3367.3,1179.4 3368.2,1162.2 3369.8,1146.4 3371.9,1132 
		3374.5,1119 3377.3,1107.4 3380.3,1097.3 3383.4,1088.5 3386.6,1080.8 3390.1,1073.8 3398.1,1060.5 3403,1053.4 3408.5,1045.7 
		3414.8,1037.3 3421.7,1028.3 3436.6,1009.1 3452.2,990.7 3460,982.3 3467.9,974.7 3476.1,967.6 3484.7,961 3494,954.7 
		3504.1,948.7 3515,942.9 3526.8,937.2 3539.5,931.6 3553,926.2 	"/>
</g>
<g id="LINE_22_">
	<line class="st0" x1="3370.2" y1="1238" x2="2478.1" y2="1238"/>
</g>
<g id="LINE_24_">
	<line class="st0" x1="1573" y1="-1384.9" x2="865.1" y2="-1394.2"/>
</g>
<g id="LINE_25_">
	<line class="st0" x1="865.1" y1="-1394.2" x2="830.7" y2="-1447.9"/>
</g>
<g id="LINE_26_">
	<line class="st0" x1="830.7" y1="-1447.9" x2="1573.7" y2="-1438.1"/>
</g>
<g id="LINE_27_">
	<line class="st0" x1="865.1" y1="-1394.2" x2="766.6" y2="-1218"/>
</g>
<g id="SPLINE_19_">
	<polyline class="st0" points="766.6,-1218 813.2,-1223 865.1,-1224.9 892.9,-1224.1 921.7,-1221.6 951.3,-1216.7 981.6,-1209 
		1012.4,-1197.7 1043.5,-1182.6 1074.8,-1163.5 1106.1,-1140.4 1137.4,-1113.7 1168.2,-1083.9 1198.3,-1051.7 1227,-1018.1 
		1253.7,-984.3 1277.9,-951.5 1299,-920.6 1317.2,-892.3 1333,-866.5 1347.5,-842.7 1362.8,-819.6 1380.5,-796.4 1402.3,-773.3 
		1428.6,-752.5 1458.1,-736.7 1488.3,-726.7 1516.1,-721.2 1528.2,-719.6 1538.8,-718.5 1547.7,-717.8 1554.8,-717.2 1560.3,-716.8 
		1564.2,-716.6 	"/>
</g>
<g id="LINE_28_">
	<line class="st0" x1="2316.6" y1="-1428.4" x2="1573.7" y2="-1438.1"/>
</g>
<g id="LINE_29_">
	<line class="st0" x1="2280.8" y1="-1375.6" x2="2316.6" y2="-1428.4"/>
</g>
<g id="LINE_31_">
	<line class="st0" x1="2280.8" y1="-1375.6" x2="2374.7" y2="-1196.9"/>
</g>
<g id="LINE_33_">
	<line class="st0" x1="1573" y1="-1384.9" x2="2280.8" y2="-1375.6"/>
</g>
<g id="SPLINE_20_">
	<polyline class="st0" points="2374.7,-1196.9 2328.2,-1203.1 2276.3,-1206.3 2248.6,-1206.3 2219.7,-1204.5 2190,-1200.5 
		2159.5,-1193.5 2128.4,-1183 2096.9,-1168.7 2065.1,-1150.5 2033.2,-1128.2 2001.3,-1102.4 1969.6,-1073.3 1938.8,-1041.9 
		1909.2,-1009.1 1881.6,-976 1856.6,-943.9 1834.6,-913.6 1815.7,-885.7 1799.3,-860.4 1784.1,-836.9 1768.2,-814.3 1749.9,-791.5 
		1727.5,-769 1700.7,-748.9 1670.8,-733.9 1640.3,-724.7 1612.3,-720 1600.2,-718.7 1589.6,-717.9 1580.7,-717.3 1573.5,-716.9 
		1564.2,-716.6 	"/>
</g>
</svg>
