0
SECTION
2
HEADER
9
$INSUNITS
70
1
9
$ACADVER
1
AC1014
9
$HANDSEED
5
FFFF
0
ENDSEC
0
SECTION
2
TABLES
0
TABLE
2
VPORT
5
8
100
AcDbSymbolTable
0
ENDTAB
0
TABLE
2
LTYPE
5
5
100
AcDbSymbolTable
0
LTYPE
5
14
100
AcDbSymbolTableRecord
100
AcDbLinetypeTableRecord
2
BYBLOCK
70
0
0
LTYPE
5
15
100
AcDbSymbolTableRecord
100
AcDbLinetypeTableRecord
2
BYLAYER
70
0
0
ENDTAB
0
TABLE
2
LAYER
5
2
100
AcDbSymbolTable
70
2
0
LAYER
5
50
100
AcDbSymbolTableRecord
100
AcDbLayerTableRecord
2
0
70
0
6
CONTINUOUS
0
ENDTAB
0
TABLE
2
STYLE
5
3
100
AcDbSymbolTable
70
1
0
STYLE
5
11
100
AcDbSymbolTableRecord
100
AcDbTextStyleTableRecord
2
STANDARD
70
0
0
ENDTAB
0
TABLE
2
VIEW
5
6
100
AcDbSymbolTable
70
0
0
ENDTAB
0
TABLE
2
UCS
5
7
100
AcDbSymbolTable
70
0
0
ENDTAB
0
TABLE
2
APPID
5
9
100
AcDbSymbolTable
70
2
0
APPID
5
12
100
AcDbSymbolTableRecord
100
AcDbRegAppTableRecord
2
ACAD
70
0
0
ENDTAB
0
TABLE
2
DIMSTYLE
5
A
100
AcDbSymbolTable
70
1
0
ENDTAB
0
TABLE
2
BLOCK_RECORD
5
1
100
AcDbSymbolTable
70
1
0
BLOCK_RECORD
5
1F
100
AcDbSymbolTableRecord
100
AcDbBlockTableRecord
2
*MODEL_SPACE
0
BLOCK_RECORD
5
1B
100
AcDbSymbolTableRecord
100
AcDbBlockTableRecord
2
*PAPER_SPACE
0
ENDTAB
0
ENDSEC
0
SECTION
2
BLOCKS
0
BLOCK
5
20
100
AcDbEntity
100
AcDbBlockBegin
2
*MODEL_SPACE
0
ENDBLK
5
21
100
AcDbEntity
100
AcDbBlockEnd
0
BLOCK
5
1C
100
AcDbEntity
100
AcDbBlockBegin
2
*PAPER_SPACE
0
ENDBLK
5
1D
100
AcDbEntity
100
AcDbBlockEnd
0
ENDSEC
0
SECTION
2
ENTITIES
0
LINE
5
100
100
AcDbEntity
8
0
100
AcDbLine
10
51.655380602679671
20
33.529686852238768
30
0
11
40.555380248430957
21
33.529686852238768
31
0
0
SPLINE
5
101
100
AcDbEntity
8
0
100
AcDbSpline
70
1064
71
5
72
26
73
20
74
0
42
0.000000001
43
0.0000000001
44
0.0000000001
40
0
40
0
40
0
40
0
40
0
40
0
40
0.066666666666666666
40
0.13333333333333333
40
0.20000000000000001
40
0.26666666666666666
40
0.33333333333333331
40
0.39999999999999997
40
0.46666666666666662
40
0.53333333333333333
40
0.59999999999999998
40
0.66666666666666663
40
0.73333333333333328
40
0.79999999999999993
40
0.86666666666666659
40
0.93333333333333324
40
1
40
1
40
1
40
1
40
1
40
1
10
40.555380248430957
20
33.529686852238768
30
0
10
40.547131819451913
20
33.383016073998164
30
0
10
40.531851379220825
20
33.074882424259229
30
0
10
40.512580486162115
20
32.568307355187486
30
0
10
40.49171969960581
20
31.801504365988631
30
0
10
40.460289186869446
20
30.678491124581775
30
0
10
40.407560420183941
20
29.380337691127977
30
0
10
40.320100188763348
20
27.906483147720625
30
0
10
40.191306748970455
20
26.273872016733321
30
0
10
40.027980004575092
20
24.529296577938975
30
0
10
39.849559379511518
20
22.747086622904742
30
0
10
39.681174030436836
20
21.014362424087043
30
0
10
39.548511363257361
20
19.420045837937138
30
0
10
39.472390102396616
20
18.043165708366981
30
0
10
39.462344986144764
20
16.93910324915678
30
0
10
39.512315619248078
20
16.129584318299994
30
0
10
39.574025281994992
20
15.689068462207782
30
0
10
39.611390313231119
20
15.443104059540971
30
0
10
39.628991127378299
20
15.311234606508906
30
0
10
39.635958779722678
20
15.253316186245012
30
0
0
SPLINE
5
102
100
AcDbEntity
8
0
100
AcDbSpline
70
1064
71
5
72
46
73
40
74
0
42
0.000000001
43
0.0000000001
44
0.0000000001
40
0
40
0
40
0
40
0
40
0
40
0
40
0.028571428571428571
40
0.057142857142857141
40
0.085714285714285715
40
0.11428571428571428
40
0.14285714285714285
40
0.17142857142857143
40
0.20000000000000001
40
0.22857142857142859
40
0.25714285714285717
40
0.28571428571428575
40
0.31428571428571433
40
0.34285714285714292
40
0.3714285714285715
40
0.40000000000000008
40
0.42857142857142866
40
0.45714285714285724
40
0.48571428571428582
40
0.51428571428571435
40
0.54285714285714293
40
0.57142857142857151
40
0.60000000000000009
40
0.62857142857142867
40
0.65714285714285725
40
0.68571428571428583
40
0.71428571428571441
40
0.74285714285714299
40
0.77142857142857157
40
0.80000000000000016
40
0.82857142857142874
40
0.85714285714285732
40
0.8857142857142859
40
0.91428571428571448
40
0.94285714285714306
40
0.97142857142857164
40
1
40
1
40
1
40
1
40
1
40
1
10
39.635958779722678
20
15.253316186245012
30
0
10
39.680103029639149
20
15.247197319570308
30
0
10
39.767375867179091
20
15.233041850458619
30
0
10
39.895238068609196
20
15.206054869199519
30
0
10
40.059619380211586
20
15.158554321822491
30
0
10
40.25484841688256
20
15.079506605759244
30
0
10
40.439688039153921
20
14.9796063932062
30
0
10
40.61389517048886
20
14.856426745549133
30
0
10
40.777221011380213
20
14.706874168225855
30
0
10
40.929582847286568
20
14.528469390193269
30
0
10
41.071234872950235
20
14.320491825347808
30
0
10
41.202889345901099
20
14.08500884901496
30
0
10
41.325265055662882
20
13.825772260658288
30
0
10
41.438654237979314
20
13.547264077981209
30
0
10
41.542539441774686
20
13.253772182700812
30
0
10
41.635042380540014
20
12.948258274560471
30
0
10
41.713253711535415
20
12.632436458401591
30
0
10
41.77390191010744
20
12.307335454102075
30
0
10
41.813940891646169
20
11.97372237543232
30
0
10
41.831107149775512
20
11.632534665329747
30
0
10
41.824660782650689
20
11.285429971228815
30
0
10
41.79535094353465
20
10.934774729181536
30
0
10
41.744764729603936
20
10.5831786534581
30
0
10
41.674861035315537
20
10.23316244181089
30
0
10
41.587435130827011
20
9.8867720736026179
30
0
10
41.483611932526962
20
9.545211083608736
30
0
10
41.363335561040927
20
9.2084684067765199
30
0
10
41.22567405653654
20
8.8756230649719203
30
0
10
41.069105262777121
20
8.5451309069672661
30
0
10
40.891813696255554
20
8.2151188984370975
30
0
10
40.691970289187388
20
7.8836620487997768
30
0
10
40.468051292934511
20
7.5490944013368049
30
0
10
40.21905035623913
20
7.2102203185045326
30
0
10
39.94434186423279
20
6.8662040243607372
30
0
10
39.64360740569424
20
6.5165155845007403
30
0
10
39.316742167740649
20
6.1608570148771093
30
0
10
39.034367925211527
20
5.8714505860247401
30
0
10
38.810876647954409
20
5.6516389361882231
30
0
10
38.656684683321458
20
5.5038742190412329
30
0
10
38.578289255085764
20
5.4296859554469945
30
0
0
LINE
5
103
100
AcDbEntity
8
0
100
AcDbLine
10
38.578289255085764
20
5.4296859554469945
30
0
11
47.855380481405334
21
3.0296858788526824
31
0
0
SPLINE
5
104
100
AcDbEntity
8
0
100
AcDbSpline
70
1064
71
5
72
31
73
25
74
0
42
0.000000001
43
0.0000000001
44
0.0000000001
40
0
40
0
40
0
40
0
40
0
40
0
40
0.050000000000000003
40
0.10000000000000001
40
0.15000000000000002
40
0.20000000000000001
40
0.25
40
0.29999999999999999
40
0.34999999999999998
40
0.39999999999999997
40
0.44999999999999996
40
0.49999999999999994
40
0.54999999999999993
40
0.59999999999999998
40
0.65000000000000002
40
0.70000000000000007
40
0.75000000000000011
40
0.80000000000000016
40
0.8500000000000002
40
0.90000000000000024
40
0.95000000000000029
40
1
40
1
40
1
40
1
40
1
40
1
10
47.855380481405334
20
3.0296858788526824
30
0
10
47.858554020801421
20
3.0828788002905787
30
0
10
47.865908052773285
20
3.1898450136552285
30
0
10
47.879959923592963
20
3.352035440901326
30
0
10
47.904942603530174
20
3.5718437544638957
30
0
10
47.94801347775644
20
3.8528649138110644
30
0
10
48.005181248646409
20
4.1404335168990016
30
0
10
48.079410162091023
20
4.4345722989226548
30
0
10
48.174302768947086
20
4.734822555328333
30
0
10
48.293881950044039
20
5.0399993435647179
30
0
10
48.442115080689845
20
5.3478885901075115
30
0
10
48.622459921323312
20
5.6549549160778829
30
0
10
48.83739239527447
20
5.95598403026551
30
0
10
49.087830583333059
20
6.243810376457942
30
0
10
49.372687675497772
20
6.5087592829051024
30
0
10
49.687853619065365
20
6.7403563624547793
30
0
10
50.025972493510437
20
6.9292669607715771
30
0
10
50.374117657384389
20
7.0694380654965894
30
0
10
50.716135452743487
20
7.1597054586215911
30
0
10
51.023804520677537
20
7.2070174887188632
30
0
10
51.275896825704663
20
7.2259502115659053
30
0
10
51.441584128071604
20
7.2290808418428325
30
0
10
51.552413443762823
20
7.2295770136840378
30
0
10
51.62181066705552
20
7.2296860128927367
30
0
10
51.655380602679671
20
7.2296860128927367
30
0
0
SPLINE
5
105
100
AcDbEntity
8
0
100
AcDbSpline
70
1064
71
5
72
31
73
25
74
0
42
0.000000001
43
0.0000000001
44
0.0000000001
40
0
40
0
40
0
40
0
40
0
40
0
40
0.050000000000000003
40
0.10000000000000001
40
0.15000000000000002
40
0.20000000000000001
40
0.25
40
0.29999999999999999
40
0.34999999999999998
40
0.39999999999999997
40
0.44999999999999996
40
0.49999999999999994
40
0.54999999999999993
40
0.59999999999999998
40
0.65000000000000002
40
0.70000000000000007
40
0.75000000000000011
40
0.80000000000000016
40
0.8500000000000002
40
0.90000000000000024
40
0.95000000000000029
40
1
40
1
40
1
40
1
40
1
40
1
10
55.455380723954001
20
3.0296858788526739
30
0
10
55.452207184557913
20
3.0828788002905703
30
0
10
55.444853152586489
20
3.1898450136552206
30
0
10
55.430801281769327
20
3.3520354409013189
30
0
10
55.405818601833751
20
3.5718437544638948
30
0
10
55.362747727607285
20
3.8528649138110733
30
0
10
55.305579956714396
20
4.1404335168990052
30
0
10
55.231351043267281
20
4.4345722989226424
30
0
10
55.136458436410152
20
4.7348225553282912
30
0
10
55.016879255313519
20
5.0399993435646753
30
0
10
54.868646124668544
20
5.3478885901074902
30
0
10
54.688301284035767
20
5.6549549160778803
30
0
10
54.473368810084985
20
5.9559840302655118
30
0
10
54.222930622026269
20
6.243810376457918
30
0
10
53.938073529861747
20
6.5087592829050518
30
0
10
53.62290758629409
20
6.7403563624547242
30
0
10
53.284788711848975
20
6.9292669607715416
30
0
10
52.936643547975017
20
7.0694380654965796
30
0
10
52.594625752615819
20
7.1597054586215982
30
0
10
52.286956684681819
20
7.2070174887188561
30
0
10
52.034864379654927
20
7.2259502115658929
30
0
10
51.869177077287787
20
7.2290808418428218
30
0
10
51.758347761596539
20
7.229577013684036
30
0
10
51.688950538303835
20
7.2296860128927367
30
0
10
51.655380602679692
20
7.2296860128927367
30
0
0
LINE
5
106
100
AcDbEntity
8
0
100
AcDbLine
10
61.871522678720623
20
9.4279726726108244
30
0
11
58.281355538373361
21
4.7355125177964545
31
0
0
SPLINE
5
107
100
AcDbEntity
8
0
100
AcDbSpline
70
1064
71
5
72
41
73
35
74
0
42
0.000000001
43
0.0000000001
44
0.0000000001
40
0
40
0
40
0
40
0
40
0
40
0
40
0.033333333333333333
40
0.066666666666666666
40
0.10000000000000001
40
0.13333333333333333
40
0.16666666666666666
40
0.19999999999999998
40
0.23333333333333331
40
0.26666666666666666
40
0.29999999999999999
40
0.33333333333333331
40
0.36666666666666664
40
0.39999999999999997
40
0.43333333333333329
40
0.46666666666666662
40
0.49999999999999994
40
0.53333333333333333
40
0.56666666666666665
40
0.59999999999999998
40
0.6333333333333333
40
0.66666666666666663
40
0.69999999999999996
40
0.73333333333333328
40
0.76666666666666661
40
0.79999999999999993
40
0.83333333333333326
40
0.86666666666666659
40
0.89999999999999991
40
0.93333333333333324
40
0.96666666666666656
40
1
40
1
40
1
40
1
40
1
40
1
10
63.674802425636685
20
15.253316186244987
30
0
10
63.638343239644207
20
15.248262551885396
30
0
10
63.566105440514846
20
15.236870723094574
30
0
10
63.459790473751269
20
15.215929308014884
30
0
10
63.322156803239096
20
15.180230327766338
30
0
10
63.157166899197158
20
15.122168211180787
30
0
10
62.999422229910287
20
15.049933801078089
30
0
10
62.849039161173501
20
14.962585320050348
30
0
10
62.705956433925287
20
14.85901382106894
30
0
10
62.570001036045866
20
14.738094228292672
30
0
10
62.440977895922366
20
14.59885808416872
30
0
10
62.318742241779965
20
14.440653140171205
30
0
10
62.203295165204025
20
14.263338623243454
30
0
10
62.094784314512466
20
14.067351576104571
30
0
10
61.993456221631298
20
13.85369992155548
30
0
10
61.89961960031647
20
13.62399733293848
30
0
10
61.813610406908445
20
13.380464187280234
30
0
10
61.735737230162023
20
13.126011697930714
30
0
10
61.666292053941874
20
12.864097434192837
30
0
10
61.605710632427865
20
12.598073752795074
30
0
10
61.554695160939843
20
12.330658969005002
30
0
10
61.514364179618418
20
12.063322268898066
30
0
10
61.486363418341867
20
11.795777327422135
30
0
10
61.473061462387747
20
11.525229440724942
30
0
10
61.477532819404232
20
11.246213801535433
30
0
10
61.502275050844652
20
10.953935750252224
30
0
10
61.547669049940751
20
10.648349109708718
30
0
10
61.611229369322572
20
10.335942133097856
30
0
10
61.684882697634848
20
10.037184649645104
30
0
10
61.756833783238797
20
9.7807496688138187
30
0
10
61.801508480041008
20
9.6320784443589513
30
0
10
61.824324577948822
20
9.56349663453617
30
0
10
61.844829517369533
20
9.504458040376738
30
0
10
61.862035886201888
20
9.4551284119683157
30
0
10
61.871522678720623
20
9.4279726726108244
30
0
0
SPLINE
5
108
100
AcDbEntity
8
0
100
AcDbSpline
70
1064
71
5
72
21
73
15
74
0
42
0.000000001
43
0.0000000001
44
0.0000000001
40
0
40
0
40
0
40
0
40
0
40
0
40
0.10000000000000001
40
0.20000000000000001
40
0.30000000000000004
40
0.40000000000000002
40
0.5
40
0.59999999999999998
40
0.69999999999999996
40
0.79999999999999993
40
0.89999999999999991
40
1
40
1
40
1
40
1
40
1
40
1
10
58.281355538373361
20
4.7355125177964545
30
0
10
58.236513282464408
20
4.6786781855648938
30
0
10
58.145104744714196
20
4.5645364621845506
30
0
10
58.002820147442399
20
4.3919046147150187
30
0
10
57.803144680040411
20
4.1606227353624465
30
0
10
57.538930040607333
20
3.8797186874335599
30
0
10
57.262490391961968
20
3.6202365004186623
30
0
10
56.976215906865015
20
3.3958432835410033
30
0
10
56.682230383403933
20
3.2182394920945789
30
0
10
56.382233997896975
20
3.0928014552329191
30
0
10
56.077453717643351
20
3.0192196688037214
30
0
10
55.830425214811228
20
2.9999994711678655
30
0
10
55.643525772220343
20
3.0067450770356428
30
0
10
55.518214372829711
20
3.0204966099374007
30
0
10
55.455380723954001
20
3.0296858788526739
30
0
0
LINE
5
109
100
AcDbEntity
8
0
100
AcDbLine
10
51.655380602679671
20
23.929686545861511
30
0
11
51.655380602679671
21
4.2296859171498431
31
0
0
LINE
5
110
100
AcDbEntity
8
0
100
AcDbLine
10
51.655380602679671
20
33.529686852238768
30
0
11
62.755380956928377
21
33.529686852238768
31
0
0
SPLINE
5
111
100
AcDbEntity
8
0
100
AcDbSpline
70
1064
71
5
72
26
73
20
74
0
42
0.000000001
43
0.0000000001
44
0.0000000001
40
0
40
0
40
0
40
0
40
0
40
0
40
0.066666666666666666
40
0.13333333333333333
40
0.20000000000000001
40
0.26666666666666666
40
0.33333333333333331
40
0.39999999999999997
40
0.46666666666666662
40
0.53333333333333333
40
0.59999999999999998
40
0.66666666666666663
40
0.73333333333333328
40
0.79999999999999993
40
0.86666666666666659
40
0.93333333333333324
40
1
40
1
40
1
40
1
40
1
40
1
10
62.755380956928377
20
33.529686852238768
30
0
10
62.763629385907429
20
33.383016073998164
30
0
10
62.778909826137571
20
33.074882424259229
30
0
10
62.798180719191897
20
32.568307355187486
30
0
10
62.819041505743193
20
31.801504365988631
30
0
10
62.850472018477163
20
30.678491124581775
30
0
10
62.903200785165751
20
29.380337691127977
30
0
10
62.99066101659281
20
27.906483147720625
30
0
10
63.11945445639266
20
26.273872016733321
30
0
10
63.282781200793508
20
24.529296577938975
30
0
10
63.461201825859497
20
22.747086622904742
30
0
10
63.629587174933455
20
21.014362424087043
30
0
10
63.762249842109618
20
19.420045837937138
30
0
10
63.838371102966413
20
18.043165708366981
30
0
10
63.848416219215018
20
16.93910324915678
30
0
10
63.798445586110304
20
16.129584318299994
30
0
10
63.73673592336376
20
15.689068462207782
30
0
10
63.699370892128108
20
15.443104059540971
30
0
10
63.681770077981042
20
15.311234606508906
30
0
10
63.674802425636656
20
15.253316186245012
30
0
0
LINE
5
112
100
AcDbEntity
8
0
100
AcDbLine
10
40.555380248430957
20
33.529686852238768
30
0
11
40.555380248430957
21
34.029686852238768
31
0
0
LINE
5
113
100
AcDbEntity
8
0
100
AcDbLine
10
62.755380956928377
20
33.529686852238768
30
0
11
62.755380956928377
21
34.029686852238768
31
0
0
LINE
5
114
100
AcDbEntity
8
0
100
AcDbLine
10
40.555380248430957
20
34.029686852238768
30
0
11
62.755380956928377
21
34.029686852238768
31
0
0
LINE
5
115
100
AcDbEntity
8
0
100
AcDbLine
10
4.3340443995179463
20
27.972954969149246
30
0
11
9.0163776175244159
21
31.576319790493717
31
0
0
SPLINE
5
116
100
AcDbEntity
8
0
100
AcDbSpline
70
1064
71
5
72
21
73
15
74
0
42
0.000000001
43
0.0000000001
44
0.0000000001
40
0
40
0
40
0
40
0
40
0
40
0
40
0.10000000000000001
40
0.20000000000000001
40
0.30000000000000004
40
0.40000000000000002
40
0.5
40
0.59999999999999998
40
0.69999999999999996
40
0.79999999999999993
40
0.89999999999999991
40
1
40
1
40
1
40
1
40
1
40
1
10
18.343646853978932
20
42.699465782865396
30
0
10
18.54890533583734
20
42.699465782865396
30
0
10
18.963143737577631
20
42.700368738886823
30
0
10
19.595666095465187
20
42.704427803884606
30
0
10
20.462034872362281
20
42.711267004609802
30
0
10
21.588005641161757
20
42.701177480959394
30
0
10
22.763714465912049
20
42.649476966134245
30
0
10
23.996923237050076
20
42.538978622419705
30
0
10
25.294035684588057
20
42.370359387793577
30
0
10
26.660310801813253
20
42.160616458069136
30
0
10
28.101271992332876
20
41.933834678161837
30
0
10
29.318361219494072
20
41.759245993750639
30
0
10
30.269684693127274
20
41.641427517930332
30
0
10
30.921377547998553
20
41.569961649359449
30
0
10
31.251593530294951
20
41.535998690292701
30
0
0
SPLINE
5
117
100
AcDbEntity
8
0
100
AcDbSpline
70
1064
71
5
72
26
73
20
74
0
42
0.000000001
43
0.0000000001
44
0.0000000001
40
0
40
0
40
0
40
0
40
0
40
0
40
0.066666666666666666
40
0.13333333333333333
40
0.20000000000000001
40
0.26666666666666666
40
0.33333333333333331
40
0.39999999999999997
40
0.46666666666666662
40
0.53333333333333333
40
0.59999999999999998
40
0.66666666666666663
40
0.73333333333333328
40
0.79999999999999993
40
0.86666666666666659
40
0.93333333333333324
40
1
40
1
40
1
40
1
40
1
40
1
10
31.251593530294951
20
41.535998690292701
30
0
10
31.231452798589935
20
41.507923424859122
30
0
10
31.18927449927553
20
41.448644318079594
30
0
10
31.120319758712721
20
41.350331843277537
30
0
10
31.020148618583839
20
41.195852204586288
30
0
10
30.897463287772592
20
40.943210704851033
30
0
10
30.794103103561579
20
40.617328730910891
30
0
10
30.721267524933836
20
40.222982252688233
30
0
10
30.685998298703971
20
39.774966853727562
30
0
10
30.691415584501868
20
39.292639080521965
30
0
10
30.737214102201129
20
38.793904922437783
30
0
10
30.81972149560838
20
38.289052873498981
30
0
10
30.932133970879185
20
37.776192095644305
30
0
10
31.065833428162904
20
37.245366563300678
30
0
10
31.211430978905351
20
36.681267376307254
30
0
10
31.359803411529711
20
36.066363234640654
30
0
10
31.474424360833481
20
35.520359077174966
30
0
10
31.555575965035494
20
35.074642588703746
30
0
10
31.607236345730477
20
34.760663680162793
30
0
10
31.632456345508004
20
34.59946552435958
30
0
0
LINE
5
118
100
AcDbEntity
8
0
100
AcDbLine
10
31.632456345508004
20
34.59946552435958
30
0
11
23.954837965630091
21
33.19946547967956
31
0
0
SPLINE
5
119
100
AcDbEntity
8
0
100
AcDbSpline
70
1064
71
5
72
31
73
25
74
0
42
0.000000001
43
0.0000000001
44
0.0000000001
40
0
40
0
40
0
40
0
40
0
40
0
40
0.050000000000000003
40
0.10000000000000001
40
0.15000000000000002
40
0.20000000000000001
40
0.25
40
0.29999999999999999
40
0.34999999999999998
40
0.39999999999999997
40
0.44999999999999996
40
0.49999999999999994
40
0.54999999999999993
40
0.59999999999999998
40
0.65000000000000002
40
0.70000000000000007
40
0.75000000000000011
40
0.80000000000000016
40
0.8500000000000002
40
0.90000000000000024
40
0.95000000000000029
40
1
40
1
40
1
40
1
40
1
40
1
10
23.954837965630091
20
33.19946547967956
30
0
10
23.91590547522663
20
33.235719122068801
30
0
10
23.835896088936551
20
33.307475960824043
30
0
10
23.709449281202527
20
33.412859900334603
30
0
10
23.529297167520394
20
33.549057019996376
30
0
10
23.291808643639165
20
33.713225956152122
30
0
10
23.049777426362024
20
33.872793000544092
30
0
10
22.809062261138557
20
34.029323616957747
30
0
10
22.570493780548105
20
34.184202628043757
30
0
10
22.327895266811748
20
34.338373397401185
30
0
10
22.071587072682146
20
34.492112667199713
30
0
10
21.791074008617862
20
34.644795187214513
30
0
10
21.478062177352243
20
34.794643173897789
30
0
10
21.129321423049888
20
34.938477769512517
30
0
10
20.749884136938451
20
35.071412662087134
30
0
10
20.351023018373564
20
35.18783827940765
30
0
10
19.948102376653502
20
35.282489987174792
30
0
10
19.558610028574456
20
35.351443793279081
30
0
10
19.200092306579879
20
35.393315730004218
30
0
10
18.888311910998794
20
35.410130235943349
30
0
10
18.634819803312954
20
35.409175476522691
30
0
10
18.484057142399703
20
35.403128690830812
30
0
10
18.40178146981599
20
35.400131220216871
30
0
10
18.360725790352408
20
35.399465549891019
30
0
10
18.343646853978932
20
35.399465549891019
30
0
0
SPLINE
5
120
100
AcDbEntity
8
0
100
AcDbSpline
70
1064
71
5
72
21
73
15
74
0
42
0.000000001
43
0.0000000001
44
0.0000000001
40
0
40
0
40
0
40
0
40
0
40
0
40
0.10000000000000001
40
0.20000000000000001
40
0.30000000000000004
40
0.40000000000000002
40
0.5
40
0.59999999999999998
40
0.69999999999999996
40
0.79999999999999993
40
0.89999999999999991
40
1
40
1
40
1
40
1
40
1
40
1
10
18.343646629521242
20
42.699465782865396
30
0
10
18.138388168966596
20
42.699465782865396
30
0
10
17.724149810748521
20
42.700368714930292
30
0
10
17.091627520887489
20
42.704427672178682
30
0
10
16.225258839986701
20
42.711266636898458
30
0
10
15.099288199921661
20
42.701176930347444
30
0
10
13.923579514416
20
42.649476628072293
30
0
10
12.690370897757493
20
42.538979090953987
30
0
10
11.393258629468139
20
42.37036121504908
30
0
10
10.026983731867631
20
42.160619942780912
30
0
10
8.5860228197450823
20
41.933839770852103
30
0
10
7.3689338772546771
20
41.759252039308564
30
0
10
6.4176106588310367
20
41.64143395662586
30
0
10
5.765917993591418
20
41.569968189091718
30
0
10
5.4357021109840584
20
41.536005240278058
30
0
0
SPLINE
5
121
100
AcDbEntity
8
0
100
AcDbSpline
70
1064
71
5
72
26
73
20
74
0
42
0.000000001
43
0.0000000001
44
0.0000000001
40
0
40
0
40
0
40
0
40
0
40
0
40
0.066666666666666666
40
0.13333333333333333
40
0.20000000000000001
40
0.26666666666666666
40
0.33333333333333331
40
0.39999999999999997
40
0.46666666666666662
40
0.53333333333333333
40
0.59999999999999998
40
0.66666666666666663
40
0.73333333333333328
40
0.79999999999999993
40
0.86666666666666659
40
0.93333333333333324
40
1
40
1
40
1
40
1
40
1
40
1
10
5.4357021109840584
20
41.536005240278058
30
0
10
5.4558429363745047
20
41.507929844251244
30
0
10
5.4980212614644106
20
41.448650368507884
30
0
10
5.5669755563509673
20
41.350337017547645
30
0
10
5.6671453603495667
20
41.195855755379661
30
0
10
5.7898288680007317
20
40.943212365410766
30
0
10
5.8931879655284281
20
40.617329290270888
30
0
10
5.9660234304122932
20
40.222982598104743
30
0
10
6.0012933759073386
20
39.774967691846769
30
0
10
5.9958772604455586
20
39.292640757012414
30
0
10
5.9500799144713374
20
38.793907390360182
30
0
10
5.8675733393746237
20
38.289055809587666
30
0
10
5.7551612050134127
20
37.776195088430008
30
0
10
5.6214616400765278
20
37.245369224040225
30
0
10
5.4758636692654994
20
36.681269422216971
30
0
10
5.3274906945700469
20
36.066364528666462
30
0
10
5.2128693725884201
20
35.520359781256417
30
0
10
5.1317175942974185
20
35.074642910975278
30
0
10
5.0800571536893928
20
34.760663781916392
30
0
10
5.0548371379921715
20
34.59946552435958
30
0
0
SPLINE
5
122
100
AcDbEntity
8
0
100
AcDbSpline
70
1064
71
5
72
26
73
20
74
0
42
0.000000001
43
0.0000000001
44
0.0000000001
40
0
40
0
40
0
40
0
40
0
40
0
40
0.066666666666666666
40
0.13333333333333333
40
0.20000000000000001
40
0.26666666666666666
40
0.33333333333333331
40
0.39999999999999997
40
0.46666666666666662
40
0.53333333333333333
40
0.59999999999999998
40
0.66666666666666663
40
0.73333333333333328
40
0.79999999999999993
40
0.86666666666666659
40
0.93333333333333324
40
1
40
1
40
1
40
1
40
1
40
1
10
5.0548371379921715
20
34.59946552435958
30
0
10
5.0410649189387042
20
34.511437914037579
30
0
10
5.0128374300665284
20
34.335266253502603
30
0
10
4.9684471842329421
20
34.070659690415788
30
0
10
4.9058471664269607
20
33.718242968264704
30
0
10
4.8257641038443948
20
33.284104523986286
30
0
10
4.7486092768903099
20
32.862662548566817
30
0
10
4.6788624565373418
20
32.458456257895783
30
0
10
4.6194650474916896
20
32.071682529297213
30
0
10
4.5706639887767446
20
31.695867159257904
30
0
10
4.5309636822254209
20
31.320599767034992
30
0
10
4.4979166275174638
20
30.933970034941705
30
0
10
4.4688548656848939
20
30.524819175028373
30
0
10
4.4417391023451964
20
30.085648933304654
30
0
10
4.4152908071577057
20
29.612649134068469
30
0
10
4.3887476878409037
20
29.104269080986462
30
0
10
4.3671495185781097
20
28.669192845489
30
0
10
4.3506954546936152
20
28.327148930907345
30
0
10
4.3396135170790124
20
28.092176795772808
30
0
10
4.3340443995179463
20
27.972954969149246
30
0
0
LINE
5
123
100
AcDbEntity
8
0
100
AcDbLine
10
5.4357021109840584
20
41.536005240278058
30
0
11
5.8038744599164609
21
42.783286426180652
31
0
0
LINE
5
124
100
AcDbEntity
8
0
100
AcDbLine
10
31.251593530294951
20
41.535998690292701
30
0
11
30.998387087294141
21
42.778713283152669
31
0
0
SPLINE
5
125
100
AcDbEntity
8
0
100
AcDbSpline
70
1064
71
5
72
21
73
15
74
0
42
0.000000001
43
0.0000000001
44
0.0000000001
40
0
40
0
40
0
40
0
40
0
40
0
40
0.10000000000000001
40
0.20000000000000001
40
0.30000000000000004
40
0.40000000000000002
40
0.5
40
0.59999999999999998
40
0.69999999999999996
40
0.79999999999999993
40
0.89999999999999991
40
1
40
1
40
1
40
1
40
1
40
1
10
18.343646853978932
20
43.699465782865396
30
0
10
18.546898951694658
20
43.699465782865396
30
0
10
18.957209314738517
20
43.699522995785053
30
0
10
19.584093503345265
20
43.699778203521262
30
0
10
20.443123140788916
20
43.698324509208199
30
0
10
21.558405616957707
20
43.682086283230625
30
0
10
22.719773987499817
20
43.638650674078775
30
0
10
23.933091697957039
20
43.557947707027139
30
0
10
25.203965214022084
20
43.439052158957729
30
0
10
26.537759387315571
20
43.289827129683168
30
0
10
27.940494258951343
20
43.121844984299429
30
0
10
29.122904399558529
20
42.982376832769674
30
0
10
30.046137681657243
20
42.879393722682657
30
0
10
30.678207042473613
20
42.812054142501211
30
0
10
30.998387087294141
20
42.778713283152669
30
0
0
SPLINE
5
126
100
AcDbEntity
8
0
100
AcDbSpline
70
1064
71
5
72
21
73
15
74
0
42
0.000000001
43
0.0000000001
44
0.0000000001
40
0
40
0
40
0
40
0
40
0
40
0
40
0.10000000000000001
40
0.20000000000000001
40
0.30000000000000004
40
0.40000000000000002
40
0.5
40
0.59999999999999998
40
0.69999999999999996
40
0.79999999999999993
40
0.89999999999999991
40
1
40
1
40
1
40
1
40
1
40
1
10
18.343646853978932
20
43.699465782865396
30
0
10
18.141227173458883
20
43.699465782865396
30
0
10
17.732503549838874
20
43.699541324416543
30
0
10
17.107765406441963
20
43.699879004472557
30
0
10
16.25134953243068
20
43.698640016360109
30
0
10
15.140112084819059
20
43.682809443241787
30
0
10
13.984927852658995
20
43.639864626366801
30
0
10
12.781070679971602
20
43.559656027514613
30
0
10
11.523238028320607
20
43.441149156818412
30
0
10
10.205594355497485
20
43.292260769448561
30
0
10
8.8213115863950193
20
43.124685037304417
30
0
10
7.6547815104275774
20
42.985722983975108
30
0
10
6.743757927629126
20
42.883282331188411
30
0
10
6.1199176426804938
20
42.816385577198552
30
0
10
5.8038744599164609
20
42.783286426180652
30
0
0
SPLINE
5
127
100
AcDbEntity
8
0
100
AcDbSpline
70
1064
71
5
72
21
73
15
74
0
42
0.000000001
43
0.0000000001
44
0.0000000001
40
0
40
0
40
0
40
0
40
0
40
0
40
0.10000000000000001
40
0.20000000000000001
40
0.30000000000000004
40
0.40000000000000002
40
0.5
40
0.59999999999999998
40
0.69999999999999996
40
0.79999999999999993
40
0.89999999999999991
40
1
40
1
40
1
40
1
40
1
40
1
10
9.0163776175244159
20
31.576319790493717
30
0
10
9.0727785669883119
20
31.618400478568571
30
0
10
9.1876307492627838
20
31.702607192057446
30
0
10
9.3660596374729739
20
31.829053406086206
30
0
10
9.6150364747724844
20
31.996441197647005
30
0
10
9.9379393005857271
20
32.195063587574339
30
0
10
10.264036924001749
20
32.371744510222506
30
0
10
10.585013620901774
20
32.514831333150894
30
0
10
10.894274939333576
20
32.6145042645472
30
0
10
11.189380756979286
20
32.666666913971248
30
0
10
11.472278095007628
20
32.673428069796067
30
0
10
11.691724570619488
20
32.645837772538471
30
0
10
11.854087328442894
20
32.608427219330913
30
0
10
11.961580523530614
20
32.576305775777833
30
0
10
12.015140108826367
20
32.558449957277723
30
0
0
SPLINE
5
128
100
AcDbEntity
8
0
100
AcDbSpline
70
1064
71
5
72
31
73
25
74
0
42
0.000000001
43
0.0000000001
44
0.0000000001
40
0.022556947484557353
40
0.022556947484557353
40
0.022556947484557353
40
0.022556947484557353
40
0.022556947484557353
40
0.022556947484557353
40
0.050000000000000003
40
0.10000000000000001
40
0.15000000000000002
40
0.20000000000000001
40
0.25
40
0.29999999999999999
40
0.34999999999999998
40
0.39999999999999997
40
0.44999999999999996
40
0.49999999999999994
40
0.54999999999999993
40
0.59999999999999998
40
0.65000000000000002
40
0.70000000000000007
40
0.75000000000000011
40
0.80000000000000016
40
0.8500000000000002
40
0.90000000000000024
40
0.95000000000000029
40
1
40
1
40
1
40
1
40
1
40
1
10
12.015140108826367
20
32.558449957277723
30
0
10
12.048140619755221
20
32.588156904583897
30
0
10
12.142572469231416
20
32.672338050540802
30
0
10
12.303871497051199
20
32.812400815147903
30
0
10
12.540302566805451
20
33.009999934166068
30
0
10
12.85587558850337
20
33.263054212915705
30
0
10
13.202607807966999
20
33.531911599438658
30
0
10
13.534398118758816
20
33.782521155357045
30
0
10
13.841200397139652
20
34.008013899982494
30
0
10
14.121742295597544
20
34.205686518445773
30
0
10
14.387575414635279
20
34.379105089495589
30
0
10
14.65737043940268
20
34.53535174492923
30
0
10
14.95125791861582
20
34.682300205694546
30
0
10
15.285443189348154
20
34.82605945365237
30
0
10
15.666085358050591
20
34.968031944856541
30
0
10
16.084993650662295
20
35.103010732886027
30
0
10
16.524618656504042
20
35.222529947729505
30
0
10
16.961589663508747
20
35.317403940277217
30
0
10
17.370754580713875
20
35.380703045896979
30
0
10
17.728767634116668
20
35.410292038294827
30
0
10
18.018341614277048
20
35.412375329506759
30
0
10
18.188480784769691
20
35.404539754943514
30
0
10
18.280080122977189
20
35.400387593423545
30
0
10
18.325127775011154
20
35.399465549891019
30
0
10
18.343646629521242
20
35.399465549891019
30
0
0
LWPOLYLINE
5
129
100
AcDbEntity
8
0
100
AcDbPolyline
90
4
70
1
43
0.0
10
69.309210794306324
20
-0.60462842982736009
10
43.309210794306324
20
-0.60462842982736009
10
43.309210794306324
20
-2.1046284298273554
10
69.309210794306324
20
-2.1046284298273581
0
LINE
5
130
100
AcDbEntity
8
0
100
AcDbLine
10
40.795004480235562
20
-2.1046284298273581
30
0
11
71.270023872544172
21
-2.1046284298273581
31
0
0
LINE
5
131
100
AcDbEntity
8
0
100
AcDbLine
10
69.309210794306324
20
-3.6046284298273532
30
0
11
69.309210794306324
21
-2.1046284298273581
31
0
0
LINE
5
132
100
AcDbEntity
8
0
100
AcDbLine
10
43.309210794306324
20
-3.6046284298273532
30
0
11
43.309210794306324
21
-2.1046284298273581
31
0
0
LINE
5
133
100
AcDbEntity
8
0
100
AcDbLine
10
43.309210794306324
20
-3.6046284298273532
30
0
11
69.309210794306324
21
-3.6046284298273532
31
0
0
LINE
5
134
100
AcDbEntity
8
0
100
AcDbLine
10
86.701392594182678
20
4.1406881813478389
30
0
11
86.701392594182678
21
37.726294225316813
31
0
0
SPLINE
5
135
100
AcDbEntity
8
0
100
AcDbSpline
70
1064
71
5
72
31
73
25
74
0
42
0.000000001
43
0.0000000001
44
0.0000000001
40
0
40
0
40
0
40
0
40
0
40
0
40
0.050000000000000003
40
0.10000000000000001
40
0.15000000000000002
40
0.20000000000000001
40
0.25
40
0.29999999999999999
40
0.34999999999999998
40
0.39999999999999997
40
0.44999999999999996
40
0.49999999999999994
40
0.54999999999999993
40
0.59999999999999998
40
0.65000000000000002
40
0.70000000000000007
40
0.75000000000000011
40
0.80000000000000016
40
0.8500000000000002
40
0.90000000000000024
40
0.95000000000000029
40
1
40
1
40
1
40
1
40
1
40
1
10
74.310027806867055
20
10.047118152560188
30
0
10
74.321386716569691
20
10.141247291424085
30
0
10
74.340210961607838
20
10.325725449217927
30
0
10
74.356766908460941
20
10.591101973547117
30
0
10
74.356715280395676
20
10.921280249110744
30
0
10
74.326873501844091
20
11.289536430367345
30
0
10
74.276233012783578
20
11.60804773448576
30
0
10
74.213658179697305
20
11.873535770559117
30
0
10
74.145711338090749
20
12.087358844436398
30
0
10
74.074932234408479
20
12.257472186824806
30
0
10
73.996861586482183
20
12.402439559611222
30
0
10
73.902747708202341
20
12.546410506391746
30
0
10
73.784588033731225
20
12.710372558289377
30
0
10
73.639925450923485
20
12.903818806620576
30
0
10
73.475549714952265
20
13.11809665055428
30
0
10
73.3020614970672
20
13.335241659892985
30
0
10
73.12783861753941
20
13.536986117901893
30
0
10
72.956426035915882
20
13.709895049785422
30
0
10
72.774828625810926
20
13.861120729411663
30
0
10
72.570602060905358
20
14.00042666276436
30
0
10
72.338229374010837
20
14.131767355143952
30
0
10
72.127339287643778
20
14.232641286466928
30
0
10
71.954858617951444
20
14.306220747899733
30
0
10
71.833519115249189
20
14.3543672387509
30
0
10
71.771261994860538
20
14.378212994889212
30
0
0
LINE
5
136
100
AcDbEntity
8
0
100
AcDbLine
10
74.310027806867055
20
10.047118152560188
30
0
11
86.701392594182678
21
10.047118152560188
31
0
0
LINE
5
137
100
AcDbEntity
8
0
100
AcDbLine
10
71.771261994860538
20
14.378212994889212
30
0
11
73.677001251222748
21
34.726294129573922
31
0
0
LINE
5
138
100
AcDbEntity
8
0
100
AcDbLine
10
73.677001251222748
20
34.726294129573922
30
0
11
86.701392594182678
21
34.726294129573922
31
0
0
LINE
5
139
100
AcDbEntity
8
0
100
AcDbLine
10
99.725783937142623
20
34.726294129573922
30
0
11
86.701392594182678
21
34.726294129573922
31
0
0
LINE
5
140
100
AcDbEntity
8
0
100
AcDbLine
10
101.63152319350483
20
14.378212994889212
30
0
11
99.725783937142623
21
34.726294129573922
31
0
0
SPLINE
5
141
100
AcDbEntity
8
0
100
AcDbSpline
70
1064
71
5
72
31
73
25
74
0
42
0.000000001
43
0.0000000001
44
0.0000000001
40
0
40
0
40
0
40
0
40
0
40
0
40
0.050000000000000003
40
0.10000000000000001
40
0.15000000000000002
40
0.20000000000000001
40
0.25
40
0.29999999999999999
40
0.34999999999999998
40
0.39999999999999997
40
0.44999999999999996
40
0.49999999999999994
40
0.54999999999999993
40
0.59999999999999998
40
0.65000000000000002
40
0.70000000000000007
40
0.75000000000000011
40
0.80000000000000016
40
0.8500000000000002
40
0.90000000000000024
40
0.95000000000000029
40
1
40
1
40
1
40
1
40
1
40
1
10
99.092757381498316
20
10.047118152560188
30
0
10
99.08139847179568
20
10.141247291424085
30
0
10
99.062574226755729
20
10.325725449217922
30
0
10
99.046018279894668
20
10.591101973547087
30
0
10
99.04606990794818
20
10.921280249110653
30
0
10
99.075911686494138
20
11.289536430367203
30
0
10
99.126552175558245
20
11.608047734485616
30
0
10
99.189127008655035
20
11.873535770559027
30
0
10
99.257073850273073
20
12.087358844436386
30
0
10
99.327852953962264
20
12.257472186824847
30
0
10
99.405923601889384
20
12.402439559611278
30
0
10
99.500037480165844
20
12.546410506391778
30
0
10
99.618197154633421
20
12.710372558289373
30
0
10
99.762859737439257
20
12.903818806620549
30
0
10
99.927235473411073
20
13.118096650554252
30
0
10
100.1007236912973
20
13.335241659892979
30
0
10
100.2749465708261
20
13.536986117901893
30
0
10
100.44635915244938
20
13.70989504978543
30
0
10
100.62795656255446
20
13.861120729411663
30
0
10
100.83218312746081
20
14.000426662764347
30
0
10
101.06455581435571
20
14.131767355143943
30
0
10
101.27544590072196
20
14.232641286466926
30
0
10
101.447926570414
20
14.306220747899733
30
0
10
101.5692660731162
20
14.3543672387509
30
0
10
101.63152319350483
20
14.378212994889212
30
0
0
LINE
5
142
100
AcDbEntity
8
0
100
AcDbLine
10
99.092757381498316
20
10.047118152560188
30
0
11
86.701392594182678
21
10.047118152560188
31
0
0
LINE
5
143
100
AcDbEntity
8
0
100
AcDbLine
10
68.892861493026658
20
56.500588657778394
30
0
11
68.653491286328205
21
38.292958477198553
31
0
0
LINE
5
144
100
AcDbEntity
8
0
100
AcDbLine
10
68.829517976043292
20
51.68238113112745
30
0
11
58.998337799767668
21
51.811628683255066
31
0
0
LINE
5
145
100
AcDbEntity
8
0
100
AcDbLine
10
58.998337799767668
20
51.811628683255066
30
0
11
58.520841127998203
21
52.5577847633093
31
0
0
LINE
5
146
100
AcDbEntity
8
0
100
AcDbLine
10
58.520841127998203
20
52.5577847633093
30
0
11
68.839243255011539
21
52.422131851565986
31
0
0
LINE
5
147
100
AcDbEntity
8
0
100
AcDbLine
10
58.998337799767668
20
51.811628683255066
30
0
11
57.629486886093765
21
49.36529499374619
31
0
0
SPLINE
5
148
100
AcDbEntity
8
0
100
AcDbSpline
70
1064
71
5
72
46
73
40
74
0
42
0.000000001
43
0.0000000001
44
0.0000000001
40
0
40
0
40
0
40
0
40
0
40
0
40
0.028571428571428571
40
0.057142857142857141
40
0.085714285714285715
40
0.11428571428571428
40
0.14285714285714285
40
0.17142857142857143
40
0.20000000000000001
40
0.22857142857142859
40
0.25714285714285717
40
0.28571428571428575
40
0.31428571428571433
40
0.34285714285714292
40
0.3714285714285715
40
0.40000000000000008
40
0.42857142857142866
40
0.45714285714285724
40
0.48571428571428582
40
0.51428571428571435
40
0.54285714285714293
40
0.57142857142857151
40
0.60000000000000009
40
0.62857142857142867
40
0.65714285714285725
40
0.68571428571428583
40
0.71428571428571441
40
0.74285714285714299
40
0.77142857142857157
40
0.80000000000000016
40
0.82857142857142874
40
0.85714285714285732
40
0.8857142857142859
40
0.91428571428571448
40
0.94285714285714306
40
0.97142857142857164
40
1
40
1
40
1
40
1
40
1
40
1
10
57.629486886093765
20
49.36529499374619
30
0
10
57.685396959275828
20
49.373311379094048
30
0
10
57.79875468680914
20
49.388572210493393
30
0
10
57.973404073115418
20
49.409147807839631
30
0
10
58.21550733531997
20
49.431943027077381
30
0
10
58.533466890408974
20
49.452214358344342
30
0
10
58.866428394848626
20
49.462822728668492
30
0
10
59.213653835573858
20
49.460977739878928
30
0
10
59.573786948076446
20
49.441942130317969
30
0
10
59.94499463079223
20
49.399569276904785
30
0
10
60.325202687559944
20
49.327164424746712
30
0
10
60.712310836463608
20
49.218255198883064
30
0
10
61.104383936841614
20
49.067360049873805
30
0
10
61.499931182310668
20
48.870875636731697
30
0
10
61.897726729365615
20
48.627336371037757
30
0
10
62.296417877280248
20
48.337391489943435
30
0
10
62.694204654602309
20
48.003884688845901
30
0
10
63.088478529272315
20
47.631917694546701
30
0
10
63.475495597854312
20
47.228918136706397
30
0
10
63.849979799915872
20
46.804772316894926
30
0
10
64.204890323423399
20
46.371809160441678
30
0
10
64.532968347422653
20
45.943098255791561
30
0
10
64.828186276149438
20
45.530822819314182
30
0
10
65.087180339858506
20
45.144725859372748
30
0
10
65.310845325062857
20
44.790276027483131
30
0
10
65.505562370410487
20
44.467480147182826
30
0
10
65.685405647896459
20
44.168053510243482
30
0
10
65.871195671142331
20
43.87769382122449
30
0
10
66.084743637135148
20
43.583863108531503
30
0
10
66.344144664809619
20
43.285269184886424
30
0
10
66.658837933995287
20
42.994233436317344
30
0
10
67.024282930335801
20
42.758559116966389
30
0
10
67.416612665712051
20
42.594961304104956
30
0
10
67.802389529332928
20
42.497035103212646
30
0
10
68.146617032372816
20
42.44633042750602
30
0
10
68.420503299515346
20
42.420782126919988
30
0
10
68.573274246829669
20
42.408765200317539
30
0
10
68.65315280567404
20
42.403505303554496
30
0
10
68.691816427201033
20
42.401820130271879
30
0
10
68.707504185121493
20
42.401435049006814
30
0
0
LINE
5
149
100
AcDbEntity
8
0
100
AcDbLine
10
79.157645382024853
20
52.286478939822686
30
0
11
68.839243255011525
21
52.422131851565986
31
0
0
LINE
5
150
100
AcDbEntity
8
0
100
AcDbLine
10
78.660698152318901
20
51.553133578999834
30
0
11
79.157645382024853
21
52.286478939822686
31
0
0
LINE
5
151
100
AcDbEntity
8
0
100
AcDbLine
10
69.434398091569577
20
42.400162838461448
30
0
11
67.980610278673453
21
42.40270725955218
31
0
0
LINE
5
152
100
AcDbEntity
8
0
100
AcDbLine
10
78.660698152318901
20
51.553133578999834
30
0
11
79.964764672414489
21
49.071659852470006
31
0
0
LINE
5
153
100
AcDbEntity
8
0
100
AcDbLine
10
72.209062637328245
20
44.138105179048225
30
0
11
69.562501669804661
21
41.966506860759125
31
0
0
LINE
5
154
100
AcDbEntity
8
0
100
AcDbLine
10
68.829517976043277
20
51.68238113112745
30
0
11
78.660698152318901
21
51.553133578999834
31
0
0
SPLINE
5
155
100
AcDbEntity
8
0
100
AcDbSpline
70
1064
71
5
72
46
73
40
74
0
42
0.000000001
43
0.0000000001
44
0.0000000001
40
0
40
0
40
0
40
0
40
0
40
0
40
0.028571428571428571
40
0.057142857142857141
40
0.085714285714285715
40
0.11428571428571428
40
0.14285714285714285
40
0.17142857142857143
40
0.20000000000000001
40
0.22857142857142859
40
0.25714285714285717
40
0.28571428571428575
40
0.31428571428571433
40
0.34285714285714292
40
0.3714285714285715
40
0.40000000000000008
40
0.42857142857142866
40
0.45714285714285724
40
0.48571428571428582
40
0.51428571428571435
40
0.54285714285714293
40
0.57142857142857151
40
0.60000000000000009
40
0.62857142857142867
40
0.65714285714285725
40
0.68571428571428583
40
0.71428571428571441
40
0.74285714285714299
40
0.77142857142857157
40
0.80000000000000016
40
0.82857142857142874
40
0.85714285714285732
40
0.8857142857142859
40
0.91428571428571448
40
0.94285714285714306
40
0.97142857142857164
40
1
40
1
40
1
40
1
40
1
40
1
10
79.964764672414489
20
49.071659852470006
30
0
10
79.909084663964251
20
49.081143278868296
30
0
10
79.796167303902564
20
49.099378880402739
30
0
10
79.622119187266009
20
49.124538698350207
30
0
10
79.380698858881516
20
49.153690655982587
30
0
10
79.063382104312922
20
49.182313772739498
30
0
10
78.730814557097261
20
49.201671652200709
30
0
10
78.383660618869698
20
49.208955459074339
30
0
10
78.023151548228896
20
49.199393914319991
30
0
10
77.65095822553792
20
49.166794329067059
30
0
10
77.268978132676537
20
49.104409733973057
30
0
10
76.879140674375776
20
49.005714777005366
30
0
10
76.48323621885153
20
48.865178930585202
30
0
10
76.082660329551018
20
48.67916090749334
30
0
10
75.678599897676477
20
48.446163399817145
30
0
10
75.272424224143748
20
48.166799859375381
30
0
10
74.866007415799885
20
47.843865679569141
30
0
10
74.462091221702863
20
47.482392248672596
30
0
10
74.064613515205536
20
47.089706206350961
30
0
10
73.679108432786208
20
46.675551735786129
30
0
10
73.312938466378597
20
46.252068406426893
30
0
10
72.973703512673509
20
45.83213046365163
30
0
10
72.667749366993391
20
45.427758454599797
30
0
10
72.398694769024416
20
45.048603590694761
30
0
10
72.165789006068664
20
44.700156156332397
30
0
10
71.962653324255513
20
44.382590725497593
30
0
10
71.775000620323098
20
44.087995447069098
30
0
10
71.581641585540922
20
43.802620316034158
30
0
10
71.360442952252555
20
43.514505085383362
30
0
10
71.093281885286729
20
43.222833714326526
30
0
10
70.771046382190292
20
42.940171475673971
30
0
10
70.399532080709832
20
42.714185737302479
30
0
10
70.003037140439716
20
42.560958363854972
30
0
10
69.614819238425284
20
42.473207638035227
30
0
10
69.269377736710737
20
42.431569832129014
30
0
10
68.994914492355136
20
42.413230516710591
30
0
10
68.841880433251092
20
42.405233916030348
30
0
10
68.761891204717173
20
42.402075752712534
30
0
10
68.723196644515369
20
42.40140758404646
30
0
10
68.707504185121508
20
42.401435049006814
30
0
0
ENDSEC
0
SECTION
2
OBJECTS
0
DICTIONARY
5
C
100
AcDbDictionary
3
ACAD_GROUP
350
D
3
ACAD_MLINESTYLE
350
17
0
DICTIONARY
5
D
100
AcDbDictionary
0
DICTIONARY
5
1A
330
C
100
AcDbDictionary
0
DICTIONARY
5
17
100
AcDbDictionary
0
ENDSEC
0
EOF
